M48
; DRILL file KiCad 10.0.0 date 2026-04-25T02:07:32
; FORMAT={-:-/ absolute / metric / decimal}
; #@! TF.CreationDate,2026-04-25T02:07:32-07:00
; #@! TF.GenerationSoftware,Kicad,Pcbnew,10.0.0
; #@! TF.FileFunction,Plated,1,2,PTH
FMAT,2
METRIC
; #@! TA.AperFunction,Plated,PTH,ViaDrill
T1C0.300
; #@! TA.AperFunction,Plated,PTH,ComponentDrill
T2C0.900
; #@! TA.AperFunction,Plated,PTH,ComponentDrill
T3C1.000
%
G90
G05
T1
X151.92Y-87.24
X151.92Y-88.42
X151.95Y-86.02
X152.04Y-82.86
X152.07Y-84.04
X154.779Y-90.951
X155.4Y-83.16
X156.07Y-83.01
X156.27Y-88.38
X156.85Y-93.02
X157.12Y-83.93
X157.51Y-86.47
X157.59Y-87.16
X157.78Y-84.68
X157.82Y-85.36
X158.052Y-83.438
X158.12Y-92.27
X159.11Y-85.7
X160.16Y-80.29
T2
X154.23Y-76.2
X154.23Y-78.74
X159.19Y-76.24
X159.19Y-78.78
T3
X154.46Y-95.29
X157.0Y-95.29
X159.54Y-95.29
M30
