%TF.GenerationSoftware,KiCad,Pcbnew,10.0.0*%
%TF.CreationDate,2026-04-25T02:07:18-07:00*%
%TF.ProjectId,IR Sensor,49522053-656e-4736-9f72-2e6b69636164,rev?*%
%TF.SameCoordinates,Original*%
%TF.FileFunction,Copper,L2,Bot*%
%TF.FilePolarity,Positive*%
%FSLAX46Y46*%
G04 Gerber Fmt 4.6, Leading zero omitted, Abs format (unit mm)*
G04 Created by KiCad (PCBNEW 10.0.0) date 2026-04-25 02:07:18*
%MOMM*%
%LPD*%
G01*
G04 APERTURE LIST*
G04 Aperture macros list*
%AMRoundRect*
0 Rectangle with rounded corners*
0 $1 Rounding radius*
0 $2 $3 $4 $5 $6 $7 $8 $9 X,Y pos of 4 corners*
0 Add a 4 corners polygon primitive as box body*
4,1,4,$2,$3,$4,$5,$6,$7,$8,$9,$2,$3,0*
0 Add four circle primitives for the rounded corners*
1,1,$1+$1,$2,$3*
1,1,$1+$1,$4,$5*
1,1,$1+$1,$6,$7*
1,1,$1+$1,$8,$9*
0 Add four rect primitives between the rounded corners*
20,1,$1+$1,$2,$3,$4,$5,0*
20,1,$1+$1,$4,$5,$6,$7,0*
20,1,$1+$1,$6,$7,$8,$9,0*
20,1,$1+$1,$8,$9,$2,$3,0*%
G04 Aperture macros list end*
%TA.AperFunction,ComponentPad*%
%ADD10R,1.700000X1.700000*%
%TD*%
%TA.AperFunction,ComponentPad*%
%ADD11C,1.700000*%
%TD*%
%TA.AperFunction,ComponentPad*%
%ADD12R,1.800000X1.800000*%
%TD*%
%TA.AperFunction,ComponentPad*%
%ADD13C,1.800000*%
%TD*%
%TA.AperFunction,SMDPad,CuDef*%
%ADD14RoundRect,0.150000X0.725000X0.150000X-0.725000X0.150000X-0.725000X-0.150000X0.725000X-0.150000X0*%
%TD*%
%TA.AperFunction,ViaPad*%
%ADD15C,0.600000*%
%TD*%
%TA.AperFunction,Conductor*%
%ADD16C,0.200000*%
%TD*%
G04 APERTURE END LIST*
D10*
%TO.P,J1,1,Pin_1_1*%
%TO.N,+5V*%
X159540000Y-95290000D03*
D11*
%TO.P,J1,2,Pin_2_2*%
%TO.N,GND*%
X157000000Y-95290000D03*
%TO.P,J1,3,Pin_3_3*%
%TO.N,/O{slash}P*%
X154460000Y-95290000D03*
%TD*%
D12*
%TO.P,D1,1,K_1*%
%TO.N,Net-(D1-K)*%
X154230000Y-78740000D03*
D13*
%TO.P,D1,2,A_2*%
%TO.N,+5V*%
X154230000Y-76200000D03*
%TD*%
D12*
%TO.P,D2,1,K_1*%
%TO.N,+5V*%
X159190000Y-76240000D03*
D13*
%TO.P,D2,2,A_2*%
%TO.N,Net-(D2-A)*%
X159190000Y-78780000D03*
%TD*%
D14*
%TO.P,U1 (LM393),1*%
%TO.N,Net-(R4-Pad1)*%
X159055000Y-81245000D03*
%TO.P,U1 (LM393),2,-_2*%
%TO.N,Net-(U1A--)*%
X159055000Y-82515000D03*
%TO.P,U1 (LM393),3,+_3*%
%TO.N,Net-(D2-A)*%
X159055000Y-83785000D03*
%TO.P,U1 (LM393),4,V-_4*%
%TO.N,GND*%
X159055000Y-85055000D03*
%TO.P,U1 (LM393),5,+_5*%
%TO.N,unconnected-(U1B-+-Pad5)*%
X153905000Y-85055000D03*
%TO.P,U1 (LM393),6,-_6*%
%TO.N,unconnected-(U1B---Pad6)*%
X153905000Y-83785000D03*
%TO.P,U1 (LM393),7*%
%TO.N,unconnected-(U1-Pad7)*%
X153905000Y-82515000D03*
%TO.P,U1 (LM393),8,V+_8*%
%TO.N,+5V*%
X153905000Y-81245000D03*
%TD*%
D15*
%TO.N,+5V*%
X160160000Y-80290000D03*
%TO.N,Net-(U1A--)*%
X158120000Y-92270000D03*
%TO.N,GND*%
X151920000Y-88420000D03*
X157120000Y-83930000D03*
X152070000Y-84040000D03*
X154779417Y-90951477D03*
X157510000Y-86470000D03*
X157780000Y-84680000D03*
X151950000Y-86020000D03*
X156850000Y-93020000D03*
X157820000Y-85360000D03*
X157590000Y-87160000D03*
X151920000Y-87240000D03*
X159110000Y-85700000D03*
X155400000Y-83160000D03*
X156070000Y-83010000D03*
X152040000Y-82860000D03*
%TO.N,Net-(R4-Pad1)*%
X156270000Y-88380000D03*
%TO.N,Net-(D2-A)*%
X158052165Y-83438326D03*
%TD*%
%TO.N,+5V*%
D16*
X153030000Y-80370000D02*
X153905000Y-81245000D01*
X154230000Y-76200000D02*
X153030000Y-77400000D01*
X153030000Y-77400000D02*
X153030000Y-80370000D01*
X160160000Y-80290000D02*
X154860000Y-80290000D01*
X154860000Y-80290000D02*
X153905000Y-81245000D01*
%TO.N,Net-(U1A--)*%
X160230000Y-90160000D02*
X160230000Y-83444448D01*
X159300552Y-82515000D02*
X159055000Y-82515000D01*
X158120000Y-92270000D02*
X160230000Y-90160000D01*
X160230000Y-83444448D02*
X159300552Y-82515000D01*
%TO.N,GND*%
X156675000Y-95365000D02*
X157750000Y-96440000D01*
X156510000Y-95200000D02*
X156675000Y-95365000D01*
%TO.N,Net-(R4-Pad1)*%
X155920000Y-88030000D02*
X155920000Y-84050000D01*
X155920000Y-84050000D02*
X158725000Y-81245000D01*
X158725000Y-81245000D02*
X159055000Y-81245000D01*
X156270000Y-88380000D02*
X155920000Y-88030000D01*
%TO.N,Net-(D2-A)*%
X158052165Y-83438326D02*
X158708326Y-83438326D01*
X158708326Y-83438326D02*
X159055000Y-83785000D01*
%TD*%
%TA.AperFunction,Conductor*%
%TO.N,GND*%
G36*
X157623321Y-80910185D02*
G01*
X157669076Y-80962989D01*
X157679899Y-81024235D01*
X157679500Y-81029289D01*
X157679500Y-81389902D01*
X157659815Y-81456941D01*
X157643181Y-81477583D01*
X156390078Y-82730686D01*
X155551286Y-83569478D01*
X155551284Y-83569480D01*
X155503836Y-83616928D01*
X155490464Y-83630300D01*
X155429140Y-83663784D01*
X155359448Y-83658799D01*
X155303515Y-83616928D01*
X155279165Y-83552345D01*
X155277598Y-83532432D01*
X155277597Y-83532426D01*
X155231745Y-83374606D01*
X155231744Y-83374603D01*
X155231744Y-83374602D01*
X155148081Y-83233135D01*
X155148078Y-83233132D01*
X155143298Y-83226969D01*
X155145750Y-83225066D01*
X155119155Y-83176421D01*
X155124104Y-83106726D01*
X155144940Y-83074304D01*
X155143298Y-83073031D01*
X155148075Y-83066870D01*
X155148081Y-83066865D01*
X155231744Y-82925398D01*
X155277598Y-82767569D01*
X155280500Y-82730694D01*
X155280500Y-82299306D01*
X155277598Y-82262431D01*
X155231744Y-82104602D01*
X155148081Y-81963135D01*
X155148078Y-81963132D01*
X155143298Y-81956969D01*
X155145750Y-81955066D01*
X155119155Y-81906421D01*
X155124104Y-81836726D01*
X155144940Y-81804304D01*
X155143298Y-81803031D01*
X155148075Y-81796870D01*
X155148081Y-81796865D01*
X155231744Y-81655398D01*
X155277598Y-81497569D01*
X155280500Y-81460694D01*
X155280500Y-81029306D01*
X155280101Y-81024235D01*
X155294462Y-80955857D01*
X155343511Y-80906098D01*
X155403718Y-80890500D01*
X157556282Y-80890500D01*
X157623321Y-80910185D01*
G37*
%TD.AperFunction*%
%TA.AperFunction,Conductor*%
G36*
X165322539Y-72060185D02*
G01*
X165368294Y-72112989D01*
X165379500Y-72164500D01*
X165379500Y-99045500D01*
X165359815Y-99112539D01*
X165307011Y-99158294D01*
X165255500Y-99169500D01*
X148804500Y-99169500D01*
X148737461Y-99149815D01*
X148691706Y-99097011D01*
X148680500Y-99045500D01*
X148680500Y-97728543D01*
X149139499Y-97728543D01*
X149177947Y-97921829D01*
X149177950Y-97921839D01*
X149253364Y-98103907D01*
X149253371Y-98103920D01*
X149362860Y-98267781D01*
X149362863Y-98267785D01*
X149502214Y-98407136D01*
X149502218Y-98407139D01*
X149666079Y-98516628D01*
X149666092Y-98516635D01*
X149848160Y-98592049D01*
X149848165Y-98592051D01*
X149848169Y-98592051D01*
X149848170Y-98592052D01*
X150041456Y-98630500D01*
X150041459Y-98630500D01*
X150238543Y-98630500D01*
X150368582Y-98604632D01*
X150431835Y-98592051D01*
X150613914Y-98516632D01*
X150777782Y-98407139D01*
X150917139Y-98267782D01*
X151026632Y-98103914D01*
X151102051Y-97921835D01*
X151140500Y-97728543D01*
X162739499Y-97728543D01*
X162777947Y-97921829D01*
X162777950Y-97921839D01*
X162853364Y-98103907D01*
X162853371Y-98103920D01*
X162962860Y-98267781D01*
X162962863Y-98267785D01*
X163102214Y-98407136D01*
X163102218Y-98407139D01*
X163266079Y-98516628D01*
X163266092Y-98516635D01*
X163448160Y-98592049D01*
X163448165Y-98592051D01*
X163448169Y-98592051D01*
X163448170Y-98592052D01*
X163641456Y-98630500D01*
X163641459Y-98630500D01*
X163838543Y-98630500D01*
X163968582Y-98604632D01*
X164031835Y-98592051D01*
X164213914Y-98516632D01*
X164377782Y-98407139D01*
X164517139Y-98267782D01*
X164626632Y-98103914D01*
X164702051Y-97921835D01*
X164740500Y-97728541D01*
X164740500Y-97531459D01*
X164740500Y-97531456D01*
X164702052Y-97338170D01*
X164702051Y-97338169D01*
X164702051Y-97338165D01*
X164702049Y-97338160D01*
X164626635Y-97156092D01*
X164626628Y-97156079D01*
X164517139Y-96992218D01*
X164517136Y-96992214D01*
X164377785Y-96852863D01*
X164377781Y-96852860D01*
X164213920Y-96743371D01*
X164213907Y-96743364D01*
X164031839Y-96667950D01*
X164031829Y-96667947D01*
X163838543Y-96629500D01*
X163838541Y-96629500D01*
X163641459Y-96629500D01*
X163641457Y-96629500D01*
X163448170Y-96667947D01*
X163448160Y-96667950D01*
X163266092Y-96743364D01*
X163266079Y-96743371D01*
X163102218Y-96852860D01*
X163102214Y-96852863D01*
X162962863Y-96992214D01*
X162962860Y-96992218D01*
X162853371Y-97156079D01*
X162853364Y-97156092D01*
X162777950Y-97338160D01*
X162777947Y-97338170D01*
X162739500Y-97531456D01*
X162739500Y-97531459D01*
X162739500Y-97728541D01*
X162739500Y-97728543D01*
X162739499Y-97728543D01*
X151140500Y-97728543D01*
X151140500Y-97728541D01*
X151140500Y-97531459D01*
X151140500Y-97531456D01*
X151102052Y-97338170D01*
X151102051Y-97338169D01*
X151102051Y-97338165D01*
X151102049Y-97338160D01*
X151026635Y-97156092D01*
X151026628Y-97156079D01*
X150917139Y-96992218D01*
X150917136Y-96992214D01*
X150777785Y-96852863D01*
X150777781Y-96852860D01*
X150613920Y-96743371D01*
X150613907Y-96743364D01*
X150431839Y-96667950D01*
X150431829Y-96667947D01*
X150238543Y-96629500D01*
X150238541Y-96629500D01*
X150041459Y-96629500D01*
X150041457Y-96629500D01*
X149848170Y-96667947D01*
X149848160Y-96667950D01*
X149666092Y-96743364D01*
X149666079Y-96743371D01*
X149502218Y-96852860D01*
X149502214Y-96852863D01*
X149362863Y-96992214D01*
X149362860Y-96992218D01*
X149253371Y-97156079D01*
X149253364Y-97156092D01*
X149177950Y-97338160D01*
X149177947Y-97338170D01*
X149139500Y-97531456D01*
X149139500Y-97531459D01*
X149139500Y-97728541D01*
X149139500Y-97728543D01*
X149139499Y-97728543D01*
X148680500Y-97728543D01*
X148680500Y-95183713D01*
X153109500Y-95183713D01*
X153109500Y-95396286D01*
X153142753Y-95606239D01*
X153208444Y-95808414D01*
X153304951Y-95997820D01*
X153429890Y-96169786D01*
X153580213Y-96320109D01*
X153752179Y-96445048D01*
X153752181Y-96445049D01*
X153752184Y-96445051D01*
X153941588Y-96541557D01*
X154143757Y-96607246D01*
X154353713Y-96640500D01*
X154353714Y-96640500D01*
X154566286Y-96640500D01*
X154566287Y-96640500D01*
X154776243Y-96607246D01*
X154978412Y-96541557D01*
X155167816Y-96445051D01*
X155254138Y-96382335D01*
X155339786Y-96320109D01*
X155339788Y-96320106D01*
X155339792Y-96320104D01*
X155490104Y-96169792D01*
X155490106Y-96169788D01*
X155490109Y-96169786D01*
X155615048Y-95997820D01*
X155615047Y-95997820D01*
X155615051Y-95997816D01*
X155711557Y-95808412D01*
X155777246Y-95606243D01*
X155810500Y-95396287D01*
X155810500Y-95183713D01*
X155777246Y-94973757D01*
X155711557Y-94771588D01*
X155615051Y-94582184D01*
X155490104Y-94410208D01*
X155472031Y-94392135D01*
X158189500Y-94392135D01*
X158189500Y-96187870D01*
X158189501Y-96187876D01*
X158195908Y-96247483D01*
X158246202Y-96382328D01*
X158246206Y-96382335D01*
X158332452Y-96497544D01*
X158332455Y-96497547D01*
X158447664Y-96583793D01*
X158447671Y-96583797D01*
X158582517Y-96634091D01*
X158582516Y-96634091D01*
X158589444Y-96634835D01*
X158642127Y-96640500D01*
X160437872Y-96640499D01*
X160497483Y-96634091D01*
X160632331Y-96583796D01*
X160747546Y-96497546D01*
X160833796Y-96382331D01*
X160884091Y-96247483D01*
X160890500Y-96187873D01*
X160890499Y-94392128D01*
X160884091Y-94332517D01*
X160833796Y-94197669D01*
X160833795Y-94197668D01*
X160833793Y-94197664D01*
X160747547Y-94082455D01*
X160747544Y-94082452D01*
X160632335Y-93996206D01*
X160632328Y-93996202D01*
X160497482Y-93945908D01*
X160497483Y-93945908D01*
X160437883Y-93939501D01*
X160437881Y-93939500D01*
X160437873Y-93939500D01*
X160437864Y-93939500D01*
X158642129Y-93939500D01*
X158642123Y-93939501D01*
X158582516Y-93945908D01*
X158447671Y-93996202D01*
X158447664Y-93996206D01*
X158332455Y-94082452D01*
X158332452Y-94082455D01*
X158246206Y-94197664D01*
X158246202Y-94197671D01*
X158195908Y-94332517D01*
X158189501Y-94392116D01*
X158189501Y-94392123D01*
X158189500Y-94392135D01*
X155472031Y-94392135D01*
X155339792Y-94259896D01*
X155339786Y-94259890D01*
X155167820Y-94134951D01*
X154978414Y-94038444D01*
X154978413Y-94038443D01*
X154978412Y-94038443D01*
X154776243Y-93972754D01*
X154776241Y-93972753D01*
X154776240Y-93972753D01*
X154614957Y-93947208D01*
X154566287Y-93939500D01*
X154353713Y-93939500D01*
X154305042Y-93947208D01*
X154143760Y-93972753D01*
X153941585Y-94038444D01*
X153752179Y-94134951D01*
X153580213Y-94259890D01*
X153429890Y-94410213D01*
X153304951Y-94582179D01*
X153208444Y-94771585D01*
X153142753Y-94973760D01*
X153109500Y-95183713D01*
X148680500Y-95183713D01*
X148680500Y-80449054D01*
X152429498Y-80449054D01*
X152429499Y-80449057D01*
X152470423Y-80601785D01*
X152495084Y-80644499D01*
X152549480Y-80738716D01*
X152553544Y-80742780D01*
X152560547Y-80754555D01*
X152567475Y-80781585D01*
X152577540Y-80807617D01*
X152576587Y-80817135D01*
X152577895Y-80822236D01*
X152575292Y-80830083D01*
X152573046Y-80852532D01*
X152532402Y-80992426D01*
X152532401Y-80992432D01*
X152529500Y-81029298D01*
X152529500Y-81460701D01*
X152532401Y-81497567D01*
X152532402Y-81497573D01*
X152578254Y-81655393D01*
X152578255Y-81655396D01*
X152661917Y-81796862D01*
X152666702Y-81803031D01*
X152664256Y-81804927D01*
X152690857Y-81853642D01*
X152685873Y-81923334D01*
X152665069Y-81955703D01*
X152666702Y-81956969D01*
X152661917Y-81963137D01*
X152578255Y-82104603D01*
X152578254Y-82104606D01*
X152532402Y-82262426D01*
X152532401Y-82262432D01*
X152529500Y-82299298D01*
X152529500Y-82730701D01*
X152532401Y-82767567D01*
X152532402Y-82767573D01*
X152578254Y-82925393D01*
X152578255Y-82925396D01*
X152578256Y-82925398D01*
X152615681Y-82988681D01*
X152661917Y-83066862D01*
X152666702Y-83073031D01*
X152664256Y-83074927D01*
X152690857Y-83123642D01*
X152685873Y-83193334D01*
X152665069Y-83225703D01*
X152666702Y-83226969D01*
X152661917Y-83233137D01*
X152578255Y-83374603D01*
X152578254Y-83374606D01*
X152532402Y-83532426D01*
X152532401Y-83532432D01*
X152529500Y-83569298D01*
X152529500Y-84000701D01*
X152532401Y-84037567D01*
X152532402Y-84037573D01*
X152578254Y-84195393D01*
X152578255Y-84195396D01*
X152661917Y-84336862D01*
X152666702Y-84343031D01*
X152664256Y-84344927D01*
X152690857Y-84393642D01*
X152685873Y-84463334D01*
X152665069Y-84495703D01*
X152666702Y-84496969D01*
X152661917Y-84503137D01*
X152578255Y-84644603D01*
X152578254Y-84644606D01*
X152532402Y-84802426D01*
X152532401Y-84802432D01*
X152529500Y-84839298D01*
X152529500Y-85270701D01*
X152532401Y-85307567D01*
X152532402Y-85307573D01*
X152578254Y-85465393D01*
X152578255Y-85465396D01*
X152661917Y-85606862D01*
X152661923Y-85606870D01*
X152778129Y-85723076D01*
X152778133Y-85723079D01*
X152778135Y-85723081D01*
X152919602Y-85806744D01*
X152961224Y-85818836D01*
X153077426Y-85852597D01*
X153077429Y-85852597D01*
X153077431Y-85852598D01*
X153114306Y-85855500D01*
X153114314Y-85855500D01*
X154695686Y-85855500D01*
X154695694Y-85855500D01*
X154732569Y-85852598D01*
X154732571Y-85852597D01*
X154732573Y-85852597D01*
X154774191Y-85840505D01*
X154890398Y-85806744D01*
X155031865Y-85723081D01*
X155031870Y-85723076D01*
X155107819Y-85647128D01*
X155169142Y-85613643D01*
X155238834Y-85618627D01*
X155294767Y-85660499D01*
X155319184Y-85725963D01*
X155319500Y-85734809D01*
X155319500Y-87943330D01*
X155319499Y-87943348D01*
X155319499Y-88109054D01*
X155319498Y-88109054D01*
X155360424Y-88261789D01*
X155360425Y-88261790D01*
X155382400Y-88299851D01*
X155382412Y-88299871D01*
X155383031Y-88300943D01*
X155439480Y-88398716D01*
X155446095Y-88405331D01*
X155453893Y-88418244D01*
X155459106Y-88438030D01*
X155468911Y-88455985D01*
X155469362Y-88458151D01*
X155500261Y-88613491D01*
X155500264Y-88613501D01*
X155560602Y-88759172D01*
X155560609Y-88759185D01*
X155648210Y-88890288D01*
X155648213Y-88890292D01*
X155759707Y-89001786D01*
X155759711Y-89001789D01*
X155890814Y-89089390D01*
X155890827Y-89089397D01*
X156036498Y-89149735D01*
X156036503Y-89149737D01*
X156191153Y-89180499D01*
X156191156Y-89180500D01*
X156191158Y-89180500D01*
X156348844Y-89180500D01*
X156348845Y-89180499D01*
X156503497Y-89149737D01*
X156649179Y-89089394D01*
X156780289Y-89001789D01*
X156891789Y-88890289D01*
X156979394Y-88759179D01*
X157039737Y-88613497D01*
X157070500Y-88458842D01*
X157070500Y-88301158D01*
X157070500Y-88301155D01*
X157070499Y-88301153D01*
X157039738Y-88146510D01*
X157039737Y-88146503D01*
X157039735Y-88146498D01*
X156979397Y-88000827D01*
X156979390Y-88000814D01*
X156891789Y-87869711D01*
X156891786Y-87869707D01*
X156780292Y-87758213D01*
X156780288Y-87758210D01*
X156649185Y-87670609D01*
X156649170Y-87670601D01*
X156597046Y-87649010D01*
X156542643Y-87605168D01*
X156520579Y-87538874D01*
X156520500Y-87534450D01*
X156520500Y-84350096D01*
X156540185Y-84283057D01*
X156556815Y-84262419D01*
X157111658Y-83707575D01*
X157172981Y-83674091D01*
X157242673Y-83679075D01*
X157298606Y-83720947D01*
X157313900Y-83747805D01*
X157342767Y-83817498D01*
X157342774Y-83817511D01*
X157430375Y-83948614D01*
X157430378Y-83948618D01*
X157541875Y-84060115D01*
X157645055Y-84129057D01*
X157672986Y-84147720D01*
X157672992Y-84147722D01*
X157678357Y-84150590D01*
X157677463Y-84152261D01*
X157725008Y-84190555D01*
X157729902Y-84198181D01*
X157811914Y-84336858D01*
X157811923Y-84336870D01*
X157928129Y-84453076D01*
X157928133Y-84453079D01*
X157928135Y-84453081D01*
X158069602Y-84536744D01*
X158111224Y-84548836D01*
X158227426Y-84582597D01*
X158227429Y-84582597D01*
X158227431Y-84582598D01*
X158264306Y-84585500D01*
X159505500Y-84585500D01*
X159572539Y-84605185D01*
X159618294Y-84657989D01*
X159629500Y-84709500D01*
X159629500Y-89859902D01*
X159609815Y-89926941D01*
X159593181Y-89947583D01*
X158105339Y-91435425D01*
X158044016Y-91468910D01*
X158041850Y-91469361D01*
X157886508Y-91500261D01*
X157886498Y-91500264D01*
X157740827Y-91560602D01*
X157740814Y-91560609D01*
X157609711Y-91648210D01*
X157609707Y-91648213D01*
X157498213Y-91759707D01*
X157498210Y-91759711D01*
X157410609Y-91890814D01*
X157410602Y-91890827D01*
X157350264Y-92036498D01*
X157350261Y-92036510D01*
X157319500Y-92191153D01*
X157319500Y-92348846D01*
X157350261Y-92503489D01*
X157350264Y-92503501D01*
X157410602Y-92649172D01*
X157410609Y-92649185D01*
X157498210Y-92780288D01*
X157498213Y-92780292D01*
X157609707Y-92891786D01*
X157609711Y-92891789D01*
X157740814Y-92979390D01*
X157740827Y-92979397D01*
X157886498Y-93039735D01*
X157886503Y-93039737D01*
X158041153Y-93070499D01*
X158041156Y-93070500D01*
X158041158Y-93070500D01*
X158198844Y-93070500D01*
X158198845Y-93070499D01*
X158353497Y-93039737D01*
X158499179Y-92979394D01*
X158630289Y-92891789D01*
X158741789Y-92780289D01*
X158829394Y-92649179D01*
X158889737Y-92503497D01*
X158909113Y-92406085D01*
X158920638Y-92348150D01*
X158953023Y-92286239D01*
X158954517Y-92284717D01*
X160710520Y-90528716D01*
X160789577Y-90391784D01*
X160830501Y-90239057D01*
X160830501Y-90080942D01*
X160830501Y-90073347D01*
X160830500Y-90073329D01*
X160830500Y-83533507D01*
X160830501Y-83533494D01*
X160830501Y-83365393D01*
X160830501Y-83365391D01*
X160789577Y-83212663D01*
X160734299Y-83116919D01*
X160710520Y-83075732D01*
X160598716Y-82963928D01*
X160598713Y-82963926D01*
X160466178Y-82831391D01*
X160432693Y-82770068D01*
X160430242Y-82733976D01*
X160430326Y-82732897D01*
X160430500Y-82730694D01*
X160430500Y-82299306D01*
X160427598Y-82262431D01*
X160381744Y-82104602D01*
X160298081Y-81963135D01*
X160298078Y-81963132D01*
X160293298Y-81956969D01*
X160295750Y-81955066D01*
X160269155Y-81906421D01*
X160274104Y-81836726D01*
X160294940Y-81804304D01*
X160293298Y-81803031D01*
X160298075Y-81796870D01*
X160298081Y-81796865D01*
X160381744Y-81655398D01*
X160427598Y-81497569D01*
X160430500Y-81460694D01*
X160430500Y-81127264D01*
X160450185Y-81060225D01*
X160502989Y-81014470D01*
X160507048Y-81012703D01*
X160522564Y-81006275D01*
X160539179Y-80999394D01*
X160670289Y-80911789D01*
X160781789Y-80800289D01*
X160869394Y-80669179D01*
X160929737Y-80523497D01*
X160960500Y-80368842D01*
X160960500Y-80211158D01*
X160960500Y-80211155D01*
X160960499Y-80211153D01*
X160929738Y-80056510D01*
X160929737Y-80056503D01*
X160929735Y-80056498D01*
X160869397Y-79910827D01*
X160869390Y-79910814D01*
X160781789Y-79779711D01*
X160781786Y-79779707D01*
X160670292Y-79668213D01*
X160670288Y-79668210D01*
X160539185Y-79580609D01*
X160539180Y-79580607D01*
X160539179Y-79580606D01*
X160522729Y-79573792D01*
X160510110Y-79568565D01*
X160455707Y-79524723D01*
X160433643Y-79458428D01*
X160447079Y-79397710D01*
X160487895Y-79317606D01*
X160556015Y-79107951D01*
X160590500Y-78890222D01*
X160590500Y-78669778D01*
X160556015Y-78452049D01*
X160487895Y-78242394D01*
X160487895Y-78242393D01*
X160453237Y-78174375D01*
X160387815Y-78045978D01*
X160371260Y-78023192D01*
X160258247Y-77867641D01*
X160258243Y-77867636D01*
X160208071Y-77817464D01*
X160174586Y-77756141D01*
X160179570Y-77686449D01*
X160221442Y-77630516D01*
X160252420Y-77613601D01*
X160332326Y-77583798D01*
X160332326Y-77583797D01*
X160332331Y-77583796D01*
X160447546Y-77497546D01*
X160533796Y-77382331D01*
X160584091Y-77247483D01*
X160590500Y-77187873D01*
X160590499Y-75292128D01*
X160584091Y-75232517D01*
X160546510Y-75131758D01*
X160533797Y-75097671D01*
X160533793Y-75097664D01*
X160447547Y-74982455D01*
X160447544Y-74982452D01*
X160332335Y-74896206D01*
X160332328Y-74896202D01*
X160197482Y-74845908D01*
X160197483Y-74845908D01*
X160137883Y-74839501D01*
X160137881Y-74839500D01*
X160137873Y-74839500D01*
X160137864Y-74839500D01*
X158242129Y-74839500D01*
X158242123Y-74839501D01*
X158182516Y-74845908D01*
X158047671Y-74896202D01*
X158047664Y-74896206D01*
X157932455Y-74982452D01*
X157932452Y-74982455D01*
X157846206Y-75097664D01*
X157846202Y-75097671D01*
X157795908Y-75232517D01*
X157789983Y-75287635D01*
X157789501Y-75292123D01*
X157789500Y-75292135D01*
X157789500Y-77187870D01*
X157789501Y-77187876D01*
X157795908Y-77247483D01*
X157846202Y-77382328D01*
X157846206Y-77382335D01*
X157932452Y-77497544D01*
X157932455Y-77497547D01*
X158047664Y-77583793D01*
X158047671Y-77583797D01*
X158127580Y-77613601D01*
X158183514Y-77655472D01*
X158207931Y-77720936D01*
X158193080Y-77789209D01*
X158171929Y-77817463D01*
X158121756Y-77867636D01*
X158121752Y-77867641D01*
X157992187Y-78045974D01*
X157892104Y-78242393D01*
X157892103Y-78242396D01*
X157823985Y-78452047D01*
X157789500Y-78669778D01*
X157789500Y-78890221D01*
X157823985Y-79107952D01*
X157892103Y-79317603D01*
X157892106Y-79317611D01*
X157989730Y-79509204D01*
X158002627Y-79577874D01*
X157976351Y-79642614D01*
X157919245Y-79682872D01*
X157879246Y-79689500D01*
X155754500Y-79689500D01*
X155687461Y-79669815D01*
X155641706Y-79617011D01*
X155630500Y-79565500D01*
X155630499Y-77792129D01*
X155630498Y-77792123D01*
X155626630Y-77756141D01*
X155624091Y-77732517D01*
X155616348Y-77711758D01*
X155573797Y-77597671D01*
X155573793Y-77597664D01*
X155487547Y-77482455D01*
X155487544Y-77482452D01*
X155372335Y-77396206D01*
X155372328Y-77396202D01*
X155292419Y-77366398D01*
X155236485Y-77324527D01*
X155212068Y-77259062D01*
X155226920Y-77190789D01*
X155248069Y-77162537D01*
X155298242Y-77112365D01*
X155427815Y-76934022D01*
X155527895Y-76737606D01*
X155596015Y-76527951D01*
X155630500Y-76310222D01*
X155630500Y-76089778D01*
X155596015Y-75872049D01*
X155527895Y-75662394D01*
X155527895Y-75662393D01*
X155493237Y-75594375D01*
X155427815Y-75465978D01*
X155411260Y-75443192D01*
X155298247Y-75287641D01*
X155298243Y-75287636D01*
X155142363Y-75131756D01*
X155142358Y-75131752D01*
X154964025Y-75002187D01*
X154964024Y-75002186D01*
X154964022Y-75002185D01*
X154901096Y-74970122D01*
X154767606Y-74902104D01*
X154767603Y-74902103D01*
X154557952Y-74833985D01*
X154449086Y-74816742D01*
X154340222Y-74799500D01*
X154119778Y-74799500D01*
X154047201Y-74810995D01*
X153902047Y-74833985D01*
X153692396Y-74902103D01*
X153692393Y-74902104D01*
X153495974Y-75002187D01*
X153317641Y-75131752D01*
X153317636Y-75131756D01*
X153161756Y-75287636D01*
X153161752Y-75287641D01*
X153032187Y-75465974D01*
X152932104Y-75662393D01*
X152932103Y-75662396D01*
X152863985Y-75872047D01*
X152829500Y-76089778D01*
X152829500Y-76310221D01*
X152863985Y-76527952D01*
X152886811Y-76598203D01*
X152888806Y-76668044D01*
X152856561Y-76724202D01*
X152661286Y-76919478D01*
X152549481Y-77031282D01*
X152549477Y-77031287D01*
X152502672Y-77112358D01*
X152502668Y-77112365D01*
X152470423Y-77168215D01*
X152429499Y-77320943D01*
X152429499Y-77479057D01*
X152429499Y-77479059D01*
X152429500Y-77489058D01*
X152429500Y-80283330D01*
X152429499Y-80283348D01*
X152429499Y-80449054D01*
X152429498Y-80449054D01*
X148680500Y-80449054D01*
X148680500Y-73598543D01*
X149139499Y-73598543D01*
X149177947Y-73791829D01*
X149177950Y-73791839D01*
X149253364Y-73973907D01*
X149253371Y-73973920D01*
X149362860Y-74137781D01*
X149362863Y-74137785D01*
X149502214Y-74277136D01*
X149502218Y-74277139D01*
X149666079Y-74386628D01*
X149666092Y-74386635D01*
X149848160Y-74462049D01*
X149848165Y-74462051D01*
X149848169Y-74462051D01*
X149848170Y-74462052D01*
X150041456Y-74500500D01*
X150041459Y-74500500D01*
X150238543Y-74500500D01*
X150368582Y-74474632D01*
X150431835Y-74462051D01*
X150613914Y-74386632D01*
X150777782Y-74277139D01*
X150917139Y-74137782D01*
X151026632Y-73973914D01*
X151102051Y-73791835D01*
X151140500Y-73598543D01*
X162739499Y-73598543D01*
X162777947Y-73791829D01*
X162777950Y-73791839D01*
X162853364Y-73973907D01*
X162853371Y-73973920D01*
X162962860Y-74137781D01*
X162962863Y-74137785D01*
X163102214Y-74277136D01*
X163102218Y-74277139D01*
X163266079Y-74386628D01*
X163266092Y-74386635D01*
X163448160Y-74462049D01*
X163448165Y-74462051D01*
X163448169Y-74462051D01*
X163448170Y-74462052D01*
X163641456Y-74500500D01*
X163641459Y-74500500D01*
X163838543Y-74500500D01*
X163968582Y-74474632D01*
X164031835Y-74462051D01*
X164213914Y-74386632D01*
X164377782Y-74277139D01*
X164517139Y-74137782D01*
X164626632Y-73973914D01*
X164702051Y-73791835D01*
X164740500Y-73598541D01*
X164740500Y-73401459D01*
X164740500Y-73401456D01*
X164702052Y-73208170D01*
X164702051Y-73208169D01*
X164702051Y-73208165D01*
X164702049Y-73208160D01*
X164626635Y-73026092D01*
X164626628Y-73026079D01*
X164517139Y-72862218D01*
X164517136Y-72862214D01*
X164377785Y-72722863D01*
X164377781Y-72722860D01*
X164213920Y-72613371D01*
X164213907Y-72613364D01*
X164031839Y-72537950D01*
X164031829Y-72537947D01*
X163838543Y-72499500D01*
X163838541Y-72499500D01*
X163641459Y-72499500D01*
X163641457Y-72499500D01*
X163448170Y-72537947D01*
X163448160Y-72537950D01*
X163266092Y-72613364D01*
X163266079Y-72613371D01*
X163102218Y-72722860D01*
X163102214Y-72722863D01*
X162962863Y-72862214D01*
X162962860Y-72862218D01*
X162853371Y-73026079D01*
X162853364Y-73026092D01*
X162777950Y-73208160D01*
X162777947Y-73208170D01*
X162739500Y-73401456D01*
X162739500Y-73401459D01*
X162739500Y-73598541D01*
X162739500Y-73598543D01*
X162739499Y-73598543D01*
X151140500Y-73598543D01*
X151140500Y-73598541D01*
X151140500Y-73401459D01*
X151140500Y-73401456D01*
X151102052Y-73208170D01*
X151102051Y-73208169D01*
X151102051Y-73208165D01*
X151102049Y-73208160D01*
X151026635Y-73026092D01*
X151026628Y-73026079D01*
X150917139Y-72862218D01*
X150917136Y-72862214D01*
X150777785Y-72722863D01*
X150777781Y-72722860D01*
X150613920Y-72613371D01*
X150613907Y-72613364D01*
X150431839Y-72537950D01*
X150431829Y-72537947D01*
X150238543Y-72499500D01*
X150238541Y-72499500D01*
X150041459Y-72499500D01*
X150041457Y-72499500D01*
X149848170Y-72537947D01*
X149848160Y-72537950D01*
X149666092Y-72613364D01*
X149666079Y-72613371D01*
X149502218Y-72722860D01*
X149502214Y-72722863D01*
X149362863Y-72862214D01*
X149362860Y-72862218D01*
X149253371Y-73026079D01*
X149253364Y-73026092D01*
X149177950Y-73208160D01*
X149177947Y-73208170D01*
X149139500Y-73401456D01*
X149139500Y-73401459D01*
X149139500Y-73598541D01*
X149139500Y-73598543D01*
X149139499Y-73598543D01*
X148680500Y-73598543D01*
X148680500Y-72164500D01*
X148700185Y-72097461D01*
X148752989Y-72051706D01*
X148804500Y-72040500D01*
X165255500Y-72040500D01*
X165322539Y-72060185D01*
G37*
%TD.AperFunction*%
%TD*%
M02*
