%TF.GenerationSoftware,KiCad,Pcbnew,10.0.0*%
%TF.CreationDate,2026-04-25T02:07:18-07:00*%
%TF.ProjectId,IR Sensor,49522053-656e-4736-9f72-2e6b69636164,rev?*%
%TF.SameCoordinates,Original*%
%TF.FileFunction,Legend,Top*%
%TF.FilePolarity,Positive*%
%FSLAX46Y46*%
G04 Gerber Fmt 4.6, Leading zero omitted, Abs format (unit mm)*
G04 Created by KiCad (PCBNEW 10.0.0) date 2026-04-25 02:07:18*
%MOMM*%
%LPD*%
G01*
G04 APERTURE LIST*
%ADD10C,0.100000*%
%ADD11C,0.125000*%
%ADD12C,0.200000*%
%ADD13C,0.150000*%
%ADD14C,0.120000*%
G04 APERTURE END LIST*
D10*
X156566741Y-97407419D02*
X156519122Y-97383609D01*
X156519122Y-97383609D02*
X156447693Y-97383609D01*
X156447693Y-97383609D02*
X156376265Y-97407419D01*
X156376265Y-97407419D02*
X156328646Y-97455038D01*
X156328646Y-97455038D02*
X156304836Y-97502657D01*
X156304836Y-97502657D02*
X156281027Y-97597895D01*
X156281027Y-97597895D02*
X156281027Y-97669323D01*
X156281027Y-97669323D02*
X156304836Y-97764561D01*
X156304836Y-97764561D02*
X156328646Y-97812180D01*
X156328646Y-97812180D02*
X156376265Y-97859800D01*
X156376265Y-97859800D02*
X156447693Y-97883609D01*
X156447693Y-97883609D02*
X156495312Y-97883609D01*
X156495312Y-97883609D02*
X156566741Y-97859800D01*
X156566741Y-97859800D02*
X156590550Y-97835990D01*
X156590550Y-97835990D02*
X156590550Y-97669323D01*
X156590550Y-97669323D02*
X156495312Y-97669323D01*
X156804836Y-97883609D02*
X156804836Y-97383609D01*
X156804836Y-97383609D02*
X157090550Y-97883609D01*
X157090550Y-97883609D02*
X157090550Y-97383609D01*
X157328646Y-97883609D02*
X157328646Y-97383609D01*
X157328646Y-97383609D02*
X157447694Y-97383609D01*
X157447694Y-97383609D02*
X157519122Y-97407419D01*
X157519122Y-97407419D02*
X157566741Y-97455038D01*
X157566741Y-97455038D02*
X157590551Y-97502657D01*
X157590551Y-97502657D02*
X157614360Y-97597895D01*
X157614360Y-97597895D02*
X157614360Y-97669323D01*
X157614360Y-97669323D02*
X157590551Y-97764561D01*
X157590551Y-97764561D02*
X157566741Y-97812180D01*
X157566741Y-97812180D02*
X157519122Y-97859800D01*
X157519122Y-97859800D02*
X157447694Y-97883609D01*
X157447694Y-97883609D02*
X157328646Y-97883609D01*
X158574836Y-73223609D02*
X158574836Y-72723609D01*
X159098645Y-73223609D02*
X158931979Y-72985514D01*
X158812931Y-73223609D02*
X158812931Y-72723609D01*
X158812931Y-72723609D02*
X159003407Y-72723609D01*
X159003407Y-72723609D02*
X159051026Y-72747419D01*
X159051026Y-72747419D02*
X159074836Y-72771228D01*
X159074836Y-72771228D02*
X159098645Y-72818847D01*
X159098645Y-72818847D02*
X159098645Y-72890276D01*
X159098645Y-72890276D02*
X159074836Y-72937895D01*
X159074836Y-72937895D02*
X159051026Y-72961704D01*
X159051026Y-72961704D02*
X159003407Y-72985514D01*
X159003407Y-72985514D02*
X158812931Y-72985514D01*
X159193884Y-73271228D02*
X159574836Y-73271228D01*
X159979597Y-73223609D02*
X159812931Y-72985514D01*
X159693883Y-73223609D02*
X159693883Y-72723609D01*
X159693883Y-72723609D02*
X159884359Y-72723609D01*
X159884359Y-72723609D02*
X159931978Y-72747419D01*
X159931978Y-72747419D02*
X159955788Y-72771228D01*
X159955788Y-72771228D02*
X159979597Y-72818847D01*
X159979597Y-72818847D02*
X159979597Y-72890276D01*
X159979597Y-72890276D02*
X159955788Y-72937895D01*
X159955788Y-72937895D02*
X159931978Y-72961704D01*
X159931978Y-72961704D02*
X159884359Y-72985514D01*
X159884359Y-72985514D02*
X159693883Y-72985514D01*
X160146264Y-72723609D02*
X160479597Y-73223609D01*
X160479597Y-72723609D02*
X160146264Y-73223609D01*
X158873408Y-97383609D02*
X159040074Y-97883609D01*
X159040074Y-97883609D02*
X159206741Y-97383609D01*
X159659121Y-97835990D02*
X159635312Y-97859800D01*
X159635312Y-97859800D02*
X159563883Y-97883609D01*
X159563883Y-97883609D02*
X159516264Y-97883609D01*
X159516264Y-97883609D02*
X159444836Y-97859800D01*
X159444836Y-97859800D02*
X159397217Y-97812180D01*
X159397217Y-97812180D02*
X159373407Y-97764561D01*
X159373407Y-97764561D02*
X159349598Y-97669323D01*
X159349598Y-97669323D02*
X159349598Y-97597895D01*
X159349598Y-97597895D02*
X159373407Y-97502657D01*
X159373407Y-97502657D02*
X159397217Y-97455038D01*
X159397217Y-97455038D02*
X159444836Y-97407419D01*
X159444836Y-97407419D02*
X159516264Y-97383609D01*
X159516264Y-97383609D02*
X159563883Y-97383609D01*
X159563883Y-97383609D02*
X159635312Y-97407419D01*
X159635312Y-97407419D02*
X159659121Y-97431228D01*
X160159121Y-97835990D02*
X160135312Y-97859800D01*
X160135312Y-97859800D02*
X160063883Y-97883609D01*
X160063883Y-97883609D02*
X160016264Y-97883609D01*
X160016264Y-97883609D02*
X159944836Y-97859800D01*
X159944836Y-97859800D02*
X159897217Y-97812180D01*
X159897217Y-97812180D02*
X159873407Y-97764561D01*
X159873407Y-97764561D02*
X159849598Y-97669323D01*
X159849598Y-97669323D02*
X159849598Y-97597895D01*
X159849598Y-97597895D02*
X159873407Y-97502657D01*
X159873407Y-97502657D02*
X159897217Y-97455038D01*
X159897217Y-97455038D02*
X159944836Y-97407419D01*
X159944836Y-97407419D02*
X160016264Y-97383609D01*
X160016264Y-97383609D02*
X160063883Y-97383609D01*
X160063883Y-97383609D02*
X160135312Y-97407419D01*
X160135312Y-97407419D02*
X160159121Y-97431228D01*
X153880074Y-97383609D02*
X153975312Y-97383609D01*
X153975312Y-97383609D02*
X154022931Y-97407419D01*
X154022931Y-97407419D02*
X154070550Y-97455038D01*
X154070550Y-97455038D02*
X154094360Y-97550276D01*
X154094360Y-97550276D02*
X154094360Y-97716942D01*
X154094360Y-97716942D02*
X154070550Y-97812180D01*
X154070550Y-97812180D02*
X154022931Y-97859800D01*
X154022931Y-97859800D02*
X153975312Y-97883609D01*
X153975312Y-97883609D02*
X153880074Y-97883609D01*
X153880074Y-97883609D02*
X153832455Y-97859800D01*
X153832455Y-97859800D02*
X153784836Y-97812180D01*
X153784836Y-97812180D02*
X153761027Y-97716942D01*
X153761027Y-97716942D02*
X153761027Y-97550276D01*
X153761027Y-97550276D02*
X153784836Y-97455038D01*
X153784836Y-97455038D02*
X153832455Y-97407419D01*
X153832455Y-97407419D02*
X153880074Y-97383609D01*
X154308646Y-97383609D02*
X154308646Y-97788371D01*
X154308646Y-97788371D02*
X154332456Y-97835990D01*
X154332456Y-97835990D02*
X154356265Y-97859800D01*
X154356265Y-97859800D02*
X154403884Y-97883609D01*
X154403884Y-97883609D02*
X154499122Y-97883609D01*
X154499122Y-97883609D02*
X154546741Y-97859800D01*
X154546741Y-97859800D02*
X154570551Y-97835990D01*
X154570551Y-97835990D02*
X154594360Y-97788371D01*
X154594360Y-97788371D02*
X154594360Y-97383609D01*
X154761028Y-97383609D02*
X155046742Y-97383609D01*
X154903885Y-97883609D02*
X154903885Y-97383609D01*
D11*
X153411283Y-73332309D02*
X153411283Y-72832309D01*
X153935092Y-73332309D02*
X153768426Y-73094214D01*
X153649378Y-73332309D02*
X153649378Y-72832309D01*
X153649378Y-72832309D02*
X153839854Y-72832309D01*
X153839854Y-72832309D02*
X153887473Y-72856119D01*
X153887473Y-72856119D02*
X153911283Y-72879928D01*
X153911283Y-72879928D02*
X153935092Y-72927547D01*
X153935092Y-72927547D02*
X153935092Y-72998976D01*
X153935092Y-72998976D02*
X153911283Y-73046595D01*
X153911283Y-73046595D02*
X153887473Y-73070404D01*
X153887473Y-73070404D02*
X153839854Y-73094214D01*
X153839854Y-73094214D02*
X153649378Y-73094214D01*
X154030331Y-73379928D02*
X154411283Y-73379928D01*
X154458902Y-72832309D02*
X154744616Y-72832309D01*
X154601759Y-73332309D02*
X154601759Y-72832309D01*
X154863663Y-72832309D02*
X155196996Y-73332309D01*
X155196996Y-72832309D02*
X154863663Y-73332309D01*
D12*
G36*
X149706554Y-86572513D02*
G01*
X149731223Y-86597181D01*
X149761028Y-86656791D01*
X149761028Y-86914136D01*
X149437219Y-86914136D01*
X149437219Y-86656791D01*
X149467024Y-86597181D01*
X149491692Y-86572512D01*
X149551302Y-86542708D01*
X149646945Y-86542708D01*
X149706554Y-86572513D01*
G37*
G36*
X149881905Y-84247469D02*
G01*
X149837016Y-84247469D01*
X149792707Y-84225314D01*
X149770552Y-84181004D01*
X149770552Y-84037743D01*
X149792707Y-83993433D01*
X149827607Y-83975983D01*
X149881905Y-84247469D01*
G37*
G36*
X150182746Y-81382037D02*
G01*
X150207414Y-81406704D01*
X150237219Y-81466314D01*
X150237219Y-81561957D01*
X150207414Y-81621566D01*
X150182746Y-81646233D01*
X150123135Y-81676040D01*
X149884635Y-81676040D01*
X149825025Y-81646235D01*
X149800357Y-81621566D01*
X149770552Y-81561956D01*
X149770552Y-81466314D01*
X149800357Y-81406704D01*
X149825025Y-81382035D01*
X149884635Y-81352231D01*
X150123135Y-81352231D01*
X150182746Y-81382037D01*
G37*
G36*
X150548330Y-87701437D02*
G01*
X149126108Y-87701437D01*
X149126108Y-87470817D01*
X149239140Y-87470817D01*
X149239140Y-87509835D01*
X149254072Y-87545883D01*
X149281662Y-87573473D01*
X149317710Y-87588405D01*
X149337219Y-87590326D01*
X150337219Y-87590326D01*
X150356728Y-87588405D01*
X150392776Y-87573473D01*
X150420366Y-87545883D01*
X150435298Y-87509835D01*
X150435298Y-87470817D01*
X150420366Y-87434769D01*
X150392776Y-87407179D01*
X150356728Y-87392247D01*
X150337219Y-87390326D01*
X149337219Y-87390326D01*
X149317710Y-87392247D01*
X149281662Y-87407179D01*
X149254072Y-87434769D01*
X149239140Y-87470817D01*
X149126108Y-87470817D01*
X149126108Y-86633184D01*
X149237219Y-86633184D01*
X149237219Y-87014136D01*
X149239140Y-87033645D01*
X149254072Y-87069693D01*
X149281662Y-87097283D01*
X149317710Y-87112215D01*
X149337219Y-87114136D01*
X150337219Y-87114136D01*
X150356728Y-87112215D01*
X150392776Y-87097283D01*
X150420366Y-87069693D01*
X150435298Y-87033645D01*
X150435298Y-86994627D01*
X150420366Y-86958579D01*
X150392776Y-86930989D01*
X150356728Y-86916057D01*
X150337219Y-86914136D01*
X149961028Y-86914136D01*
X149961028Y-86828106D01*
X150394565Y-86524631D01*
X150409446Y-86511870D01*
X150430415Y-86478965D01*
X150437196Y-86440540D01*
X150428756Y-86402446D01*
X150406381Y-86370481D01*
X150373476Y-86349512D01*
X150335052Y-86342731D01*
X150296957Y-86351171D01*
X150279873Y-86360785D01*
X149951347Y-86590752D01*
X149950471Y-86588462D01*
X149902852Y-86493225D01*
X149897566Y-86484828D01*
X149896556Y-86482388D01*
X149894302Y-86479642D01*
X149892409Y-86476634D01*
X149890411Y-86474901D01*
X149884119Y-86467235D01*
X149836501Y-86419616D01*
X149828830Y-86413321D01*
X149827101Y-86411327D01*
X149824093Y-86409433D01*
X149821347Y-86407180D01*
X149818907Y-86406169D01*
X149810511Y-86400884D01*
X149715273Y-86353265D01*
X149696965Y-86346259D01*
X149693381Y-86346004D01*
X149690061Y-86344629D01*
X149670552Y-86342708D01*
X149527695Y-86342708D01*
X149508186Y-86344629D01*
X149504865Y-86346004D01*
X149501282Y-86346259D01*
X149482973Y-86353265D01*
X149387736Y-86400884D01*
X149379339Y-86406169D01*
X149376899Y-86407180D01*
X149374153Y-86409433D01*
X149371145Y-86411327D01*
X149369412Y-86413324D01*
X149361746Y-86419617D01*
X149314127Y-86467235D01*
X149307832Y-86474905D01*
X149305838Y-86476635D01*
X149303944Y-86479642D01*
X149301691Y-86482389D01*
X149300680Y-86484828D01*
X149295395Y-86493225D01*
X149247776Y-86588463D01*
X149240770Y-86606771D01*
X149240515Y-86610354D01*
X149239140Y-86613675D01*
X149237219Y-86633184D01*
X149126108Y-86633184D01*
X149126108Y-84871279D01*
X149237219Y-84871279D01*
X149237219Y-85109374D01*
X149239140Y-85128883D01*
X149240515Y-85132203D01*
X149240770Y-85135787D01*
X149247776Y-85154095D01*
X149295395Y-85249333D01*
X149300680Y-85257729D01*
X149301691Y-85260169D01*
X149303944Y-85262915D01*
X149305838Y-85265923D01*
X149307832Y-85267652D01*
X149314127Y-85275323D01*
X149361746Y-85322941D01*
X149369412Y-85329233D01*
X149371145Y-85331231D01*
X149374153Y-85333124D01*
X149376899Y-85335378D01*
X149379339Y-85336388D01*
X149387736Y-85341674D01*
X149482973Y-85389293D01*
X149501282Y-85396299D01*
X149504865Y-85396553D01*
X149508186Y-85397929D01*
X149527695Y-85399850D01*
X149622933Y-85399850D01*
X149642442Y-85397929D01*
X149645762Y-85396553D01*
X149649346Y-85396299D01*
X149667654Y-85389293D01*
X149762892Y-85341674D01*
X149771288Y-85336388D01*
X149773728Y-85335378D01*
X149776474Y-85333124D01*
X149779482Y-85331231D01*
X149781211Y-85329236D01*
X149788882Y-85322942D01*
X149836500Y-85275323D01*
X149842792Y-85267656D01*
X149844790Y-85265924D01*
X149846683Y-85262915D01*
X149848937Y-85260170D01*
X149849947Y-85257729D01*
X149855233Y-85249333D01*
X149902852Y-85154096D01*
X149903398Y-85152667D01*
X149903828Y-85152088D01*
X149906749Y-85143911D01*
X149909858Y-85135787D01*
X149909909Y-85135066D01*
X149910423Y-85133628D01*
X149955379Y-84953802D01*
X149990833Y-84882895D01*
X150015501Y-84858226D01*
X150075111Y-84828422D01*
X150123135Y-84828422D01*
X150182746Y-84858228D01*
X150207414Y-84882895D01*
X150237219Y-84942505D01*
X150237219Y-85140766D01*
X150194732Y-85268227D01*
X150190385Y-85287343D01*
X150193151Y-85326263D01*
X150210601Y-85361162D01*
X150240077Y-85386727D01*
X150277093Y-85399065D01*
X150316013Y-85396299D01*
X150350912Y-85378849D01*
X150376477Y-85349373D01*
X150384468Y-85331473D01*
X150432087Y-85188616D01*
X150434286Y-85178943D01*
X150435298Y-85176502D01*
X150435646Y-85172964D01*
X150436434Y-85169501D01*
X150436246Y-85166866D01*
X150437219Y-85156993D01*
X150437219Y-84918898D01*
X150435298Y-84899389D01*
X150433922Y-84896068D01*
X150433668Y-84892485D01*
X150426662Y-84874176D01*
X150379043Y-84778939D01*
X150373757Y-84770542D01*
X150372747Y-84768102D01*
X150370493Y-84765356D01*
X150368600Y-84762348D01*
X150366603Y-84760616D01*
X150360310Y-84752948D01*
X150312690Y-84705330D01*
X150305020Y-84699035D01*
X150303291Y-84697041D01*
X150300286Y-84695149D01*
X150297537Y-84692893D01*
X150295093Y-84691881D01*
X150286701Y-84686598D01*
X150191463Y-84638979D01*
X150173155Y-84631973D01*
X150169571Y-84631718D01*
X150166251Y-84630343D01*
X150146742Y-84628422D01*
X150051504Y-84628422D01*
X150031995Y-84630343D01*
X150028674Y-84631718D01*
X150025091Y-84631973D01*
X150006782Y-84638979D01*
X149911545Y-84686598D01*
X149903148Y-84691883D01*
X149900708Y-84692894D01*
X149897962Y-84695147D01*
X149894954Y-84697041D01*
X149893221Y-84699038D01*
X149885555Y-84705331D01*
X149837936Y-84752949D01*
X149831641Y-84760619D01*
X149829647Y-84762349D01*
X149827753Y-84765356D01*
X149825500Y-84768103D01*
X149824489Y-84770542D01*
X149819204Y-84778939D01*
X149771585Y-84874177D01*
X149771039Y-84875603D01*
X149770609Y-84876184D01*
X149767687Y-84884360D01*
X149764579Y-84892485D01*
X149764527Y-84893207D01*
X149764014Y-84894645D01*
X149719057Y-85074469D01*
X149683604Y-85145376D01*
X149658935Y-85170044D01*
X149599326Y-85199850D01*
X149551302Y-85199850D01*
X149491692Y-85170045D01*
X149467024Y-85145376D01*
X149437219Y-85085766D01*
X149437219Y-84887506D01*
X149479706Y-84760045D01*
X149484053Y-84740930D01*
X149481287Y-84702010D01*
X149463837Y-84667111D01*
X149434361Y-84641546D01*
X149397345Y-84629207D01*
X149358425Y-84631974D01*
X149323526Y-84649423D01*
X149297961Y-84678899D01*
X149289970Y-84696800D01*
X149242351Y-84839656D01*
X149240151Y-84849327D01*
X149239140Y-84851770D01*
X149238791Y-84855308D01*
X149238004Y-84858772D01*
X149238191Y-84861405D01*
X149237219Y-84871279D01*
X149126108Y-84871279D01*
X149126108Y-84014136D01*
X149570552Y-84014136D01*
X149570552Y-84204612D01*
X149572473Y-84224121D01*
X149573848Y-84227441D01*
X149574103Y-84231025D01*
X149581109Y-84249333D01*
X149628728Y-84344571D01*
X149630781Y-84347834D01*
X149631295Y-84349373D01*
X149632957Y-84351289D01*
X149639171Y-84361161D01*
X149648641Y-84369374D01*
X149656859Y-84378850D01*
X149666732Y-84385064D01*
X149668648Y-84386726D01*
X149670186Y-84387238D01*
X149673450Y-84389293D01*
X149768687Y-84436912D01*
X149786996Y-84443918D01*
X149790579Y-84444172D01*
X149793900Y-84445548D01*
X149813409Y-84447469D01*
X150003990Y-84447469D01*
X150194361Y-84447469D01*
X150213870Y-84445548D01*
X150217190Y-84444172D01*
X150220773Y-84443918D01*
X150239082Y-84436912D01*
X150334321Y-84389293D01*
X150337584Y-84387239D01*
X150339123Y-84386726D01*
X150341039Y-84385063D01*
X150350911Y-84378850D01*
X150359125Y-84369378D01*
X150368600Y-84361162D01*
X150374812Y-84351291D01*
X150376476Y-84349374D01*
X150376989Y-84347833D01*
X150379043Y-84344571D01*
X150426662Y-84249334D01*
X150433668Y-84231025D01*
X150433922Y-84227441D01*
X150435298Y-84224121D01*
X150437219Y-84204612D01*
X150437219Y-84014136D01*
X150435298Y-83994627D01*
X150433922Y-83991306D01*
X150433668Y-83987723D01*
X150426662Y-83969414D01*
X150379043Y-83874177D01*
X150368600Y-83857586D01*
X150339123Y-83832022D01*
X150302107Y-83819683D01*
X150263187Y-83822449D01*
X150228288Y-83839898D01*
X150202724Y-83869375D01*
X150190385Y-83906391D01*
X150193151Y-83945311D01*
X150200157Y-83963619D01*
X150237219Y-84037743D01*
X150237219Y-84181005D01*
X150215064Y-84225314D01*
X150170754Y-84247469D01*
X150085865Y-84247469D01*
X150006705Y-83851667D01*
X150000995Y-83832914D01*
X149995543Y-83824773D01*
X149991794Y-83815722D01*
X149984794Y-83808722D01*
X149979284Y-83800494D01*
X149971130Y-83795058D01*
X149964204Y-83788132D01*
X149955057Y-83784343D01*
X149946819Y-83778851D01*
X149937208Y-83776949D01*
X149928156Y-83773200D01*
X149908647Y-83771279D01*
X149813409Y-83771279D01*
X149793900Y-83773200D01*
X149790579Y-83774575D01*
X149786996Y-83774830D01*
X149768687Y-83781836D01*
X149673450Y-83829455D01*
X149670186Y-83831509D01*
X149668648Y-83832022D01*
X149666732Y-83833683D01*
X149656859Y-83839898D01*
X149648641Y-83849373D01*
X149639171Y-83857587D01*
X149632957Y-83867458D01*
X149631295Y-83869375D01*
X149630781Y-83870913D01*
X149628728Y-83874177D01*
X149581109Y-83969415D01*
X149574103Y-83987723D01*
X149573848Y-83991306D01*
X149572473Y-83994627D01*
X149570552Y-84014136D01*
X149126108Y-84014136D01*
X149126108Y-83156993D01*
X149570552Y-83156993D01*
X149570552Y-83299850D01*
X149572473Y-83319359D01*
X149573848Y-83322679D01*
X149574103Y-83326263D01*
X149581109Y-83344571D01*
X149597400Y-83377154D01*
X149587405Y-83387150D01*
X149572473Y-83423198D01*
X149572473Y-83462216D01*
X149587405Y-83498264D01*
X149614995Y-83525854D01*
X149651043Y-83540786D01*
X149670552Y-83542707D01*
X150337219Y-83542707D01*
X150356728Y-83540786D01*
X150392776Y-83525854D01*
X150420366Y-83498264D01*
X150435298Y-83462216D01*
X150435298Y-83423198D01*
X150420366Y-83387150D01*
X150392776Y-83359560D01*
X150356728Y-83344628D01*
X150337219Y-83342707D01*
X149807212Y-83342707D01*
X149800357Y-83335852D01*
X149770552Y-83276242D01*
X149770552Y-83180600D01*
X149792707Y-83136290D01*
X149837016Y-83114136D01*
X150337219Y-83114136D01*
X150356728Y-83112215D01*
X150392776Y-83097283D01*
X150420366Y-83069693D01*
X150435298Y-83033645D01*
X150435298Y-82994627D01*
X150420366Y-82958579D01*
X150392776Y-82930989D01*
X150356728Y-82916057D01*
X150337219Y-82914136D01*
X149813409Y-82914136D01*
X149793900Y-82916057D01*
X149790579Y-82917432D01*
X149786996Y-82917687D01*
X149768687Y-82924693D01*
X149673450Y-82972312D01*
X149670186Y-82974366D01*
X149668648Y-82974879D01*
X149666732Y-82976540D01*
X149656859Y-82982755D01*
X149648641Y-82992230D01*
X149639171Y-83000444D01*
X149632957Y-83010315D01*
X149631295Y-83012232D01*
X149630781Y-83013770D01*
X149628728Y-83017034D01*
X149581109Y-83112272D01*
X149574103Y-83130580D01*
X149573848Y-83134163D01*
X149572473Y-83137484D01*
X149570552Y-83156993D01*
X149126108Y-83156993D01*
X149126108Y-82299850D01*
X149570552Y-82299850D01*
X149570552Y-82442707D01*
X149572473Y-82462216D01*
X149573848Y-82465536D01*
X149574103Y-82469120D01*
X149581109Y-82487428D01*
X149628728Y-82582666D01*
X149630781Y-82585929D01*
X149631295Y-82587468D01*
X149632957Y-82589384D01*
X149639171Y-82599256D01*
X149648641Y-82607469D01*
X149656859Y-82616945D01*
X149666732Y-82623159D01*
X149668648Y-82624821D01*
X149670186Y-82625333D01*
X149673450Y-82627388D01*
X149768687Y-82675007D01*
X149786996Y-82682013D01*
X149790579Y-82682267D01*
X149793900Y-82683643D01*
X149813409Y-82685564D01*
X149861028Y-82685564D01*
X149880537Y-82683643D01*
X149883857Y-82682267D01*
X149887441Y-82682013D01*
X149905749Y-82675007D01*
X150000987Y-82627388D01*
X150004250Y-82625334D01*
X150005789Y-82624821D01*
X150007705Y-82623158D01*
X150017577Y-82616945D01*
X150025790Y-82607474D01*
X150035266Y-82599257D01*
X150041480Y-82589383D01*
X150043142Y-82587468D01*
X150043654Y-82585929D01*
X150045709Y-82582666D01*
X150093328Y-82487429D01*
X150100334Y-82469120D01*
X150100588Y-82465536D01*
X150101964Y-82462216D01*
X150103885Y-82442707D01*
X150103885Y-82323457D01*
X150126040Y-82279147D01*
X150170349Y-82256993D01*
X150170754Y-82256993D01*
X150215064Y-82279147D01*
X150237219Y-82323457D01*
X150237219Y-82466719D01*
X150200157Y-82540843D01*
X150193151Y-82559151D01*
X150190385Y-82598071D01*
X150202724Y-82635087D01*
X150228288Y-82664564D01*
X150263187Y-82682013D01*
X150302107Y-82684779D01*
X150339123Y-82672440D01*
X150368600Y-82646876D01*
X150379043Y-82630285D01*
X150426662Y-82535048D01*
X150433668Y-82516739D01*
X150433922Y-82513155D01*
X150435298Y-82509835D01*
X150437219Y-82490326D01*
X150437219Y-82299850D01*
X150435298Y-82280341D01*
X150433922Y-82277020D01*
X150433668Y-82273437D01*
X150426662Y-82255128D01*
X150379043Y-82159891D01*
X150376989Y-82156628D01*
X150376476Y-82155088D01*
X150374812Y-82153170D01*
X150368600Y-82143300D01*
X150359125Y-82135083D01*
X150350911Y-82125612D01*
X150341039Y-82119398D01*
X150339123Y-82117736D01*
X150337584Y-82117222D01*
X150334321Y-82115169D01*
X150239082Y-82067550D01*
X150220773Y-82060544D01*
X150217190Y-82060289D01*
X150213870Y-82058914D01*
X150194361Y-82056993D01*
X150146742Y-82056993D01*
X150127233Y-82058914D01*
X150123912Y-82060289D01*
X150120329Y-82060544D01*
X150102020Y-82067550D01*
X150006783Y-82115169D01*
X150003519Y-82117223D01*
X150001981Y-82117736D01*
X150000065Y-82119397D01*
X149990192Y-82125612D01*
X149981974Y-82135087D01*
X149972504Y-82143301D01*
X149966290Y-82153172D01*
X149964628Y-82155089D01*
X149964114Y-82156627D01*
X149962061Y-82159891D01*
X149914442Y-82255129D01*
X149907436Y-82273437D01*
X149907181Y-82277020D01*
X149905806Y-82280341D01*
X149903885Y-82299850D01*
X149903885Y-82419100D01*
X149881730Y-82463408D01*
X149837421Y-82485564D01*
X149837016Y-82485564D01*
X149792707Y-82463409D01*
X149770552Y-82419099D01*
X149770552Y-82323457D01*
X149807614Y-82249334D01*
X149814620Y-82231025D01*
X149817386Y-82192105D01*
X149805047Y-82155089D01*
X149779482Y-82125612D01*
X149744584Y-82108163D01*
X149705664Y-82105398D01*
X149668648Y-82117736D01*
X149639171Y-82143301D01*
X149628728Y-82159891D01*
X149581109Y-82255129D01*
X149574103Y-82273437D01*
X149573848Y-82277020D01*
X149572473Y-82280341D01*
X149570552Y-82299850D01*
X149126108Y-82299850D01*
X149126108Y-81442707D01*
X149570552Y-81442707D01*
X149570552Y-81585564D01*
X149572473Y-81605073D01*
X149573848Y-81608393D01*
X149574103Y-81611977D01*
X149581109Y-81630285D01*
X149628728Y-81725523D01*
X149634013Y-81733919D01*
X149635024Y-81736359D01*
X149637277Y-81739105D01*
X149639171Y-81742113D01*
X149641165Y-81743842D01*
X149647460Y-81751513D01*
X149695079Y-81799131D01*
X149702745Y-81805423D01*
X149704478Y-81807421D01*
X149707486Y-81809314D01*
X149710232Y-81811568D01*
X149712672Y-81812578D01*
X149721069Y-81817864D01*
X149816306Y-81865483D01*
X149834615Y-81872489D01*
X149838198Y-81872743D01*
X149841519Y-81874119D01*
X149861028Y-81876040D01*
X150146742Y-81876040D01*
X150166251Y-81874119D01*
X150169571Y-81872743D01*
X150173155Y-81872489D01*
X150191463Y-81865483D01*
X150286701Y-81817864D01*
X150295093Y-81812580D01*
X150297537Y-81811569D01*
X150300286Y-81809312D01*
X150303291Y-81807421D01*
X150305020Y-81805426D01*
X150312690Y-81799132D01*
X150360310Y-81751514D01*
X150366603Y-81743845D01*
X150368600Y-81742114D01*
X150370493Y-81739105D01*
X150372747Y-81736360D01*
X150373757Y-81733919D01*
X150379043Y-81725523D01*
X150426662Y-81630286D01*
X150433668Y-81611977D01*
X150433922Y-81608393D01*
X150435298Y-81605073D01*
X150437219Y-81585564D01*
X150437219Y-81442707D01*
X150435298Y-81423198D01*
X150433922Y-81419877D01*
X150433668Y-81416294D01*
X150426662Y-81397985D01*
X150379043Y-81302748D01*
X150373757Y-81294351D01*
X150372747Y-81291911D01*
X150370493Y-81289165D01*
X150368600Y-81286157D01*
X150366603Y-81284425D01*
X150360310Y-81276757D01*
X150312690Y-81229139D01*
X150305020Y-81222844D01*
X150303291Y-81220850D01*
X150300286Y-81218958D01*
X150297537Y-81216702D01*
X150295093Y-81215690D01*
X150286701Y-81210407D01*
X150191463Y-81162788D01*
X150173155Y-81155782D01*
X150169571Y-81155527D01*
X150166251Y-81154152D01*
X150146742Y-81152231D01*
X149861028Y-81152231D01*
X149841519Y-81154152D01*
X149838198Y-81155527D01*
X149834615Y-81155782D01*
X149816306Y-81162788D01*
X149721069Y-81210407D01*
X149712672Y-81215692D01*
X149710232Y-81216703D01*
X149707486Y-81218956D01*
X149704478Y-81220850D01*
X149702745Y-81222847D01*
X149695079Y-81229140D01*
X149647460Y-81276758D01*
X149641165Y-81284428D01*
X149639171Y-81286158D01*
X149637277Y-81289165D01*
X149635024Y-81291912D01*
X149634013Y-81294351D01*
X149628728Y-81302748D01*
X149581109Y-81397986D01*
X149574103Y-81416294D01*
X149573848Y-81419877D01*
X149572473Y-81423198D01*
X149570552Y-81442707D01*
X149126108Y-81442707D01*
X149126108Y-80537945D01*
X149570552Y-80537945D01*
X149570552Y-80633183D01*
X149572473Y-80652692D01*
X149573848Y-80656012D01*
X149574103Y-80659596D01*
X149581109Y-80677904D01*
X149613273Y-80742233D01*
X149587405Y-80768102D01*
X149572473Y-80804150D01*
X149572473Y-80843168D01*
X149587405Y-80879216D01*
X149614995Y-80906806D01*
X149651043Y-80921738D01*
X149670552Y-80923659D01*
X150337219Y-80923659D01*
X150356728Y-80921738D01*
X150392776Y-80906806D01*
X150420366Y-80879216D01*
X150435298Y-80843168D01*
X150435298Y-80804150D01*
X150420366Y-80768102D01*
X150392776Y-80740512D01*
X150356728Y-80725580D01*
X150337219Y-80723659D01*
X149884635Y-80723659D01*
X149825025Y-80693854D01*
X149800357Y-80669185D01*
X149770552Y-80609575D01*
X149770552Y-80537945D01*
X149768631Y-80518436D01*
X149753699Y-80482388D01*
X149726109Y-80454798D01*
X149690061Y-80439866D01*
X149651043Y-80439866D01*
X149614995Y-80454798D01*
X149587405Y-80482388D01*
X149572473Y-80518436D01*
X149570552Y-80537945D01*
X149126108Y-80537945D01*
X149126108Y-80328755D01*
X150548330Y-80328755D01*
X150548330Y-87701437D01*
G37*
D13*
X163412295Y-90556189D02*
X163031342Y-90822856D01*
X163412295Y-91013332D02*
X162612295Y-91013332D01*
X162612295Y-91013332D02*
X162612295Y-90708570D01*
X162612295Y-90708570D02*
X162650390Y-90632380D01*
X162650390Y-90632380D02*
X162688485Y-90594285D01*
X162688485Y-90594285D02*
X162764676Y-90556189D01*
X162764676Y-90556189D02*
X162878961Y-90556189D01*
X162878961Y-90556189D02*
X162955152Y-90594285D01*
X162955152Y-90594285D02*
X162993247Y-90632380D01*
X162993247Y-90632380D02*
X163031342Y-90708570D01*
X163031342Y-90708570D02*
X163031342Y-91013332D01*
X162612295Y-90327618D02*
X163412295Y-90060951D01*
X163412295Y-90060951D02*
X162612295Y-89794285D01*
X163412295Y-89108571D02*
X163412295Y-89565714D01*
X163412295Y-89337142D02*
X162612295Y-89337142D01*
X162612295Y-89337142D02*
X162726580Y-89413333D01*
X162726580Y-89413333D02*
X162802771Y-89489523D01*
X162802771Y-89489523D02*
X162840866Y-89565714D01*
X153502295Y-92198332D02*
X153121342Y-92464999D01*
X153502295Y-92655475D02*
X152702295Y-92655475D01*
X152702295Y-92655475D02*
X152702295Y-92350713D01*
X152702295Y-92350713D02*
X152740390Y-92274523D01*
X152740390Y-92274523D02*
X152778485Y-92236428D01*
X152778485Y-92236428D02*
X152854676Y-92198332D01*
X152854676Y-92198332D02*
X152968961Y-92198332D01*
X152968961Y-92198332D02*
X153045152Y-92236428D01*
X153045152Y-92236428D02*
X153083247Y-92274523D01*
X153083247Y-92274523D02*
X153121342Y-92350713D01*
X153121342Y-92350713D02*
X153121342Y-92655475D01*
X152968961Y-91512618D02*
X153502295Y-91512618D01*
X152664200Y-91703094D02*
X153235628Y-91893571D01*
X153235628Y-91893571D02*
X153235628Y-91398332D01*
X158982295Y-82148332D02*
X158601342Y-82414999D01*
X158982295Y-82605475D02*
X158182295Y-82605475D01*
X158182295Y-82605475D02*
X158182295Y-82300713D01*
X158182295Y-82300713D02*
X158220390Y-82224523D01*
X158220390Y-82224523D02*
X158258485Y-82186428D01*
X158258485Y-82186428D02*
X158334676Y-82148332D01*
X158334676Y-82148332D02*
X158448961Y-82148332D01*
X158448961Y-82148332D02*
X158525152Y-82186428D01*
X158525152Y-82186428D02*
X158563247Y-82224523D01*
X158563247Y-82224523D02*
X158601342Y-82300713D01*
X158601342Y-82300713D02*
X158601342Y-82605475D01*
X158182295Y-81881666D02*
X158182295Y-81386428D01*
X158182295Y-81386428D02*
X158487057Y-81653094D01*
X158487057Y-81653094D02*
X158487057Y-81538809D01*
X158487057Y-81538809D02*
X158525152Y-81462618D01*
X158525152Y-81462618D02*
X158563247Y-81424523D01*
X158563247Y-81424523D02*
X158639438Y-81386428D01*
X158639438Y-81386428D02*
X158829914Y-81386428D01*
X158829914Y-81386428D02*
X158906104Y-81424523D01*
X158906104Y-81424523D02*
X158944200Y-81462618D01*
X158944200Y-81462618D02*
X158982295Y-81538809D01*
X158982295Y-81538809D02*
X158982295Y-81767380D01*
X158982295Y-81767380D02*
X158944200Y-81843571D01*
X158944200Y-81843571D02*
X158906104Y-81881666D01*
X150742295Y-94616666D02*
X151313723Y-94616666D01*
X151313723Y-94616666D02*
X151428009Y-94654761D01*
X151428009Y-94654761D02*
X151504200Y-94730952D01*
X151504200Y-94730952D02*
X151542295Y-94845237D01*
X151542295Y-94845237D02*
X151542295Y-94921428D01*
X151542295Y-93816666D02*
X151542295Y-94273809D01*
X151542295Y-94045237D02*
X150742295Y-94045237D01*
X150742295Y-94045237D02*
X150856580Y-94121428D01*
X150856580Y-94121428D02*
X150932771Y-94197618D01*
X150932771Y-94197618D02*
X150970866Y-94273809D01*
X153549524Y-74642295D02*
X153549524Y-73842295D01*
X153549524Y-73842295D02*
X153740000Y-73842295D01*
X153740000Y-73842295D02*
X153854286Y-73880390D01*
X153854286Y-73880390D02*
X153930476Y-73956580D01*
X153930476Y-73956580D02*
X153968571Y-74032771D01*
X153968571Y-74032771D02*
X154006667Y-74185152D01*
X154006667Y-74185152D02*
X154006667Y-74299438D01*
X154006667Y-74299438D02*
X153968571Y-74451819D01*
X153968571Y-74451819D02*
X153930476Y-74528009D01*
X153930476Y-74528009D02*
X153854286Y-74604200D01*
X153854286Y-74604200D02*
X153740000Y-74642295D01*
X153740000Y-74642295D02*
X153549524Y-74642295D01*
X154768571Y-74642295D02*
X154311428Y-74642295D01*
X154540000Y-74642295D02*
X154540000Y-73842295D01*
X154540000Y-73842295D02*
X154463809Y-73956580D01*
X154463809Y-73956580D02*
X154387619Y-74032771D01*
X154387619Y-74032771D02*
X154311428Y-74070866D01*
X158739524Y-74752295D02*
X158739524Y-73952295D01*
X158739524Y-73952295D02*
X158930000Y-73952295D01*
X158930000Y-73952295D02*
X159044286Y-73990390D01*
X159044286Y-73990390D02*
X159120476Y-74066580D01*
X159120476Y-74066580D02*
X159158571Y-74142771D01*
X159158571Y-74142771D02*
X159196667Y-74295152D01*
X159196667Y-74295152D02*
X159196667Y-74409438D01*
X159196667Y-74409438D02*
X159158571Y-74561819D01*
X159158571Y-74561819D02*
X159120476Y-74638009D01*
X159120476Y-74638009D02*
X159044286Y-74714200D01*
X159044286Y-74714200D02*
X158930000Y-74752295D01*
X158930000Y-74752295D02*
X158739524Y-74752295D01*
X159501428Y-74028485D02*
X159539524Y-73990390D01*
X159539524Y-73990390D02*
X159615714Y-73952295D01*
X159615714Y-73952295D02*
X159806190Y-73952295D01*
X159806190Y-73952295D02*
X159882381Y-73990390D01*
X159882381Y-73990390D02*
X159920476Y-74028485D01*
X159920476Y-74028485D02*
X159958571Y-74104676D01*
X159958571Y-74104676D02*
X159958571Y-74180866D01*
X159958571Y-74180866D02*
X159920476Y-74295152D01*
X159920476Y-74295152D02*
X159463333Y-74752295D01*
X159463333Y-74752295D02*
X159958571Y-74752295D01*
X155762295Y-89160475D02*
X154962295Y-89160475D01*
X154962295Y-89160475D02*
X154962295Y-88969999D01*
X154962295Y-88969999D02*
X155000390Y-88855713D01*
X155000390Y-88855713D02*
X155076580Y-88779523D01*
X155076580Y-88779523D02*
X155152771Y-88741428D01*
X155152771Y-88741428D02*
X155305152Y-88703332D01*
X155305152Y-88703332D02*
X155419438Y-88703332D01*
X155419438Y-88703332D02*
X155571819Y-88741428D01*
X155571819Y-88741428D02*
X155648009Y-88779523D01*
X155648009Y-88779523D02*
X155724200Y-88855713D01*
X155724200Y-88855713D02*
X155762295Y-88969999D01*
X155762295Y-88969999D02*
X155762295Y-89160475D01*
X154962295Y-88436666D02*
X154962295Y-87941428D01*
X154962295Y-87941428D02*
X155267057Y-88208094D01*
X155267057Y-88208094D02*
X155267057Y-88093809D01*
X155267057Y-88093809D02*
X155305152Y-88017618D01*
X155305152Y-88017618D02*
X155343247Y-87979523D01*
X155343247Y-87979523D02*
X155419438Y-87941428D01*
X155419438Y-87941428D02*
X155609914Y-87941428D01*
X155609914Y-87941428D02*
X155686104Y-87979523D01*
X155686104Y-87979523D02*
X155724200Y-88017618D01*
X155724200Y-88017618D02*
X155762295Y-88093809D01*
X155762295Y-88093809D02*
X155762295Y-88322380D01*
X155762295Y-88322380D02*
X155724200Y-88398571D01*
X155724200Y-88398571D02*
X155686104Y-88436666D01*
X155932295Y-82103332D02*
X155551342Y-82369999D01*
X155932295Y-82560475D02*
X155132295Y-82560475D01*
X155132295Y-82560475D02*
X155132295Y-82255713D01*
X155132295Y-82255713D02*
X155170390Y-82179523D01*
X155170390Y-82179523D02*
X155208485Y-82141428D01*
X155208485Y-82141428D02*
X155284676Y-82103332D01*
X155284676Y-82103332D02*
X155398961Y-82103332D01*
X155398961Y-82103332D02*
X155475152Y-82141428D01*
X155475152Y-82141428D02*
X155513247Y-82179523D01*
X155513247Y-82179523D02*
X155551342Y-82255713D01*
X155551342Y-82255713D02*
X155551342Y-82560475D01*
X155208485Y-81798571D02*
X155170390Y-81760475D01*
X155170390Y-81760475D02*
X155132295Y-81684285D01*
X155132295Y-81684285D02*
X155132295Y-81493809D01*
X155132295Y-81493809D02*
X155170390Y-81417618D01*
X155170390Y-81417618D02*
X155208485Y-81379523D01*
X155208485Y-81379523D02*
X155284676Y-81341428D01*
X155284676Y-81341428D02*
X155360866Y-81341428D01*
X155360866Y-81341428D02*
X155475152Y-81379523D01*
X155475152Y-81379523D02*
X155932295Y-81836666D01*
X155932295Y-81836666D02*
X155932295Y-81341428D01*
%TO.C,RV1*%
D14*
X157310000Y-87220000D02*
X157640000Y-87220000D01*
X157310000Y-91940000D02*
X157310000Y-87220000D01*
X158440000Y-91940000D02*
X157310000Y-91940000D01*
X159400000Y-87220000D02*
X159940000Y-87220000D01*
X161700000Y-87220000D02*
X162030000Y-87220000D01*
X162030000Y-87220000D02*
X162030000Y-91940000D01*
X162030000Y-91940000D02*
X160900000Y-91940000D01*
%TO.C,R4*%
X155267500Y-91252742D02*
X155267500Y-91727258D01*
X156312500Y-91252742D02*
X156312500Y-91727258D01*
%TO.C,R3*%
X156757500Y-81677742D02*
X156757500Y-82152258D01*
X157802500Y-81677742D02*
X157802500Y-82152258D01*
%TO.C,J1*%
X153080000Y-93910000D02*
X153080000Y-96670000D01*
X158270000Y-93910000D02*
X153080000Y-93910000D01*
X158270000Y-93910000D02*
X158270000Y-96670000D01*
X158270000Y-96670000D02*
X153080000Y-96670000D01*
X159540000Y-93910000D02*
X160920000Y-93910000D01*
X160920000Y-93910000D02*
X160920000Y-95290000D01*
%TO.C,D1*%
X152994000Y-79030000D02*
X153150000Y-79030000D01*
X155310000Y-79030000D02*
X155466000Y-79030000D01*
X152994484Y-79030000D02*
G75*
G02*
X153150000Y-75798563I1235516J1560000D01*
G01*
X153150000Y-78510961D02*
G75*
G02*
X153150000Y-76429039I1080000J1040961D01*
G01*
X155310000Y-75798563D02*
G75*
G02*
X155465516Y-79030000I-1080000J-1671437D01*
G01*
X155310000Y-76429039D02*
G75*
G02*
X155310000Y-78510961I-1080000J-1040961D01*
G01*
%TO.C,D2*%
X158110000Y-75950000D02*
X157954000Y-75950000D01*
X160426000Y-75950000D02*
X160270000Y-75950000D01*
X158110000Y-78550961D02*
G75*
G02*
X158110000Y-76469039I1080000J1040961D01*
G01*
X158110000Y-79181437D02*
G75*
G02*
X157954484Y-75950000I1080000J1671437D01*
G01*
X160270000Y-76469039D02*
G75*
G02*
X160270000Y-78550961I-1080000J-1040961D01*
G01*
X160425516Y-75950000D02*
G75*
G02*
X160270000Y-79181437I-1235516J-1560000D01*
G01*
%TO.C,D3*%
X152435000Y-86285000D02*
X152435000Y-90170000D01*
X154705000Y-86285000D02*
X152435000Y-86285000D01*
X154705000Y-90170000D02*
X154705000Y-86285000D01*
%TO.C,R2*%
X153617500Y-81732742D02*
X153617500Y-82207258D01*
X154662500Y-81732742D02*
X154662500Y-82207258D01*
%TD*%
M02*
