%TF.GenerationSoftware,KiCad,Pcbnew,10.0.0*%
%TF.CreationDate,2026-04-25T02:07:17-07:00*%
%TF.ProjectId,IR Sensor,49522053-656e-4736-9f72-2e6b69636164,rev?*%
%TF.SameCoordinates,Original*%
%TF.FileFunction,Copper,L1,Top*%
%TF.FilePolarity,Positive*%
%FSLAX46Y46*%
G04 Gerber Fmt 4.6, Leading zero omitted, Abs format (unit mm)*
G04 Created by KiCad (PCBNEW 10.0.0) date 2026-04-25 02:07:17*
%MOMM*%
%LPD*%
G01*
G04 APERTURE LIST*
G04 Aperture macros list*
%AMRoundRect*
0 Rectangle with rounded corners*
0 $1 Rounding radius*
0 $2 $3 $4 $5 $6 $7 $8 $9 X,Y pos of 4 corners*
0 Add a 4 corners polygon primitive as box body*
4,1,4,$2,$3,$4,$5,$6,$7,$8,$9,$2,$3,0*
0 Add four circle primitives for the rounded corners*
1,1,$1+$1,$2,$3*
1,1,$1+$1,$4,$5*
1,1,$1+$1,$6,$7*
1,1,$1+$1,$8,$9*
0 Add four rect primitives between the rounded corners*
20,1,$1+$1,$2,$3,$4,$5,0*
20,1,$1+$1,$4,$5,$6,$7,0*
20,1,$1+$1,$6,$7,$8,$9,0*
20,1,$1+$1,$8,$9,$2,$3,0*%
G04 Aperture macros list end*
%TA.AperFunction,SMDPad,CuDef*%
%ADD10RoundRect,0.250000X-0.400000X-0.400000X0.400000X-0.400000X0.400000X0.400000X-0.400000X0.400000X0*%
%TD*%
%TA.AperFunction,SMDPad,CuDef*%
%ADD11RoundRect,0.250000X-0.750000X-0.400000X0.750000X-0.400000X0.750000X0.400000X-0.750000X0.400000X0*%
%TD*%
%TA.AperFunction,SMDPad,CuDef*%
%ADD12RoundRect,0.200000X-0.275000X0.200000X-0.275000X-0.200000X0.275000X-0.200000X0.275000X0.200000X0*%
%TD*%
%TA.AperFunction,ComponentPad*%
%ADD13R,1.700000X1.700000*%
%TD*%
%TA.AperFunction,ComponentPad*%
%ADD14C,1.700000*%
%TD*%
%TA.AperFunction,ComponentPad*%
%ADD15R,1.800000X1.800000*%
%TD*%
%TA.AperFunction,ComponentPad*%
%ADD16C,1.800000*%
%TD*%
%TA.AperFunction,SMDPad,CuDef*%
%ADD17RoundRect,0.250000X-0.625000X0.375000X-0.625000X-0.375000X0.625000X-0.375000X0.625000X0.375000X0*%
%TD*%
%TA.AperFunction,ViaPad*%
%ADD18C,0.600000*%
%TD*%
%TA.AperFunction,Conductor*%
%ADD19C,0.200000*%
%TD*%
G04 APERTURE END LIST*
D10*
%TO.P,RV1,1,1_1*%
%TO.N,+5V*%
X160820000Y-86830000D03*
D11*
%TO.P,RV1,2,2_2*%
%TO.N,Net-(U1A--)*%
X159670000Y-92330000D03*
D10*
%TO.P,RV1,3,3_3*%
%TO.N,GND*%
X158520000Y-86830000D03*
%TD*%
D12*
%TO.P,R4,1*%
%TO.N,Net-(R4-Pad1)*%
X155790000Y-90665000D03*
%TO.P,R4,2*%
%TO.N,/O{slash}P*%
X155790000Y-92315000D03*
%TD*%
%TO.P,R3,1*%
%TO.N,Net-(D2-A)*%
X157280000Y-81090000D03*
%TO.P,R3,2*%
%TO.N,GND*%
X157280000Y-82740000D03*
%TD*%
D13*
%TO.P,J1,1,Pin_1_1*%
%TO.N,+5V*%
X159540000Y-95290000D03*
D14*
%TO.P,J1,2,Pin_2_2*%
%TO.N,GND*%
X157000000Y-95290000D03*
%TO.P,J1,3,Pin_3_3*%
%TO.N,/O{slash}P*%
X154460000Y-95290000D03*
%TD*%
D15*
%TO.P,D1,1,K_1*%
%TO.N,Net-(D1-K)*%
X154230000Y-78740000D03*
D16*
%TO.P,D1,2,A_2*%
%TO.N,+5V*%
X154230000Y-76200000D03*
%TD*%
D15*
%TO.P,D2,1,K_1*%
%TO.N,+5V*%
X159190000Y-76240000D03*
D16*
%TO.P,D2,2,A_2*%
%TO.N,Net-(D2-A)*%
X159190000Y-78780000D03*
%TD*%
D17*
%TO.P,D3,1,K_1*%
%TO.N,GND*%
X153570000Y-87170000D03*
%TO.P,D3,2,A_2*%
%TO.N,/O{slash}P*%
X153570000Y-89970000D03*
%TD*%
D12*
%TO.P,R2,1*%
%TO.N,Net-(D1-K)*%
X154140000Y-81145000D03*
%TO.P,R2,2*%
%TO.N,GND*%
X154140000Y-82795000D03*
%TD*%
D18*
%TO.N,+5V*%
X160160000Y-80290000D03*
%TO.N,Net-(U1A--)*%
X158120000Y-92270000D03*
%TO.N,GND*%
X151920000Y-88420000D03*
X157120000Y-83930000D03*
X152070000Y-84040000D03*
X154779417Y-90951477D03*
X157510000Y-86470000D03*
X157780000Y-84680000D03*
X151950000Y-86020000D03*
X156850000Y-93020000D03*
X157820000Y-85360000D03*
X157590000Y-87160000D03*
X151920000Y-87240000D03*
X159110000Y-85700000D03*
X155400000Y-83160000D03*
X156070000Y-83010000D03*
X152040000Y-82860000D03*
%TO.N,Net-(R4-Pad1)*%
X156270000Y-88380000D03*
%TO.N,Net-(D2-A)*%
X158052165Y-83438326D03*
%TD*%
%TO.N,+5V*%
D19*
X155220000Y-75210000D02*
X158140000Y-75210000D01*
X159630000Y-95200000D02*
X161450000Y-93380000D01*
X159170000Y-76240000D02*
X159190000Y-76240000D01*
X161450000Y-93380000D02*
X161450000Y-87460000D01*
X161450000Y-87460000D02*
X160820000Y-86830000D01*
X160820000Y-86830000D02*
X160820000Y-80950000D01*
X154230000Y-76200000D02*
X155220000Y-75210000D01*
X158140000Y-75210000D02*
X159170000Y-76240000D01*
X159150000Y-76200000D02*
X159190000Y-76240000D01*
X160820000Y-80950000D02*
X160160000Y-80290000D01*
%TO.N,Net-(U1A--)*%
X158180000Y-92330000D02*
X158120000Y-92270000D01*
X159670000Y-92330000D02*
X158180000Y-92330000D01*
%TO.N,GND*%
X153105000Y-82795000D02*
X154140000Y-82795000D01*
X154140000Y-82795000D02*
X154595000Y-82340000D01*
X158180000Y-87170000D02*
X158520000Y-86830000D01*
%TO.N,Net-(R4-Pad1)*%
X155790000Y-88860000D02*
X156270000Y-88380000D01*
X156270000Y-88380000D02*
X156270000Y-88440000D01*
X155790000Y-90665000D02*
X155790000Y-88860000D01*
%TO.N,/O{slash}P*%
X153570000Y-91580000D02*
X154305000Y-92315000D01*
X155790000Y-92315000D02*
X155790000Y-93960000D01*
X154305000Y-92315000D02*
X155790000Y-92315000D01*
X154460000Y-95290000D02*
X154060000Y-95290000D01*
X155780000Y-93960000D02*
X154450000Y-95290000D01*
X153570000Y-89970000D02*
X153570000Y-91580000D01*
%TO.N,Net-(D2-A)*%
X157280000Y-80690000D02*
X157280000Y-81090000D01*
X158096335Y-81906335D02*
X158096335Y-83394156D01*
X158096335Y-83394156D02*
X158052165Y-83438326D01*
X159190000Y-78780000D02*
X157280000Y-80690000D01*
X157280000Y-81090000D02*
X158096335Y-81906335D01*
%TO.N,Net-(D1-K)*%
X154140000Y-78830000D02*
X154230000Y-78740000D01*
X153180000Y-79550000D02*
X153180000Y-81020000D01*
X154230000Y-78740000D02*
X153990000Y-78740000D01*
X153990000Y-78740000D02*
X153180000Y-79550000D01*
X154135000Y-81140000D02*
X154140000Y-81145000D01*
X153180000Y-81020000D02*
X153300000Y-81140000D01*
X153300000Y-81140000D02*
X154135000Y-81140000D01*
%TD*%
%TA.AperFunction,Conductor*%
%TO.N,GND*%
G36*
X154779417Y-90951477D02*
G01*
X154824187Y-91005119D01*
X154828842Y-91017640D01*
X154871522Y-91154606D01*
X154926280Y-91245187D01*
X154959530Y-91300188D01*
X155061661Y-91402319D01*
X155095146Y-91463642D01*
X155090162Y-91533334D01*
X155061661Y-91577681D01*
X154961161Y-91678181D01*
X154899838Y-91711666D01*
X154873480Y-91714500D01*
X154605097Y-91714500D01*
X154538058Y-91694815D01*
X154517416Y-91678181D01*
X154206819Y-91367584D01*
X154173334Y-91306261D01*
X154170500Y-91279903D01*
X154170500Y-91215088D01*
X154190185Y-91148049D01*
X154242989Y-91102294D01*
X154281897Y-91091730D01*
X154347797Y-91084999D01*
X154514334Y-91029814D01*
X154645365Y-90948993D01*
X154712753Y-90930555D01*
X154779417Y-90951477D01*
G37*
%TD.AperFunction*%
%TA.AperFunction,Conductor*%
G36*
X165322539Y-72060185D02*
G01*
X165368294Y-72112989D01*
X165379500Y-72164500D01*
X165379500Y-99045500D01*
X165359815Y-99112539D01*
X165307011Y-99158294D01*
X165255500Y-99169500D01*
X148804500Y-99169500D01*
X148737461Y-99149815D01*
X148691706Y-99097011D01*
X148680500Y-99045500D01*
X148680500Y-97728543D01*
X149139499Y-97728543D01*
X149177947Y-97921829D01*
X149177950Y-97921839D01*
X149253364Y-98103907D01*
X149253371Y-98103920D01*
X149362860Y-98267781D01*
X149362863Y-98267785D01*
X149502214Y-98407136D01*
X149502218Y-98407139D01*
X149666079Y-98516628D01*
X149666092Y-98516635D01*
X149848160Y-98592049D01*
X149848165Y-98592051D01*
X149848169Y-98592051D01*
X149848170Y-98592052D01*
X150041456Y-98630500D01*
X150041459Y-98630500D01*
X150238543Y-98630500D01*
X150368582Y-98604632D01*
X150431835Y-98592051D01*
X150613914Y-98516632D01*
X150777782Y-98407139D01*
X150917139Y-98267782D01*
X151026632Y-98103914D01*
X151102051Y-97921835D01*
X151140500Y-97728543D01*
X162739499Y-97728543D01*
X162777947Y-97921829D01*
X162777950Y-97921839D01*
X162853364Y-98103907D01*
X162853371Y-98103920D01*
X162962860Y-98267781D01*
X162962863Y-98267785D01*
X163102214Y-98407136D01*
X163102218Y-98407139D01*
X163266079Y-98516628D01*
X163266092Y-98516635D01*
X163448160Y-98592049D01*
X163448165Y-98592051D01*
X163448169Y-98592051D01*
X163448170Y-98592052D01*
X163641456Y-98630500D01*
X163641459Y-98630500D01*
X163838543Y-98630500D01*
X163968582Y-98604632D01*
X164031835Y-98592051D01*
X164213914Y-98516632D01*
X164377782Y-98407139D01*
X164517139Y-98267782D01*
X164626632Y-98103914D01*
X164702051Y-97921835D01*
X164740500Y-97728541D01*
X164740500Y-97531459D01*
X164740500Y-97531456D01*
X164702052Y-97338170D01*
X164702051Y-97338169D01*
X164702051Y-97338165D01*
X164702049Y-97338160D01*
X164626635Y-97156092D01*
X164626628Y-97156079D01*
X164517139Y-96992218D01*
X164517136Y-96992214D01*
X164377785Y-96852863D01*
X164377781Y-96852860D01*
X164213920Y-96743371D01*
X164213907Y-96743364D01*
X164031839Y-96667950D01*
X164031829Y-96667947D01*
X163838543Y-96629500D01*
X163838541Y-96629500D01*
X163641459Y-96629500D01*
X163641457Y-96629500D01*
X163448170Y-96667947D01*
X163448160Y-96667950D01*
X163266092Y-96743364D01*
X163266079Y-96743371D01*
X163102218Y-96852860D01*
X163102214Y-96852863D01*
X162962863Y-96992214D01*
X162962860Y-96992218D01*
X162853371Y-97156079D01*
X162853364Y-97156092D01*
X162777950Y-97338160D01*
X162777947Y-97338170D01*
X162739500Y-97531456D01*
X162739500Y-97531459D01*
X162739500Y-97728541D01*
X162739500Y-97728543D01*
X162739499Y-97728543D01*
X151140500Y-97728543D01*
X151140500Y-97728541D01*
X151140500Y-97531459D01*
X151140500Y-97531456D01*
X151102052Y-97338170D01*
X151102051Y-97338169D01*
X151102051Y-97338165D01*
X151102049Y-97338160D01*
X151026635Y-97156092D01*
X151026628Y-97156079D01*
X150917139Y-96992218D01*
X150917136Y-96992214D01*
X150777785Y-96852863D01*
X150777781Y-96852860D01*
X150613920Y-96743371D01*
X150613907Y-96743364D01*
X150431839Y-96667950D01*
X150431829Y-96667947D01*
X150238543Y-96629500D01*
X150238541Y-96629500D01*
X150041459Y-96629500D01*
X150041457Y-96629500D01*
X149848170Y-96667947D01*
X149848160Y-96667950D01*
X149666092Y-96743364D01*
X149666079Y-96743371D01*
X149502218Y-96852860D01*
X149502214Y-96852863D01*
X149362863Y-96992214D01*
X149362860Y-96992218D01*
X149253371Y-97156079D01*
X149253364Y-97156092D01*
X149177950Y-97338160D01*
X149177947Y-97338170D01*
X149139500Y-97531456D01*
X149139500Y-97531459D01*
X149139500Y-97728541D01*
X149139500Y-97728543D01*
X149139499Y-97728543D01*
X148680500Y-97728543D01*
X148680500Y-89544983D01*
X152194500Y-89544983D01*
X152194500Y-90395001D01*
X152194501Y-90395019D01*
X152205000Y-90497796D01*
X152205001Y-90497799D01*
X152260185Y-90664331D01*
X152260186Y-90664334D01*
X152352288Y-90813656D01*
X152476344Y-90937712D01*
X152625666Y-91029814D01*
X152792203Y-91084999D01*
X152858103Y-91091731D01*
X152922794Y-91118127D01*
X152962945Y-91175307D01*
X152969500Y-91215089D01*
X152969500Y-91493330D01*
X152969499Y-91493348D01*
X152969499Y-91659054D01*
X152969498Y-91659054D01*
X153010423Y-91811785D01*
X153035563Y-91855327D01*
X153035564Y-91855331D01*
X153035565Y-91855331D01*
X153089479Y-91948714D01*
X153089481Y-91948717D01*
X153208349Y-92067585D01*
X153208355Y-92067590D01*
X153820139Y-92679374D01*
X153820149Y-92679385D01*
X153824479Y-92683715D01*
X153824480Y-92683716D01*
X153936284Y-92795520D01*
X154023095Y-92845639D01*
X154023097Y-92845641D01*
X154061151Y-92867611D01*
X154073215Y-92874577D01*
X154225943Y-92915501D01*
X154225946Y-92915501D01*
X154391653Y-92915501D01*
X154391669Y-92915500D01*
X154873480Y-92915500D01*
X154940519Y-92935185D01*
X154961161Y-92951819D01*
X155079811Y-93070469D01*
X155079813Y-93070470D01*
X155079815Y-93070472D01*
X155129650Y-93100598D01*
X155176838Y-93152126D01*
X155189500Y-93206715D01*
X155189500Y-93649902D01*
X155169815Y-93716941D01*
X155153181Y-93737583D01*
X154936975Y-93953789D01*
X154875652Y-93987274D01*
X154810976Y-93984039D01*
X154776244Y-93972754D01*
X154671265Y-93956127D01*
X154566287Y-93939500D01*
X154353713Y-93939500D01*
X154305042Y-93947208D01*
X154143760Y-93972753D01*
X153941585Y-94038444D01*
X153752179Y-94134951D01*
X153580213Y-94259890D01*
X153429890Y-94410213D01*
X153304951Y-94582179D01*
X153208444Y-94771585D01*
X153142753Y-94973760D01*
X153109500Y-95183713D01*
X153109500Y-95396286D01*
X153142753Y-95606239D01*
X153208444Y-95808414D01*
X153304951Y-95997820D01*
X153429890Y-96169786D01*
X153580213Y-96320109D01*
X153752179Y-96445048D01*
X153752181Y-96445049D01*
X153752184Y-96445051D01*
X153941588Y-96541557D01*
X154143757Y-96607246D01*
X154353713Y-96640500D01*
X154353714Y-96640500D01*
X154566286Y-96640500D01*
X154566287Y-96640500D01*
X154776243Y-96607246D01*
X154978412Y-96541557D01*
X155167816Y-96445051D01*
X155254138Y-96382335D01*
X155339786Y-96320109D01*
X155339788Y-96320106D01*
X155339792Y-96320104D01*
X155490104Y-96169792D01*
X155490106Y-96169788D01*
X155490109Y-96169786D01*
X155615048Y-95997820D01*
X155615047Y-95997820D01*
X155615051Y-95997816D01*
X155711557Y-95808412D01*
X155777246Y-95606243D01*
X155810500Y-95396287D01*
X155810500Y-95183713D01*
X155777246Y-94973757D01*
X155761054Y-94923926D01*
X155759060Y-94854086D01*
X155791303Y-94797930D01*
X156123511Y-94465722D01*
X156149187Y-94446020D01*
X156158716Y-94440520D01*
X156270520Y-94328716D01*
X156349577Y-94191784D01*
X156390500Y-94039057D01*
X156390500Y-93206715D01*
X156410185Y-93139676D01*
X156450349Y-93100598D01*
X156500185Y-93070472D01*
X156620472Y-92950185D01*
X156708478Y-92804606D01*
X156759086Y-92642196D01*
X156765500Y-92571616D01*
X156765500Y-92058384D01*
X156759086Y-91987804D01*
X156708478Y-91825394D01*
X156620472Y-91679815D01*
X156620470Y-91679813D01*
X156620469Y-91679811D01*
X156518339Y-91577681D01*
X156484854Y-91516358D01*
X156489838Y-91446666D01*
X156518339Y-91402319D01*
X156620468Y-91300189D01*
X156620469Y-91300188D01*
X156620472Y-91300185D01*
X156708478Y-91154606D01*
X156759086Y-90992196D01*
X156765500Y-90921616D01*
X156765500Y-90408384D01*
X156759086Y-90337804D01*
X156708478Y-90175394D01*
X156620472Y-90029815D01*
X156620470Y-90029813D01*
X156620469Y-90029811D01*
X156500188Y-89909530D01*
X156450348Y-89879400D01*
X156403162Y-89827871D01*
X156390500Y-89773284D01*
X156390500Y-89273977D01*
X156410185Y-89206938D01*
X156462989Y-89161183D01*
X156490307Y-89152360D01*
X156503497Y-89149737D01*
X156649179Y-89089394D01*
X156780289Y-89001789D01*
X156891789Y-88890289D01*
X156979394Y-88759179D01*
X157039737Y-88613497D01*
X157070500Y-88458842D01*
X157070500Y-88301158D01*
X157070500Y-88301155D01*
X157070499Y-88301153D01*
X157039738Y-88146510D01*
X157039738Y-88146508D01*
X157039737Y-88146503D01*
X157001002Y-88052987D01*
X156979397Y-88000827D01*
X156979390Y-88000814D01*
X156891789Y-87869711D01*
X156891786Y-87869707D01*
X156780292Y-87758213D01*
X156780288Y-87758210D01*
X156649185Y-87670609D01*
X156649172Y-87670602D01*
X156503501Y-87610264D01*
X156503489Y-87610261D01*
X156348845Y-87579500D01*
X156348842Y-87579500D01*
X156191158Y-87579500D01*
X156191155Y-87579500D01*
X156036510Y-87610261D01*
X156036498Y-87610264D01*
X155890827Y-87670602D01*
X155890814Y-87670609D01*
X155759711Y-87758210D01*
X155759707Y-87758213D01*
X155648213Y-87869707D01*
X155648210Y-87869711D01*
X155560609Y-88000814D01*
X155560602Y-88000827D01*
X155500264Y-88146498D01*
X155500261Y-88146508D01*
X155469362Y-88301847D01*
X155436977Y-88363758D01*
X155435428Y-88365334D01*
X155414224Y-88386538D01*
X155414212Y-88386552D01*
X155309478Y-88491286D01*
X155264183Y-88569742D01*
X155264182Y-88569743D01*
X155238918Y-88613501D01*
X155230423Y-88628215D01*
X155189499Y-88780943D01*
X155189499Y-88780945D01*
X155189499Y-88949046D01*
X155189500Y-88949059D01*
X155189500Y-89499526D01*
X155169815Y-89566565D01*
X155117011Y-89612320D01*
X155047853Y-89622264D01*
X154984297Y-89593239D01*
X154946523Y-89534461D01*
X154942142Y-89512127D01*
X154934999Y-89442203D01*
X154934998Y-89442200D01*
X154879814Y-89275666D01*
X154787712Y-89126344D01*
X154663656Y-89002288D01*
X154570888Y-88945069D01*
X154514336Y-88910187D01*
X154514331Y-88910185D01*
X154512862Y-88909698D01*
X154347797Y-88855001D01*
X154347795Y-88855000D01*
X154245010Y-88844500D01*
X152894998Y-88844500D01*
X152894981Y-88844501D01*
X152792203Y-88855000D01*
X152792200Y-88855001D01*
X152625668Y-88910185D01*
X152625663Y-88910187D01*
X152476342Y-89002289D01*
X152352289Y-89126342D01*
X152260187Y-89275663D01*
X152260186Y-89275666D01*
X152205001Y-89442203D01*
X152205001Y-89442204D01*
X152205000Y-89442204D01*
X152194500Y-89544983D01*
X148680500Y-89544983D01*
X148680500Y-81099054D01*
X152579498Y-81099054D01*
X152579499Y-81099057D01*
X152620423Y-81251785D01*
X152642776Y-81290501D01*
X152699480Y-81388716D01*
X152811284Y-81500520D01*
X152811285Y-81500520D01*
X152931284Y-81620520D01*
X152931288Y-81620523D01*
X153068209Y-81699573D01*
X153068216Y-81699577D01*
X153220943Y-81740501D01*
X153220945Y-81740501D01*
X153229002Y-81741562D01*
X153228744Y-81743514D01*
X153285520Y-81760186D01*
X153306162Y-81776820D01*
X153429811Y-81900469D01*
X153429813Y-81900470D01*
X153429815Y-81900472D01*
X153575394Y-81988478D01*
X153737804Y-82039086D01*
X153808384Y-82045500D01*
X153808387Y-82045500D01*
X154471613Y-82045500D01*
X154471616Y-82045500D01*
X154542196Y-82039086D01*
X154704606Y-81988478D01*
X154850185Y-81900472D01*
X154970472Y-81780185D01*
X155058478Y-81634606D01*
X155109086Y-81472196D01*
X155115500Y-81401616D01*
X155115500Y-80888384D01*
X155109086Y-80817804D01*
X155058478Y-80655394D01*
X154970472Y-80509815D01*
X154970470Y-80509813D01*
X154970469Y-80509811D01*
X154850188Y-80389530D01*
X154850185Y-80389528D01*
X154818898Y-80370614D01*
X154771712Y-80319088D01*
X154759874Y-80250228D01*
X154787143Y-80185900D01*
X154844862Y-80146526D01*
X154883050Y-80140499D01*
X155177871Y-80140499D01*
X155177872Y-80140499D01*
X155237483Y-80134091D01*
X155372331Y-80083796D01*
X155487546Y-79997546D01*
X155573796Y-79882331D01*
X155624091Y-79747483D01*
X155630500Y-79687873D01*
X155630499Y-77792128D01*
X155624091Y-77732517D01*
X155616348Y-77711758D01*
X155573797Y-77597671D01*
X155573793Y-77597664D01*
X155487547Y-77482455D01*
X155487544Y-77482452D01*
X155372335Y-77396206D01*
X155372328Y-77396202D01*
X155292419Y-77366398D01*
X155236485Y-77324527D01*
X155212068Y-77259062D01*
X155226920Y-77190789D01*
X155248069Y-77162537D01*
X155298242Y-77112365D01*
X155427815Y-76934022D01*
X155527895Y-76737606D01*
X155596015Y-76527951D01*
X155630500Y-76310222D01*
X155630500Y-76089778D01*
X155608979Y-75953898D01*
X155617934Y-75884604D01*
X155662930Y-75831152D01*
X155729682Y-75810513D01*
X155731452Y-75810500D01*
X157665500Y-75810500D01*
X157732539Y-75830185D01*
X157778294Y-75882989D01*
X157789500Y-75934500D01*
X157789500Y-77187870D01*
X157789501Y-77187876D01*
X157795908Y-77247483D01*
X157846202Y-77382328D01*
X157846206Y-77382335D01*
X157932452Y-77497544D01*
X157932455Y-77497547D01*
X158047664Y-77583793D01*
X158047671Y-77583797D01*
X158127580Y-77613601D01*
X158183514Y-77655472D01*
X158207931Y-77720936D01*
X158193080Y-77789209D01*
X158171929Y-77817463D01*
X158121756Y-77867636D01*
X158121752Y-77867641D01*
X157992187Y-78045974D01*
X157892104Y-78242393D01*
X157892103Y-78242396D01*
X157823985Y-78452047D01*
X157789500Y-78669778D01*
X157789500Y-78890221D01*
X157823985Y-79107952D01*
X157846811Y-79178203D01*
X157848806Y-79248044D01*
X157816561Y-79304202D01*
X156961299Y-80159464D01*
X156899976Y-80192949D01*
X156884848Y-80195273D01*
X156877804Y-80195914D01*
X156769530Y-80229652D01*
X156715393Y-80246522D01*
X156569811Y-80334530D01*
X156449530Y-80454811D01*
X156361522Y-80600393D01*
X156310913Y-80762807D01*
X156304500Y-80833386D01*
X156304500Y-81346613D01*
X156310913Y-81417192D01*
X156310913Y-81417194D01*
X156310914Y-81417196D01*
X156361522Y-81579606D01*
X156434047Y-81699577D01*
X156449530Y-81725188D01*
X156569811Y-81845469D01*
X156569813Y-81845470D01*
X156569815Y-81845472D01*
X156715394Y-81933478D01*
X156877804Y-81984086D01*
X156948384Y-81990500D01*
X157279903Y-81990500D01*
X157346942Y-82010185D01*
X157367584Y-82026819D01*
X157459516Y-82118751D01*
X157493001Y-82180074D01*
X157495835Y-82206432D01*
X157495835Y-82811215D01*
X157476150Y-82878254D01*
X157459516Y-82898896D01*
X157430378Y-82928033D01*
X157430375Y-82928037D01*
X157342774Y-83059140D01*
X157342767Y-83059153D01*
X157282429Y-83204824D01*
X157282426Y-83204836D01*
X157251665Y-83359479D01*
X157251665Y-83517172D01*
X157282426Y-83671815D01*
X157282429Y-83671827D01*
X157342767Y-83817498D01*
X157342774Y-83817511D01*
X157430375Y-83948614D01*
X157430378Y-83948618D01*
X157541872Y-84060112D01*
X157541876Y-84060115D01*
X157672979Y-84147716D01*
X157672992Y-84147723D01*
X157818663Y-84208061D01*
X157818668Y-84208063D01*
X157973318Y-84238825D01*
X157973321Y-84238826D01*
X157973323Y-84238826D01*
X158131009Y-84238826D01*
X158131010Y-84238825D01*
X158285662Y-84208063D01*
X158431344Y-84147720D01*
X158562454Y-84060115D01*
X158673954Y-83948615D01*
X158761559Y-83817505D01*
X158821902Y-83671823D01*
X158852665Y-83517168D01*
X158852665Y-83359484D01*
X158852665Y-83359481D01*
X158852664Y-83359479D01*
X158821903Y-83204836D01*
X158821902Y-83204829D01*
X158761559Y-83059147D01*
X158717731Y-82993554D01*
X158696855Y-82926878D01*
X158696835Y-82924665D01*
X158696835Y-81995394D01*
X158696836Y-81995381D01*
X158696836Y-81827280D01*
X158696836Y-81827278D01*
X158655912Y-81674550D01*
X158624706Y-81620500D01*
X158576855Y-81537619D01*
X158465051Y-81425815D01*
X158465050Y-81425814D01*
X158460720Y-81421484D01*
X158460709Y-81421474D01*
X158291819Y-81252584D01*
X158258334Y-81191261D01*
X158255500Y-81164903D01*
X158255500Y-80833386D01*
X158254084Y-80817804D01*
X158249086Y-80762804D01*
X158225614Y-80687482D01*
X158224463Y-80617626D01*
X158256317Y-80562916D01*
X158665797Y-80153436D01*
X158727118Y-80119953D01*
X158791794Y-80123188D01*
X158862049Y-80146015D01*
X159079778Y-80180500D01*
X159079779Y-80180500D01*
X159235500Y-80180500D01*
X159302539Y-80200185D01*
X159348294Y-80252989D01*
X159359500Y-80304500D01*
X159359500Y-80368846D01*
X159390261Y-80523489D01*
X159390264Y-80523501D01*
X159450602Y-80669172D01*
X159450609Y-80669185D01*
X159538210Y-80800288D01*
X159538213Y-80800292D01*
X159649707Y-80911786D01*
X159649711Y-80911789D01*
X159780814Y-80999390D01*
X159780827Y-80999397D01*
X159926498Y-81059735D01*
X159926503Y-81059737D01*
X159991147Y-81072595D01*
X160081849Y-81090638D01*
X160143760Y-81123023D01*
X160145339Y-81124574D01*
X160183181Y-81162416D01*
X160216666Y-81223739D01*
X160219500Y-81250097D01*
X160219500Y-85616267D01*
X160199815Y-85683306D01*
X160147011Y-85729061D01*
X160134506Y-85733972D01*
X160100671Y-85745184D01*
X160100663Y-85745187D01*
X159951342Y-85837289D01*
X159827289Y-85961342D01*
X159735187Y-86110663D01*
X159735186Y-86110666D01*
X159680001Y-86277203D01*
X159680001Y-86277204D01*
X159680000Y-86277204D01*
X159669500Y-86379983D01*
X159669500Y-87280001D01*
X159669501Y-87280019D01*
X159680000Y-87382796D01*
X159680001Y-87382799D01*
X159731781Y-87539058D01*
X159735186Y-87549334D01*
X159827288Y-87698656D01*
X159951344Y-87822712D01*
X160100666Y-87914814D01*
X160267203Y-87969999D01*
X160369991Y-87980500D01*
X160725500Y-87980499D01*
X160792539Y-88000183D01*
X160838294Y-88052987D01*
X160849500Y-88104499D01*
X160849500Y-91109971D01*
X160829815Y-91177010D01*
X160777011Y-91222765D01*
X160707853Y-91232709D01*
X160686497Y-91227677D01*
X160572799Y-91190001D01*
X160572795Y-91190000D01*
X160470010Y-91179500D01*
X158869998Y-91179500D01*
X158869981Y-91179501D01*
X158767203Y-91190000D01*
X158767200Y-91190001D01*
X158600668Y-91245185D01*
X158600663Y-91245187D01*
X158451345Y-91337287D01*
X158346041Y-91442591D01*
X158284718Y-91476075D01*
X158234170Y-91476527D01*
X158218222Y-91473354D01*
X158198842Y-91469500D01*
X158041158Y-91469500D01*
X158041155Y-91469500D01*
X157886510Y-91500261D01*
X157886498Y-91500264D01*
X157740827Y-91560602D01*
X157740814Y-91560609D01*
X157609711Y-91648210D01*
X157609707Y-91648213D01*
X157498213Y-91759707D01*
X157498210Y-91759711D01*
X157410609Y-91890814D01*
X157410602Y-91890827D01*
X157350264Y-92036498D01*
X157350261Y-92036510D01*
X157319500Y-92191153D01*
X157319500Y-92348846D01*
X157350261Y-92503489D01*
X157350264Y-92503501D01*
X157410602Y-92649172D01*
X157410609Y-92649185D01*
X157498210Y-92780288D01*
X157498213Y-92780292D01*
X157609707Y-92891786D01*
X157609711Y-92891789D01*
X157740814Y-92979390D01*
X157740827Y-92979397D01*
X157886498Y-93039735D01*
X157886503Y-93039737D01*
X158041002Y-93070469D01*
X158041153Y-93070499D01*
X158041156Y-93070500D01*
X158179034Y-93070500D01*
X158246073Y-93090185D01*
X158284571Y-93129401D01*
X158327288Y-93198656D01*
X158451344Y-93322712D01*
X158600666Y-93414814D01*
X158767203Y-93469999D01*
X158869991Y-93480500D01*
X160200902Y-93480499D01*
X160267941Y-93500184D01*
X160313696Y-93552987D01*
X160323640Y-93622146D01*
X160294615Y-93685702D01*
X160288583Y-93692180D01*
X160077582Y-93903181D01*
X160016259Y-93936666D01*
X159989901Y-93939500D01*
X158642129Y-93939500D01*
X158642123Y-93939501D01*
X158582516Y-93945908D01*
X158447671Y-93996202D01*
X158447664Y-93996206D01*
X158332455Y-94082452D01*
X158332452Y-94082455D01*
X158246206Y-94197664D01*
X158246202Y-94197671D01*
X158195908Y-94332517D01*
X158189501Y-94392116D01*
X158189500Y-94392135D01*
X158189500Y-96187870D01*
X158189501Y-96187876D01*
X158195908Y-96247483D01*
X158246202Y-96382328D01*
X158246206Y-96382335D01*
X158332452Y-96497544D01*
X158332455Y-96497547D01*
X158447664Y-96583793D01*
X158447671Y-96583797D01*
X158582517Y-96634091D01*
X158582516Y-96634091D01*
X158589444Y-96634835D01*
X158642127Y-96640500D01*
X160437872Y-96640499D01*
X160497483Y-96634091D01*
X160632331Y-96583796D01*
X160747546Y-96497546D01*
X160833796Y-96382331D01*
X160884091Y-96247483D01*
X160890500Y-96187873D01*
X160890499Y-94840096D01*
X160910184Y-94773058D01*
X160926813Y-94752421D01*
X161930520Y-93748716D01*
X162009577Y-93611784D01*
X162050501Y-93459057D01*
X162050501Y-93300942D01*
X162050501Y-93293347D01*
X162050500Y-93293329D01*
X162050500Y-87549060D01*
X162050501Y-87549047D01*
X162050501Y-87380944D01*
X162050501Y-87380943D01*
X162009577Y-87228216D01*
X161987111Y-87189305D01*
X161970499Y-87127305D01*
X161970499Y-86379998D01*
X161970498Y-86379981D01*
X161959999Y-86277203D01*
X161959998Y-86277200D01*
X161904814Y-86110666D01*
X161812712Y-85961344D01*
X161688656Y-85837288D01*
X161539334Y-85745186D01*
X161539328Y-85745184D01*
X161505494Y-85733972D01*
X161448050Y-85694199D01*
X161421228Y-85629683D01*
X161420500Y-85616267D01*
X161420500Y-81039059D01*
X161420501Y-81039046D01*
X161420501Y-80870945D01*
X161420501Y-80870943D01*
X161379577Y-80718215D01*
X161316799Y-80609481D01*
X161300520Y-80581284D01*
X161188716Y-80469480D01*
X161188713Y-80469478D01*
X160994574Y-80275339D01*
X160961089Y-80214016D01*
X160960638Y-80211849D01*
X160929738Y-80056510D01*
X160929737Y-80056503D01*
X160905317Y-79997547D01*
X160869397Y-79910827D01*
X160869390Y-79910814D01*
X160781789Y-79779711D01*
X160781786Y-79779707D01*
X160670292Y-79668213D01*
X160670288Y-79668210D01*
X160539185Y-79580609D01*
X160539180Y-79580607D01*
X160539179Y-79580606D01*
X160522729Y-79573792D01*
X160510110Y-79568565D01*
X160455707Y-79524723D01*
X160433643Y-79458428D01*
X160447079Y-79397710D01*
X160487895Y-79317606D01*
X160556015Y-79107951D01*
X160590500Y-78890222D01*
X160590500Y-78669778D01*
X160556015Y-78452049D01*
X160487895Y-78242394D01*
X160487895Y-78242393D01*
X160453237Y-78174375D01*
X160387815Y-78045978D01*
X160371260Y-78023192D01*
X160258247Y-77867641D01*
X160258243Y-77867636D01*
X160208071Y-77817464D01*
X160174586Y-77756141D01*
X160179570Y-77686449D01*
X160221442Y-77630516D01*
X160252420Y-77613601D01*
X160332326Y-77583798D01*
X160332326Y-77583797D01*
X160332331Y-77583796D01*
X160447546Y-77497546D01*
X160533796Y-77382331D01*
X160584091Y-77247483D01*
X160590500Y-77187873D01*
X160590499Y-75292128D01*
X160584091Y-75232517D01*
X160546510Y-75131758D01*
X160533797Y-75097671D01*
X160533793Y-75097664D01*
X160447547Y-74982455D01*
X160447544Y-74982452D01*
X160332335Y-74896206D01*
X160332328Y-74896202D01*
X160197482Y-74845908D01*
X160197483Y-74845908D01*
X160137883Y-74839501D01*
X160137881Y-74839500D01*
X160137873Y-74839500D01*
X160137865Y-74839500D01*
X158670098Y-74839500D01*
X158603059Y-74819815D01*
X158594394Y-74813709D01*
X158588070Y-74808834D01*
X158508716Y-74729480D01*
X158421904Y-74679360D01*
X158371785Y-74650423D01*
X158219057Y-74609499D01*
X158060943Y-74609499D01*
X158053347Y-74609499D01*
X158053331Y-74609500D01*
X155140940Y-74609500D01*
X155100019Y-74620464D01*
X155100019Y-74620465D01*
X155062751Y-74630451D01*
X154988214Y-74650423D01*
X154988209Y-74650426D01*
X154851290Y-74729475D01*
X154851286Y-74729478D01*
X154754202Y-74826562D01*
X154692879Y-74860046D01*
X154628203Y-74856811D01*
X154580422Y-74841286D01*
X154557952Y-74833985D01*
X154429934Y-74813709D01*
X154340222Y-74799500D01*
X154119778Y-74799500D01*
X154047201Y-74810995D01*
X153902047Y-74833985D01*
X153692396Y-74902103D01*
X153692393Y-74902104D01*
X153495974Y-75002187D01*
X153317641Y-75131752D01*
X153317636Y-75131756D01*
X153161756Y-75287636D01*
X153161752Y-75287641D01*
X153032187Y-75465974D01*
X152932104Y-75662393D01*
X152932103Y-75662396D01*
X152863985Y-75872047D01*
X152829500Y-76089778D01*
X152829500Y-76310221D01*
X152863985Y-76527952D01*
X152932103Y-76737603D01*
X152932104Y-76737606D01*
X153032187Y-76934025D01*
X153161752Y-77112358D01*
X153161756Y-77112363D01*
X153211928Y-77162535D01*
X153245413Y-77223858D01*
X153240429Y-77293550D01*
X153198557Y-77349483D01*
X153167581Y-77366398D01*
X153087669Y-77396203D01*
X153087664Y-77396206D01*
X152972455Y-77482452D01*
X152972452Y-77482455D01*
X152886206Y-77597664D01*
X152886202Y-77597671D01*
X152835908Y-77732517D01*
X152829814Y-77789209D01*
X152829501Y-77792123D01*
X152829500Y-77792135D01*
X152829500Y-78999902D01*
X152809815Y-79066941D01*
X152800373Y-79079747D01*
X152796951Y-79083812D01*
X152699480Y-79181284D01*
X152671221Y-79230231D01*
X152665751Y-79239703D01*
X152665750Y-79239706D01*
X152620424Y-79318213D01*
X152620423Y-79318215D01*
X152579499Y-79470943D01*
X152579499Y-79629057D01*
X152579499Y-79629059D01*
X152579500Y-79639058D01*
X152579500Y-80933330D01*
X152579499Y-80933348D01*
X152579499Y-81099054D01*
X152579498Y-81099054D01*
X148680500Y-81099054D01*
X148680500Y-73598543D01*
X149139499Y-73598543D01*
X149177947Y-73791829D01*
X149177950Y-73791839D01*
X149253364Y-73973907D01*
X149253371Y-73973920D01*
X149362860Y-74137781D01*
X149362863Y-74137785D01*
X149502214Y-74277136D01*
X149502218Y-74277139D01*
X149666079Y-74386628D01*
X149666092Y-74386635D01*
X149848160Y-74462049D01*
X149848165Y-74462051D01*
X149848169Y-74462051D01*
X149848170Y-74462052D01*
X150041456Y-74500500D01*
X150041459Y-74500500D01*
X150238543Y-74500500D01*
X150368582Y-74474632D01*
X150431835Y-74462051D01*
X150613914Y-74386632D01*
X150777782Y-74277139D01*
X150917139Y-74137782D01*
X151026632Y-73973914D01*
X151102051Y-73791835D01*
X151140500Y-73598543D01*
X162739499Y-73598543D01*
X162777947Y-73791829D01*
X162777950Y-73791839D01*
X162853364Y-73973907D01*
X162853371Y-73973920D01*
X162962860Y-74137781D01*
X162962863Y-74137785D01*
X163102214Y-74277136D01*
X163102218Y-74277139D01*
X163266079Y-74386628D01*
X163266092Y-74386635D01*
X163448160Y-74462049D01*
X163448165Y-74462051D01*
X163448169Y-74462051D01*
X163448170Y-74462052D01*
X163641456Y-74500500D01*
X163641459Y-74500500D01*
X163838543Y-74500500D01*
X163968582Y-74474632D01*
X164031835Y-74462051D01*
X164213914Y-74386632D01*
X164377782Y-74277139D01*
X164517139Y-74137782D01*
X164626632Y-73973914D01*
X164702051Y-73791835D01*
X164740500Y-73598541D01*
X164740500Y-73401459D01*
X164740500Y-73401456D01*
X164702052Y-73208170D01*
X164702051Y-73208169D01*
X164702051Y-73208165D01*
X164702049Y-73208160D01*
X164626635Y-73026092D01*
X164626628Y-73026079D01*
X164517139Y-72862218D01*
X164517136Y-72862214D01*
X164377785Y-72722863D01*
X164377781Y-72722860D01*
X164213920Y-72613371D01*
X164213907Y-72613364D01*
X164031839Y-72537950D01*
X164031829Y-72537947D01*
X163838543Y-72499500D01*
X163838541Y-72499500D01*
X163641459Y-72499500D01*
X163641457Y-72499500D01*
X163448170Y-72537947D01*
X163448160Y-72537950D01*
X163266092Y-72613364D01*
X163266079Y-72613371D01*
X163102218Y-72722860D01*
X163102214Y-72722863D01*
X162962863Y-72862214D01*
X162962860Y-72862218D01*
X162853371Y-73026079D01*
X162853364Y-73026092D01*
X162777950Y-73208160D01*
X162777947Y-73208170D01*
X162739500Y-73401456D01*
X162739500Y-73401459D01*
X162739500Y-73598541D01*
X162739500Y-73598543D01*
X162739499Y-73598543D01*
X151140500Y-73598543D01*
X151140500Y-73598541D01*
X151140500Y-73401459D01*
X151140500Y-73401456D01*
X151102052Y-73208170D01*
X151102051Y-73208169D01*
X151102051Y-73208165D01*
X151102049Y-73208160D01*
X151026635Y-73026092D01*
X151026628Y-73026079D01*
X150917139Y-72862218D01*
X150917136Y-72862214D01*
X150777785Y-72722863D01*
X150777781Y-72722860D01*
X150613920Y-72613371D01*
X150613907Y-72613364D01*
X150431839Y-72537950D01*
X150431829Y-72537947D01*
X150238543Y-72499500D01*
X150238541Y-72499500D01*
X150041459Y-72499500D01*
X150041457Y-72499500D01*
X149848170Y-72537947D01*
X149848160Y-72537950D01*
X149666092Y-72613364D01*
X149666079Y-72613371D01*
X149502218Y-72722860D01*
X149502214Y-72722863D01*
X149362863Y-72862214D01*
X149362860Y-72862218D01*
X149253371Y-73026079D01*
X149253364Y-73026092D01*
X149177950Y-73208160D01*
X149177947Y-73208170D01*
X149139500Y-73401456D01*
X149139500Y-73401459D01*
X149139500Y-73598541D01*
X149139500Y-73598543D01*
X149139499Y-73598543D01*
X148680500Y-73598543D01*
X148680500Y-72164500D01*
X148700185Y-72097461D01*
X148752989Y-72051706D01*
X148804500Y-72040500D01*
X165255500Y-72040500D01*
X165322539Y-72060185D01*
G37*
%TD.AperFunction*%
%TD*%
M02*
