%TF.GenerationSoftware,KiCad,Pcbnew,10.0.0*%
%TF.CreationDate,2026-04-25T02:07:18-07:00*%
%TF.ProjectId,IR Sensor,49522053-656e-4736-9f72-2e6b69636164,rev?*%
%TF.SameCoordinates,Original*%
%TF.FileFunction,Legend,Bot*%
%TF.FilePolarity,Positive*%
%FSLAX46Y46*%
G04 Gerber Fmt 4.6, Leading zero omitted, Abs format (unit mm)*
G04 Created by KiCad (PCBNEW 10.0.0) date 2026-04-25 02:07:18*
%MOMM*%
%LPD*%
G01*
G04 APERTURE LIST*
%ADD10C,0.150000*%
%ADD11C,0.120000*%
G04 APERTURE END LIST*
D10*
X162432295Y-79498571D02*
X163079914Y-79498571D01*
X163079914Y-79498571D02*
X163156104Y-79536666D01*
X163156104Y-79536666D02*
X163194200Y-79574761D01*
X163194200Y-79574761D02*
X163232295Y-79650952D01*
X163232295Y-79650952D02*
X163232295Y-79803333D01*
X163232295Y-79803333D02*
X163194200Y-79879523D01*
X163194200Y-79879523D02*
X163156104Y-79917618D01*
X163156104Y-79917618D02*
X163079914Y-79955714D01*
X163079914Y-79955714D02*
X162432295Y-79955714D01*
X163232295Y-80755713D02*
X163232295Y-80298570D01*
X163232295Y-80527142D02*
X162432295Y-80527142D01*
X162432295Y-80527142D02*
X162546580Y-80450951D01*
X162546580Y-80450951D02*
X162622771Y-80374761D01*
X162622771Y-80374761D02*
X162660866Y-80298570D01*
X163537057Y-81936666D02*
X163498961Y-81898571D01*
X163498961Y-81898571D02*
X163384676Y-81822380D01*
X163384676Y-81822380D02*
X163308485Y-81784285D01*
X163308485Y-81784285D02*
X163194200Y-81746190D01*
X163194200Y-81746190D02*
X163003723Y-81708095D01*
X163003723Y-81708095D02*
X162851342Y-81708095D01*
X162851342Y-81708095D02*
X162660866Y-81746190D01*
X162660866Y-81746190D02*
X162546580Y-81784285D01*
X162546580Y-81784285D02*
X162470390Y-81822380D01*
X162470390Y-81822380D02*
X162356104Y-81898571D01*
X162356104Y-81898571D02*
X162318009Y-81936666D01*
X163232295Y-82622380D02*
X163232295Y-82241428D01*
X163232295Y-82241428D02*
X162432295Y-82241428D01*
X163232295Y-82889047D02*
X162432295Y-82889047D01*
X162432295Y-82889047D02*
X163003723Y-83155713D01*
X163003723Y-83155713D02*
X162432295Y-83422380D01*
X162432295Y-83422380D02*
X163232295Y-83422380D01*
X162432295Y-83727142D02*
X162432295Y-84222380D01*
X162432295Y-84222380D02*
X162737057Y-83955714D01*
X162737057Y-83955714D02*
X162737057Y-84069999D01*
X162737057Y-84069999D02*
X162775152Y-84146190D01*
X162775152Y-84146190D02*
X162813247Y-84184285D01*
X162813247Y-84184285D02*
X162889438Y-84222380D01*
X162889438Y-84222380D02*
X163079914Y-84222380D01*
X163079914Y-84222380D02*
X163156104Y-84184285D01*
X163156104Y-84184285D02*
X163194200Y-84146190D01*
X163194200Y-84146190D02*
X163232295Y-84069999D01*
X163232295Y-84069999D02*
X163232295Y-83841428D01*
X163232295Y-83841428D02*
X163194200Y-83765237D01*
X163194200Y-83765237D02*
X163156104Y-83727142D01*
X163232295Y-84603333D02*
X163232295Y-84755714D01*
X163232295Y-84755714D02*
X163194200Y-84831904D01*
X163194200Y-84831904D02*
X163156104Y-84870000D01*
X163156104Y-84870000D02*
X163041819Y-84946190D01*
X163041819Y-84946190D02*
X162889438Y-84984285D01*
X162889438Y-84984285D02*
X162584676Y-84984285D01*
X162584676Y-84984285D02*
X162508485Y-84946190D01*
X162508485Y-84946190D02*
X162470390Y-84908095D01*
X162470390Y-84908095D02*
X162432295Y-84831904D01*
X162432295Y-84831904D02*
X162432295Y-84679523D01*
X162432295Y-84679523D02*
X162470390Y-84603333D01*
X162470390Y-84603333D02*
X162508485Y-84565238D01*
X162508485Y-84565238D02*
X162584676Y-84527142D01*
X162584676Y-84527142D02*
X162775152Y-84527142D01*
X162775152Y-84527142D02*
X162851342Y-84565238D01*
X162851342Y-84565238D02*
X162889438Y-84603333D01*
X162889438Y-84603333D02*
X162927533Y-84679523D01*
X162927533Y-84679523D02*
X162927533Y-84831904D01*
X162927533Y-84831904D02*
X162889438Y-84908095D01*
X162889438Y-84908095D02*
X162851342Y-84946190D01*
X162851342Y-84946190D02*
X162775152Y-84984285D01*
X162432295Y-85250952D02*
X162432295Y-85746190D01*
X162432295Y-85746190D02*
X162737057Y-85479524D01*
X162737057Y-85479524D02*
X162737057Y-85593809D01*
X162737057Y-85593809D02*
X162775152Y-85670000D01*
X162775152Y-85670000D02*
X162813247Y-85708095D01*
X162813247Y-85708095D02*
X162889438Y-85746190D01*
X162889438Y-85746190D02*
X163079914Y-85746190D01*
X163079914Y-85746190D02*
X163156104Y-85708095D01*
X163156104Y-85708095D02*
X163194200Y-85670000D01*
X163194200Y-85670000D02*
X163232295Y-85593809D01*
X163232295Y-85593809D02*
X163232295Y-85365238D01*
X163232295Y-85365238D02*
X163194200Y-85289047D01*
X163194200Y-85289047D02*
X163156104Y-85250952D01*
X163537057Y-86012857D02*
X163498961Y-86050952D01*
X163498961Y-86050952D02*
X163384676Y-86127143D01*
X163384676Y-86127143D02*
X163308485Y-86165238D01*
X163308485Y-86165238D02*
X163194200Y-86203333D01*
X163194200Y-86203333D02*
X163003723Y-86241429D01*
X163003723Y-86241429D02*
X162851342Y-86241429D01*
X162851342Y-86241429D02*
X162660866Y-86203333D01*
X162660866Y-86203333D02*
X162546580Y-86165238D01*
X162546580Y-86165238D02*
X162470390Y-86127143D01*
X162470390Y-86127143D02*
X162356104Y-86050952D01*
X162356104Y-86050952D02*
X162318009Y-86012857D01*
%TO.C,U1 (LM393)*%
D11*
X154420000Y-80590000D02*
X154420000Y-80685000D01*
X154420000Y-85615000D02*
X154420000Y-85710000D01*
X154420000Y-85710000D02*
X158540000Y-85710000D01*
X158540000Y-80590000D02*
X154420000Y-80590000D01*
X158540000Y-80685000D02*
X158540000Y-80590000D01*
X158540000Y-85710000D02*
X158540000Y-85615000D01*
X159080000Y-80680000D02*
X158840000Y-80350000D01*
X159320000Y-80350000D01*
X159080000Y-80680000D01*
G36*
X159080000Y-80680000D02*
G01*
X158840000Y-80350000D01*
X159320000Y-80350000D01*
X159080000Y-80680000D01*
G37*
%TD*%
M02*
