%TF.GenerationSoftware,KiCad,Pcbnew,10.0.1*%
%TF.CreationDate,2026-05-24T19:00:39-07:00*%
%TF.ProjectId,Gas_Leak_&_Temp_Alert_System,4761735f-4c65-4616-9b5f-265f54656d70,rev?*%
%TF.SameCoordinates,Original*%
%TF.FileFunction,Legend,Bot*%
%TF.FilePolarity,Positive*%
%FSLAX46Y46*%
G04 Gerber Fmt 4.6, Leading zero omitted, Abs format (unit mm)*
G04 Created by KiCad (PCBNEW 10.0.1) date 2026-05-24 19:00:39*
%MOMM*%
%LPD*%
G01*
G04 APERTURE LIST*
%ADD10C,0.010000*%
G04 APERTURE END LIST*
D10*
%TO.C,REF\u002A\u002A*%
X93400260Y-119540788D02*
X93483011Y-119567991D01*
X93558104Y-119613422D01*
X93629996Y-119679240D01*
X93668544Y-119723505D01*
X93707954Y-119781899D01*
X93733144Y-119842524D01*
X93746559Y-119911803D01*
X93750646Y-119996160D01*
X93750367Y-120042245D01*
X93748158Y-120083388D01*
X93742592Y-120115520D01*
X93732284Y-120146060D01*
X93715846Y-120182427D01*
X93701898Y-120209666D01*
X93643363Y-120295367D01*
X93571317Y-120364555D01*
X93487645Y-120415679D01*
X93394229Y-120447188D01*
X93361132Y-120454163D01*
X93320658Y-120461032D01*
X93287697Y-120462857D01*
X93253396Y-120459885D01*
X93208898Y-120452364D01*
X93157632Y-120439940D01*
X93067132Y-120402050D01*
X92988043Y-120347774D01*
X92922226Y-120279708D01*
X92871538Y-120200449D01*
X92837838Y-120112592D01*
X92822984Y-120018733D01*
X92828834Y-119921468D01*
X92855097Y-119825158D01*
X92900116Y-119736432D01*
X92961071Y-119661357D01*
X93035882Y-119601579D01*
X93122466Y-119558747D01*
X93218741Y-119534509D01*
X93322626Y-119530514D01*
X93400260Y-119540788D01*
G36*
X93400260Y-119540788D02*
G01*
X93483011Y-119567991D01*
X93558104Y-119613422D01*
X93629996Y-119679240D01*
X93668544Y-119723505D01*
X93707954Y-119781899D01*
X93733144Y-119842524D01*
X93746559Y-119911803D01*
X93750646Y-119996160D01*
X93750367Y-120042245D01*
X93748158Y-120083388D01*
X93742592Y-120115520D01*
X93732284Y-120146060D01*
X93715846Y-120182427D01*
X93701898Y-120209666D01*
X93643363Y-120295367D01*
X93571317Y-120364555D01*
X93487645Y-120415679D01*
X93394229Y-120447188D01*
X93361132Y-120454163D01*
X93320658Y-120461032D01*
X93287697Y-120462857D01*
X93253396Y-120459885D01*
X93208898Y-120452364D01*
X93157632Y-120439940D01*
X93067132Y-120402050D01*
X92988043Y-120347774D01*
X92922226Y-120279708D01*
X92871538Y-120200449D01*
X92837838Y-120112592D01*
X92822984Y-120018733D01*
X92828834Y-119921468D01*
X92855097Y-119825158D01*
X92900116Y-119736432D01*
X92961071Y-119661357D01*
X93035882Y-119601579D01*
X93122466Y-119558747D01*
X93218741Y-119534509D01*
X93322626Y-119530514D01*
X93400260Y-119540788D01*
G37*
X90934409Y-120469971D02*
X91029966Y-120487461D01*
X91194256Y-120532502D01*
X91348287Y-120595594D01*
X91494207Y-120677853D01*
X91634164Y-120780395D01*
X91770306Y-120904337D01*
X91814171Y-120949599D01*
X91926456Y-121081803D01*
X92019670Y-121219770D01*
X92096417Y-121367688D01*
X92159301Y-121529741D01*
X92163118Y-121541329D01*
X92213205Y-121727330D01*
X92246597Y-121923459D01*
X92263282Y-122125506D01*
X92263249Y-122329263D01*
X92246489Y-122530519D01*
X92212990Y-122725066D01*
X92162742Y-122908694D01*
X92118888Y-123025991D01*
X92041046Y-123188889D01*
X91947526Y-123342804D01*
X91840520Y-123484609D01*
X91722217Y-123611177D01*
X91594809Y-123719379D01*
X91517304Y-123772058D01*
X91390423Y-123841688D01*
X91252941Y-123900406D01*
X91111414Y-123945525D01*
X90972400Y-123974360D01*
X90958295Y-123976044D01*
X90914851Y-123979372D01*
X90857421Y-123982213D01*
X90791820Y-123984311D01*
X90723865Y-123985406D01*
X90597076Y-123983078D01*
X90449371Y-123970074D01*
X90311477Y-123945071D01*
X90177712Y-123907256D01*
X90154260Y-123898827D01*
X90106310Y-123879346D01*
X90049838Y-123854411D01*
X89988077Y-123825660D01*
X89924261Y-123794728D01*
X89861624Y-123763253D01*
X89803401Y-123732872D01*
X89752825Y-123705221D01*
X89713131Y-123681937D01*
X89687552Y-123664656D01*
X89679323Y-123655017D01*
X89680774Y-123651922D01*
X89691948Y-123632017D01*
X89712832Y-123596358D01*
X89741963Y-123547397D01*
X89777879Y-123487584D01*
X89819118Y-123419371D01*
X89864215Y-123345209D01*
X90045483Y-123047946D01*
X90092013Y-123092477D01*
X90183421Y-123170803D01*
X90297032Y-123245377D01*
X90414820Y-123299412D01*
X90535257Y-123332228D01*
X90656815Y-123343149D01*
X90698283Y-123341806D01*
X90815778Y-123323550D01*
X90925787Y-123284555D01*
X91027128Y-123225608D01*
X91118619Y-123147495D01*
X91199078Y-123051002D01*
X91267325Y-122936916D01*
X91283606Y-122902662D01*
X91329680Y-122779178D01*
X91364804Y-122640856D01*
X91388895Y-122491499D01*
X91401871Y-122334911D01*
X91403647Y-122174894D01*
X91394141Y-122015252D01*
X91373270Y-121859788D01*
X91340950Y-121712304D01*
X91297097Y-121576605D01*
X91259680Y-121490014D01*
X91194883Y-121376626D01*
X91119470Y-121283008D01*
X91033116Y-121208897D01*
X90935493Y-121154032D01*
X90826275Y-121118150D01*
X90705137Y-121100989D01*
X90635736Y-121099818D01*
X90512866Y-121114079D01*
X90397362Y-121149179D01*
X90290651Y-121204620D01*
X90194162Y-121279902D01*
X90178418Y-121294378D01*
X90147848Y-121320900D01*
X90125507Y-121338076D01*
X90115389Y-121342725D01*
X90113404Y-121340535D01*
X90098939Y-121321659D01*
X90075098Y-121288335D01*
X90043727Y-121243318D01*
X90006672Y-121189363D01*
X89965781Y-121129223D01*
X89922900Y-121065656D01*
X89879876Y-121001414D01*
X89838555Y-120939253D01*
X89800784Y-120881929D01*
X89768410Y-120832195D01*
X89743280Y-120792806D01*
X89727240Y-120766518D01*
X89722137Y-120756085D01*
X89726748Y-120751879D01*
X89745965Y-120746871D01*
X89755536Y-120744324D01*
X89783507Y-120733187D01*
X89825146Y-120714740D01*
X89876693Y-120690663D01*
X89934388Y-120662637D01*
X89945655Y-120657092D01*
X90123385Y-120577827D01*
X90293188Y-120518323D01*
X90457128Y-120478183D01*
X90617269Y-120457009D01*
X90775675Y-120454404D01*
X90934409Y-120469971D01*
G36*
X90934409Y-120469971D02*
G01*
X91029966Y-120487461D01*
X91194256Y-120532502D01*
X91348287Y-120595594D01*
X91494207Y-120677853D01*
X91634164Y-120780395D01*
X91770306Y-120904337D01*
X91814171Y-120949599D01*
X91926456Y-121081803D01*
X92019670Y-121219770D01*
X92096417Y-121367688D01*
X92159301Y-121529741D01*
X92163118Y-121541329D01*
X92213205Y-121727330D01*
X92246597Y-121923459D01*
X92263282Y-122125506D01*
X92263249Y-122329263D01*
X92246489Y-122530519D01*
X92212990Y-122725066D01*
X92162742Y-122908694D01*
X92118888Y-123025991D01*
X92041046Y-123188889D01*
X91947526Y-123342804D01*
X91840520Y-123484609D01*
X91722217Y-123611177D01*
X91594809Y-123719379D01*
X91517304Y-123772058D01*
X91390423Y-123841688D01*
X91252941Y-123900406D01*
X91111414Y-123945525D01*
X90972400Y-123974360D01*
X90958295Y-123976044D01*
X90914851Y-123979372D01*
X90857421Y-123982213D01*
X90791820Y-123984311D01*
X90723865Y-123985406D01*
X90597076Y-123983078D01*
X90449371Y-123970074D01*
X90311477Y-123945071D01*
X90177712Y-123907256D01*
X90154260Y-123898827D01*
X90106310Y-123879346D01*
X90049838Y-123854411D01*
X89988077Y-123825660D01*
X89924261Y-123794728D01*
X89861624Y-123763253D01*
X89803401Y-123732872D01*
X89752825Y-123705221D01*
X89713131Y-123681937D01*
X89687552Y-123664656D01*
X89679323Y-123655017D01*
X89680774Y-123651922D01*
X89691948Y-123632017D01*
X89712832Y-123596358D01*
X89741963Y-123547397D01*
X89777879Y-123487584D01*
X89819118Y-123419371D01*
X89864215Y-123345209D01*
X90045483Y-123047946D01*
X90092013Y-123092477D01*
X90183421Y-123170803D01*
X90297032Y-123245377D01*
X90414820Y-123299412D01*
X90535257Y-123332228D01*
X90656815Y-123343149D01*
X90698283Y-123341806D01*
X90815778Y-123323550D01*
X90925787Y-123284555D01*
X91027128Y-123225608D01*
X91118619Y-123147495D01*
X91199078Y-123051002D01*
X91267325Y-122936916D01*
X91283606Y-122902662D01*
X91329680Y-122779178D01*
X91364804Y-122640856D01*
X91388895Y-122491499D01*
X91401871Y-122334911D01*
X91403647Y-122174894D01*
X91394141Y-122015252D01*
X91373270Y-121859788D01*
X91340950Y-121712304D01*
X91297097Y-121576605D01*
X91259680Y-121490014D01*
X91194883Y-121376626D01*
X91119470Y-121283008D01*
X91033116Y-121208897D01*
X90935493Y-121154032D01*
X90826275Y-121118150D01*
X90705137Y-121100989D01*
X90635736Y-121099818D01*
X90512866Y-121114079D01*
X90397362Y-121149179D01*
X90290651Y-121204620D01*
X90194162Y-121279902D01*
X90178418Y-121294378D01*
X90147848Y-121320900D01*
X90125507Y-121338076D01*
X90115389Y-121342725D01*
X90113404Y-121340535D01*
X90098939Y-121321659D01*
X90075098Y-121288335D01*
X90043727Y-121243318D01*
X90006672Y-121189363D01*
X89965781Y-121129223D01*
X89922900Y-121065656D01*
X89879876Y-121001414D01*
X89838555Y-120939253D01*
X89800784Y-120881929D01*
X89768410Y-120832195D01*
X89743280Y-120792806D01*
X89727240Y-120766518D01*
X89722137Y-120756085D01*
X89726748Y-120751879D01*
X89745965Y-120746871D01*
X89755536Y-120744324D01*
X89783507Y-120733187D01*
X89825146Y-120714740D01*
X89876693Y-120690663D01*
X89934388Y-120662637D01*
X89945655Y-120657092D01*
X90123385Y-120577827D01*
X90293188Y-120518323D01*
X90457128Y-120478183D01*
X90617269Y-120457009D01*
X90775675Y-120454404D01*
X90934409Y-120469971D01*
G37*
X87131692Y-122750649D02*
X87130966Y-122828096D01*
X87122387Y-122979532D01*
X87103531Y-123116221D01*
X87073535Y-123242214D01*
X87031534Y-123361563D01*
X86976667Y-123478319D01*
X86909865Y-123589117D01*
X86819061Y-123702677D01*
X86715406Y-123798149D01*
X86599585Y-123875011D01*
X86472284Y-123932735D01*
X86334187Y-123970796D01*
X86296491Y-123976604D01*
X86217450Y-123982334D01*
X86129327Y-123982521D01*
X86039934Y-123977477D01*
X85957082Y-123967516D01*
X85888585Y-123952950D01*
X85857733Y-123943302D01*
X85780428Y-123913061D01*
X85703377Y-123875555D01*
X85633898Y-123834552D01*
X85579313Y-123793817D01*
X85556614Y-123774443D01*
X85533899Y-123756600D01*
X85522477Y-123749716D01*
X85521235Y-123751362D01*
X85518426Y-123769143D01*
X85516474Y-123802308D01*
X85515743Y-123845671D01*
X85515743Y-123941627D01*
X84657594Y-123941627D01*
X84691859Y-123880912D01*
X84697053Y-123871806D01*
X84705413Y-123857187D01*
X84712986Y-123843111D01*
X84719810Y-123828478D01*
X84725925Y-123812187D01*
X84731371Y-123793136D01*
X84736185Y-123770224D01*
X84740406Y-123742351D01*
X84744075Y-123708416D01*
X84747229Y-123667317D01*
X84749909Y-123617953D01*
X84752152Y-123559224D01*
X84753997Y-123490028D01*
X84755485Y-123409264D01*
X84756653Y-123315832D01*
X84757542Y-123208630D01*
X84758189Y-123086558D01*
X84758634Y-122948514D01*
X84758916Y-122793397D01*
X84759073Y-122620106D01*
X84759146Y-122427541D01*
X84759172Y-122214600D01*
X84759183Y-122078468D01*
X85560898Y-122078468D01*
X85560898Y-123228659D01*
X85631454Y-123275027D01*
X85672115Y-123298729D01*
X85726244Y-123324577D01*
X85775387Y-123342767D01*
X85838863Y-123358489D01*
X85935029Y-123369479D01*
X86019598Y-123361303D01*
X86092917Y-123333743D01*
X86155335Y-123286580D01*
X86207200Y-123219596D01*
X86248858Y-123132571D01*
X86280660Y-123025288D01*
X86283243Y-123012947D01*
X86291698Y-122951710D01*
X86297361Y-122874630D01*
X86300274Y-122786940D01*
X86300481Y-122693872D01*
X86298028Y-122600658D01*
X86292959Y-122512532D01*
X86285317Y-122434726D01*
X86275146Y-122372471D01*
X86273865Y-122366604D01*
X86244824Y-122256059D01*
X86210308Y-122165513D01*
X86169154Y-122092891D01*
X86120197Y-122036119D01*
X86062272Y-121993122D01*
X86030318Y-121977553D01*
X85957482Y-121958660D01*
X85876141Y-121955403D01*
X85791017Y-121967327D01*
X85706831Y-121993978D01*
X85628306Y-122034900D01*
X85560898Y-122078468D01*
X84759183Y-122078468D01*
X84759191Y-121980183D01*
X84759387Y-120295316D01*
X85664715Y-120295316D01*
X85640283Y-120332005D01*
X85634016Y-120341585D01*
X85607906Y-120387919D01*
X85590167Y-120435040D01*
X85578606Y-120490189D01*
X85571029Y-120560605D01*
X85570537Y-120567588D01*
X85568760Y-120605579D01*
X85567142Y-120659514D01*
X85565697Y-120726641D01*
X85564438Y-120804209D01*
X85563378Y-120889466D01*
X85562527Y-120979662D01*
X85561901Y-121072045D01*
X85561510Y-121163863D01*
X85561368Y-121252365D01*
X85561488Y-121334800D01*
X85561881Y-121408417D01*
X85562560Y-121470464D01*
X85563539Y-121518189D01*
X85564830Y-121548842D01*
X85566445Y-121559671D01*
X85574655Y-121555271D01*
X85596345Y-121540300D01*
X85625712Y-121518386D01*
X85674577Y-121484174D01*
X85762823Y-121437652D01*
X85861614Y-121403984D01*
X85974208Y-121382169D01*
X86103862Y-121371203D01*
X86196368Y-121370157D01*
X86317709Y-121379952D01*
X86427797Y-121404112D01*
X86531087Y-121443723D01*
X86632036Y-121499870D01*
X86677201Y-121530821D01*
X86782609Y-121622053D01*
X86874236Y-121731044D01*
X86952030Y-121857664D01*
X87015939Y-122001783D01*
X87065912Y-122163270D01*
X87101896Y-122341997D01*
X87123841Y-122537833D01*
X87129598Y-122693872D01*
X87131692Y-122750649D01*
G36*
X87131692Y-122750649D02*
G01*
X87130966Y-122828096D01*
X87122387Y-122979532D01*
X87103531Y-123116221D01*
X87073535Y-123242214D01*
X87031534Y-123361563D01*
X86976667Y-123478319D01*
X86909865Y-123589117D01*
X86819061Y-123702677D01*
X86715406Y-123798149D01*
X86599585Y-123875011D01*
X86472284Y-123932735D01*
X86334187Y-123970796D01*
X86296491Y-123976604D01*
X86217450Y-123982334D01*
X86129327Y-123982521D01*
X86039934Y-123977477D01*
X85957082Y-123967516D01*
X85888585Y-123952950D01*
X85857733Y-123943302D01*
X85780428Y-123913061D01*
X85703377Y-123875555D01*
X85633898Y-123834552D01*
X85579313Y-123793817D01*
X85556614Y-123774443D01*
X85533899Y-123756600D01*
X85522477Y-123749716D01*
X85521235Y-123751362D01*
X85518426Y-123769143D01*
X85516474Y-123802308D01*
X85515743Y-123845671D01*
X85515743Y-123941627D01*
X84657594Y-123941627D01*
X84691859Y-123880912D01*
X84697053Y-123871806D01*
X84705413Y-123857187D01*
X84712986Y-123843111D01*
X84719810Y-123828478D01*
X84725925Y-123812187D01*
X84731371Y-123793136D01*
X84736185Y-123770224D01*
X84740406Y-123742351D01*
X84744075Y-123708416D01*
X84747229Y-123667317D01*
X84749909Y-123617953D01*
X84752152Y-123559224D01*
X84753997Y-123490028D01*
X84755485Y-123409264D01*
X84756653Y-123315832D01*
X84757542Y-123208630D01*
X84758189Y-123086558D01*
X84758634Y-122948514D01*
X84758916Y-122793397D01*
X84759073Y-122620106D01*
X84759146Y-122427541D01*
X84759172Y-122214600D01*
X84759183Y-122078468D01*
X85560898Y-122078468D01*
X85560898Y-123228659D01*
X85631454Y-123275027D01*
X85672115Y-123298729D01*
X85726244Y-123324577D01*
X85775387Y-123342767D01*
X85838863Y-123358489D01*
X85935029Y-123369479D01*
X86019598Y-123361303D01*
X86092917Y-123333743D01*
X86155335Y-123286580D01*
X86207200Y-123219596D01*
X86248858Y-123132571D01*
X86280660Y-123025288D01*
X86283243Y-123012947D01*
X86291698Y-122951710D01*
X86297361Y-122874630D01*
X86300274Y-122786940D01*
X86300481Y-122693872D01*
X86298028Y-122600658D01*
X86292959Y-122512532D01*
X86285317Y-122434726D01*
X86275146Y-122372471D01*
X86273865Y-122366604D01*
X86244824Y-122256059D01*
X86210308Y-122165513D01*
X86169154Y-122092891D01*
X86120197Y-122036119D01*
X86062272Y-121993122D01*
X86030318Y-121977553D01*
X85957482Y-121958660D01*
X85876141Y-121955403D01*
X85791017Y-121967327D01*
X85706831Y-121993978D01*
X85628306Y-122034900D01*
X85560898Y-122078468D01*
X84759183Y-122078468D01*
X84759191Y-121980183D01*
X84759387Y-120295316D01*
X85664715Y-120295316D01*
X85640283Y-120332005D01*
X85634016Y-120341585D01*
X85607906Y-120387919D01*
X85590167Y-120435040D01*
X85578606Y-120490189D01*
X85571029Y-120560605D01*
X85570537Y-120567588D01*
X85568760Y-120605579D01*
X85567142Y-120659514D01*
X85565697Y-120726641D01*
X85564438Y-120804209D01*
X85563378Y-120889466D01*
X85562527Y-120979662D01*
X85561901Y-121072045D01*
X85561510Y-121163863D01*
X85561368Y-121252365D01*
X85561488Y-121334800D01*
X85561881Y-121408417D01*
X85562560Y-121470464D01*
X85563539Y-121518189D01*
X85564830Y-121548842D01*
X85566445Y-121559671D01*
X85574655Y-121555271D01*
X85596345Y-121540300D01*
X85625712Y-121518386D01*
X85674577Y-121484174D01*
X85762823Y-121437652D01*
X85861614Y-121403984D01*
X85974208Y-121382169D01*
X86103862Y-121371203D01*
X86196368Y-121370157D01*
X86317709Y-121379952D01*
X86427797Y-121404112D01*
X86531087Y-121443723D01*
X86632036Y-121499870D01*
X86677201Y-121530821D01*
X86782609Y-121622053D01*
X86874236Y-121731044D01*
X86952030Y-121857664D01*
X87015939Y-122001783D01*
X87065912Y-122163270D01*
X87101896Y-122341997D01*
X87123841Y-122537833D01*
X87129598Y-122693872D01*
X87131692Y-122750649D01*
G37*
X89673453Y-123151405D02*
X89672959Y-123185301D01*
X89669330Y-123260140D01*
X89661720Y-123322339D01*
X89649386Y-123378922D01*
X89605011Y-123505014D01*
X89542098Y-123619617D01*
X89461936Y-123720506D01*
X89365438Y-123806862D01*
X89253520Y-123877870D01*
X89127095Y-123932714D01*
X88987076Y-123970576D01*
X88950847Y-123976289D01*
X88871853Y-123982251D01*
X88783539Y-123982584D01*
X88693773Y-123977597D01*
X88610420Y-123967604D01*
X88541349Y-123952916D01*
X88454885Y-123922687D01*
X88344984Y-123867995D01*
X88247654Y-123800481D01*
X88185565Y-123749494D01*
X88182303Y-123845560D01*
X88179041Y-123941627D01*
X87756148Y-123941627D01*
X87745241Y-123941624D01*
X87650754Y-123941318D01*
X87564029Y-123940554D01*
X87487535Y-123939389D01*
X87423741Y-123937880D01*
X87375116Y-123936085D01*
X87344131Y-123934059D01*
X87333254Y-123931860D01*
X87333276Y-123931401D01*
X87340312Y-123915848D01*
X87356132Y-123893009D01*
X87360432Y-123887576D01*
X87371475Y-123873544D01*
X87381009Y-123860124D01*
X87389159Y-123845660D01*
X87396050Y-123828494D01*
X87401809Y-123806972D01*
X87406560Y-123779436D01*
X87410429Y-123744230D01*
X87413542Y-123699698D01*
X87416023Y-123644184D01*
X87417998Y-123576031D01*
X87419592Y-123493583D01*
X87420932Y-123395184D01*
X87422142Y-123279177D01*
X87423347Y-123143906D01*
X87424293Y-123032524D01*
X88225076Y-123032524D01*
X88225076Y-123228400D01*
X88269746Y-123284911D01*
X88282483Y-123300150D01*
X88329302Y-123342782D01*
X88389953Y-123378610D01*
X88400595Y-123383788D01*
X88439374Y-123400683D01*
X88474390Y-123410847D01*
X88514420Y-123416263D01*
X88568239Y-123418916D01*
X88586346Y-123419321D01*
X88661709Y-123416478D01*
X88722441Y-123404558D01*
X88774150Y-123381975D01*
X88822444Y-123347149D01*
X88827501Y-123342736D01*
X88875970Y-123287098D01*
X88904157Y-123223271D01*
X88913450Y-123148220D01*
X88906218Y-123076631D01*
X88881494Y-123013583D01*
X88836947Y-122955696D01*
X88782017Y-122908746D01*
X88709592Y-122868899D01*
X88623038Y-122841201D01*
X88520368Y-122825034D01*
X88399592Y-122819780D01*
X88390705Y-122819795D01*
X88335358Y-122820593D01*
X88288434Y-122822426D01*
X88254651Y-122825049D01*
X88238726Y-122828212D01*
X88234641Y-122834679D01*
X88230270Y-122856813D01*
X88227302Y-122895926D01*
X88225612Y-122953877D01*
X88225076Y-123032524D01*
X87424293Y-123032524D01*
X87424673Y-122987716D01*
X87425926Y-122844950D01*
X87427349Y-122699880D01*
X87428874Y-122573965D01*
X87430631Y-122465374D01*
X87432749Y-122372272D01*
X87435358Y-122292829D01*
X87438588Y-122225211D01*
X87442567Y-122167587D01*
X87447426Y-122118123D01*
X87453295Y-122074988D01*
X87460302Y-122036348D01*
X87468578Y-122000372D01*
X87478252Y-121965227D01*
X87489454Y-121929080D01*
X87502314Y-121890099D01*
X87517788Y-121847029D01*
X87560692Y-121754809D01*
X87614433Y-121675037D01*
X87683274Y-121600903D01*
X87760883Y-121537343D01*
X87865459Y-121475663D01*
X87984942Y-121428140D01*
X88120206Y-121394505D01*
X88272124Y-121374490D01*
X88441570Y-121367827D01*
X88499588Y-121368225D01*
X88565096Y-121370273D01*
X88626391Y-121374642D01*
X88687795Y-121381973D01*
X88753630Y-121392907D01*
X88828218Y-121408085D01*
X88915882Y-121428147D01*
X89020943Y-121453735D01*
X89049504Y-121460758D01*
X89124752Y-121478714D01*
X89195086Y-121494758D01*
X89256265Y-121507966D01*
X89304052Y-121517412D01*
X89334209Y-121522169D01*
X89362481Y-121525848D01*
X89388758Y-121531125D01*
X89398757Y-121535880D01*
X89395650Y-121544719D01*
X89384892Y-121572010D01*
X89367562Y-121614844D01*
X89344824Y-121670363D01*
X89317845Y-121735710D01*
X89287788Y-121808027D01*
X89281191Y-121823817D01*
X89242605Y-121914422D01*
X89211466Y-121984155D01*
X89187615Y-122033343D01*
X89170896Y-122062312D01*
X89161152Y-122071390D01*
X89153464Y-122069343D01*
X89127113Y-122059698D01*
X89088680Y-122044128D01*
X89043520Y-122024753D01*
X88948991Y-121986752D01*
X88812178Y-121945718D01*
X88670987Y-121920550D01*
X88633012Y-121916549D01*
X88529757Y-121914385D01*
X88442650Y-121927560D01*
X88370827Y-121956694D01*
X88313429Y-122002404D01*
X88269594Y-122065310D01*
X88238460Y-122146030D01*
X88219168Y-122245183D01*
X88211748Y-122304162D01*
X88373634Y-122297383D01*
X88500193Y-122295751D01*
X88651649Y-122302132D01*
X88800094Y-122316715D01*
X88936276Y-122338820D01*
X89000943Y-122353759D01*
X89133188Y-122396679D01*
X89255460Y-122453278D01*
X89365383Y-122521955D01*
X89460581Y-122601108D01*
X89538678Y-122689134D01*
X89597297Y-122784431D01*
X89621293Y-122836802D01*
X89646930Y-122907528D01*
X89663176Y-122978750D01*
X89671520Y-123057650D01*
X89673388Y-123148220D01*
X89673453Y-123151405D01*
G36*
X89673453Y-123151405D02*
G01*
X89672959Y-123185301D01*
X89669330Y-123260140D01*
X89661720Y-123322339D01*
X89649386Y-123378922D01*
X89605011Y-123505014D01*
X89542098Y-123619617D01*
X89461936Y-123720506D01*
X89365438Y-123806862D01*
X89253520Y-123877870D01*
X89127095Y-123932714D01*
X88987076Y-123970576D01*
X88950847Y-123976289D01*
X88871853Y-123982251D01*
X88783539Y-123982584D01*
X88693773Y-123977597D01*
X88610420Y-123967604D01*
X88541349Y-123952916D01*
X88454885Y-123922687D01*
X88344984Y-123867995D01*
X88247654Y-123800481D01*
X88185565Y-123749494D01*
X88182303Y-123845560D01*
X88179041Y-123941627D01*
X87756148Y-123941627D01*
X87745241Y-123941624D01*
X87650754Y-123941318D01*
X87564029Y-123940554D01*
X87487535Y-123939389D01*
X87423741Y-123937880D01*
X87375116Y-123936085D01*
X87344131Y-123934059D01*
X87333254Y-123931860D01*
X87333276Y-123931401D01*
X87340312Y-123915848D01*
X87356132Y-123893009D01*
X87360432Y-123887576D01*
X87371475Y-123873544D01*
X87381009Y-123860124D01*
X87389159Y-123845660D01*
X87396050Y-123828494D01*
X87401809Y-123806972D01*
X87406560Y-123779436D01*
X87410429Y-123744230D01*
X87413542Y-123699698D01*
X87416023Y-123644184D01*
X87417998Y-123576031D01*
X87419592Y-123493583D01*
X87420932Y-123395184D01*
X87422142Y-123279177D01*
X87423347Y-123143906D01*
X87424293Y-123032524D01*
X88225076Y-123032524D01*
X88225076Y-123228400D01*
X88269746Y-123284911D01*
X88282483Y-123300150D01*
X88329302Y-123342782D01*
X88389953Y-123378610D01*
X88400595Y-123383788D01*
X88439374Y-123400683D01*
X88474390Y-123410847D01*
X88514420Y-123416263D01*
X88568239Y-123418916D01*
X88586346Y-123419321D01*
X88661709Y-123416478D01*
X88722441Y-123404558D01*
X88774150Y-123381975D01*
X88822444Y-123347149D01*
X88827501Y-123342736D01*
X88875970Y-123287098D01*
X88904157Y-123223271D01*
X88913450Y-123148220D01*
X88906218Y-123076631D01*
X88881494Y-123013583D01*
X88836947Y-122955696D01*
X88782017Y-122908746D01*
X88709592Y-122868899D01*
X88623038Y-122841201D01*
X88520368Y-122825034D01*
X88399592Y-122819780D01*
X88390705Y-122819795D01*
X88335358Y-122820593D01*
X88288434Y-122822426D01*
X88254651Y-122825049D01*
X88238726Y-122828212D01*
X88234641Y-122834679D01*
X88230270Y-122856813D01*
X88227302Y-122895926D01*
X88225612Y-122953877D01*
X88225076Y-123032524D01*
X87424293Y-123032524D01*
X87424673Y-122987716D01*
X87425926Y-122844950D01*
X87427349Y-122699880D01*
X87428874Y-122573965D01*
X87430631Y-122465374D01*
X87432749Y-122372272D01*
X87435358Y-122292829D01*
X87438588Y-122225211D01*
X87442567Y-122167587D01*
X87447426Y-122118123D01*
X87453295Y-122074988D01*
X87460302Y-122036348D01*
X87468578Y-122000372D01*
X87478252Y-121965227D01*
X87489454Y-121929080D01*
X87502314Y-121890099D01*
X87517788Y-121847029D01*
X87560692Y-121754809D01*
X87614433Y-121675037D01*
X87683274Y-121600903D01*
X87760883Y-121537343D01*
X87865459Y-121475663D01*
X87984942Y-121428140D01*
X88120206Y-121394505D01*
X88272124Y-121374490D01*
X88441570Y-121367827D01*
X88499588Y-121368225D01*
X88565096Y-121370273D01*
X88626391Y-121374642D01*
X88687795Y-121381973D01*
X88753630Y-121392907D01*
X88828218Y-121408085D01*
X88915882Y-121428147D01*
X89020943Y-121453735D01*
X89049504Y-121460758D01*
X89124752Y-121478714D01*
X89195086Y-121494758D01*
X89256265Y-121507966D01*
X89304052Y-121517412D01*
X89334209Y-121522169D01*
X89362481Y-121525848D01*
X89388758Y-121531125D01*
X89398757Y-121535880D01*
X89395650Y-121544719D01*
X89384892Y-121572010D01*
X89367562Y-121614844D01*
X89344824Y-121670363D01*
X89317845Y-121735710D01*
X89287788Y-121808027D01*
X89281191Y-121823817D01*
X89242605Y-121914422D01*
X89211466Y-121984155D01*
X89187615Y-122033343D01*
X89170896Y-122062312D01*
X89161152Y-122071390D01*
X89153464Y-122069343D01*
X89127113Y-122059698D01*
X89088680Y-122044128D01*
X89043520Y-122024753D01*
X88948991Y-121986752D01*
X88812178Y-121945718D01*
X88670987Y-121920550D01*
X88633012Y-121916549D01*
X88529757Y-121914385D01*
X88442650Y-121927560D01*
X88370827Y-121956694D01*
X88313429Y-122002404D01*
X88269594Y-122065310D01*
X88238460Y-122146030D01*
X88219168Y-122245183D01*
X88211748Y-122304162D01*
X88373634Y-122297383D01*
X88500193Y-122295751D01*
X88651649Y-122302132D01*
X88800094Y-122316715D01*
X88936276Y-122338820D01*
X89000943Y-122353759D01*
X89133188Y-122396679D01*
X89255460Y-122453278D01*
X89365383Y-122521955D01*
X89460581Y-122601108D01*
X89538678Y-122689134D01*
X89597297Y-122784431D01*
X89621293Y-122836802D01*
X89646930Y-122907528D01*
X89663176Y-122978750D01*
X89671520Y-123057650D01*
X89673388Y-123148220D01*
X89673453Y-123151405D01*
G37*
X97221312Y-120619730D02*
X97221757Y-120750949D01*
X97222060Y-120898154D01*
X97222246Y-121062287D01*
X97222340Y-121244290D01*
X97222369Y-121445103D01*
X97222359Y-121665670D01*
X97222334Y-121906930D01*
X97222320Y-122169827D01*
X97222320Y-122211978D01*
X97222344Y-122472606D01*
X97222383Y-122711734D01*
X97222406Y-122930298D01*
X97222385Y-123129233D01*
X97222291Y-123309473D01*
X97222093Y-123471953D01*
X97221761Y-123617608D01*
X97221267Y-123747372D01*
X97220581Y-123862181D01*
X97219674Y-123962968D01*
X97218515Y-124050668D01*
X97217076Y-124126217D01*
X97215327Y-124190549D01*
X97213238Y-124244599D01*
X97210781Y-124289301D01*
X97207925Y-124325590D01*
X97204641Y-124354401D01*
X97200900Y-124376669D01*
X97196672Y-124393328D01*
X97191927Y-124405313D01*
X97186637Y-124413559D01*
X97180771Y-124419000D01*
X97174300Y-124422572D01*
X97167195Y-124425208D01*
X97159426Y-124427844D01*
X97150964Y-124431415D01*
X97146606Y-124433083D01*
X97138093Y-124435049D01*
X97125392Y-124436849D01*
X97107583Y-124438493D01*
X97083747Y-124439985D01*
X97052964Y-124441335D01*
X97014315Y-124442549D01*
X96966880Y-124443635D01*
X96909741Y-124444599D01*
X96841977Y-124445449D01*
X96762669Y-124446191D01*
X96670897Y-124446835D01*
X96565742Y-124447385D01*
X96446285Y-124447851D01*
X96311606Y-124448238D01*
X96160786Y-124448554D01*
X95992904Y-124448807D01*
X95807043Y-124449004D01*
X95602281Y-124449151D01*
X95377700Y-124449256D01*
X95132380Y-124449327D01*
X94865402Y-124449370D01*
X94827019Y-124449375D01*
X94561620Y-124449418D01*
X94317748Y-124449463D01*
X94094481Y-124449486D01*
X93890894Y-124449462D01*
X93706065Y-124449368D01*
X93539071Y-124449181D01*
X93388988Y-124448877D01*
X93254894Y-124448432D01*
X93135864Y-124447823D01*
X93030977Y-124447027D01*
X92939308Y-124446018D01*
X92859935Y-124444775D01*
X92791935Y-124443273D01*
X92734384Y-124441489D01*
X92686360Y-124439399D01*
X92646938Y-124436980D01*
X92615197Y-124434208D01*
X92590212Y-124431059D01*
X92571062Y-124427510D01*
X92556821Y-124423536D01*
X92546569Y-124419116D01*
X92539380Y-124414224D01*
X92534333Y-124408838D01*
X92530503Y-124402934D01*
X92526969Y-124396487D01*
X92522806Y-124389475D01*
X92521723Y-124387625D01*
X92519511Y-124382118D01*
X92517484Y-124373806D01*
X92515636Y-124361747D01*
X92513959Y-124345001D01*
X92512443Y-124322625D01*
X92511081Y-124293678D01*
X92509865Y-124257218D01*
X92508787Y-124212305D01*
X92507838Y-124157995D01*
X92507010Y-124093348D01*
X92506295Y-124017422D01*
X92505685Y-123929276D01*
X92505640Y-123920431D01*
X92797076Y-123920431D01*
X92800958Y-123921703D01*
X92824218Y-123923729D01*
X92866572Y-123925564D01*
X92925830Y-123927165D01*
X92999805Y-123928487D01*
X93086308Y-123929486D01*
X93183150Y-123930118D01*
X93288143Y-123930338D01*
X93986349Y-123930338D01*
X95140788Y-123930338D01*
X95140154Y-123854138D01*
X95141272Y-123812098D01*
X95147002Y-123776272D01*
X95159588Y-123738710D01*
X95181266Y-123690515D01*
X95184487Y-123683835D01*
X95209886Y-123634297D01*
X95236694Y-123586307D01*
X95259615Y-123549404D01*
X95264183Y-123542772D01*
X95286214Y-123511531D01*
X95318391Y-123466592D01*
X95359155Y-123410085D01*
X95406943Y-123344142D01*
X95460196Y-123270895D01*
X95517353Y-123192474D01*
X95576853Y-123111010D01*
X95637135Y-123028636D01*
X95696638Y-122947482D01*
X95753803Y-122869680D01*
X95807068Y-122797361D01*
X95854872Y-122732656D01*
X95895655Y-122677697D01*
X95927856Y-122634614D01*
X95949914Y-122605540D01*
X95960269Y-122592605D01*
X95964742Y-122588289D01*
X95968934Y-122586250D01*
X95972341Y-122588864D01*
X95975023Y-122597924D01*
X95977039Y-122615223D01*
X95978446Y-122642552D01*
X95979303Y-122681703D01*
X95979668Y-122734471D01*
X95979601Y-122802645D01*
X95979158Y-122888020D01*
X95978400Y-122992387D01*
X95977383Y-123117538D01*
X95977006Y-123162238D01*
X95975867Y-123283333D01*
X95974670Y-123384626D01*
X95973334Y-123468200D01*
X95971775Y-123536142D01*
X95969913Y-123590537D01*
X95967664Y-123633470D01*
X95964946Y-123667027D01*
X95961677Y-123693293D01*
X95957776Y-123714354D01*
X95953159Y-123732295D01*
X95944890Y-123758708D01*
X95921281Y-123820710D01*
X95895383Y-123873511D01*
X95870233Y-123910583D01*
X95869037Y-123912013D01*
X95866866Y-123916362D01*
X95869026Y-123919964D01*
X95877342Y-123922889D01*
X95893638Y-123925207D01*
X95919739Y-123926989D01*
X95957469Y-123928305D01*
X96008654Y-123929224D01*
X96075118Y-123929816D01*
X96158685Y-123930153D01*
X96261181Y-123930303D01*
X96384430Y-123930338D01*
X96915994Y-123930338D01*
X96877221Y-123872721D01*
X96871130Y-123863831D01*
X96860674Y-123849007D01*
X96851277Y-123835360D01*
X96842881Y-123821703D01*
X96835431Y-123806849D01*
X96828871Y-123789608D01*
X96823144Y-123768793D01*
X96818193Y-123743218D01*
X96813964Y-123711693D01*
X96810399Y-123673031D01*
X96807442Y-123626045D01*
X96805038Y-123569546D01*
X96803129Y-123502347D01*
X96801660Y-123423260D01*
X96800574Y-123331098D01*
X96799816Y-123224672D01*
X96799328Y-123102795D01*
X96799056Y-122964279D01*
X96798941Y-122807937D01*
X96798929Y-122632580D01*
X96798963Y-122437020D01*
X96798987Y-122220071D01*
X96798978Y-122097451D01*
X96798941Y-121892385D01*
X96798925Y-121708054D01*
X96798986Y-121543272D01*
X96799182Y-121396854D01*
X96799568Y-121267612D01*
X96800203Y-121154360D01*
X96801142Y-121055913D01*
X96802443Y-120971082D01*
X96804162Y-120898682D01*
X96806357Y-120837527D01*
X96809083Y-120786430D01*
X96812399Y-120744205D01*
X96816360Y-120709665D01*
X96821023Y-120681624D01*
X96826445Y-120658896D01*
X96832684Y-120640294D01*
X96839795Y-120624631D01*
X96847836Y-120610722D01*
X96856864Y-120597379D01*
X96866934Y-120583417D01*
X96878105Y-120567649D01*
X96917895Y-120509805D01*
X95858012Y-120509805D01*
X95896009Y-120572904D01*
X95910691Y-120597943D01*
X95925229Y-120625524D01*
X95937325Y-120653638D01*
X95947230Y-120684489D01*
X95955192Y-120720282D01*
X95961459Y-120763221D01*
X95966280Y-120815512D01*
X95969904Y-120879357D01*
X95972579Y-120956963D01*
X95974555Y-121050532D01*
X95976080Y-121162271D01*
X95977402Y-121294383D01*
X95978311Y-121414372D01*
X95978718Y-121531001D01*
X95978465Y-121626469D01*
X95977555Y-121700494D01*
X95975991Y-121752793D01*
X95973777Y-121783087D01*
X95970918Y-121791094D01*
X95967859Y-121787796D01*
X95949704Y-121766346D01*
X95919973Y-121729827D01*
X95880337Y-121680380D01*
X95832469Y-121620145D01*
X95778041Y-121551265D01*
X95718725Y-121475881D01*
X95656193Y-121396134D01*
X95592119Y-121314166D01*
X95528173Y-121232118D01*
X95466029Y-121152132D01*
X95407359Y-121076349D01*
X95353835Y-121006911D01*
X95307128Y-120945959D01*
X95268912Y-120895634D01*
X95240859Y-120858078D01*
X95224641Y-120835433D01*
X95179333Y-120763150D01*
X95139359Y-120683401D01*
X95117828Y-120615126D01*
X95114525Y-120557782D01*
X95119814Y-120509805D01*
X93988054Y-120510055D01*
X94027565Y-120540660D01*
X94036946Y-120548027D01*
X94099881Y-120602376D01*
X94168695Y-120670197D01*
X94245294Y-120753454D01*
X94331586Y-120854116D01*
X94348750Y-120874785D01*
X94389531Y-120924347D01*
X94439286Y-120985264D01*
X94496653Y-121055836D01*
X94560267Y-121134362D01*
X94628767Y-121219142D01*
X94700788Y-121308475D01*
X94774968Y-121400660D01*
X94790215Y-121419640D01*
X94849944Y-121493998D01*
X94924351Y-121586786D01*
X94996829Y-121677326D01*
X95066012Y-121763916D01*
X95130539Y-121844856D01*
X95189045Y-121918444D01*
X95240168Y-121982982D01*
X95282545Y-122036767D01*
X95314813Y-122078100D01*
X95335608Y-122105280D01*
X95343567Y-122116606D01*
X95341809Y-122120709D01*
X95328928Y-122141272D01*
X95304583Y-122177499D01*
X95269945Y-122227762D01*
X95226184Y-122290430D01*
X95174473Y-122363874D01*
X95115982Y-122446465D01*
X95051882Y-122536574D01*
X94983344Y-122632569D01*
X94911541Y-122732823D01*
X94837642Y-122835706D01*
X94762819Y-122939588D01*
X94688243Y-123042839D01*
X94615085Y-123143830D01*
X94544517Y-123240932D01*
X94477709Y-123332515D01*
X94415833Y-123416949D01*
X94360059Y-123492605D01*
X94311560Y-123557854D01*
X94271505Y-123611066D01*
X94241067Y-123650611D01*
X94220642Y-123675964D01*
X94174597Y-123730233D01*
X94124310Y-123786713D01*
X94077513Y-123836607D01*
X93986349Y-123930338D01*
X93288143Y-123930338D01*
X93357054Y-123930287D01*
X93455305Y-123930029D01*
X93544728Y-123929575D01*
X93623031Y-123928948D01*
X93687921Y-123928173D01*
X93737109Y-123927273D01*
X93768302Y-123926272D01*
X93779209Y-123925195D01*
X93778020Y-123921975D01*
X93767874Y-123904390D01*
X93750738Y-123878096D01*
X93742238Y-123865629D01*
X93733027Y-123851560D01*
X93724931Y-123837289D01*
X93717883Y-123821417D01*
X93711815Y-123802547D01*
X93706659Y-123779279D01*
X93702349Y-123750216D01*
X93698817Y-123713959D01*
X93695995Y-123669108D01*
X93693816Y-123614266D01*
X93692212Y-123548035D01*
X93691117Y-123469015D01*
X93690463Y-123375809D01*
X93690182Y-123267017D01*
X93690207Y-123141241D01*
X93690470Y-122997083D01*
X93690904Y-122833145D01*
X93691443Y-122648027D01*
X93691977Y-122469170D01*
X93692503Y-122310312D01*
X93693048Y-122171254D01*
X93693643Y-122050603D01*
X93694317Y-121946966D01*
X93695101Y-121858949D01*
X93696024Y-121785161D01*
X93697117Y-121724207D01*
X93698410Y-121674695D01*
X93699933Y-121635231D01*
X93701717Y-121604422D01*
X93703790Y-121580876D01*
X93706184Y-121563198D01*
X93708928Y-121549997D01*
X93712054Y-121539878D01*
X93715590Y-121531449D01*
X93719489Y-121523313D01*
X93739136Y-121486482D01*
X93757923Y-121456329D01*
X93758970Y-121454846D01*
X93773300Y-121432597D01*
X93779209Y-121419640D01*
X93778202Y-121419187D01*
X93761003Y-121417741D01*
X93724354Y-121416418D01*
X93670660Y-121415254D01*
X93602328Y-121414285D01*
X93521762Y-121413549D01*
X93431368Y-121413080D01*
X93333551Y-121412916D01*
X92887893Y-121412916D01*
X92884818Y-122589783D01*
X92881743Y-123766649D01*
X92855105Y-123825560D01*
X92843183Y-123850121D01*
X92825944Y-123880372D01*
X92812772Y-123897498D01*
X92804774Y-123905529D01*
X92797076Y-123920431D01*
X92505640Y-123920431D01*
X92505172Y-123827967D01*
X92504748Y-123712555D01*
X92504404Y-123582098D01*
X92504132Y-123435654D01*
X92503925Y-123272282D01*
X92503774Y-123091039D01*
X92503670Y-122890986D01*
X92503606Y-122671179D01*
X92503574Y-122430677D01*
X92503565Y-122168540D01*
X92503565Y-119976969D01*
X92541947Y-119938587D01*
X92569053Y-119914849D01*
X92595951Y-119903049D01*
X92632258Y-119900205D01*
X92684187Y-119900205D01*
X92684187Y-119988144D01*
X92686125Y-120038040D01*
X92704897Y-120148461D01*
X92741915Y-120249925D01*
X92795067Y-120341090D01*
X92862244Y-120420611D01*
X92941336Y-120487143D01*
X93030232Y-120539344D01*
X93126823Y-120575868D01*
X93228998Y-120595372D01*
X93334648Y-120596511D01*
X93441662Y-120577943D01*
X93547930Y-120538322D01*
X93644917Y-120480454D01*
X93729991Y-120405622D01*
X93798713Y-120317553D01*
X93849616Y-120218554D01*
X93881233Y-120110931D01*
X93892098Y-119996992D01*
X93892098Y-119900205D01*
X95512451Y-119900205D01*
X95723595Y-119900218D01*
X95927718Y-119900268D01*
X96111384Y-119900368D01*
X96275689Y-119900530D01*
X96421727Y-119900767D01*
X96550592Y-119901091D01*
X96663381Y-119901513D01*
X96761186Y-119902047D01*
X96845102Y-119902705D01*
X96916225Y-119903499D01*
X96975648Y-119904442D01*
X97024466Y-119905546D01*
X97063775Y-119906822D01*
X97094667Y-119908285D01*
X97118239Y-119909945D01*
X97135584Y-119911816D01*
X97147797Y-119913910D01*
X97155973Y-119916238D01*
X97161206Y-119918814D01*
X97167202Y-119922383D01*
X97173977Y-119925916D01*
X97180176Y-119929426D01*
X97185824Y-119933856D01*
X97190945Y-119940146D01*
X97195567Y-119949239D01*
X97199713Y-119962077D01*
X97203411Y-119979600D01*
X97206685Y-120002751D01*
X97209561Y-120032472D01*
X97212065Y-120069703D01*
X97214222Y-120115387D01*
X97216058Y-120170465D01*
X97217598Y-120235879D01*
X97218868Y-120312571D01*
X97219893Y-120401482D01*
X97220699Y-120503555D01*
X97220732Y-120509805D01*
X97221312Y-120619730D01*
G36*
X97221312Y-120619730D02*
G01*
X97221757Y-120750949D01*
X97222060Y-120898154D01*
X97222246Y-121062287D01*
X97222340Y-121244290D01*
X97222369Y-121445103D01*
X97222359Y-121665670D01*
X97222334Y-121906930D01*
X97222320Y-122169827D01*
X97222320Y-122211978D01*
X97222344Y-122472606D01*
X97222383Y-122711734D01*
X97222406Y-122930298D01*
X97222385Y-123129233D01*
X97222291Y-123309473D01*
X97222093Y-123471953D01*
X97221761Y-123617608D01*
X97221267Y-123747372D01*
X97220581Y-123862181D01*
X97219674Y-123962968D01*
X97218515Y-124050668D01*
X97217076Y-124126217D01*
X97215327Y-124190549D01*
X97213238Y-124244599D01*
X97210781Y-124289301D01*
X97207925Y-124325590D01*
X97204641Y-124354401D01*
X97200900Y-124376669D01*
X97196672Y-124393328D01*
X97191927Y-124405313D01*
X97186637Y-124413559D01*
X97180771Y-124419000D01*
X97174300Y-124422572D01*
X97167195Y-124425208D01*
X97159426Y-124427844D01*
X97150964Y-124431415D01*
X97146606Y-124433083D01*
X97138093Y-124435049D01*
X97125392Y-124436849D01*
X97107583Y-124438493D01*
X97083747Y-124439985D01*
X97052964Y-124441335D01*
X97014315Y-124442549D01*
X96966880Y-124443635D01*
X96909741Y-124444599D01*
X96841977Y-124445449D01*
X96762669Y-124446191D01*
X96670897Y-124446835D01*
X96565742Y-124447385D01*
X96446285Y-124447851D01*
X96311606Y-124448238D01*
X96160786Y-124448554D01*
X95992904Y-124448807D01*
X95807043Y-124449004D01*
X95602281Y-124449151D01*
X95377700Y-124449256D01*
X95132380Y-124449327D01*
X94865402Y-124449370D01*
X94827019Y-124449375D01*
X94561620Y-124449418D01*
X94317748Y-124449463D01*
X94094481Y-124449486D01*
X93890894Y-124449462D01*
X93706065Y-124449368D01*
X93539071Y-124449181D01*
X93388988Y-124448877D01*
X93254894Y-124448432D01*
X93135864Y-124447823D01*
X93030977Y-124447027D01*
X92939308Y-124446018D01*
X92859935Y-124444775D01*
X92791935Y-124443273D01*
X92734384Y-124441489D01*
X92686360Y-124439399D01*
X92646938Y-124436980D01*
X92615197Y-124434208D01*
X92590212Y-124431059D01*
X92571062Y-124427510D01*
X92556821Y-124423536D01*
X92546569Y-124419116D01*
X92539380Y-124414224D01*
X92534333Y-124408838D01*
X92530503Y-124402934D01*
X92526969Y-124396487D01*
X92522806Y-124389475D01*
X92521723Y-124387625D01*
X92519511Y-124382118D01*
X92517484Y-124373806D01*
X92515636Y-124361747D01*
X92513959Y-124345001D01*
X92512443Y-124322625D01*
X92511081Y-124293678D01*
X92509865Y-124257218D01*
X92508787Y-124212305D01*
X92507838Y-124157995D01*
X92507010Y-124093348D01*
X92506295Y-124017422D01*
X92505685Y-123929276D01*
X92505640Y-123920431D01*
X92797076Y-123920431D01*
X92800958Y-123921703D01*
X92824218Y-123923729D01*
X92866572Y-123925564D01*
X92925830Y-123927165D01*
X92999805Y-123928487D01*
X93086308Y-123929486D01*
X93183150Y-123930118D01*
X93288143Y-123930338D01*
X93986349Y-123930338D01*
X95140788Y-123930338D01*
X95140154Y-123854138D01*
X95141272Y-123812098D01*
X95147002Y-123776272D01*
X95159588Y-123738710D01*
X95181266Y-123690515D01*
X95184487Y-123683835D01*
X95209886Y-123634297D01*
X95236694Y-123586307D01*
X95259615Y-123549404D01*
X95264183Y-123542772D01*
X95286214Y-123511531D01*
X95318391Y-123466592D01*
X95359155Y-123410085D01*
X95406943Y-123344142D01*
X95460196Y-123270895D01*
X95517353Y-123192474D01*
X95576853Y-123111010D01*
X95637135Y-123028636D01*
X95696638Y-122947482D01*
X95753803Y-122869680D01*
X95807068Y-122797361D01*
X95854872Y-122732656D01*
X95895655Y-122677697D01*
X95927856Y-122634614D01*
X95949914Y-122605540D01*
X95960269Y-122592605D01*
X95964742Y-122588289D01*
X95968934Y-122586250D01*
X95972341Y-122588864D01*
X95975023Y-122597924D01*
X95977039Y-122615223D01*
X95978446Y-122642552D01*
X95979303Y-122681703D01*
X95979668Y-122734471D01*
X95979601Y-122802645D01*
X95979158Y-122888020D01*
X95978400Y-122992387D01*
X95977383Y-123117538D01*
X95977006Y-123162238D01*
X95975867Y-123283333D01*
X95974670Y-123384626D01*
X95973334Y-123468200D01*
X95971775Y-123536142D01*
X95969913Y-123590537D01*
X95967664Y-123633470D01*
X95964946Y-123667027D01*
X95961677Y-123693293D01*
X95957776Y-123714354D01*
X95953159Y-123732295D01*
X95944890Y-123758708D01*
X95921281Y-123820710D01*
X95895383Y-123873511D01*
X95870233Y-123910583D01*
X95869037Y-123912013D01*
X95866866Y-123916362D01*
X95869026Y-123919964D01*
X95877342Y-123922889D01*
X95893638Y-123925207D01*
X95919739Y-123926989D01*
X95957469Y-123928305D01*
X96008654Y-123929224D01*
X96075118Y-123929816D01*
X96158685Y-123930153D01*
X96261181Y-123930303D01*
X96384430Y-123930338D01*
X96915994Y-123930338D01*
X96877221Y-123872721D01*
X96871130Y-123863831D01*
X96860674Y-123849007D01*
X96851277Y-123835360D01*
X96842881Y-123821703D01*
X96835431Y-123806849D01*
X96828871Y-123789608D01*
X96823144Y-123768793D01*
X96818193Y-123743218D01*
X96813964Y-123711693D01*
X96810399Y-123673031D01*
X96807442Y-123626045D01*
X96805038Y-123569546D01*
X96803129Y-123502347D01*
X96801660Y-123423260D01*
X96800574Y-123331098D01*
X96799816Y-123224672D01*
X96799328Y-123102795D01*
X96799056Y-122964279D01*
X96798941Y-122807937D01*
X96798929Y-122632580D01*
X96798963Y-122437020D01*
X96798987Y-122220071D01*
X96798978Y-122097451D01*
X96798941Y-121892385D01*
X96798925Y-121708054D01*
X96798986Y-121543272D01*
X96799182Y-121396854D01*
X96799568Y-121267612D01*
X96800203Y-121154360D01*
X96801142Y-121055913D01*
X96802443Y-120971082D01*
X96804162Y-120898682D01*
X96806357Y-120837527D01*
X96809083Y-120786430D01*
X96812399Y-120744205D01*
X96816360Y-120709665D01*
X96821023Y-120681624D01*
X96826445Y-120658896D01*
X96832684Y-120640294D01*
X96839795Y-120624631D01*
X96847836Y-120610722D01*
X96856864Y-120597379D01*
X96866934Y-120583417D01*
X96878105Y-120567649D01*
X96917895Y-120509805D01*
X95858012Y-120509805D01*
X95896009Y-120572904D01*
X95910691Y-120597943D01*
X95925229Y-120625524D01*
X95937325Y-120653638D01*
X95947230Y-120684489D01*
X95955192Y-120720282D01*
X95961459Y-120763221D01*
X95966280Y-120815512D01*
X95969904Y-120879357D01*
X95972579Y-120956963D01*
X95974555Y-121050532D01*
X95976080Y-121162271D01*
X95977402Y-121294383D01*
X95978311Y-121414372D01*
X95978718Y-121531001D01*
X95978465Y-121626469D01*
X95977555Y-121700494D01*
X95975991Y-121752793D01*
X95973777Y-121783087D01*
X95970918Y-121791094D01*
X95967859Y-121787796D01*
X95949704Y-121766346D01*
X95919973Y-121729827D01*
X95880337Y-121680380D01*
X95832469Y-121620145D01*
X95778041Y-121551265D01*
X95718725Y-121475881D01*
X95656193Y-121396134D01*
X95592119Y-121314166D01*
X95528173Y-121232118D01*
X95466029Y-121152132D01*
X95407359Y-121076349D01*
X95353835Y-121006911D01*
X95307128Y-120945959D01*
X95268912Y-120895634D01*
X95240859Y-120858078D01*
X95224641Y-120835433D01*
X95179333Y-120763150D01*
X95139359Y-120683401D01*
X95117828Y-120615126D01*
X95114525Y-120557782D01*
X95119814Y-120509805D01*
X93988054Y-120510055D01*
X94027565Y-120540660D01*
X94036946Y-120548027D01*
X94099881Y-120602376D01*
X94168695Y-120670197D01*
X94245294Y-120753454D01*
X94331586Y-120854116D01*
X94348750Y-120874785D01*
X94389531Y-120924347D01*
X94439286Y-120985264D01*
X94496653Y-121055836D01*
X94560267Y-121134362D01*
X94628767Y-121219142D01*
X94700788Y-121308475D01*
X94774968Y-121400660D01*
X94790215Y-121419640D01*
X94849944Y-121493998D01*
X94924351Y-121586786D01*
X94996829Y-121677326D01*
X95066012Y-121763916D01*
X95130539Y-121844856D01*
X95189045Y-121918444D01*
X95240168Y-121982982D01*
X95282545Y-122036767D01*
X95314813Y-122078100D01*
X95335608Y-122105280D01*
X95343567Y-122116606D01*
X95341809Y-122120709D01*
X95328928Y-122141272D01*
X95304583Y-122177499D01*
X95269945Y-122227762D01*
X95226184Y-122290430D01*
X95174473Y-122363874D01*
X95115982Y-122446465D01*
X95051882Y-122536574D01*
X94983344Y-122632569D01*
X94911541Y-122732823D01*
X94837642Y-122835706D01*
X94762819Y-122939588D01*
X94688243Y-123042839D01*
X94615085Y-123143830D01*
X94544517Y-123240932D01*
X94477709Y-123332515D01*
X94415833Y-123416949D01*
X94360059Y-123492605D01*
X94311560Y-123557854D01*
X94271505Y-123611066D01*
X94241067Y-123650611D01*
X94220642Y-123675964D01*
X94174597Y-123730233D01*
X94124310Y-123786713D01*
X94077513Y-123836607D01*
X93986349Y-123930338D01*
X93288143Y-123930338D01*
X93357054Y-123930287D01*
X93455305Y-123930029D01*
X93544728Y-123929575D01*
X93623031Y-123928948D01*
X93687921Y-123928173D01*
X93737109Y-123927273D01*
X93768302Y-123926272D01*
X93779209Y-123925195D01*
X93778020Y-123921975D01*
X93767874Y-123904390D01*
X93750738Y-123878096D01*
X93742238Y-123865629D01*
X93733027Y-123851560D01*
X93724931Y-123837289D01*
X93717883Y-123821417D01*
X93711815Y-123802547D01*
X93706659Y-123779279D01*
X93702349Y-123750216D01*
X93698817Y-123713959D01*
X93695995Y-123669108D01*
X93693816Y-123614266D01*
X93692212Y-123548035D01*
X93691117Y-123469015D01*
X93690463Y-123375809D01*
X93690182Y-123267017D01*
X93690207Y-123141241D01*
X93690470Y-122997083D01*
X93690904Y-122833145D01*
X93691443Y-122648027D01*
X93691977Y-122469170D01*
X93692503Y-122310312D01*
X93693048Y-122171254D01*
X93693643Y-122050603D01*
X93694317Y-121946966D01*
X93695101Y-121858949D01*
X93696024Y-121785161D01*
X93697117Y-121724207D01*
X93698410Y-121674695D01*
X93699933Y-121635231D01*
X93701717Y-121604422D01*
X93703790Y-121580876D01*
X93706184Y-121563198D01*
X93708928Y-121549997D01*
X93712054Y-121539878D01*
X93715590Y-121531449D01*
X93719489Y-121523313D01*
X93739136Y-121486482D01*
X93757923Y-121456329D01*
X93758970Y-121454846D01*
X93773300Y-121432597D01*
X93779209Y-121419640D01*
X93778202Y-121419187D01*
X93761003Y-121417741D01*
X93724354Y-121416418D01*
X93670660Y-121415254D01*
X93602328Y-121414285D01*
X93521762Y-121413549D01*
X93431368Y-121413080D01*
X93333551Y-121412916D01*
X92887893Y-121412916D01*
X92884818Y-122589783D01*
X92881743Y-123766649D01*
X92855105Y-123825560D01*
X92843183Y-123850121D01*
X92825944Y-123880372D01*
X92812772Y-123897498D01*
X92804774Y-123905529D01*
X92797076Y-123920431D01*
X92505640Y-123920431D01*
X92505172Y-123827967D01*
X92504748Y-123712555D01*
X92504404Y-123582098D01*
X92504132Y-123435654D01*
X92503925Y-123272282D01*
X92503774Y-123091039D01*
X92503670Y-122890986D01*
X92503606Y-122671179D01*
X92503574Y-122430677D01*
X92503565Y-122168540D01*
X92503565Y-119976969D01*
X92541947Y-119938587D01*
X92569053Y-119914849D01*
X92595951Y-119903049D01*
X92632258Y-119900205D01*
X92684187Y-119900205D01*
X92684187Y-119988144D01*
X92686125Y-120038040D01*
X92704897Y-120148461D01*
X92741915Y-120249925D01*
X92795067Y-120341090D01*
X92862244Y-120420611D01*
X92941336Y-120487143D01*
X93030232Y-120539344D01*
X93126823Y-120575868D01*
X93228998Y-120595372D01*
X93334648Y-120596511D01*
X93441662Y-120577943D01*
X93547930Y-120538322D01*
X93644917Y-120480454D01*
X93729991Y-120405622D01*
X93798713Y-120317553D01*
X93849616Y-120218554D01*
X93881233Y-120110931D01*
X93892098Y-119996992D01*
X93892098Y-119900205D01*
X95512451Y-119900205D01*
X95723595Y-119900218D01*
X95927718Y-119900268D01*
X96111384Y-119900368D01*
X96275689Y-119900530D01*
X96421727Y-119900767D01*
X96550592Y-119901091D01*
X96663381Y-119901513D01*
X96761186Y-119902047D01*
X96845102Y-119902705D01*
X96916225Y-119903499D01*
X96975648Y-119904442D01*
X97024466Y-119905546D01*
X97063775Y-119906822D01*
X97094667Y-119908285D01*
X97118239Y-119909945D01*
X97135584Y-119911816D01*
X97147797Y-119913910D01*
X97155973Y-119916238D01*
X97161206Y-119918814D01*
X97167202Y-119922383D01*
X97173977Y-119925916D01*
X97180176Y-119929426D01*
X97185824Y-119933856D01*
X97190945Y-119940146D01*
X97195567Y-119949239D01*
X97199713Y-119962077D01*
X97203411Y-119979600D01*
X97206685Y-120002751D01*
X97209561Y-120032472D01*
X97212065Y-120069703D01*
X97214222Y-120115387D01*
X97216058Y-120170465D01*
X97217598Y-120235879D01*
X97218868Y-120312571D01*
X97219893Y-120401482D01*
X97220699Y-120503555D01*
X97220732Y-120509805D01*
X97221312Y-120619730D01*
G37*
%TD*%
M02*
