%TF.GenerationSoftware,KiCad,Pcbnew,10.0.1*%
%TF.CreationDate,2026-05-24T19:00:39-07:00*%
%TF.ProjectId,Gas_Leak_&_Temp_Alert_System,4761735f-4c65-4616-9b5f-265f54656d70,rev?*%
%TF.SameCoordinates,Original*%
%TF.FileFunction,Legend,Top*%
%TF.FilePolarity,Positive*%
%FSLAX46Y46*%
G04 Gerber Fmt 4.6, Leading zero omitted, Abs format (unit mm)*
G04 Created by KiCad (PCBNEW 10.0.1) date 2026-05-24 19:00:39*
%MOMM*%
%LPD*%
G01*
G04 APERTURE LIST*
%ADD10C,0.100000*%
%ADD11C,0.160000*%
%ADD12C,0.200000*%
%ADD13C,0.150000*%
%ADD14C,0.120000*%
G04 APERTURE END LIST*
D10*
X104161027Y-123550752D02*
X104399122Y-123550752D01*
X104113408Y-123693609D02*
X104280074Y-123193609D01*
X104280074Y-123193609D02*
X104446741Y-123693609D01*
X104494360Y-123741228D02*
X104875312Y-123741228D01*
X105256264Y-123217419D02*
X105208645Y-123193609D01*
X105208645Y-123193609D02*
X105137216Y-123193609D01*
X105137216Y-123193609D02*
X105065788Y-123217419D01*
X105065788Y-123217419D02*
X105018169Y-123265038D01*
X105018169Y-123265038D02*
X104994359Y-123312657D01*
X104994359Y-123312657D02*
X104970550Y-123407895D01*
X104970550Y-123407895D02*
X104970550Y-123479323D01*
X104970550Y-123479323D02*
X104994359Y-123574561D01*
X104994359Y-123574561D02*
X105018169Y-123622180D01*
X105018169Y-123622180D02*
X105065788Y-123669800D01*
X105065788Y-123669800D02*
X105137216Y-123693609D01*
X105137216Y-123693609D02*
X105184835Y-123693609D01*
X105184835Y-123693609D02*
X105256264Y-123669800D01*
X105256264Y-123669800D02*
X105280073Y-123645990D01*
X105280073Y-123645990D02*
X105280073Y-123479323D01*
X105280073Y-123479323D02*
X105184835Y-123479323D01*
X105641027Y-123520752D02*
X105879122Y-123520752D01*
X105593408Y-123663609D02*
X105760074Y-123163609D01*
X105760074Y-123163609D02*
X105926741Y-123663609D01*
X105974360Y-123711228D02*
X106355312Y-123711228D01*
X106402931Y-123163609D02*
X106688645Y-123163609D01*
X106545788Y-123663609D02*
X106545788Y-123163609D01*
X107094836Y-123693609D02*
X107094836Y-123193609D01*
X107094836Y-123193609D02*
X107213884Y-123193609D01*
X107213884Y-123193609D02*
X107285312Y-123217419D01*
X107285312Y-123217419D02*
X107332931Y-123265038D01*
X107332931Y-123265038D02*
X107356741Y-123312657D01*
X107356741Y-123312657D02*
X107380550Y-123407895D01*
X107380550Y-123407895D02*
X107380550Y-123479323D01*
X107380550Y-123479323D02*
X107356741Y-123574561D01*
X107356741Y-123574561D02*
X107332931Y-123622180D01*
X107332931Y-123622180D02*
X107285312Y-123669800D01*
X107285312Y-123669800D02*
X107213884Y-123693609D01*
X107213884Y-123693609D02*
X107094836Y-123693609D01*
X107475789Y-123741228D02*
X107856741Y-123741228D01*
X108142455Y-123431704D02*
X108213883Y-123455514D01*
X108213883Y-123455514D02*
X108237693Y-123479323D01*
X108237693Y-123479323D02*
X108261502Y-123526942D01*
X108261502Y-123526942D02*
X108261502Y-123598371D01*
X108261502Y-123598371D02*
X108237693Y-123645990D01*
X108237693Y-123645990D02*
X108213883Y-123669800D01*
X108213883Y-123669800D02*
X108166264Y-123693609D01*
X108166264Y-123693609D02*
X107975788Y-123693609D01*
X107975788Y-123693609D02*
X107975788Y-123193609D01*
X107975788Y-123193609D02*
X108142455Y-123193609D01*
X108142455Y-123193609D02*
X108190074Y-123217419D01*
X108190074Y-123217419D02*
X108213883Y-123241228D01*
X108213883Y-123241228D02*
X108237693Y-123288847D01*
X108237693Y-123288847D02*
X108237693Y-123336466D01*
X108237693Y-123336466D02*
X108213883Y-123384085D01*
X108213883Y-123384085D02*
X108190074Y-123407895D01*
X108190074Y-123407895D02*
X108142455Y-123431704D01*
X108142455Y-123431704D02*
X107975788Y-123431704D01*
X108604836Y-123693609D02*
X108604836Y-123193609D01*
X108604836Y-123193609D02*
X108723884Y-123193609D01*
X108723884Y-123193609D02*
X108795312Y-123217419D01*
X108795312Y-123217419D02*
X108842931Y-123265038D01*
X108842931Y-123265038D02*
X108866741Y-123312657D01*
X108866741Y-123312657D02*
X108890550Y-123407895D01*
X108890550Y-123407895D02*
X108890550Y-123479323D01*
X108890550Y-123479323D02*
X108866741Y-123574561D01*
X108866741Y-123574561D02*
X108842931Y-123622180D01*
X108842931Y-123622180D02*
X108795312Y-123669800D01*
X108795312Y-123669800D02*
X108723884Y-123693609D01*
X108723884Y-123693609D02*
X108604836Y-123693609D01*
X108985789Y-123741228D02*
X109366741Y-123741228D01*
X109723883Y-123693609D02*
X109485788Y-123693609D01*
X109485788Y-123693609D02*
X109485788Y-123193609D01*
X109933408Y-123223609D02*
X110100074Y-123723609D01*
X110100074Y-123723609D02*
X110266741Y-123223609D01*
X110719121Y-123675990D02*
X110695312Y-123699800D01*
X110695312Y-123699800D02*
X110623883Y-123723609D01*
X110623883Y-123723609D02*
X110576264Y-123723609D01*
X110576264Y-123723609D02*
X110504836Y-123699800D01*
X110504836Y-123699800D02*
X110457217Y-123652180D01*
X110457217Y-123652180D02*
X110433407Y-123604561D01*
X110433407Y-123604561D02*
X110409598Y-123509323D01*
X110409598Y-123509323D02*
X110409598Y-123437895D01*
X110409598Y-123437895D02*
X110433407Y-123342657D01*
X110433407Y-123342657D02*
X110457217Y-123295038D01*
X110457217Y-123295038D02*
X110504836Y-123247419D01*
X110504836Y-123247419D02*
X110576264Y-123223609D01*
X110576264Y-123223609D02*
X110623883Y-123223609D01*
X110623883Y-123223609D02*
X110695312Y-123247419D01*
X110695312Y-123247419D02*
X110719121Y-123271228D01*
X111219121Y-123675990D02*
X111195312Y-123699800D01*
X111195312Y-123699800D02*
X111123883Y-123723609D01*
X111123883Y-123723609D02*
X111076264Y-123723609D01*
X111076264Y-123723609D02*
X111004836Y-123699800D01*
X111004836Y-123699800D02*
X110957217Y-123652180D01*
X110957217Y-123652180D02*
X110933407Y-123604561D01*
X110933407Y-123604561D02*
X110909598Y-123509323D01*
X110909598Y-123509323D02*
X110909598Y-123437895D01*
X110909598Y-123437895D02*
X110933407Y-123342657D01*
X110933407Y-123342657D02*
X110957217Y-123295038D01*
X110957217Y-123295038D02*
X111004836Y-123247419D01*
X111004836Y-123247419D02*
X111076264Y-123223609D01*
X111076264Y-123223609D02*
X111123883Y-123223609D01*
X111123883Y-123223609D02*
X111195312Y-123247419D01*
X111195312Y-123247419D02*
X111219121Y-123271228D01*
X111776741Y-123247419D02*
X111729122Y-123223609D01*
X111729122Y-123223609D02*
X111657693Y-123223609D01*
X111657693Y-123223609D02*
X111586265Y-123247419D01*
X111586265Y-123247419D02*
X111538646Y-123295038D01*
X111538646Y-123295038D02*
X111514836Y-123342657D01*
X111514836Y-123342657D02*
X111491027Y-123437895D01*
X111491027Y-123437895D02*
X111491027Y-123509323D01*
X111491027Y-123509323D02*
X111514836Y-123604561D01*
X111514836Y-123604561D02*
X111538646Y-123652180D01*
X111538646Y-123652180D02*
X111586265Y-123699800D01*
X111586265Y-123699800D02*
X111657693Y-123723609D01*
X111657693Y-123723609D02*
X111705312Y-123723609D01*
X111705312Y-123723609D02*
X111776741Y-123699800D01*
X111776741Y-123699800D02*
X111800550Y-123675990D01*
X111800550Y-123675990D02*
X111800550Y-123509323D01*
X111800550Y-123509323D02*
X111705312Y-123509323D01*
X112014836Y-123723609D02*
X112014836Y-123223609D01*
X112014836Y-123223609D02*
X112300550Y-123723609D01*
X112300550Y-123723609D02*
X112300550Y-123223609D01*
X112538646Y-123723609D02*
X112538646Y-123223609D01*
X112538646Y-123223609D02*
X112657694Y-123223609D01*
X112657694Y-123223609D02*
X112729122Y-123247419D01*
X112729122Y-123247419D02*
X112776741Y-123295038D01*
X112776741Y-123295038D02*
X112800551Y-123342657D01*
X112800551Y-123342657D02*
X112824360Y-123437895D01*
X112824360Y-123437895D02*
X112824360Y-123509323D01*
X112824360Y-123509323D02*
X112800551Y-123604561D01*
X112800551Y-123604561D02*
X112776741Y-123652180D01*
X112776741Y-123652180D02*
X112729122Y-123699800D01*
X112729122Y-123699800D02*
X112657694Y-123723609D01*
X112657694Y-123723609D02*
X112538646Y-123723609D01*
D11*
X97402882Y-102627584D02*
X97364786Y-102665680D01*
X97364786Y-102665680D02*
X97250501Y-102703775D01*
X97250501Y-102703775D02*
X97174310Y-102703775D01*
X97174310Y-102703775D02*
X97060024Y-102665680D01*
X97060024Y-102665680D02*
X96983834Y-102589489D01*
X96983834Y-102589489D02*
X96945739Y-102513299D01*
X96945739Y-102513299D02*
X96907643Y-102360918D01*
X96907643Y-102360918D02*
X96907643Y-102246632D01*
X96907643Y-102246632D02*
X96945739Y-102094251D01*
X96945739Y-102094251D02*
X96983834Y-102018060D01*
X96983834Y-102018060D02*
X97060024Y-101941870D01*
X97060024Y-101941870D02*
X97174310Y-101903775D01*
X97174310Y-101903775D02*
X97250501Y-101903775D01*
X97250501Y-101903775D02*
X97364786Y-101941870D01*
X97364786Y-101941870D02*
X97402882Y-101979965D01*
X98202882Y-102703775D02*
X97936215Y-102322822D01*
X97745739Y-102703775D02*
X97745739Y-101903775D01*
X97745739Y-101903775D02*
X98050501Y-101903775D01*
X98050501Y-101903775D02*
X98126691Y-101941870D01*
X98126691Y-101941870D02*
X98164786Y-101979965D01*
X98164786Y-101979965D02*
X98202882Y-102056156D01*
X98202882Y-102056156D02*
X98202882Y-102170441D01*
X98202882Y-102170441D02*
X98164786Y-102246632D01*
X98164786Y-102246632D02*
X98126691Y-102284727D01*
X98126691Y-102284727D02*
X98050501Y-102322822D01*
X98050501Y-102322822D02*
X97745739Y-102322822D01*
X98545739Y-102703775D02*
X98545739Y-101903775D01*
X98545739Y-101903775D02*
X98850501Y-101903775D01*
X98850501Y-101903775D02*
X98926691Y-101941870D01*
X98926691Y-101941870D02*
X98964786Y-101979965D01*
X98964786Y-101979965D02*
X99002882Y-102056156D01*
X99002882Y-102056156D02*
X99002882Y-102170441D01*
X99002882Y-102170441D02*
X98964786Y-102246632D01*
X98964786Y-102246632D02*
X98926691Y-102284727D01*
X98926691Y-102284727D02*
X98850501Y-102322822D01*
X98850501Y-102322822D02*
X98545739Y-102322822D01*
X99307643Y-102665680D02*
X99421929Y-102703775D01*
X99421929Y-102703775D02*
X99612405Y-102703775D01*
X99612405Y-102703775D02*
X99688596Y-102665680D01*
X99688596Y-102665680D02*
X99726691Y-102627584D01*
X99726691Y-102627584D02*
X99764786Y-102551394D01*
X99764786Y-102551394D02*
X99764786Y-102475203D01*
X99764786Y-102475203D02*
X99726691Y-102399013D01*
X99726691Y-102399013D02*
X99688596Y-102360918D01*
X99688596Y-102360918D02*
X99612405Y-102322822D01*
X99612405Y-102322822D02*
X99460024Y-102284727D01*
X99460024Y-102284727D02*
X99383834Y-102246632D01*
X99383834Y-102246632D02*
X99345739Y-102208537D01*
X99345739Y-102208537D02*
X99307643Y-102132346D01*
X99307643Y-102132346D02*
X99307643Y-102056156D01*
X99307643Y-102056156D02*
X99345739Y-101979965D01*
X99345739Y-101979965D02*
X99383834Y-101941870D01*
X99383834Y-101941870D02*
X99460024Y-101903775D01*
X99460024Y-101903775D02*
X99650501Y-101903775D01*
X99650501Y-101903775D02*
X99764786Y-101941870D01*
X100069548Y-102665680D02*
X100183834Y-102703775D01*
X100183834Y-102703775D02*
X100374310Y-102703775D01*
X100374310Y-102703775D02*
X100450501Y-102665680D01*
X100450501Y-102665680D02*
X100488596Y-102627584D01*
X100488596Y-102627584D02*
X100526691Y-102551394D01*
X100526691Y-102551394D02*
X100526691Y-102475203D01*
X100526691Y-102475203D02*
X100488596Y-102399013D01*
X100488596Y-102399013D02*
X100450501Y-102360918D01*
X100450501Y-102360918D02*
X100374310Y-102322822D01*
X100374310Y-102322822D02*
X100221929Y-102284727D01*
X100221929Y-102284727D02*
X100145739Y-102246632D01*
X100145739Y-102246632D02*
X100107644Y-102208537D01*
X100107644Y-102208537D02*
X100069548Y-102132346D01*
X100069548Y-102132346D02*
X100069548Y-102056156D01*
X100069548Y-102056156D02*
X100107644Y-101979965D01*
X100107644Y-101979965D02*
X100145739Y-101941870D01*
X100145739Y-101941870D02*
X100221929Y-101903775D01*
X100221929Y-101903775D02*
X100412406Y-101903775D01*
X100412406Y-101903775D02*
X100526691Y-101941870D01*
X101326692Y-102627584D02*
X101288596Y-102665680D01*
X101288596Y-102665680D02*
X101174311Y-102703775D01*
X101174311Y-102703775D02*
X101098120Y-102703775D01*
X101098120Y-102703775D02*
X100983834Y-102665680D01*
X100983834Y-102665680D02*
X100907644Y-102589489D01*
X100907644Y-102589489D02*
X100869549Y-102513299D01*
X100869549Y-102513299D02*
X100831453Y-102360918D01*
X100831453Y-102360918D02*
X100831453Y-102246632D01*
X100831453Y-102246632D02*
X100869549Y-102094251D01*
X100869549Y-102094251D02*
X100907644Y-102018060D01*
X100907644Y-102018060D02*
X100983834Y-101941870D01*
X100983834Y-101941870D02*
X101098120Y-101903775D01*
X101098120Y-101903775D02*
X101174311Y-101903775D01*
X101174311Y-101903775D02*
X101288596Y-101941870D01*
X101288596Y-101941870D02*
X101326692Y-101979965D01*
D12*
X91279197Y-121801835D02*
X91203007Y-121763740D01*
X91203007Y-121763740D02*
X91088721Y-121763740D01*
X91088721Y-121763740D02*
X90974435Y-121801835D01*
X90974435Y-121801835D02*
X90898245Y-121878025D01*
X90898245Y-121878025D02*
X90860150Y-121954216D01*
X90860150Y-121954216D02*
X90822054Y-122106597D01*
X90822054Y-122106597D02*
X90822054Y-122220883D01*
X90822054Y-122220883D02*
X90860150Y-122373264D01*
X90860150Y-122373264D02*
X90898245Y-122449454D01*
X90898245Y-122449454D02*
X90974435Y-122525645D01*
X90974435Y-122525645D02*
X91088721Y-122563740D01*
X91088721Y-122563740D02*
X91164912Y-122563740D01*
X91164912Y-122563740D02*
X91279197Y-122525645D01*
X91279197Y-122525645D02*
X91317293Y-122487549D01*
X91317293Y-122487549D02*
X91317293Y-122220883D01*
X91317293Y-122220883D02*
X91164912Y-122220883D01*
X92003007Y-122563740D02*
X92003007Y-122144692D01*
X92003007Y-122144692D02*
X91964912Y-122068502D01*
X91964912Y-122068502D02*
X91888721Y-122030406D01*
X91888721Y-122030406D02*
X91736340Y-122030406D01*
X91736340Y-122030406D02*
X91660150Y-122068502D01*
X92003007Y-122525645D02*
X91926816Y-122563740D01*
X91926816Y-122563740D02*
X91736340Y-122563740D01*
X91736340Y-122563740D02*
X91660150Y-122525645D01*
X91660150Y-122525645D02*
X91622054Y-122449454D01*
X91622054Y-122449454D02*
X91622054Y-122373264D01*
X91622054Y-122373264D02*
X91660150Y-122297073D01*
X91660150Y-122297073D02*
X91736340Y-122258978D01*
X91736340Y-122258978D02*
X91926816Y-122258978D01*
X91926816Y-122258978D02*
X92003007Y-122220883D01*
X92345864Y-122525645D02*
X92422055Y-122563740D01*
X92422055Y-122563740D02*
X92574436Y-122563740D01*
X92574436Y-122563740D02*
X92650626Y-122525645D01*
X92650626Y-122525645D02*
X92688722Y-122449454D01*
X92688722Y-122449454D02*
X92688722Y-122411359D01*
X92688722Y-122411359D02*
X92650626Y-122335168D01*
X92650626Y-122335168D02*
X92574436Y-122297073D01*
X92574436Y-122297073D02*
X92460150Y-122297073D01*
X92460150Y-122297073D02*
X92383960Y-122258978D01*
X92383960Y-122258978D02*
X92345864Y-122182787D01*
X92345864Y-122182787D02*
X92345864Y-122144692D01*
X92345864Y-122144692D02*
X92383960Y-122068502D01*
X92383960Y-122068502D02*
X92460150Y-122030406D01*
X92460150Y-122030406D02*
X92574436Y-122030406D01*
X92574436Y-122030406D02*
X92650626Y-122068502D01*
X94022055Y-122563740D02*
X93641103Y-122563740D01*
X93641103Y-122563740D02*
X93641103Y-121763740D01*
X94593484Y-122525645D02*
X94517293Y-122563740D01*
X94517293Y-122563740D02*
X94364912Y-122563740D01*
X94364912Y-122563740D02*
X94288722Y-122525645D01*
X94288722Y-122525645D02*
X94250626Y-122449454D01*
X94250626Y-122449454D02*
X94250626Y-122144692D01*
X94250626Y-122144692D02*
X94288722Y-122068502D01*
X94288722Y-122068502D02*
X94364912Y-122030406D01*
X94364912Y-122030406D02*
X94517293Y-122030406D01*
X94517293Y-122030406D02*
X94593484Y-122068502D01*
X94593484Y-122068502D02*
X94631579Y-122144692D01*
X94631579Y-122144692D02*
X94631579Y-122220883D01*
X94631579Y-122220883D02*
X94250626Y-122297073D01*
X95317293Y-122563740D02*
X95317293Y-122144692D01*
X95317293Y-122144692D02*
X95279198Y-122068502D01*
X95279198Y-122068502D02*
X95203007Y-122030406D01*
X95203007Y-122030406D02*
X95050626Y-122030406D01*
X95050626Y-122030406D02*
X94974436Y-122068502D01*
X95317293Y-122525645D02*
X95241102Y-122563740D01*
X95241102Y-122563740D02*
X95050626Y-122563740D01*
X95050626Y-122563740D02*
X94974436Y-122525645D01*
X94974436Y-122525645D02*
X94936340Y-122449454D01*
X94936340Y-122449454D02*
X94936340Y-122373264D01*
X94936340Y-122373264D02*
X94974436Y-122297073D01*
X94974436Y-122297073D02*
X95050626Y-122258978D01*
X95050626Y-122258978D02*
X95241102Y-122258978D01*
X95241102Y-122258978D02*
X95317293Y-122220883D01*
X95698246Y-122563740D02*
X95698246Y-121763740D01*
X95774436Y-122258978D02*
X96003008Y-122563740D01*
X96003008Y-122030406D02*
X95698246Y-122335168D01*
X97298246Y-122563740D02*
X97298246Y-122144692D01*
X97298246Y-122144692D02*
X97260151Y-122068502D01*
X97260151Y-122068502D02*
X97183960Y-122030406D01*
X97183960Y-122030406D02*
X97031579Y-122030406D01*
X97031579Y-122030406D02*
X96955389Y-122068502D01*
X97298246Y-122525645D02*
X97222055Y-122563740D01*
X97222055Y-122563740D02*
X97031579Y-122563740D01*
X97031579Y-122563740D02*
X96955389Y-122525645D01*
X96955389Y-122525645D02*
X96917293Y-122449454D01*
X96917293Y-122449454D02*
X96917293Y-122373264D01*
X96917293Y-122373264D02*
X96955389Y-122297073D01*
X96955389Y-122297073D02*
X97031579Y-122258978D01*
X97031579Y-122258978D02*
X97222055Y-122258978D01*
X97222055Y-122258978D02*
X97298246Y-122220883D01*
X97679199Y-122030406D02*
X97679199Y-122563740D01*
X97679199Y-122106597D02*
X97717294Y-122068502D01*
X97717294Y-122068502D02*
X97793484Y-122030406D01*
X97793484Y-122030406D02*
X97907770Y-122030406D01*
X97907770Y-122030406D02*
X97983961Y-122068502D01*
X97983961Y-122068502D02*
X98022056Y-122144692D01*
X98022056Y-122144692D02*
X98022056Y-122563740D01*
X98745866Y-122563740D02*
X98745866Y-121763740D01*
X98745866Y-122525645D02*
X98669675Y-122563740D01*
X98669675Y-122563740D02*
X98517294Y-122563740D01*
X98517294Y-122563740D02*
X98441104Y-122525645D01*
X98441104Y-122525645D02*
X98403009Y-122487549D01*
X98403009Y-122487549D02*
X98364913Y-122411359D01*
X98364913Y-122411359D02*
X98364913Y-122182787D01*
X98364913Y-122182787D02*
X98403009Y-122106597D01*
X98403009Y-122106597D02*
X98441104Y-122068502D01*
X98441104Y-122068502D02*
X98517294Y-122030406D01*
X98517294Y-122030406D02*
X98669675Y-122030406D01*
X98669675Y-122030406D02*
X98745866Y-122068502D01*
X88307768Y-123051695D02*
X88764911Y-123051695D01*
X88536339Y-123851695D02*
X88536339Y-123051695D01*
X89336340Y-123813600D02*
X89260149Y-123851695D01*
X89260149Y-123851695D02*
X89107768Y-123851695D01*
X89107768Y-123851695D02*
X89031578Y-123813600D01*
X89031578Y-123813600D02*
X88993482Y-123737409D01*
X88993482Y-123737409D02*
X88993482Y-123432647D01*
X88993482Y-123432647D02*
X89031578Y-123356457D01*
X89031578Y-123356457D02*
X89107768Y-123318361D01*
X89107768Y-123318361D02*
X89260149Y-123318361D01*
X89260149Y-123318361D02*
X89336340Y-123356457D01*
X89336340Y-123356457D02*
X89374435Y-123432647D01*
X89374435Y-123432647D02*
X89374435Y-123508838D01*
X89374435Y-123508838D02*
X88993482Y-123585028D01*
X89717292Y-123851695D02*
X89717292Y-123318361D01*
X89717292Y-123394552D02*
X89755387Y-123356457D01*
X89755387Y-123356457D02*
X89831577Y-123318361D01*
X89831577Y-123318361D02*
X89945863Y-123318361D01*
X89945863Y-123318361D02*
X90022054Y-123356457D01*
X90022054Y-123356457D02*
X90060149Y-123432647D01*
X90060149Y-123432647D02*
X90060149Y-123851695D01*
X90060149Y-123432647D02*
X90098244Y-123356457D01*
X90098244Y-123356457D02*
X90174435Y-123318361D01*
X90174435Y-123318361D02*
X90288720Y-123318361D01*
X90288720Y-123318361D02*
X90364911Y-123356457D01*
X90364911Y-123356457D02*
X90403006Y-123432647D01*
X90403006Y-123432647D02*
X90403006Y-123851695D01*
X90783959Y-123318361D02*
X90783959Y-124118361D01*
X90783959Y-123356457D02*
X90860149Y-123318361D01*
X90860149Y-123318361D02*
X91012530Y-123318361D01*
X91012530Y-123318361D02*
X91088721Y-123356457D01*
X91088721Y-123356457D02*
X91126816Y-123394552D01*
X91126816Y-123394552D02*
X91164911Y-123470742D01*
X91164911Y-123470742D02*
X91164911Y-123699314D01*
X91164911Y-123699314D02*
X91126816Y-123775504D01*
X91126816Y-123775504D02*
X91088721Y-123813600D01*
X91088721Y-123813600D02*
X91012530Y-123851695D01*
X91012530Y-123851695D02*
X90860149Y-123851695D01*
X90860149Y-123851695D02*
X90783959Y-123813600D01*
X91812531Y-123813600D02*
X91736340Y-123851695D01*
X91736340Y-123851695D02*
X91583959Y-123851695D01*
X91583959Y-123851695D02*
X91507769Y-123813600D01*
X91507769Y-123813600D02*
X91469673Y-123737409D01*
X91469673Y-123737409D02*
X91469673Y-123432647D01*
X91469673Y-123432647D02*
X91507769Y-123356457D01*
X91507769Y-123356457D02*
X91583959Y-123318361D01*
X91583959Y-123318361D02*
X91736340Y-123318361D01*
X91736340Y-123318361D02*
X91812531Y-123356457D01*
X91812531Y-123356457D02*
X91850626Y-123432647D01*
X91850626Y-123432647D02*
X91850626Y-123508838D01*
X91850626Y-123508838D02*
X91469673Y-123585028D01*
X92193483Y-123851695D02*
X92193483Y-123318361D01*
X92193483Y-123470742D02*
X92231578Y-123394552D01*
X92231578Y-123394552D02*
X92269673Y-123356457D01*
X92269673Y-123356457D02*
X92345864Y-123318361D01*
X92345864Y-123318361D02*
X92422054Y-123318361D01*
X93031578Y-123851695D02*
X93031578Y-123432647D01*
X93031578Y-123432647D02*
X92993483Y-123356457D01*
X92993483Y-123356457D02*
X92917292Y-123318361D01*
X92917292Y-123318361D02*
X92764911Y-123318361D01*
X92764911Y-123318361D02*
X92688721Y-123356457D01*
X93031578Y-123813600D02*
X92955387Y-123851695D01*
X92955387Y-123851695D02*
X92764911Y-123851695D01*
X92764911Y-123851695D02*
X92688721Y-123813600D01*
X92688721Y-123813600D02*
X92650625Y-123737409D01*
X92650625Y-123737409D02*
X92650625Y-123661219D01*
X92650625Y-123661219D02*
X92688721Y-123585028D01*
X92688721Y-123585028D02*
X92764911Y-123546933D01*
X92764911Y-123546933D02*
X92955387Y-123546933D01*
X92955387Y-123546933D02*
X93031578Y-123508838D01*
X93298245Y-123318361D02*
X93603007Y-123318361D01*
X93412531Y-123051695D02*
X93412531Y-123737409D01*
X93412531Y-123737409D02*
X93450626Y-123813600D01*
X93450626Y-123813600D02*
X93526816Y-123851695D01*
X93526816Y-123851695D02*
X93603007Y-123851695D01*
X94212531Y-123318361D02*
X94212531Y-123851695D01*
X93869674Y-123318361D02*
X93869674Y-123737409D01*
X93869674Y-123737409D02*
X93907769Y-123813600D01*
X93907769Y-123813600D02*
X93983959Y-123851695D01*
X93983959Y-123851695D02*
X94098245Y-123851695D01*
X94098245Y-123851695D02*
X94174436Y-123813600D01*
X94174436Y-123813600D02*
X94212531Y-123775504D01*
X94593484Y-123851695D02*
X94593484Y-123318361D01*
X94593484Y-123470742D02*
X94631579Y-123394552D01*
X94631579Y-123394552D02*
X94669674Y-123356457D01*
X94669674Y-123356457D02*
X94745865Y-123318361D01*
X94745865Y-123318361D02*
X94822055Y-123318361D01*
X95393484Y-123813600D02*
X95317293Y-123851695D01*
X95317293Y-123851695D02*
X95164912Y-123851695D01*
X95164912Y-123851695D02*
X95088722Y-123813600D01*
X95088722Y-123813600D02*
X95050626Y-123737409D01*
X95050626Y-123737409D02*
X95050626Y-123432647D01*
X95050626Y-123432647D02*
X95088722Y-123356457D01*
X95088722Y-123356457D02*
X95164912Y-123318361D01*
X95164912Y-123318361D02*
X95317293Y-123318361D01*
X95317293Y-123318361D02*
X95393484Y-123356457D01*
X95393484Y-123356457D02*
X95431579Y-123432647D01*
X95431579Y-123432647D02*
X95431579Y-123508838D01*
X95431579Y-123508838D02*
X95050626Y-123585028D01*
X96345864Y-123623123D02*
X96726817Y-123623123D01*
X96269674Y-123851695D02*
X96536341Y-123051695D01*
X96536341Y-123051695D02*
X96803007Y-123851695D01*
X97183959Y-123851695D02*
X97107769Y-123813600D01*
X97107769Y-123813600D02*
X97069674Y-123737409D01*
X97069674Y-123737409D02*
X97069674Y-123051695D01*
X97793484Y-123813600D02*
X97717293Y-123851695D01*
X97717293Y-123851695D02*
X97564912Y-123851695D01*
X97564912Y-123851695D02*
X97488722Y-123813600D01*
X97488722Y-123813600D02*
X97450626Y-123737409D01*
X97450626Y-123737409D02*
X97450626Y-123432647D01*
X97450626Y-123432647D02*
X97488722Y-123356457D01*
X97488722Y-123356457D02*
X97564912Y-123318361D01*
X97564912Y-123318361D02*
X97717293Y-123318361D01*
X97717293Y-123318361D02*
X97793484Y-123356457D01*
X97793484Y-123356457D02*
X97831579Y-123432647D01*
X97831579Y-123432647D02*
X97831579Y-123508838D01*
X97831579Y-123508838D02*
X97450626Y-123585028D01*
X98174436Y-123851695D02*
X98174436Y-123318361D01*
X98174436Y-123470742D02*
X98212531Y-123394552D01*
X98212531Y-123394552D02*
X98250626Y-123356457D01*
X98250626Y-123356457D02*
X98326817Y-123318361D01*
X98326817Y-123318361D02*
X98403007Y-123318361D01*
X98555388Y-123318361D02*
X98860150Y-123318361D01*
X98669674Y-123051695D02*
X98669674Y-123737409D01*
X98669674Y-123737409D02*
X98707769Y-123813600D01*
X98707769Y-123813600D02*
X98783959Y-123851695D01*
X98783959Y-123851695D02*
X98860150Y-123851695D01*
X99698245Y-123813600D02*
X99812531Y-123851695D01*
X99812531Y-123851695D02*
X100003007Y-123851695D01*
X100003007Y-123851695D02*
X100079198Y-123813600D01*
X100079198Y-123813600D02*
X100117293Y-123775504D01*
X100117293Y-123775504D02*
X100155388Y-123699314D01*
X100155388Y-123699314D02*
X100155388Y-123623123D01*
X100155388Y-123623123D02*
X100117293Y-123546933D01*
X100117293Y-123546933D02*
X100079198Y-123508838D01*
X100079198Y-123508838D02*
X100003007Y-123470742D01*
X100003007Y-123470742D02*
X99850626Y-123432647D01*
X99850626Y-123432647D02*
X99774436Y-123394552D01*
X99774436Y-123394552D02*
X99736341Y-123356457D01*
X99736341Y-123356457D02*
X99698245Y-123280266D01*
X99698245Y-123280266D02*
X99698245Y-123204076D01*
X99698245Y-123204076D02*
X99736341Y-123127885D01*
X99736341Y-123127885D02*
X99774436Y-123089790D01*
X99774436Y-123089790D02*
X99850626Y-123051695D01*
X99850626Y-123051695D02*
X100041103Y-123051695D01*
X100041103Y-123051695D02*
X100155388Y-123089790D01*
X100422055Y-123318361D02*
X100612531Y-123851695D01*
X100803008Y-123318361D02*
X100612531Y-123851695D01*
X100612531Y-123851695D02*
X100536341Y-124042171D01*
X100536341Y-124042171D02*
X100498246Y-124080266D01*
X100498246Y-124080266D02*
X100422055Y-124118361D01*
X101069674Y-123813600D02*
X101145865Y-123851695D01*
X101145865Y-123851695D02*
X101298246Y-123851695D01*
X101298246Y-123851695D02*
X101374436Y-123813600D01*
X101374436Y-123813600D02*
X101412532Y-123737409D01*
X101412532Y-123737409D02*
X101412532Y-123699314D01*
X101412532Y-123699314D02*
X101374436Y-123623123D01*
X101374436Y-123623123D02*
X101298246Y-123585028D01*
X101298246Y-123585028D02*
X101183960Y-123585028D01*
X101183960Y-123585028D02*
X101107770Y-123546933D01*
X101107770Y-123546933D02*
X101069674Y-123470742D01*
X101069674Y-123470742D02*
X101069674Y-123432647D01*
X101069674Y-123432647D02*
X101107770Y-123356457D01*
X101107770Y-123356457D02*
X101183960Y-123318361D01*
X101183960Y-123318361D02*
X101298246Y-123318361D01*
X101298246Y-123318361D02*
X101374436Y-123356457D01*
X101641103Y-123318361D02*
X101945865Y-123318361D01*
X101755389Y-123051695D02*
X101755389Y-123737409D01*
X101755389Y-123737409D02*
X101793484Y-123813600D01*
X101793484Y-123813600D02*
X101869674Y-123851695D01*
X101869674Y-123851695D02*
X101945865Y-123851695D01*
X102517294Y-123813600D02*
X102441103Y-123851695D01*
X102441103Y-123851695D02*
X102288722Y-123851695D01*
X102288722Y-123851695D02*
X102212532Y-123813600D01*
X102212532Y-123813600D02*
X102174436Y-123737409D01*
X102174436Y-123737409D02*
X102174436Y-123432647D01*
X102174436Y-123432647D02*
X102212532Y-123356457D01*
X102212532Y-123356457D02*
X102288722Y-123318361D01*
X102288722Y-123318361D02*
X102441103Y-123318361D01*
X102441103Y-123318361D02*
X102517294Y-123356457D01*
X102517294Y-123356457D02*
X102555389Y-123432647D01*
X102555389Y-123432647D02*
X102555389Y-123508838D01*
X102555389Y-123508838D02*
X102174436Y-123585028D01*
X102898246Y-123851695D02*
X102898246Y-123318361D01*
X102898246Y-123394552D02*
X102936341Y-123356457D01*
X102936341Y-123356457D02*
X103012531Y-123318361D01*
X103012531Y-123318361D02*
X103126817Y-123318361D01*
X103126817Y-123318361D02*
X103203008Y-123356457D01*
X103203008Y-123356457D02*
X103241103Y-123432647D01*
X103241103Y-123432647D02*
X103241103Y-123851695D01*
X103241103Y-123432647D02*
X103279198Y-123356457D01*
X103279198Y-123356457D02*
X103355389Y-123318361D01*
X103355389Y-123318361D02*
X103469674Y-123318361D01*
X103469674Y-123318361D02*
X103545865Y-123356457D01*
X103545865Y-123356457D02*
X103583960Y-123432647D01*
X103583960Y-123432647D02*
X103583960Y-123851695D01*
D13*
X106133333Y-102804819D02*
X105800000Y-102328628D01*
X105561905Y-102804819D02*
X105561905Y-101804819D01*
X105561905Y-101804819D02*
X105942857Y-101804819D01*
X105942857Y-101804819D02*
X106038095Y-101852438D01*
X106038095Y-101852438D02*
X106085714Y-101900057D01*
X106085714Y-101900057D02*
X106133333Y-101995295D01*
X106133333Y-101995295D02*
X106133333Y-102138152D01*
X106133333Y-102138152D02*
X106085714Y-102233390D01*
X106085714Y-102233390D02*
X106038095Y-102281009D01*
X106038095Y-102281009D02*
X105942857Y-102328628D01*
X105942857Y-102328628D02*
X105561905Y-102328628D01*
X106514286Y-101900057D02*
X106561905Y-101852438D01*
X106561905Y-101852438D02*
X106657143Y-101804819D01*
X106657143Y-101804819D02*
X106895238Y-101804819D01*
X106895238Y-101804819D02*
X106990476Y-101852438D01*
X106990476Y-101852438D02*
X107038095Y-101900057D01*
X107038095Y-101900057D02*
X107085714Y-101995295D01*
X107085714Y-101995295D02*
X107085714Y-102090533D01*
X107085714Y-102090533D02*
X107038095Y-102233390D01*
X107038095Y-102233390D02*
X106466667Y-102804819D01*
X106466667Y-102804819D02*
X107085714Y-102804819D01*
X102539819Y-121583333D02*
X103254104Y-121583333D01*
X103254104Y-121583333D02*
X103396961Y-121630952D01*
X103396961Y-121630952D02*
X103492200Y-121726190D01*
X103492200Y-121726190D02*
X103539819Y-121869047D01*
X103539819Y-121869047D02*
X103539819Y-121964285D01*
X103539819Y-120583333D02*
X103539819Y-121154761D01*
X103539819Y-120869047D02*
X102539819Y-120869047D01*
X102539819Y-120869047D02*
X102682676Y-120964285D01*
X102682676Y-120964285D02*
X102777914Y-121059523D01*
X102777914Y-121059523D02*
X102825533Y-121154761D01*
X114224819Y-118338094D02*
X113224819Y-118338094D01*
X113224819Y-118338094D02*
X113224819Y-118099999D01*
X113224819Y-118099999D02*
X113272438Y-117957142D01*
X113272438Y-117957142D02*
X113367676Y-117861904D01*
X113367676Y-117861904D02*
X113462914Y-117814285D01*
X113462914Y-117814285D02*
X113653390Y-117766666D01*
X113653390Y-117766666D02*
X113796247Y-117766666D01*
X113796247Y-117766666D02*
X113986723Y-117814285D01*
X113986723Y-117814285D02*
X114081961Y-117861904D01*
X114081961Y-117861904D02*
X114177200Y-117957142D01*
X114177200Y-117957142D02*
X114224819Y-118099999D01*
X114224819Y-118099999D02*
X114224819Y-118338094D01*
X114224819Y-116814285D02*
X114224819Y-117385713D01*
X114224819Y-117099999D02*
X113224819Y-117099999D01*
X113224819Y-117099999D02*
X113367676Y-117195237D01*
X113367676Y-117195237D02*
X113462914Y-117290475D01*
X113462914Y-117290475D02*
X113510533Y-117385713D01*
X117213333Y-111414819D02*
X116880000Y-110938628D01*
X116641905Y-111414819D02*
X116641905Y-110414819D01*
X116641905Y-110414819D02*
X117022857Y-110414819D01*
X117022857Y-110414819D02*
X117118095Y-110462438D01*
X117118095Y-110462438D02*
X117165714Y-110510057D01*
X117165714Y-110510057D02*
X117213333Y-110605295D01*
X117213333Y-110605295D02*
X117213333Y-110748152D01*
X117213333Y-110748152D02*
X117165714Y-110843390D01*
X117165714Y-110843390D02*
X117118095Y-110891009D01*
X117118095Y-110891009D02*
X117022857Y-110938628D01*
X117022857Y-110938628D02*
X116641905Y-110938628D01*
X118165714Y-111414819D02*
X117594286Y-111414819D01*
X117880000Y-111414819D02*
X117880000Y-110414819D01*
X117880000Y-110414819D02*
X117784762Y-110557676D01*
X117784762Y-110557676D02*
X117689524Y-110652914D01*
X117689524Y-110652914D02*
X117594286Y-110700533D01*
X100259047Y-107201009D02*
X100401904Y-107248628D01*
X100401904Y-107248628D02*
X100449523Y-107296247D01*
X100449523Y-107296247D02*
X100497142Y-107391485D01*
X100497142Y-107391485D02*
X100497142Y-107534342D01*
X100497142Y-107534342D02*
X100449523Y-107629580D01*
X100449523Y-107629580D02*
X100401904Y-107677200D01*
X100401904Y-107677200D02*
X100306666Y-107724819D01*
X100306666Y-107724819D02*
X99925714Y-107724819D01*
X99925714Y-107724819D02*
X99925714Y-106724819D01*
X99925714Y-106724819D02*
X100259047Y-106724819D01*
X100259047Y-106724819D02*
X100354285Y-106772438D01*
X100354285Y-106772438D02*
X100401904Y-106820057D01*
X100401904Y-106820057D02*
X100449523Y-106915295D01*
X100449523Y-106915295D02*
X100449523Y-107010533D01*
X100449523Y-107010533D02*
X100401904Y-107105771D01*
X100401904Y-107105771D02*
X100354285Y-107153390D01*
X100354285Y-107153390D02*
X100259047Y-107201009D01*
X100259047Y-107201009D02*
X99925714Y-107201009D01*
X100830476Y-106724819D02*
X101497142Y-106724819D01*
X101497142Y-106724819D02*
X100830476Y-107724819D01*
X100830476Y-107724819D02*
X101497142Y-107724819D01*
X102401904Y-107724819D02*
X101830476Y-107724819D01*
X102116190Y-107724819D02*
X102116190Y-106724819D01*
X102116190Y-106724819D02*
X102020952Y-106867676D01*
X102020952Y-106867676D02*
X101925714Y-106962914D01*
X101925714Y-106962914D02*
X101830476Y-107010533D01*
X102639048Y-110373866D02*
X103400953Y-110373866D01*
X103020000Y-110754819D02*
X103020000Y-109992914D01*
X97774819Y-121141904D02*
X98584342Y-121141904D01*
X98584342Y-121141904D02*
X98679580Y-121094285D01*
X98679580Y-121094285D02*
X98727200Y-121046666D01*
X98727200Y-121046666D02*
X98774819Y-120951428D01*
X98774819Y-120951428D02*
X98774819Y-120760952D01*
X98774819Y-120760952D02*
X98727200Y-120665714D01*
X98727200Y-120665714D02*
X98679580Y-120618095D01*
X98679580Y-120618095D02*
X98584342Y-120570476D01*
X98584342Y-120570476D02*
X97774819Y-120570476D01*
X98774819Y-119570476D02*
X98774819Y-120141904D01*
X98774819Y-119856190D02*
X97774819Y-119856190D01*
X97774819Y-119856190D02*
X97917676Y-119951428D01*
X97917676Y-119951428D02*
X98012914Y-120046666D01*
X98012914Y-120046666D02*
X98060533Y-120141904D01*
X116008095Y-103444819D02*
X116008095Y-104254342D01*
X116008095Y-104254342D02*
X116055714Y-104349580D01*
X116055714Y-104349580D02*
X116103333Y-104397200D01*
X116103333Y-104397200D02*
X116198571Y-104444819D01*
X116198571Y-104444819D02*
X116389047Y-104444819D01*
X116389047Y-104444819D02*
X116484285Y-104397200D01*
X116484285Y-104397200D02*
X116531904Y-104349580D01*
X116531904Y-104349580D02*
X116579523Y-104254342D01*
X116579523Y-104254342D02*
X116579523Y-103444819D01*
X117008095Y-103540057D02*
X117055714Y-103492438D01*
X117055714Y-103492438D02*
X117150952Y-103444819D01*
X117150952Y-103444819D02*
X117389047Y-103444819D01*
X117389047Y-103444819D02*
X117484285Y-103492438D01*
X117484285Y-103492438D02*
X117531904Y-103540057D01*
X117531904Y-103540057D02*
X117579523Y-103635295D01*
X117579523Y-103635295D02*
X117579523Y-103730533D01*
X117579523Y-103730533D02*
X117531904Y-103873390D01*
X117531904Y-103873390D02*
X116960476Y-104444819D01*
X116960476Y-104444819D02*
X117579523Y-104444819D01*
%TO.C,R2*%
D14*
X102260000Y-104720000D02*
X103030000Y-104720000D01*
X110340000Y-104720000D02*
X109570000Y-104720000D01*
X103030000Y-103350000D02*
X109570000Y-103350000D01*
X109570000Y-106090000D01*
X103030000Y-106090000D01*
X103030000Y-103350000D01*
%TO.C,J1*%
X104020000Y-122410000D02*
X104020000Y-121250000D01*
X104830000Y-122410000D02*
X104020000Y-122410000D01*
X105640000Y-120090000D02*
X111925000Y-120090000D01*
X105640000Y-120583292D02*
X105640000Y-120090000D01*
X105640000Y-122410000D02*
X105640000Y-121916708D01*
X105640000Y-122410000D02*
X111925000Y-122410000D01*
X111925000Y-120932077D02*
X111925000Y-120090000D01*
X111925000Y-122410000D02*
X111925000Y-121567923D01*
%TO.C,D1*%
X116185000Y-120160000D02*
X119275000Y-120160000D01*
X116185170Y-120160000D02*
G75*
G02*
X117730000Y-114610000I1544830J2560000D01*
G01*
X117730000Y-114610000D02*
G75*
G02*
X119274830Y-120160000I0J-2990000D01*
G01*
X120230000Y-117600000D02*
G75*
G02*
X115230000Y-117600000I-2500000J0D01*
G01*
X115230000Y-117600000D02*
G75*
G02*
X120230000Y-117600000I2500000J0D01*
G01*
%TO.C,R1*%
X115460000Y-111960000D02*
X119300000Y-111960000D01*
X115460000Y-113800000D02*
X119300000Y-113800000D01*
%TO.C,BZ1*%
X112930000Y-112840000D02*
G75*
G02*
X100730000Y-112840000I-6100000J0D01*
G01*
X100730000Y-112840000D02*
G75*
G02*
X112930000Y-112840000I6100000J0D01*
G01*
%TO.C,U1*%
X100265000Y-111920000D02*
G75*
G02*
X81015000Y-111920000I-9625000J0D01*
G01*
X81015000Y-111920000D02*
G75*
G02*
X100265000Y-111920000I9625000J0D01*
G01*
%TO.C,U2*%
X114710000Y-104830000D02*
X118830000Y-104830000D01*
X114710000Y-104925000D02*
X114710000Y-104830000D01*
X114710000Y-109950000D02*
X114710000Y-109855000D01*
X118830000Y-104830000D02*
X118830000Y-104925000D01*
X118830000Y-109855000D02*
X118830000Y-109950000D01*
X118830000Y-109950000D02*
X114710000Y-109950000D01*
X114170000Y-104920000D02*
X113930000Y-104590000D01*
X114410000Y-104590000D01*
X114170000Y-104920000D01*
G36*
X114170000Y-104920000D02*
G01*
X113930000Y-104590000D01*
X114410000Y-104590000D01*
X114170000Y-104920000D01*
G37*
%TD*%
M02*
