%TF.GenerationSoftware,KiCad,Pcbnew,10.0.1*%
%TF.CreationDate,2026-05-24T19:00:39-07:00*%
%TF.ProjectId,Gas_Leak_&_Temp_Alert_System,4761735f-4c65-4616-9b5f-265f54656d70,rev?*%
%TF.SameCoordinates,Original*%
%TF.FileFunction,Copper,L1,Top*%
%TF.FilePolarity,Positive*%
%FSLAX46Y46*%
G04 Gerber Fmt 4.6, Leading zero omitted, Abs format (unit mm)*
G04 Created by KiCad (PCBNEW 10.0.1) date 2026-05-24 19:00:39*
%MOMM*%
%LPD*%
G01*
G04 APERTURE LIST*
G04 Aperture macros list*
%AMRoundRect*
0 Rectangle with rounded corners*
0 $1 Rounding radius*
0 $2 $3 $4 $5 $6 $7 $8 $9 X,Y pos of 4 corners*
0 Add a 4 corners polygon primitive as box body*
4,1,4,$2,$3,$4,$5,$6,$7,$8,$9,$2,$3,0*
0 Add four circle primitives for the rounded corners*
1,1,$1+$1,$2,$3*
1,1,$1+$1,$4,$5*
1,1,$1+$1,$6,$7*
1,1,$1+$1,$8,$9*
0 Add four rect primitives between the rounded corners*
20,1,$1+$1,$2,$3,$4,$5,0*
20,1,$1+$1,$4,$5,$6,$7,0*
20,1,$1+$1,$6,$7,$8,$9,0*
20,1,$1+$1,$8,$9,$2,$3,0*%
G04 Aperture macros list end*
%TA.AperFunction,ComponentPad*%
%ADD10C,1.600000*%
%TD*%
%TA.AperFunction,ComponentPad*%
%ADD11R,1.000000X1.000000*%
%TD*%
%TA.AperFunction,ComponentPad*%
%ADD12C,1.000000*%
%TD*%
%TA.AperFunction,ComponentPad*%
%ADD13R,1.800000X1.800000*%
%TD*%
%TA.AperFunction,ComponentPad*%
%ADD14C,1.800000*%
%TD*%
%TA.AperFunction,ComponentPad*%
%ADD15C,1.400000*%
%TD*%
%TA.AperFunction,ComponentPad*%
%ADD16R,2.000000X2.000000*%
%TD*%
%TA.AperFunction,ComponentPad*%
%ADD17C,2.000000*%
%TD*%
%TA.AperFunction,SMDPad,CuDef*%
%ADD18RoundRect,0.150000X-0.825000X-0.150000X0.825000X-0.150000X0.825000X0.150000X-0.825000X0.150000X0*%
%TD*%
%TA.AperFunction,ViaPad*%
%ADD19C,0.600000*%
%TD*%
%TA.AperFunction,Conductor*%
%ADD20C,0.500000*%
%TD*%
%TA.AperFunction,Conductor*%
%ADD21C,0.750000*%
%TD*%
G04 APERTURE END LIST*
D10*
%TO.P,R2,1*%
%TO.N,Net-(U1-B2)*%
X101220000Y-104720000D03*
%TO.P,R2,2*%
%TO.N,GND*%
X111380000Y-104720000D03*
%TD*%
D11*
%TO.P,J1,1,Pin_1_1*%
%TO.N,/GAS_OUT*%
X104830000Y-121250000D03*
D12*
%TO.P,J1,2,Pin_2_2*%
%TO.N,/TEMP_OUT*%
X106100000Y-121250000D03*
%TO.P,J1,3,Pin_3_3*%
%TO.N,/Buzz+*%
X107370000Y-121250000D03*
%TO.P,J1,4,Pin_4_4*%
%TO.N,/LED_Out*%
X108640000Y-121250000D03*
%TO.P,J1,5,Pin_5_5*%
%TO.N,+5V*%
X109910000Y-121250000D03*
%TO.P,J1,6,Pin_6_6*%
%TO.N,GND*%
X111180000Y-121250000D03*
%TD*%
D13*
%TO.P,D1,1,K_1*%
%TO.N,GND*%
X117730000Y-118870000D03*
D14*
%TO.P,D1,2,A_2*%
%TO.N,Net-(D1-A)*%
X117730000Y-116330000D03*
%TD*%
D15*
%TO.P,R1,1*%
%TO.N,/LED_Out*%
X114840000Y-112880000D03*
%TO.P,R1,2*%
%TO.N,Net-(D1-A)*%
X119920000Y-112880000D03*
%TD*%
D16*
%TO.P,BZ1,1,+_1*%
%TO.N,/Buzz+*%
X103030000Y-112840000D03*
D17*
%TO.P,BZ1,2,-_2*%
%TO.N,GND*%
X110630000Y-112840000D03*
%TD*%
D16*
%TO.P,U1,1,B1_1*%
%TO.N,/GAS_OUT*%
X94000000Y-108560000D03*
D17*
%TO.P,U1,2,VH+_2*%
%TO.N,+5V*%
X90640000Y-107170000D03*
%TO.P,U1,3,B2_3*%
%TO.N,Net-(U1-B2)*%
X87280000Y-108560000D03*
%TO.P,U1,4,A2_4*%
%TO.N,+5V*%
X87280000Y-115280000D03*
%TO.P,U1,5,VH-_5*%
%TO.N,GND*%
X90640000Y-116670000D03*
%TO.P,U1,6,A1_6*%
%TO.N,+5V*%
X94000000Y-115280000D03*
%TD*%
D18*
%TO.P,U2,1,V_{OUT}_1*%
%TO.N,/TEMP_OUT*%
X114295000Y-105485000D03*
%TO.P,U2,2,NC_2*%
%TO.N,unconnected-(U2-NC-Pad2)*%
X114295000Y-106755000D03*
%TO.P,U2,3,NC_3*%
%TO.N,unconnected-(U2-NC-Pad3)*%
X114295000Y-108025000D03*
%TO.P,U2,4,GND_4*%
%TO.N,GND*%
X114295000Y-109295000D03*
%TO.P,U2,5,NC_5*%
%TO.N,unconnected-(U2-NC-Pad5)*%
X119245000Y-109295000D03*
%TO.P,U2,6,NC_6*%
%TO.N,unconnected-(U2-NC-Pad6)*%
X119245000Y-108025000D03*
%TO.P,U2,7,NC_7*%
%TO.N,unconnected-(U2-NC-Pad7)*%
X119245000Y-106755000D03*
%TO.P,U2,8,+V_{S}_8*%
%TO.N,+5V*%
X119245000Y-105485000D03*
%TD*%
D19*
%TO.N,GND*%
X112420000Y-109200000D03*
X114020000Y-109320000D03*
%TO.N,/GAS_OUT*%
X97670000Y-114390000D03*
X98370000Y-116100000D03*
%TO.N,/LED_Out*%
X111845000Y-115875000D03*
%TO.N,+5V*%
X107770000Y-113950000D03*
%TD*%
%TO.N,/GAS_OUT*%
D20*
X98370000Y-115090000D02*
X97670000Y-114390000D01*
X98370000Y-116100000D02*
X98370000Y-115090000D01*
%TO.N,/TEMP_OUT*%
D21*
X116160000Y-106615540D02*
X115104460Y-105560000D01*
X106100000Y-119597387D02*
X116160000Y-109537387D01*
X106100000Y-121250000D02*
X106100000Y-119597387D01*
X116160000Y-109537387D02*
X116160000Y-106615540D01*
%TO.N,/LED_Out*%
D20*
X108640000Y-119080000D02*
X108640000Y-121250000D01*
X111845000Y-115875000D02*
X108640000Y-119080000D01*
%TO.N,+5V*%
X119245000Y-105485000D02*
X118495000Y-104735000D01*
X113217316Y-104735000D02*
X107770000Y-110182316D01*
X107770000Y-110182316D02*
X107770000Y-113950000D01*
X118495000Y-104735000D02*
X113217316Y-104735000D01*
%TD*%
%TA.AperFunction,Conductor*%
%TO.N,GND*%
G36*
X118355150Y-101280185D02*
G01*
X118400905Y-101332989D01*
X118410849Y-101402147D01*
X118381824Y-101465703D01*
X118375792Y-101472181D01*
X118365485Y-101482487D01*
X118365485Y-101482488D01*
X118365483Y-101482490D01*
X118305862Y-101564550D01*
X118226657Y-101673566D01*
X118119433Y-101884003D01*
X118046446Y-102108631D01*
X118009500Y-102341902D01*
X118009500Y-102578097D01*
X118046446Y-102811368D01*
X118119433Y-103035996D01*
X118226657Y-103246433D01*
X118365483Y-103437510D01*
X118532490Y-103604517D01*
X118675797Y-103708636D01*
X118723568Y-103743344D01*
X118757369Y-103760566D01*
X118934008Y-103850568D01*
X119091214Y-103901647D01*
X119158631Y-103923553D01*
X119391903Y-103960500D01*
X119391908Y-103960500D01*
X119628097Y-103960500D01*
X119861368Y-103923553D01*
X120085992Y-103850568D01*
X120296433Y-103743343D01*
X120487510Y-103604517D01*
X120507819Y-103584208D01*
X120569142Y-103550723D01*
X120638834Y-103555707D01*
X120694767Y-103597579D01*
X120719184Y-103663043D01*
X120719500Y-103671889D01*
X120719500Y-104765191D01*
X120699815Y-104832230D01*
X120647011Y-104877985D01*
X120577853Y-104887929D01*
X120514297Y-104858904D01*
X120507819Y-104852872D01*
X120471870Y-104816923D01*
X120471862Y-104816917D01*
X120330396Y-104733255D01*
X120330393Y-104733254D01*
X120172573Y-104687402D01*
X120172567Y-104687401D01*
X120135701Y-104684500D01*
X120135694Y-104684500D01*
X119557229Y-104684500D01*
X119490190Y-104664815D01*
X119469548Y-104648181D01*
X118973421Y-104152052D01*
X118973414Y-104152046D01*
X118899731Y-104102813D01*
X118899731Y-104102814D01*
X118886222Y-104093788D01*
X118850495Y-104069916D01*
X118713913Y-104013342D01*
X118705660Y-104011700D01*
X118705655Y-104011698D01*
X118568921Y-103984500D01*
X118568918Y-103984500D01*
X113291233Y-103984500D01*
X113143398Y-103984500D01*
X113143396Y-103984500D01*
X112998408Y-104013340D01*
X112998398Y-104013343D01*
X112861827Y-104069912D01*
X112861814Y-104069919D01*
X112738903Y-104152046D01*
X112738896Y-104152052D01*
X112734199Y-104156749D01*
X112672874Y-104190231D01*
X112603183Y-104185242D01*
X112547252Y-104143368D01*
X112536038Y-104125357D01*
X112491861Y-104038652D01*
X112459474Y-103994077D01*
X112459474Y-103994076D01*
X111780000Y-104673553D01*
X111780000Y-104667339D01*
X111752741Y-104565606D01*
X111700080Y-104474394D01*
X111625606Y-104399920D01*
X111534394Y-104347259D01*
X111432661Y-104320000D01*
X111426446Y-104320000D01*
X112105922Y-103640524D01*
X112105921Y-103640523D01*
X112061359Y-103608147D01*
X112061350Y-103608141D01*
X111879031Y-103515244D01*
X111684417Y-103452009D01*
X111482317Y-103420000D01*
X111277683Y-103420000D01*
X111075582Y-103452009D01*
X110880968Y-103515244D01*
X110698644Y-103608143D01*
X110654077Y-103640523D01*
X110654077Y-103640524D01*
X111333554Y-104320000D01*
X111327339Y-104320000D01*
X111225606Y-104347259D01*
X111134394Y-104399920D01*
X111059920Y-104474394D01*
X111007259Y-104565606D01*
X110980000Y-104667339D01*
X110980000Y-104673553D01*
X110300524Y-103994077D01*
X110300523Y-103994077D01*
X110268143Y-104038644D01*
X110175244Y-104220968D01*
X110112009Y-104415582D01*
X110080000Y-104617682D01*
X110080000Y-104822317D01*
X110112009Y-105024417D01*
X110175244Y-105219031D01*
X110268141Y-105401350D01*
X110268147Y-105401359D01*
X110300523Y-105445921D01*
X110300524Y-105445922D01*
X110980000Y-104766446D01*
X110980000Y-104772661D01*
X111007259Y-104874394D01*
X111059920Y-104965606D01*
X111134394Y-105040080D01*
X111225606Y-105092741D01*
X111327339Y-105120000D01*
X111333553Y-105120000D01*
X110654076Y-105799474D01*
X110698650Y-105831859D01*
X110785356Y-105876038D01*
X110836152Y-105924012D01*
X110852947Y-105991833D01*
X110830410Y-106057968D01*
X110816742Y-106074204D01*
X107187050Y-109703896D01*
X107187044Y-109703904D01*
X107137812Y-109777584D01*
X107137813Y-109777585D01*
X107104921Y-109826812D01*
X107104914Y-109826824D01*
X107048342Y-109963402D01*
X107048340Y-109963408D01*
X107019500Y-110108395D01*
X107019500Y-113645396D01*
X107010062Y-113692844D01*
X107000263Y-113716503D01*
X107000262Y-113716506D01*
X107000260Y-113716511D01*
X106969500Y-113871153D01*
X106969500Y-114028846D01*
X107000261Y-114183489D01*
X107000264Y-114183501D01*
X107060602Y-114329172D01*
X107060609Y-114329185D01*
X107148210Y-114460288D01*
X107148213Y-114460292D01*
X107259707Y-114571786D01*
X107259711Y-114571789D01*
X107390814Y-114659390D01*
X107390827Y-114659397D01*
X107536498Y-114719735D01*
X107536503Y-114719737D01*
X107691153Y-114750499D01*
X107691156Y-114750500D01*
X107691158Y-114750500D01*
X107848844Y-114750500D01*
X107848845Y-114750499D01*
X108003497Y-114719737D01*
X108149179Y-114659394D01*
X108280289Y-114571789D01*
X108391789Y-114460289D01*
X108479394Y-114329179D01*
X108486859Y-114311158D01*
X108498193Y-114283793D01*
X108539737Y-114183497D01*
X108570500Y-114028842D01*
X108570500Y-113871158D01*
X108570500Y-113871155D01*
X108570499Y-113871153D01*
X108539739Y-113716511D01*
X108539738Y-113716508D01*
X108539737Y-113716503D01*
X108529937Y-113692844D01*
X108520500Y-113645396D01*
X108520500Y-110544544D01*
X108540185Y-110477505D01*
X108556814Y-110456868D01*
X112611313Y-106402368D01*
X112672634Y-106368885D01*
X112742326Y-106373869D01*
X112798259Y-106415741D01*
X112822676Y-106481205D01*
X112822610Y-106499777D01*
X112819500Y-106539293D01*
X112819500Y-106970701D01*
X112822401Y-107007567D01*
X112822402Y-107007573D01*
X112868254Y-107165393D01*
X112868255Y-107165396D01*
X112951917Y-107306862D01*
X112956702Y-107313031D01*
X112954256Y-107314927D01*
X112980857Y-107363642D01*
X112975873Y-107433334D01*
X112955069Y-107465703D01*
X112956702Y-107466969D01*
X112951917Y-107473137D01*
X112868255Y-107614603D01*
X112868254Y-107614606D01*
X112822402Y-107772426D01*
X112822401Y-107772432D01*
X112819500Y-107809298D01*
X112819500Y-108240701D01*
X112822401Y-108277567D01*
X112822402Y-108277573D01*
X112868254Y-108435393D01*
X112868255Y-108435396D01*
X112868256Y-108435398D01*
X112872106Y-108441908D01*
X112951917Y-108576862D01*
X112956702Y-108583031D01*
X112954369Y-108584840D01*
X112981210Y-108633995D01*
X112976226Y-108703687D01*
X112955470Y-108736021D01*
X112957097Y-108737283D01*
X112952313Y-108743449D01*
X112868718Y-108884801D01*
X112822899Y-109042513D01*
X112822704Y-109044998D01*
X112822705Y-109045000D01*
X114171000Y-109045000D01*
X114238039Y-109064685D01*
X114283794Y-109117489D01*
X114295000Y-109169000D01*
X114295000Y-109421000D01*
X114275315Y-109488039D01*
X114222511Y-109533794D01*
X114171000Y-109545000D01*
X112822705Y-109545000D01*
X112822704Y-109545001D01*
X112822899Y-109547486D01*
X112868718Y-109705198D01*
X112952314Y-109846552D01*
X112952321Y-109846561D01*
X113068438Y-109962678D01*
X113068447Y-109962685D01*
X113209803Y-110046282D01*
X113209806Y-110046283D01*
X113367504Y-110092099D01*
X113367510Y-110092100D01*
X113404350Y-110094999D01*
X113404366Y-110095000D01*
X114064881Y-110095000D01*
X114131920Y-110114685D01*
X114177675Y-110167489D01*
X114187619Y-110236647D01*
X114158594Y-110300203D01*
X114152562Y-110306681D01*
X112199835Y-112259406D01*
X112138512Y-112292891D01*
X112068820Y-112287907D01*
X112012887Y-112246035D01*
X112001669Y-112228020D01*
X111912914Y-112053828D01*
X111852658Y-111970894D01*
X111852658Y-111970893D01*
X111112962Y-112710590D01*
X111095925Y-112647007D01*
X111030099Y-112532993D01*
X110937007Y-112439901D01*
X110822993Y-112374075D01*
X110759409Y-112357037D01*
X111499105Y-111617340D01*
X111499104Y-111617338D01*
X111416174Y-111557087D01*
X111205802Y-111449897D01*
X110981247Y-111376934D01*
X110981248Y-111376934D01*
X110748052Y-111340000D01*
X110511948Y-111340000D01*
X110278752Y-111376934D01*
X110054197Y-111449897D01*
X109843830Y-111557084D01*
X109760894Y-111617340D01*
X110500591Y-112357037D01*
X110437007Y-112374075D01*
X110322993Y-112439901D01*
X110229901Y-112532993D01*
X110164075Y-112647007D01*
X110147037Y-112710591D01*
X109407340Y-111970894D01*
X109347084Y-112053830D01*
X109239897Y-112264197D01*
X109166934Y-112488752D01*
X109130000Y-112721947D01*
X109130000Y-112958052D01*
X109166934Y-113191247D01*
X109239897Y-113415802D01*
X109347087Y-113626174D01*
X109407338Y-113709104D01*
X109407340Y-113709105D01*
X110147037Y-112969408D01*
X110164075Y-113032993D01*
X110229901Y-113147007D01*
X110322993Y-113240099D01*
X110437007Y-113305925D01*
X110500590Y-113322962D01*
X109760893Y-114062658D01*
X109843828Y-114122914D01*
X110018020Y-114211669D01*
X110068816Y-114259643D01*
X110085611Y-114327464D01*
X110063074Y-114393599D01*
X110049406Y-114409835D01*
X106596623Y-117862620D01*
X105541901Y-118917342D01*
X105480927Y-118978316D01*
X105419953Y-119039289D01*
X105324145Y-119182675D01*
X105324138Y-119182688D01*
X105258146Y-119342008D01*
X105258143Y-119342020D01*
X105224500Y-119511153D01*
X105224500Y-120125500D01*
X105204815Y-120192539D01*
X105152011Y-120238294D01*
X105100500Y-120249500D01*
X104282129Y-120249500D01*
X104282123Y-120249501D01*
X104222516Y-120255908D01*
X104087671Y-120306202D01*
X104087664Y-120306206D01*
X103972455Y-120392452D01*
X103972452Y-120392455D01*
X103886206Y-120507664D01*
X103886202Y-120507671D01*
X103835908Y-120642517D01*
X103829501Y-120702116D01*
X103829500Y-120702135D01*
X103829500Y-121797870D01*
X103829501Y-121797876D01*
X103835908Y-121857483D01*
X103886202Y-121992328D01*
X103886206Y-121992335D01*
X103972452Y-122107544D01*
X103972455Y-122107547D01*
X104087664Y-122193793D01*
X104087671Y-122193797D01*
X104222517Y-122244091D01*
X104222516Y-122244091D01*
X104229444Y-122244835D01*
X104282127Y-122250500D01*
X105377872Y-122250499D01*
X105437483Y-122244091D01*
X105572331Y-122193796D01*
X105584110Y-122184977D01*
X105649570Y-122160558D01*
X105705872Y-122169680D01*
X105808165Y-122212051D01*
X105808169Y-122212051D01*
X105808170Y-122212052D01*
X106001456Y-122250500D01*
X106001459Y-122250500D01*
X106198543Y-122250500D01*
X106328582Y-122224632D01*
X106391835Y-122212051D01*
X106573914Y-122136632D01*
X106666109Y-122075029D01*
X106732786Y-122054151D01*
X106800166Y-122072635D01*
X106803891Y-122075029D01*
X106895427Y-122136192D01*
X106896086Y-122136632D01*
X106896088Y-122136633D01*
X106896092Y-122136635D01*
X107078160Y-122212049D01*
X107078165Y-122212051D01*
X107078169Y-122212051D01*
X107078170Y-122212052D01*
X107271456Y-122250500D01*
X107271459Y-122250500D01*
X107468543Y-122250500D01*
X107598582Y-122224632D01*
X107661835Y-122212051D01*
X107843914Y-122136632D01*
X107936109Y-122075029D01*
X108002786Y-122054151D01*
X108070166Y-122072635D01*
X108073891Y-122075029D01*
X108165427Y-122136192D01*
X108166086Y-122136632D01*
X108166088Y-122136633D01*
X108166092Y-122136635D01*
X108348160Y-122212049D01*
X108348165Y-122212051D01*
X108348169Y-122212051D01*
X108348170Y-122212052D01*
X108541456Y-122250500D01*
X108541459Y-122250500D01*
X108738543Y-122250500D01*
X108868582Y-122224632D01*
X108931835Y-122212051D01*
X109113914Y-122136632D01*
X109206109Y-122075029D01*
X109272786Y-122054151D01*
X109340166Y-122072635D01*
X109343891Y-122075029D01*
X109435427Y-122136192D01*
X109436086Y-122136632D01*
X109436088Y-122136633D01*
X109436092Y-122136635D01*
X109618160Y-122212049D01*
X109618165Y-122212051D01*
X109618169Y-122212051D01*
X109618170Y-122212052D01*
X109811456Y-122250500D01*
X109811459Y-122250500D01*
X110008543Y-122250500D01*
X110138582Y-122224632D01*
X110201835Y-122212051D01*
X110383914Y-122136632D01*
X110383919Y-122136628D01*
X110383922Y-122136627D01*
X110419922Y-122112572D01*
X110476559Y-122074728D01*
X110543234Y-122053850D01*
X110610614Y-122072334D01*
X110614341Y-122074728D01*
X110706321Y-122136188D01*
X110706328Y-122136192D01*
X110888306Y-122211569D01*
X110888318Y-122211572D01*
X111081504Y-122249999D01*
X111081508Y-122250000D01*
X111278492Y-122250000D01*
X111278495Y-122249999D01*
X111471681Y-122211572D01*
X111471693Y-122211569D01*
X111653676Y-122136190D01*
X111653680Y-122136187D01*
X111689019Y-122112573D01*
X111689020Y-122112572D01*
X111151447Y-121575000D01*
X111222787Y-121575000D01*
X111305445Y-121552851D01*
X111379554Y-121510064D01*
X111440064Y-121449554D01*
X111482851Y-121375445D01*
X111505000Y-121292787D01*
X111505000Y-121249999D01*
X111533553Y-121249999D01*
X111533553Y-121250000D01*
X112042572Y-121759020D01*
X112042573Y-121759019D01*
X112066187Y-121723680D01*
X112066190Y-121723676D01*
X112141569Y-121541693D01*
X112141572Y-121541681D01*
X112179999Y-121348495D01*
X112180000Y-121348492D01*
X112180000Y-121151508D01*
X112179999Y-121151504D01*
X112141572Y-120958318D01*
X112141569Y-120958306D01*
X112066192Y-120776328D01*
X112042572Y-120740979D01*
X111533553Y-121249999D01*
X111505000Y-121249999D01*
X111505000Y-121207213D01*
X111482851Y-121124555D01*
X111440064Y-121050446D01*
X111379554Y-120989936D01*
X111305445Y-120947149D01*
X111222787Y-120925000D01*
X111151446Y-120925000D01*
X111689019Y-120387426D01*
X111653675Y-120363809D01*
X111653673Y-120363808D01*
X111471693Y-120288430D01*
X111471681Y-120288427D01*
X111278495Y-120250000D01*
X111081504Y-120250000D01*
X110888318Y-120288427D01*
X110888306Y-120288430D01*
X110706325Y-120363809D01*
X110614339Y-120425271D01*
X110547661Y-120446148D01*
X110480281Y-120427663D01*
X110476559Y-120425271D01*
X110419919Y-120387426D01*
X110383914Y-120363368D01*
X110383911Y-120363366D01*
X110383910Y-120363366D01*
X110201839Y-120287950D01*
X110201829Y-120287947D01*
X110008543Y-120249500D01*
X110008541Y-120249500D01*
X109811459Y-120249500D01*
X109811457Y-120249500D01*
X109618170Y-120287947D01*
X109618165Y-120287949D01*
X109561951Y-120311233D01*
X109492482Y-120318700D01*
X109430003Y-120287425D01*
X109394351Y-120227335D01*
X109390500Y-120196671D01*
X109390500Y-119442228D01*
X109410185Y-119375189D01*
X109426814Y-119354552D01*
X112160295Y-116621070D01*
X112200519Y-116594193D01*
X112224179Y-116584394D01*
X112355289Y-116496789D01*
X112466789Y-116385289D01*
X112554394Y-116254179D01*
X112554397Y-116254172D01*
X112568644Y-116219778D01*
X116329500Y-116219778D01*
X116329500Y-116440221D01*
X116363985Y-116657952D01*
X116432103Y-116867603D01*
X116432104Y-116867606D01*
X116532187Y-117064025D01*
X116661752Y-117242358D01*
X116661756Y-117242363D01*
X116712316Y-117292923D01*
X116745801Y-117354246D01*
X116740817Y-117423938D01*
X116698945Y-117479871D01*
X116667969Y-117496785D01*
X116587918Y-117526643D01*
X116587906Y-117526649D01*
X116472812Y-117612809D01*
X116472809Y-117612812D01*
X116386649Y-117727906D01*
X116386645Y-117727913D01*
X116336403Y-117862620D01*
X116336401Y-117862627D01*
X116330000Y-117922155D01*
X116330000Y-118620000D01*
X117354722Y-118620000D01*
X117310667Y-118696306D01*
X117280000Y-118810756D01*
X117280000Y-118929244D01*
X117310667Y-119043694D01*
X117354722Y-119120000D01*
X116330000Y-119120000D01*
X116330000Y-119817844D01*
X116336401Y-119877372D01*
X116336403Y-119877379D01*
X116386645Y-120012086D01*
X116386649Y-120012093D01*
X116472809Y-120127187D01*
X116472812Y-120127190D01*
X116587906Y-120213350D01*
X116587913Y-120213354D01*
X116722620Y-120263596D01*
X116722627Y-120263598D01*
X116782155Y-120269999D01*
X116782172Y-120270000D01*
X117480000Y-120270000D01*
X117480000Y-119245277D01*
X117556306Y-119289333D01*
X117670756Y-119320000D01*
X117789244Y-119320000D01*
X117903694Y-119289333D01*
X117980000Y-119245277D01*
X117980000Y-120270000D01*
X118677828Y-120270000D01*
X118677844Y-120269999D01*
X118737372Y-120263598D01*
X118737379Y-120263596D01*
X118872086Y-120213354D01*
X118872093Y-120213350D01*
X118987187Y-120127190D01*
X118987190Y-120127187D01*
X119073350Y-120012093D01*
X119073354Y-120012086D01*
X119123596Y-119877379D01*
X119123598Y-119877372D01*
X119129999Y-119817844D01*
X119130000Y-119817827D01*
X119130000Y-119120000D01*
X118105278Y-119120000D01*
X118149333Y-119043694D01*
X118180000Y-118929244D01*
X118180000Y-118810756D01*
X118149333Y-118696306D01*
X118105278Y-118620000D01*
X119130000Y-118620000D01*
X119130000Y-117922172D01*
X119129999Y-117922155D01*
X119123598Y-117862627D01*
X119123596Y-117862620D01*
X119073354Y-117727913D01*
X119073350Y-117727906D01*
X118987190Y-117612812D01*
X118987187Y-117612809D01*
X118872093Y-117526649D01*
X118872087Y-117526646D01*
X118792030Y-117496786D01*
X118736097Y-117454914D01*
X118711680Y-117389450D01*
X118726532Y-117321177D01*
X118747681Y-117292925D01*
X118798242Y-117242365D01*
X118927815Y-117064022D01*
X119027895Y-116867606D01*
X119096015Y-116657951D01*
X119130500Y-116440222D01*
X119130500Y-116219778D01*
X119096015Y-116002049D01*
X119030657Y-115800894D01*
X119027896Y-115792396D01*
X119027895Y-115792393D01*
X118993237Y-115724375D01*
X118927815Y-115595978D01*
X118911260Y-115573192D01*
X118798247Y-115417641D01*
X118798243Y-115417636D01*
X118642363Y-115261756D01*
X118642358Y-115261752D01*
X118464025Y-115132187D01*
X118464024Y-115132186D01*
X118464022Y-115132185D01*
X118399665Y-115099393D01*
X118267606Y-115032104D01*
X118267603Y-115032103D01*
X118057952Y-114963985D01*
X117949086Y-114946742D01*
X117840222Y-114929500D01*
X117619778Y-114929500D01*
X117547201Y-114940995D01*
X117402047Y-114963985D01*
X117192396Y-115032103D01*
X117192393Y-115032104D01*
X116995974Y-115132187D01*
X116817641Y-115261752D01*
X116817636Y-115261756D01*
X116661756Y-115417636D01*
X116661752Y-115417641D01*
X116532187Y-115595974D01*
X116432104Y-115792393D01*
X116432103Y-115792396D01*
X116363985Y-116002047D01*
X116329500Y-116219778D01*
X112568644Y-116219778D01*
X112590317Y-116167454D01*
X112614735Y-116108501D01*
X112614737Y-116108497D01*
X112645500Y-115953842D01*
X112645500Y-115796158D01*
X112645500Y-115796155D01*
X112645499Y-115796153D01*
X112614738Y-115641510D01*
X112614737Y-115641503D01*
X112595880Y-115595978D01*
X112554397Y-115495827D01*
X112554390Y-115495814D01*
X112466789Y-115364711D01*
X112466786Y-115364707D01*
X112355292Y-115253213D01*
X112355288Y-115253210D01*
X112224185Y-115165609D01*
X112224172Y-115165602D01*
X112074425Y-115103576D01*
X112020021Y-115059735D01*
X111997956Y-114993441D01*
X112015235Y-114925742D01*
X112034192Y-114901338D01*
X113561961Y-113373568D01*
X113623282Y-113340085D01*
X113692974Y-113345069D01*
X113748907Y-113386941D01*
X113760125Y-113404956D01*
X113813240Y-113509199D01*
X113924310Y-113662073D01*
X114057927Y-113795690D01*
X114210801Y-113906760D01*
X114290347Y-113947290D01*
X114379163Y-113992545D01*
X114379165Y-113992545D01*
X114379168Y-113992547D01*
X114435428Y-114010827D01*
X114558881Y-114050940D01*
X114745514Y-114080500D01*
X114745519Y-114080500D01*
X114934486Y-114080500D01*
X115121118Y-114050940D01*
X115300832Y-113992547D01*
X115469199Y-113906760D01*
X115622073Y-113795690D01*
X115755690Y-113662073D01*
X115866760Y-113509199D01*
X115952547Y-113340832D01*
X116010940Y-113161118D01*
X116031233Y-113032993D01*
X116040500Y-112974486D01*
X116040500Y-112785513D01*
X116010940Y-112598881D01*
X115974407Y-112486446D01*
X115952547Y-112419168D01*
X115952545Y-112419165D01*
X115952545Y-112419163D01*
X115885666Y-112287907D01*
X115866760Y-112250801D01*
X115755690Y-112097927D01*
X115622073Y-111964310D01*
X115469199Y-111853240D01*
X115463735Y-111850456D01*
X115364956Y-111800125D01*
X115314160Y-111752150D01*
X115297365Y-111684329D01*
X115319903Y-111618194D01*
X115333564Y-111601965D01*
X116840045Y-110095486D01*
X116935858Y-109952092D01*
X117001855Y-109792761D01*
X117035500Y-109623616D01*
X117035500Y-109451158D01*
X117035500Y-106529311D01*
X117035500Y-106529308D01*
X117035499Y-106529306D01*
X117025931Y-106481205D01*
X117001855Y-106360166D01*
X116936811Y-106203135D01*
X116935861Y-106200841D01*
X116935854Y-106200828D01*
X116840046Y-106057442D01*
X116803104Y-106020500D01*
X116718099Y-105935495D01*
X116479785Y-105697181D01*
X116446300Y-105635858D01*
X116451284Y-105566166D01*
X116493156Y-105510233D01*
X116558620Y-105485816D01*
X116567466Y-105485500D01*
X117645500Y-105485500D01*
X117712539Y-105505185D01*
X117758294Y-105557989D01*
X117769500Y-105609500D01*
X117769500Y-105700701D01*
X117772401Y-105737567D01*
X117772402Y-105737573D01*
X117818254Y-105895393D01*
X117818255Y-105895396D01*
X117818256Y-105895398D01*
X117835893Y-105925220D01*
X117901917Y-106036862D01*
X117906702Y-106043031D01*
X117904256Y-106044927D01*
X117930857Y-106093642D01*
X117925873Y-106163334D01*
X117905069Y-106195703D01*
X117906702Y-106196969D01*
X117901917Y-106203137D01*
X117818255Y-106344603D01*
X117818254Y-106344606D01*
X117772402Y-106502426D01*
X117772401Y-106502432D01*
X117769500Y-106539298D01*
X117769500Y-106970701D01*
X117772401Y-107007567D01*
X117772402Y-107007573D01*
X117818254Y-107165393D01*
X117818255Y-107165396D01*
X117901917Y-107306862D01*
X117906702Y-107313031D01*
X117904256Y-107314927D01*
X117930857Y-107363642D01*
X117925873Y-107433334D01*
X117905069Y-107465703D01*
X117906702Y-107466969D01*
X117901917Y-107473137D01*
X117818255Y-107614603D01*
X117818254Y-107614606D01*
X117772402Y-107772426D01*
X117772401Y-107772432D01*
X117769500Y-107809298D01*
X117769500Y-108240701D01*
X117772401Y-108277567D01*
X117772402Y-108277573D01*
X117818254Y-108435393D01*
X117818255Y-108435396D01*
X117818256Y-108435398D01*
X117822106Y-108441908D01*
X117901917Y-108576862D01*
X117906702Y-108583031D01*
X117904256Y-108584927D01*
X117930857Y-108633642D01*
X117925873Y-108703334D01*
X117905069Y-108735703D01*
X117906702Y-108736969D01*
X117901917Y-108743137D01*
X117818255Y-108884603D01*
X117818254Y-108884606D01*
X117772402Y-109042426D01*
X117772401Y-109042432D01*
X117769500Y-109079298D01*
X117769500Y-109510701D01*
X117772401Y-109547567D01*
X117772402Y-109547573D01*
X117818254Y-109705393D01*
X117818255Y-109705396D01*
X117901917Y-109846862D01*
X117901923Y-109846870D01*
X118018129Y-109963076D01*
X118018133Y-109963079D01*
X118018135Y-109963081D01*
X118159602Y-110046744D01*
X118201224Y-110058836D01*
X118317426Y-110092597D01*
X118317429Y-110092597D01*
X118317431Y-110092598D01*
X118354306Y-110095500D01*
X118354314Y-110095500D01*
X120135686Y-110095500D01*
X120135694Y-110095500D01*
X120172569Y-110092598D01*
X120172571Y-110092597D01*
X120172573Y-110092597D01*
X120214191Y-110080505D01*
X120330398Y-110046744D01*
X120471865Y-109963081D01*
X120484380Y-109950566D01*
X120507819Y-109927128D01*
X120569142Y-109893643D01*
X120638834Y-109898627D01*
X120694767Y-109940499D01*
X120719184Y-110005963D01*
X120719500Y-110014809D01*
X120719500Y-111737662D01*
X120699815Y-111804701D01*
X120647011Y-111850456D01*
X120577853Y-111860400D01*
X120539206Y-111848147D01*
X120380839Y-111767455D01*
X120201118Y-111709059D01*
X120014486Y-111679500D01*
X120014481Y-111679500D01*
X119825519Y-111679500D01*
X119825514Y-111679500D01*
X119638881Y-111709059D01*
X119459163Y-111767454D01*
X119290800Y-111853240D01*
X119203579Y-111916610D01*
X119137927Y-111964310D01*
X119137925Y-111964312D01*
X119137924Y-111964312D01*
X119004312Y-112097924D01*
X119004312Y-112097925D01*
X119004310Y-112097927D01*
X118956610Y-112163579D01*
X118893240Y-112250800D01*
X118807454Y-112419163D01*
X118749059Y-112598881D01*
X118719500Y-112785513D01*
X118719500Y-112974486D01*
X118749059Y-113161118D01*
X118807454Y-113340836D01*
X118893240Y-113509199D01*
X119004310Y-113662073D01*
X119137927Y-113795690D01*
X119290801Y-113906760D01*
X119370347Y-113947290D01*
X119459163Y-113992545D01*
X119459165Y-113992545D01*
X119459168Y-113992547D01*
X119515428Y-114010827D01*
X119638881Y-114050940D01*
X119825514Y-114080500D01*
X119825519Y-114080500D01*
X120014486Y-114080500D01*
X120201118Y-114050940D01*
X120380832Y-113992547D01*
X120539205Y-113911851D01*
X120607874Y-113898956D01*
X120672615Y-113925232D01*
X120712872Y-113982339D01*
X120719500Y-114022337D01*
X120719500Y-121940829D01*
X120699815Y-122007868D01*
X120647011Y-122053623D01*
X120577853Y-122063567D01*
X120522620Y-122041151D01*
X120516436Y-122036658D01*
X120305996Y-121929433D01*
X120081368Y-121856446D01*
X119848097Y-121819500D01*
X119848092Y-121819500D01*
X119611908Y-121819500D01*
X119611903Y-121819500D01*
X119378631Y-121856446D01*
X119154003Y-121929433D01*
X118943566Y-122036657D01*
X118839079Y-122112572D01*
X118752490Y-122175483D01*
X118752488Y-122175485D01*
X118752487Y-122175485D01*
X118585485Y-122342487D01*
X118585485Y-122342488D01*
X118585483Y-122342490D01*
X118564865Y-122370868D01*
X118446657Y-122533566D01*
X118339433Y-122744003D01*
X118266446Y-122968631D01*
X118229500Y-123201902D01*
X118229500Y-123438097D01*
X118266446Y-123671368D01*
X118339433Y-123895996D01*
X118432784Y-124079205D01*
X118445680Y-124147874D01*
X118419404Y-124212615D01*
X118362297Y-124252872D01*
X118322299Y-124259500D01*
X83920108Y-124259500D01*
X83853069Y-124239815D01*
X83807314Y-124187011D01*
X83797370Y-124117853D01*
X83819790Y-124062614D01*
X83853343Y-124016433D01*
X83960568Y-123805992D01*
X84033553Y-123581368D01*
X84041043Y-123534076D01*
X84070500Y-123348097D01*
X84070500Y-123111902D01*
X84033553Y-122878631D01*
X83960566Y-122654003D01*
X83853342Y-122443566D01*
X83714517Y-122252490D01*
X83547510Y-122085483D01*
X83356433Y-121946657D01*
X83322627Y-121929432D01*
X83145996Y-121839433D01*
X82921368Y-121766446D01*
X82688097Y-121729500D01*
X82688092Y-121729500D01*
X82451908Y-121729500D01*
X82451903Y-121729500D01*
X82218631Y-121766446D01*
X81994003Y-121839433D01*
X81783566Y-121946657D01*
X81674550Y-122025862D01*
X81592490Y-122085483D01*
X81592488Y-122085485D01*
X81592487Y-122085485D01*
X81425485Y-122252487D01*
X81425478Y-122252496D01*
X81374817Y-122322224D01*
X81319487Y-122364890D01*
X81249874Y-122370868D01*
X81188079Y-122338262D01*
X81153722Y-122277423D01*
X81150500Y-122249338D01*
X81150500Y-115161902D01*
X85779500Y-115161902D01*
X85779500Y-115398097D01*
X85816446Y-115631368D01*
X85889433Y-115855996D01*
X85973588Y-116021158D01*
X85996657Y-116066433D01*
X86135483Y-116257510D01*
X86302490Y-116424517D01*
X86493567Y-116563343D01*
X86585702Y-116610288D01*
X86704003Y-116670566D01*
X86704005Y-116670566D01*
X86704008Y-116670568D01*
X86824412Y-116709689D01*
X86928631Y-116743553D01*
X87161903Y-116780500D01*
X87161908Y-116780500D01*
X87398097Y-116780500D01*
X87631368Y-116743553D01*
X87698350Y-116721789D01*
X87855992Y-116670568D01*
X88066433Y-116563343D01*
X88082118Y-116551947D01*
X89140000Y-116551947D01*
X89140000Y-116788052D01*
X89176934Y-117021247D01*
X89249897Y-117245802D01*
X89357087Y-117456174D01*
X89417338Y-117539104D01*
X89417340Y-117539105D01*
X90157037Y-116799408D01*
X90174075Y-116862993D01*
X90239901Y-116977007D01*
X90332993Y-117070099D01*
X90447007Y-117135925D01*
X90510590Y-117152962D01*
X89770893Y-117892658D01*
X89853828Y-117952914D01*
X90064197Y-118060102D01*
X90288752Y-118133065D01*
X90288751Y-118133065D01*
X90521948Y-118170000D01*
X90758052Y-118170000D01*
X90991247Y-118133065D01*
X91215802Y-118060102D01*
X91426163Y-117952918D01*
X91426169Y-117952914D01*
X91509104Y-117892658D01*
X91509105Y-117892658D01*
X90769408Y-117152962D01*
X90832993Y-117135925D01*
X90947007Y-117070099D01*
X91040099Y-116977007D01*
X91105925Y-116862993D01*
X91122962Y-116799409D01*
X91862658Y-117539105D01*
X91862658Y-117539104D01*
X91922914Y-117456169D01*
X91922918Y-117456163D01*
X92030102Y-117245802D01*
X92103065Y-117021247D01*
X92140000Y-116788052D01*
X92140000Y-116551947D01*
X92103065Y-116318752D01*
X92030102Y-116094197D01*
X91922914Y-115883828D01*
X91862658Y-115800894D01*
X91862658Y-115800893D01*
X91122962Y-116540590D01*
X91105925Y-116477007D01*
X91040099Y-116362993D01*
X90947007Y-116269901D01*
X90832993Y-116204075D01*
X90769409Y-116187037D01*
X91509105Y-115447340D01*
X91509104Y-115447338D01*
X91426174Y-115387087D01*
X91215802Y-115279897D01*
X91200629Y-115274967D01*
X90991247Y-115206934D01*
X90991248Y-115206934D01*
X90758052Y-115170000D01*
X90521948Y-115170000D01*
X90288752Y-115206934D01*
X90064197Y-115279897D01*
X89853830Y-115387084D01*
X89770894Y-115447340D01*
X90510591Y-116187037D01*
X90447007Y-116204075D01*
X90332993Y-116269901D01*
X90239901Y-116362993D01*
X90174075Y-116477007D01*
X90157037Y-116540591D01*
X89417340Y-115800894D01*
X89357084Y-115883830D01*
X89249897Y-116094197D01*
X89176934Y-116318752D01*
X89140000Y-116551947D01*
X88082118Y-116551947D01*
X88257510Y-116424517D01*
X88424517Y-116257510D01*
X88563343Y-116066433D01*
X88670568Y-115855992D01*
X88743553Y-115631368D01*
X88749159Y-115595974D01*
X88768288Y-115475201D01*
X88780500Y-115398097D01*
X88780500Y-115161902D01*
X92499500Y-115161902D01*
X92499500Y-115398097D01*
X92536446Y-115631368D01*
X92609433Y-115855996D01*
X92693588Y-116021158D01*
X92716657Y-116066433D01*
X92855483Y-116257510D01*
X93022490Y-116424517D01*
X93213567Y-116563343D01*
X93305702Y-116610288D01*
X93424003Y-116670566D01*
X93424005Y-116670566D01*
X93424008Y-116670568D01*
X93544412Y-116709689D01*
X93648631Y-116743553D01*
X93881903Y-116780500D01*
X93881908Y-116780500D01*
X94118097Y-116780500D01*
X94351368Y-116743553D01*
X94418350Y-116721789D01*
X94575992Y-116670568D01*
X94786433Y-116563343D01*
X94977510Y-116424517D01*
X95144517Y-116257510D01*
X95283343Y-116066433D01*
X95390568Y-115855992D01*
X95463553Y-115631368D01*
X95469159Y-115595974D01*
X95500500Y-115398097D01*
X95500500Y-115161902D01*
X95463553Y-114928631D01*
X95395679Y-114719738D01*
X95390568Y-114704008D01*
X95390566Y-114704005D01*
X95390566Y-114704003D01*
X95323199Y-114571789D01*
X95283343Y-114493567D01*
X95150811Y-114311153D01*
X96869500Y-114311153D01*
X96869500Y-114468846D01*
X96900261Y-114623489D01*
X96900264Y-114623501D01*
X96960602Y-114769172D01*
X96960609Y-114769185D01*
X97048210Y-114900288D01*
X97048213Y-114900292D01*
X97159710Y-115011789D01*
X97231467Y-115059735D01*
X97290821Y-115099394D01*
X97290826Y-115099396D01*
X97290828Y-115099397D01*
X97314473Y-115109191D01*
X97354705Y-115136072D01*
X97583181Y-115364548D01*
X97616666Y-115425871D01*
X97619500Y-115452229D01*
X97619500Y-115795396D01*
X97610062Y-115842844D01*
X97604617Y-115855992D01*
X97600262Y-115866506D01*
X97600260Y-115866511D01*
X97569500Y-116021153D01*
X97569500Y-116178846D01*
X97600261Y-116333489D01*
X97600264Y-116333501D01*
X97660602Y-116479172D01*
X97660609Y-116479185D01*
X97748210Y-116610288D01*
X97748213Y-116610292D01*
X97859707Y-116721786D01*
X97859711Y-116721789D01*
X97990814Y-116809390D01*
X97990827Y-116809397D01*
X98120221Y-116862993D01*
X98136503Y-116869737D01*
X98291153Y-116900499D01*
X98291156Y-116900500D01*
X98291158Y-116900500D01*
X98448844Y-116900500D01*
X98448845Y-116900499D01*
X98603497Y-116869737D01*
X98749179Y-116809394D01*
X98880289Y-116721789D01*
X98991789Y-116610289D01*
X99079394Y-116479179D01*
X99139737Y-116333497D01*
X99170500Y-116178842D01*
X99170500Y-116021158D01*
X99170500Y-116021155D01*
X99170499Y-116021153D01*
X99139739Y-115866511D01*
X99139738Y-115866508D01*
X99139737Y-115866503D01*
X99129937Y-115842844D01*
X99120500Y-115795396D01*
X99120500Y-115016079D01*
X99091659Y-114871092D01*
X99091658Y-114871091D01*
X99091658Y-114871087D01*
X99049449Y-114769185D01*
X99035087Y-114734511D01*
X99035080Y-114734498D01*
X98952952Y-114611585D01*
X98913153Y-114571786D01*
X98848416Y-114507049D01*
X98416072Y-114074705D01*
X98389191Y-114034473D01*
X98379397Y-114010828D01*
X98379396Y-114010826D01*
X98379394Y-114010821D01*
X98337072Y-113947482D01*
X98291789Y-113879710D01*
X98180292Y-113768213D01*
X98180288Y-113768210D01*
X98049185Y-113680609D01*
X98049172Y-113680602D01*
X97903501Y-113620264D01*
X97903489Y-113620261D01*
X97748845Y-113589500D01*
X97748842Y-113589500D01*
X97591158Y-113589500D01*
X97591155Y-113589500D01*
X97436510Y-113620261D01*
X97436498Y-113620264D01*
X97290827Y-113680602D01*
X97290814Y-113680609D01*
X97159711Y-113768210D01*
X97159707Y-113768213D01*
X97048213Y-113879707D01*
X97048210Y-113879711D01*
X96960609Y-114010814D01*
X96960602Y-114010827D01*
X96900264Y-114156498D01*
X96900261Y-114156510D01*
X96869500Y-114311153D01*
X95150811Y-114311153D01*
X95144517Y-114302490D01*
X94977510Y-114135483D01*
X94786433Y-113996657D01*
X94778363Y-113992545D01*
X94575996Y-113889433D01*
X94351368Y-113816446D01*
X94118097Y-113779500D01*
X94118092Y-113779500D01*
X93881908Y-113779500D01*
X93881903Y-113779500D01*
X93648631Y-113816446D01*
X93424003Y-113889433D01*
X93213566Y-113996657D01*
X93138853Y-114050940D01*
X93022490Y-114135483D01*
X93022488Y-114135485D01*
X93022487Y-114135485D01*
X92855485Y-114302487D01*
X92855485Y-114302488D01*
X92855483Y-114302490D01*
X92795862Y-114384550D01*
X92716657Y-114493566D01*
X92609433Y-114704003D01*
X92536446Y-114928631D01*
X92499500Y-115161902D01*
X88780500Y-115161902D01*
X88743553Y-114928631D01*
X88675679Y-114719738D01*
X88670568Y-114704008D01*
X88670566Y-114704005D01*
X88670566Y-114704003D01*
X88603199Y-114571789D01*
X88563343Y-114493567D01*
X88424517Y-114302490D01*
X88257510Y-114135483D01*
X88066433Y-113996657D01*
X88058363Y-113992545D01*
X87855996Y-113889433D01*
X87631368Y-113816446D01*
X87398097Y-113779500D01*
X87398092Y-113779500D01*
X87161908Y-113779500D01*
X87161903Y-113779500D01*
X86928631Y-113816446D01*
X86704003Y-113889433D01*
X86493566Y-113996657D01*
X86418853Y-114050940D01*
X86302490Y-114135483D01*
X86302488Y-114135485D01*
X86302487Y-114135485D01*
X86135485Y-114302487D01*
X86135485Y-114302488D01*
X86135483Y-114302490D01*
X86075862Y-114384550D01*
X85996657Y-114493566D01*
X85889433Y-114704003D01*
X85816446Y-114928631D01*
X85779500Y-115161902D01*
X81150500Y-115161902D01*
X81150500Y-111792135D01*
X101529500Y-111792135D01*
X101529500Y-113887870D01*
X101529501Y-113887876D01*
X101535908Y-113947483D01*
X101586202Y-114082328D01*
X101586206Y-114082335D01*
X101672452Y-114197544D01*
X101672455Y-114197547D01*
X101787664Y-114283793D01*
X101787671Y-114283797D01*
X101922517Y-114334091D01*
X101922516Y-114334091D01*
X101929444Y-114334835D01*
X101982127Y-114340500D01*
X104077872Y-114340499D01*
X104137483Y-114334091D01*
X104272331Y-114283796D01*
X104387546Y-114197546D01*
X104473796Y-114082331D01*
X104524091Y-113947483D01*
X104530500Y-113887873D01*
X104530499Y-111792128D01*
X104524091Y-111732517D01*
X104481451Y-111618194D01*
X104473797Y-111597671D01*
X104473793Y-111597664D01*
X104387547Y-111482455D01*
X104387544Y-111482452D01*
X104272335Y-111396206D01*
X104272328Y-111396202D01*
X104137482Y-111345908D01*
X104137483Y-111345908D01*
X104077883Y-111339501D01*
X104077881Y-111339500D01*
X104077873Y-111339500D01*
X104077864Y-111339500D01*
X101982129Y-111339500D01*
X101982123Y-111339501D01*
X101922516Y-111345908D01*
X101787671Y-111396202D01*
X101787664Y-111396206D01*
X101672455Y-111482452D01*
X101672452Y-111482455D01*
X101586206Y-111597664D01*
X101586202Y-111597671D01*
X101535908Y-111732517D01*
X101529501Y-111792116D01*
X101529501Y-111792123D01*
X101529500Y-111792135D01*
X81150500Y-111792135D01*
X81150500Y-108441902D01*
X85779500Y-108441902D01*
X85779500Y-108678097D01*
X85816446Y-108911368D01*
X85889433Y-109135996D01*
X85996657Y-109346433D01*
X86135483Y-109537510D01*
X86302490Y-109704517D01*
X86493567Y-109843343D01*
X86592286Y-109893643D01*
X86704003Y-109950566D01*
X86704005Y-109950566D01*
X86704008Y-109950568D01*
X86824412Y-109989689D01*
X86928631Y-110023553D01*
X87161903Y-110060500D01*
X87161908Y-110060500D01*
X87398097Y-110060500D01*
X87631368Y-110023553D01*
X87685504Y-110005963D01*
X87855992Y-109950568D01*
X88066433Y-109843343D01*
X88257510Y-109704517D01*
X88424517Y-109537510D01*
X88563343Y-109346433D01*
X88670568Y-109135992D01*
X88743553Y-108911368D01*
X88757613Y-108822598D01*
X88780500Y-108678097D01*
X88780500Y-108441902D01*
X88743553Y-108208631D01*
X88670566Y-107984003D01*
X88563342Y-107773566D01*
X88562518Y-107772432D01*
X88424517Y-107582490D01*
X88257510Y-107415483D01*
X88066433Y-107276657D01*
X87855992Y-107169432D01*
X87754626Y-107136496D01*
X87631368Y-107096446D01*
X87398097Y-107059500D01*
X87398092Y-107059500D01*
X87161908Y-107059500D01*
X87161903Y-107059500D01*
X86928631Y-107096446D01*
X86704003Y-107169433D01*
X86493566Y-107276657D01*
X86437119Y-107317669D01*
X86302490Y-107415483D01*
X86302488Y-107415485D01*
X86302487Y-107415485D01*
X86135485Y-107582487D01*
X86135485Y-107582488D01*
X86135483Y-107582490D01*
X86075862Y-107664550D01*
X85996657Y-107773566D01*
X85889433Y-107984003D01*
X85816446Y-108208631D01*
X85779500Y-108441902D01*
X81150500Y-108441902D01*
X81150500Y-107051902D01*
X89139500Y-107051902D01*
X89139500Y-107288097D01*
X89176446Y-107521368D01*
X89249433Y-107745996D01*
X89356657Y-107956433D01*
X89495483Y-108147510D01*
X89662490Y-108314517D01*
X89853567Y-108453343D01*
X89952991Y-108504002D01*
X90064003Y-108560566D01*
X90064005Y-108560566D01*
X90064008Y-108560568D01*
X90138977Y-108584927D01*
X90288631Y-108633553D01*
X90521903Y-108670500D01*
X90521908Y-108670500D01*
X90758097Y-108670500D01*
X90991368Y-108633553D01*
X91215992Y-108560568D01*
X91426433Y-108453343D01*
X91617510Y-108314517D01*
X91784517Y-108147510D01*
X91923343Y-107956433D01*
X92030568Y-107745992D01*
X92103553Y-107521368D01*
X92105015Y-107512135D01*
X92499500Y-107512135D01*
X92499500Y-109607870D01*
X92499501Y-109607876D01*
X92505908Y-109667483D01*
X92556202Y-109802328D01*
X92556206Y-109802335D01*
X92642452Y-109917544D01*
X92642455Y-109917547D01*
X92757664Y-110003793D01*
X92757671Y-110003797D01*
X92892517Y-110054091D01*
X92892516Y-110054091D01*
X92899444Y-110054835D01*
X92952127Y-110060500D01*
X95047872Y-110060499D01*
X95107483Y-110054091D01*
X95242331Y-110003796D01*
X95357546Y-109917546D01*
X95443796Y-109802331D01*
X95494091Y-109667483D01*
X95500500Y-109607873D01*
X95500499Y-107512128D01*
X95494091Y-107452517D01*
X95486936Y-107433334D01*
X95443797Y-107317671D01*
X95443793Y-107317664D01*
X95357547Y-107202455D01*
X95357544Y-107202452D01*
X95242335Y-107116206D01*
X95242328Y-107116202D01*
X95107482Y-107065908D01*
X95107483Y-107065908D01*
X95047883Y-107059501D01*
X95047881Y-107059500D01*
X95047873Y-107059500D01*
X95047864Y-107059500D01*
X92952129Y-107059500D01*
X92952123Y-107059501D01*
X92892516Y-107065908D01*
X92757671Y-107116202D01*
X92757664Y-107116206D01*
X92642455Y-107202452D01*
X92642452Y-107202455D01*
X92556206Y-107317664D01*
X92556202Y-107317671D01*
X92505908Y-107452517D01*
X92499501Y-107512116D01*
X92499501Y-107512123D01*
X92499500Y-107512135D01*
X92105015Y-107512135D01*
X92112169Y-107466969D01*
X92140500Y-107288097D01*
X92140500Y-107051902D01*
X92103553Y-106818631D01*
X92030566Y-106594003D01*
X91939736Y-106415741D01*
X91923343Y-106383567D01*
X91784517Y-106192490D01*
X91617510Y-106025483D01*
X91426433Y-105886657D01*
X91405592Y-105876038D01*
X91215996Y-105779433D01*
X90991368Y-105706446D01*
X90758097Y-105669500D01*
X90758092Y-105669500D01*
X90521908Y-105669500D01*
X90521903Y-105669500D01*
X90288631Y-105706446D01*
X90064003Y-105779433D01*
X89853566Y-105886657D01*
X89786347Y-105935495D01*
X89662490Y-106025483D01*
X89662488Y-106025485D01*
X89662487Y-106025485D01*
X89495485Y-106192487D01*
X89495485Y-106192488D01*
X89495483Y-106192490D01*
X89435862Y-106274550D01*
X89356657Y-106383566D01*
X89249433Y-106594003D01*
X89176446Y-106818631D01*
X89139500Y-107051902D01*
X81150500Y-107051902D01*
X81150500Y-104617648D01*
X99919500Y-104617648D01*
X99919500Y-104822351D01*
X99951522Y-105024534D01*
X100014781Y-105219223D01*
X100078691Y-105344653D01*
X100107585Y-105401359D01*
X100107715Y-105401613D01*
X100228028Y-105567213D01*
X100372786Y-105711971D01*
X100493226Y-105799474D01*
X100538390Y-105832287D01*
X100645097Y-105886657D01*
X100720776Y-105925218D01*
X100720778Y-105925218D01*
X100720781Y-105925220D01*
X100825137Y-105959127D01*
X100915465Y-105988477D01*
X101016557Y-106004488D01*
X101117648Y-106020500D01*
X101117649Y-106020500D01*
X101322351Y-106020500D01*
X101322352Y-106020500D01*
X101524534Y-105988477D01*
X101719219Y-105925220D01*
X101901610Y-105832287D01*
X102031974Y-105737573D01*
X102067213Y-105711971D01*
X102067215Y-105711968D01*
X102067219Y-105711966D01*
X102211966Y-105567219D01*
X102211968Y-105567215D01*
X102211971Y-105567213D01*
X102271338Y-105485500D01*
X102332287Y-105401610D01*
X102425220Y-105219219D01*
X102488477Y-105024534D01*
X102520500Y-104822352D01*
X102520500Y-104617648D01*
X102512257Y-104565606D01*
X102488477Y-104415465D01*
X102457458Y-104320000D01*
X102425220Y-104220781D01*
X102425218Y-104220778D01*
X102425218Y-104220776D01*
X102376599Y-104125357D01*
X102332287Y-104038390D01*
X102324556Y-104027749D01*
X102211971Y-103872786D01*
X102067213Y-103728028D01*
X101901613Y-103607715D01*
X101901612Y-103607714D01*
X101901610Y-103607713D01*
X101799543Y-103555707D01*
X101719223Y-103514781D01*
X101524534Y-103451522D01*
X101349995Y-103423878D01*
X101322352Y-103419500D01*
X101117648Y-103419500D01*
X101093329Y-103423351D01*
X100915465Y-103451522D01*
X100720776Y-103514781D01*
X100538386Y-103607715D01*
X100372786Y-103728028D01*
X100228028Y-103872786D01*
X100107715Y-104038386D01*
X100014781Y-104220776D01*
X99951522Y-104415465D01*
X99919500Y-104617648D01*
X81150500Y-104617648D01*
X81150500Y-103591889D01*
X81170185Y-103524850D01*
X81222989Y-103479095D01*
X81292147Y-103469151D01*
X81355703Y-103498176D01*
X81362181Y-103504208D01*
X81372490Y-103514517D01*
X81563567Y-103653343D01*
X81599966Y-103671889D01*
X81774003Y-103760566D01*
X81774005Y-103760566D01*
X81774008Y-103760568D01*
X81837319Y-103781139D01*
X81998631Y-103833553D01*
X82231903Y-103870500D01*
X82231908Y-103870500D01*
X82468097Y-103870500D01*
X82701368Y-103833553D01*
X82925992Y-103760568D01*
X83136433Y-103653343D01*
X83327510Y-103514517D01*
X83494517Y-103347510D01*
X83633343Y-103156433D01*
X83740568Y-102945992D01*
X83813553Y-102721368D01*
X83821043Y-102674076D01*
X83850500Y-102488097D01*
X83850500Y-102251902D01*
X83813553Y-102018631D01*
X83740566Y-101794003D01*
X83633342Y-101583566D01*
X83624889Y-101571931D01*
X83541665Y-101457383D01*
X83518186Y-101391580D01*
X83534011Y-101323526D01*
X83584117Y-101274831D01*
X83641984Y-101260500D01*
X118288111Y-101260500D01*
X118355150Y-101280185D01*
G37*
%TD.AperFunction*%
%TD*%
M02*
