%TF.GenerationSoftware,KiCad,Pcbnew,10.0.1*%
%TF.CreationDate,2026-05-24T19:00:39-07:00*%
%TF.ProjectId,Gas_Leak_&_Temp_Alert_System,4761735f-4c65-4616-9b5f-265f54656d70,rev?*%
%TF.SameCoordinates,Original*%
%TF.FileFunction,Copper,L2,Bot*%
%TF.FilePolarity,Positive*%
%FSLAX46Y46*%
G04 Gerber Fmt 4.6, Leading zero omitted, Abs format (unit mm)*
G04 Created by KiCad (PCBNEW 10.0.1) date 2026-05-24 19:00:39*
%MOMM*%
%LPD*%
G01*
G04 APERTURE LIST*
%TA.AperFunction,ComponentPad*%
%ADD10C,1.600000*%
%TD*%
%TA.AperFunction,ComponentPad*%
%ADD11R,1.000000X1.000000*%
%TD*%
%TA.AperFunction,ComponentPad*%
%ADD12C,1.000000*%
%TD*%
%TA.AperFunction,ComponentPad*%
%ADD13R,1.800000X1.800000*%
%TD*%
%TA.AperFunction,ComponentPad*%
%ADD14C,1.800000*%
%TD*%
%TA.AperFunction,ComponentPad*%
%ADD15C,1.400000*%
%TD*%
%TA.AperFunction,ComponentPad*%
%ADD16R,2.000000X2.000000*%
%TD*%
%TA.AperFunction,ComponentPad*%
%ADD17C,2.000000*%
%TD*%
%TA.AperFunction,ViaPad*%
%ADD18C,0.600000*%
%TD*%
%TA.AperFunction,Conductor*%
%ADD19C,0.500000*%
%TD*%
G04 APERTURE END LIST*
D10*
%TO.P,R2,1*%
%TO.N,Net-(U1-B2)*%
X101220000Y-104720000D03*
%TO.P,R2,2*%
%TO.N,GND*%
X111380000Y-104720000D03*
%TD*%
D11*
%TO.P,J1,1,Pin_1_1*%
%TO.N,/GAS_OUT*%
X104830000Y-121250000D03*
D12*
%TO.P,J1,2,Pin_2_2*%
%TO.N,/TEMP_OUT*%
X106100000Y-121250000D03*
%TO.P,J1,3,Pin_3_3*%
%TO.N,/Buzz+*%
X107370000Y-121250000D03*
%TO.P,J1,4,Pin_4_4*%
%TO.N,/LED_Out*%
X108640000Y-121250000D03*
%TO.P,J1,5,Pin_5_5*%
%TO.N,+5V*%
X109910000Y-121250000D03*
%TO.P,J1,6,Pin_6_6*%
%TO.N,GND*%
X111180000Y-121250000D03*
%TD*%
D13*
%TO.P,D1,1,K_1*%
%TO.N,GND*%
X117730000Y-118870000D03*
D14*
%TO.P,D1,2,A_2*%
%TO.N,Net-(D1-A)*%
X117730000Y-116330000D03*
%TD*%
D15*
%TO.P,R1,1*%
%TO.N,/LED_Out*%
X114840000Y-112880000D03*
%TO.P,R1,2*%
%TO.N,Net-(D1-A)*%
X119920000Y-112880000D03*
%TD*%
D16*
%TO.P,BZ1,1,+_1*%
%TO.N,/Buzz+*%
X103030000Y-112840000D03*
D17*
%TO.P,BZ1,2,-_2*%
%TO.N,GND*%
X110630000Y-112840000D03*
%TD*%
D16*
%TO.P,U1,1,B1_1*%
%TO.N,/GAS_OUT*%
X94000000Y-108560000D03*
D17*
%TO.P,U1,2,VH+_2*%
%TO.N,+5V*%
X90640000Y-107170000D03*
%TO.P,U1,3,B2_3*%
%TO.N,Net-(U1-B2)*%
X87280000Y-108560000D03*
%TO.P,U1,4,A2_4*%
%TO.N,+5V*%
X87280000Y-115280000D03*
%TO.P,U1,5,VH-_5*%
%TO.N,GND*%
X90640000Y-116670000D03*
%TO.P,U1,6,A1_6*%
%TO.N,+5V*%
X94000000Y-115280000D03*
%TD*%
D18*
%TO.N,GND*%
X112420000Y-109200000D03*
X114020000Y-109320000D03*
%TO.N,/GAS_OUT*%
X97670000Y-114390000D03*
X98370000Y-116100000D03*
%TO.N,/LED_Out*%
X111845000Y-115875000D03*
%TO.N,+5V*%
X107770000Y-113950000D03*
%TD*%
%TO.N,Net-(U1-B2)*%
D19*
X87280000Y-107145787D02*
X87280000Y-108560000D01*
X101220000Y-104720000D02*
X89705787Y-104720000D01*
X89705787Y-104720000D02*
X87280000Y-107145787D01*
%TO.N,/GAS_OUT*%
X104830000Y-121250000D02*
X103520000Y-121250000D01*
X103520000Y-121250000D02*
X98370000Y-116100000D01*
X97670000Y-114390000D02*
X94000000Y-110720000D01*
X94000000Y-110720000D02*
X94000000Y-108560000D01*
%TO.N,/Buzz+*%
X103030000Y-112840000D02*
X107720661Y-112840000D01*
X108246497Y-122200000D02*
X107370000Y-121323503D01*
X111573503Y-122200000D02*
X108246497Y-122200000D01*
X107370000Y-121323503D02*
X107370000Y-121250000D01*
X107720661Y-112840000D02*
X112130000Y-117249339D01*
X112130000Y-117249339D02*
X112130000Y-121643503D01*
X112130000Y-121643503D02*
X111573503Y-122200000D01*
%TO.N,/LED_Out*%
X114840000Y-112880000D02*
X111845000Y-115875000D01*
X111845000Y-115875000D02*
X111810000Y-115910000D01*
%TO.N,+5V*%
X109910000Y-119630000D02*
X109910000Y-121250000D01*
X107770000Y-113950000D02*
X106489339Y-113950000D01*
X105560000Y-115280000D02*
X105755000Y-115475000D01*
X94000000Y-115280000D02*
X93000000Y-114280000D01*
X105755000Y-114684339D02*
X105755000Y-115475000D01*
X94000000Y-115280000D02*
X90640000Y-111920000D01*
X88280000Y-114280000D02*
X87280000Y-115280000D01*
X106489339Y-113950000D02*
X105755000Y-114684339D01*
X93000000Y-114280000D02*
X88280000Y-114280000D01*
X105755000Y-115475000D02*
X109910000Y-119630000D01*
X94000000Y-115280000D02*
X105560000Y-115280000D01*
X90640000Y-111920000D02*
X90640000Y-107170000D01*
%TO.N,Net-(D1-A)*%
X119920000Y-114140000D02*
X117730000Y-116330000D01*
X119920000Y-112880000D02*
X119920000Y-114140000D01*
%TD*%
%TA.AperFunction,Conductor*%
%TO.N,GND*%
G36*
X118355150Y-101280185D02*
G01*
X118400905Y-101332989D01*
X118410849Y-101402147D01*
X118381824Y-101465703D01*
X118375792Y-101472181D01*
X118365485Y-101482487D01*
X118365485Y-101482488D01*
X118365483Y-101482490D01*
X118305862Y-101564550D01*
X118226657Y-101673566D01*
X118119433Y-101884003D01*
X118046446Y-102108631D01*
X118009500Y-102341902D01*
X118009500Y-102578097D01*
X118046446Y-102811368D01*
X118119433Y-103035996D01*
X118226657Y-103246433D01*
X118365483Y-103437510D01*
X118532490Y-103604517D01*
X118723567Y-103743343D01*
X118822991Y-103794002D01*
X118934003Y-103850566D01*
X118934005Y-103850566D01*
X118934008Y-103850568D01*
X119002388Y-103872786D01*
X119158631Y-103923553D01*
X119391903Y-103960500D01*
X119391908Y-103960500D01*
X119628097Y-103960500D01*
X119861368Y-103923553D01*
X119877273Y-103918385D01*
X120085992Y-103850568D01*
X120296433Y-103743343D01*
X120487510Y-103604517D01*
X120507819Y-103584208D01*
X120569142Y-103550723D01*
X120638834Y-103555707D01*
X120694767Y-103597579D01*
X120719184Y-103663043D01*
X120719500Y-103671889D01*
X120719500Y-111737662D01*
X120699815Y-111804701D01*
X120647011Y-111850456D01*
X120577853Y-111860400D01*
X120539206Y-111848147D01*
X120380839Y-111767455D01*
X120201118Y-111709059D01*
X120014486Y-111679500D01*
X120014481Y-111679500D01*
X119825519Y-111679500D01*
X119825514Y-111679500D01*
X119638881Y-111709059D01*
X119459163Y-111767454D01*
X119290800Y-111853240D01*
X119203579Y-111916610D01*
X119137927Y-111964310D01*
X119137925Y-111964312D01*
X119137924Y-111964312D01*
X119004312Y-112097924D01*
X119004312Y-112097925D01*
X119004310Y-112097927D01*
X118989479Y-112118340D01*
X118893240Y-112250800D01*
X118807454Y-112419163D01*
X118749059Y-112598881D01*
X118719500Y-112785513D01*
X118719500Y-112974486D01*
X118749059Y-113161118D01*
X118807454Y-113340836D01*
X118862482Y-113448833D01*
X118893240Y-113509199D01*
X119004310Y-113662073D01*
X119004312Y-113662075D01*
X119082753Y-113740516D01*
X119116238Y-113801839D01*
X119111254Y-113871531D01*
X119082753Y-113915878D01*
X118082508Y-114916122D01*
X118021185Y-114949607D01*
X117975429Y-114950914D01*
X117840227Y-114929500D01*
X117840222Y-114929500D01*
X117619778Y-114929500D01*
X117547201Y-114940995D01*
X117402047Y-114963985D01*
X117192396Y-115032103D01*
X117192393Y-115032104D01*
X116995974Y-115132187D01*
X116817641Y-115261752D01*
X116817636Y-115261756D01*
X116661756Y-115417636D01*
X116661752Y-115417641D01*
X116532187Y-115595974D01*
X116432104Y-115792393D01*
X116432103Y-115792396D01*
X116363985Y-116002047D01*
X116339839Y-116154500D01*
X116329500Y-116219778D01*
X116329500Y-116440222D01*
X116335326Y-116477007D01*
X116363985Y-116657952D01*
X116432103Y-116867603D01*
X116432104Y-116867606D01*
X116487848Y-116977007D01*
X116515069Y-117030431D01*
X116532187Y-117064025D01*
X116661752Y-117242358D01*
X116661756Y-117242363D01*
X116712316Y-117292923D01*
X116745801Y-117354246D01*
X116740817Y-117423938D01*
X116698945Y-117479871D01*
X116667969Y-117496785D01*
X116587918Y-117526643D01*
X116587906Y-117526649D01*
X116472812Y-117612809D01*
X116472809Y-117612812D01*
X116386649Y-117727906D01*
X116386645Y-117727913D01*
X116336403Y-117862620D01*
X116336401Y-117862627D01*
X116330000Y-117922155D01*
X116330000Y-118620000D01*
X117354722Y-118620000D01*
X117310667Y-118696306D01*
X117280000Y-118810756D01*
X117280000Y-118929244D01*
X117310667Y-119043694D01*
X117354722Y-119120000D01*
X116330000Y-119120000D01*
X116330000Y-119817844D01*
X116336401Y-119877372D01*
X116336403Y-119877379D01*
X116386645Y-120012086D01*
X116386649Y-120012093D01*
X116472809Y-120127187D01*
X116472812Y-120127190D01*
X116587906Y-120213350D01*
X116587913Y-120213354D01*
X116722620Y-120263596D01*
X116722627Y-120263598D01*
X116782155Y-120269999D01*
X116782172Y-120270000D01*
X117480000Y-120270000D01*
X117480000Y-119245277D01*
X117556306Y-119289333D01*
X117670756Y-119320000D01*
X117789244Y-119320000D01*
X117903694Y-119289333D01*
X117980000Y-119245277D01*
X117980000Y-120270000D01*
X118677828Y-120270000D01*
X118677844Y-120269999D01*
X118737372Y-120263598D01*
X118737379Y-120263596D01*
X118872086Y-120213354D01*
X118872093Y-120213350D01*
X118987187Y-120127190D01*
X118987190Y-120127187D01*
X119073350Y-120012093D01*
X119073354Y-120012086D01*
X119123596Y-119877379D01*
X119123598Y-119877372D01*
X119129999Y-119817844D01*
X119130000Y-119817827D01*
X119130000Y-119120000D01*
X118105278Y-119120000D01*
X118149333Y-119043694D01*
X118180000Y-118929244D01*
X118180000Y-118810756D01*
X118149333Y-118696306D01*
X118105278Y-118620000D01*
X119130000Y-118620000D01*
X119130000Y-117922172D01*
X119129999Y-117922155D01*
X119123598Y-117862627D01*
X119123596Y-117862620D01*
X119073354Y-117727913D01*
X119073350Y-117727906D01*
X118987190Y-117612812D01*
X118987187Y-117612809D01*
X118872093Y-117526649D01*
X118872087Y-117526646D01*
X118792030Y-117496786D01*
X118736097Y-117454914D01*
X118711680Y-117389450D01*
X118726532Y-117321177D01*
X118747681Y-117292925D01*
X118798242Y-117242365D01*
X118927815Y-117064022D01*
X119027895Y-116867606D01*
X119096015Y-116657951D01*
X119130500Y-116440222D01*
X119130500Y-116219778D01*
X119109084Y-116084566D01*
X119118038Y-116015276D01*
X119143873Y-115977493D01*
X120205246Y-114916122D01*
X120507260Y-114614109D01*
X120509142Y-114615991D01*
X120557320Y-114583132D01*
X120627163Y-114581219D01*
X120686954Y-114617369D01*
X120717709Y-114680106D01*
X120719500Y-114701108D01*
X120719500Y-121940829D01*
X120699815Y-122007868D01*
X120647011Y-122053623D01*
X120577853Y-122063567D01*
X120522620Y-122041151D01*
X120516436Y-122036658D01*
X120305996Y-121929433D01*
X120081368Y-121856446D01*
X119848097Y-121819500D01*
X119848092Y-121819500D01*
X119611908Y-121819500D01*
X119611903Y-121819500D01*
X119378631Y-121856446D01*
X119154003Y-121929433D01*
X118943566Y-122036657D01*
X118876364Y-122085483D01*
X118752490Y-122175483D01*
X118752488Y-122175485D01*
X118752487Y-122175485D01*
X118585485Y-122342487D01*
X118585485Y-122342488D01*
X118585483Y-122342490D01*
X118564865Y-122370868D01*
X118446657Y-122533566D01*
X118339433Y-122744003D01*
X118266446Y-122968631D01*
X118229500Y-123201902D01*
X118229500Y-123438097D01*
X118266446Y-123671368D01*
X118339433Y-123895996D01*
X118432784Y-124079205D01*
X118445680Y-124147874D01*
X118419404Y-124212615D01*
X118362297Y-124252872D01*
X118322299Y-124259500D01*
X83920108Y-124259500D01*
X83853069Y-124239815D01*
X83807314Y-124187011D01*
X83797370Y-124117853D01*
X83819790Y-124062614D01*
X83853343Y-124016433D01*
X83960568Y-123805992D01*
X84033553Y-123581368D01*
X84041043Y-123534076D01*
X84070500Y-123348097D01*
X84070500Y-123111902D01*
X84033553Y-122878631D01*
X83960566Y-122654003D01*
X83853342Y-122443566D01*
X83714517Y-122252490D01*
X83547510Y-122085483D01*
X83356433Y-121946657D01*
X83322627Y-121929432D01*
X83145996Y-121839433D01*
X82921368Y-121766446D01*
X82688097Y-121729500D01*
X82688092Y-121729500D01*
X82451908Y-121729500D01*
X82451903Y-121729500D01*
X82218631Y-121766446D01*
X81994003Y-121839433D01*
X81783566Y-121946657D01*
X81682365Y-122020185D01*
X81592490Y-122085483D01*
X81592488Y-122085485D01*
X81592487Y-122085485D01*
X81425485Y-122252487D01*
X81425478Y-122252496D01*
X81374817Y-122322224D01*
X81319487Y-122364890D01*
X81249874Y-122370868D01*
X81188079Y-122338262D01*
X81153722Y-122277423D01*
X81150500Y-122249338D01*
X81150500Y-108441902D01*
X85779500Y-108441902D01*
X85779500Y-108678097D01*
X85816446Y-108911368D01*
X85889433Y-109135996D01*
X85996657Y-109346433D01*
X86135483Y-109537510D01*
X86302490Y-109704517D01*
X86493567Y-109843343D01*
X86592991Y-109894002D01*
X86704003Y-109950566D01*
X86704005Y-109950566D01*
X86704008Y-109950568D01*
X86824412Y-109989689D01*
X86928631Y-110023553D01*
X87161903Y-110060500D01*
X87161908Y-110060500D01*
X87398097Y-110060500D01*
X87631368Y-110023553D01*
X87855992Y-109950568D01*
X88066433Y-109843343D01*
X88257510Y-109704517D01*
X88424517Y-109537510D01*
X88563343Y-109346433D01*
X88670568Y-109135992D01*
X88743553Y-108911368D01*
X88780500Y-108678097D01*
X88780500Y-108441902D01*
X88743553Y-108208631D01*
X88670566Y-107984003D01*
X88563342Y-107773566D01*
X88543311Y-107745996D01*
X88424517Y-107582490D01*
X88257510Y-107415483D01*
X88254065Y-107412038D01*
X88255259Y-107410843D01*
X88221083Y-107358475D01*
X88220591Y-107288607D01*
X88252128Y-107235025D01*
X89065961Y-106421193D01*
X89127281Y-106387710D01*
X89196973Y-106392694D01*
X89252906Y-106434566D01*
X89277323Y-106500030D01*
X89264125Y-106565168D01*
X89249435Y-106594000D01*
X89176446Y-106818631D01*
X89139500Y-107051902D01*
X89139500Y-107288097D01*
X89176446Y-107521368D01*
X89249433Y-107745996D01*
X89356657Y-107956433D01*
X89495483Y-108147510D01*
X89662490Y-108314517D01*
X89838386Y-108442313D01*
X89881051Y-108497643D01*
X89889500Y-108542631D01*
X89889500Y-111993918D01*
X89889500Y-111993920D01*
X89889499Y-111993920D01*
X89918340Y-112138907D01*
X89918343Y-112138917D01*
X89974912Y-112275488D01*
X89974918Y-112275499D01*
X89989315Y-112297044D01*
X89989317Y-112297049D01*
X90057046Y-112398414D01*
X90057052Y-112398421D01*
X90976451Y-113317819D01*
X91009936Y-113379142D01*
X91004952Y-113448833D01*
X90963080Y-113504767D01*
X90897616Y-113529184D01*
X90888770Y-113529500D01*
X88206076Y-113529500D01*
X88177242Y-113535234D01*
X88177243Y-113535235D01*
X88061092Y-113558339D01*
X88061086Y-113558341D01*
X87985864Y-113589500D01*
X87924509Y-113614914D01*
X87924501Y-113614918D01*
X87907672Y-113626163D01*
X87853926Y-113662075D01*
X87842372Y-113669795D01*
X87801585Y-113697047D01*
X87719912Y-113778720D01*
X87658588Y-113812204D01*
X87612833Y-113813511D01*
X87398097Y-113779500D01*
X87398092Y-113779500D01*
X87161908Y-113779500D01*
X87161903Y-113779500D01*
X86928631Y-113816446D01*
X86704003Y-113889433D01*
X86493566Y-113996657D01*
X86418853Y-114050940D01*
X86302490Y-114135483D01*
X86302488Y-114135485D01*
X86302487Y-114135485D01*
X86135485Y-114302487D01*
X86135485Y-114302488D01*
X86135483Y-114302490D01*
X86108001Y-114340316D01*
X85996657Y-114493566D01*
X85889433Y-114704003D01*
X85816446Y-114928631D01*
X85779500Y-115161902D01*
X85779500Y-115398097D01*
X85816446Y-115631368D01*
X85889433Y-115855996D01*
X85970591Y-116015276D01*
X85996657Y-116066433D01*
X86135483Y-116257510D01*
X86302490Y-116424517D01*
X86493567Y-116563343D01*
X86585702Y-116610288D01*
X86704003Y-116670566D01*
X86704005Y-116670566D01*
X86704008Y-116670568D01*
X86824412Y-116709689D01*
X86928631Y-116743553D01*
X87161903Y-116780500D01*
X87161908Y-116780500D01*
X87398097Y-116780500D01*
X87631368Y-116743553D01*
X87698350Y-116721789D01*
X87855992Y-116670568D01*
X88066433Y-116563343D01*
X88257510Y-116424517D01*
X88424517Y-116257510D01*
X88563343Y-116066433D01*
X88670568Y-115855992D01*
X88743553Y-115631368D01*
X88749159Y-115595974D01*
X88780500Y-115398097D01*
X88780500Y-115157036D01*
X88782198Y-115157036D01*
X88795037Y-115095869D01*
X88844080Y-115046105D01*
X88904300Y-115030500D01*
X90048858Y-115030500D01*
X90115897Y-115050185D01*
X90161652Y-115102989D01*
X90171596Y-115172147D01*
X90142571Y-115235703D01*
X90087176Y-115272431D01*
X90064197Y-115279897D01*
X89853830Y-115387084D01*
X89770894Y-115447340D01*
X90510591Y-116187037D01*
X90447007Y-116204075D01*
X90332993Y-116269901D01*
X90239901Y-116362993D01*
X90174075Y-116477007D01*
X90157037Y-116540591D01*
X89417340Y-115800894D01*
X89357084Y-115883830D01*
X89249897Y-116094197D01*
X89176934Y-116318752D01*
X89140000Y-116551947D01*
X89140000Y-116788052D01*
X89176934Y-117021247D01*
X89249897Y-117245802D01*
X89357087Y-117456174D01*
X89417338Y-117539104D01*
X89417340Y-117539105D01*
X90157037Y-116799408D01*
X90174075Y-116862993D01*
X90239901Y-116977007D01*
X90332993Y-117070099D01*
X90447007Y-117135925D01*
X90510590Y-117152962D01*
X89770893Y-117892658D01*
X89853828Y-117952914D01*
X90064197Y-118060102D01*
X90288752Y-118133065D01*
X90288751Y-118133065D01*
X90521948Y-118170000D01*
X90758052Y-118170000D01*
X90991247Y-118133065D01*
X91215802Y-118060102D01*
X91426163Y-117952918D01*
X91426169Y-117952914D01*
X91509104Y-117892658D01*
X91509105Y-117892658D01*
X90769408Y-117152962D01*
X90832993Y-117135925D01*
X90947007Y-117070099D01*
X91040099Y-116977007D01*
X91105925Y-116862993D01*
X91122962Y-116799409D01*
X91862658Y-117539105D01*
X91862658Y-117539104D01*
X91922914Y-117456169D01*
X91922918Y-117456163D01*
X92030102Y-117245802D01*
X92103065Y-117021247D01*
X92140000Y-116788052D01*
X92140000Y-116551947D01*
X92103065Y-116318752D01*
X92030102Y-116094197D01*
X91922914Y-115883828D01*
X91862658Y-115800894D01*
X91862658Y-115800893D01*
X91122962Y-116540590D01*
X91105925Y-116477007D01*
X91040099Y-116362993D01*
X90947007Y-116269901D01*
X90832993Y-116204075D01*
X90769409Y-116187037D01*
X91509105Y-115447340D01*
X91509104Y-115447338D01*
X91426174Y-115387087D01*
X91215802Y-115279897D01*
X91192824Y-115272431D01*
X91135149Y-115232994D01*
X91107950Y-115168635D01*
X91119865Y-115099789D01*
X91167109Y-115048313D01*
X91231142Y-115030500D01*
X92375700Y-115030500D01*
X92442739Y-115050185D01*
X92488494Y-115102989D01*
X92498042Y-115157036D01*
X92499500Y-115157036D01*
X92499500Y-115398097D01*
X92536446Y-115631368D01*
X92609433Y-115855996D01*
X92690591Y-116015276D01*
X92716657Y-116066433D01*
X92855483Y-116257510D01*
X93022490Y-116424517D01*
X93213567Y-116563343D01*
X93305702Y-116610288D01*
X93424003Y-116670566D01*
X93424005Y-116670566D01*
X93424008Y-116670568D01*
X93544412Y-116709689D01*
X93648631Y-116743553D01*
X93881903Y-116780500D01*
X93881908Y-116780500D01*
X94118097Y-116780500D01*
X94351368Y-116743553D01*
X94418350Y-116721789D01*
X94575992Y-116670568D01*
X94786433Y-116563343D01*
X94977510Y-116424517D01*
X95144517Y-116257510D01*
X95272313Y-116081613D01*
X95327643Y-116038949D01*
X95372631Y-116030500D01*
X97445500Y-116030500D01*
X97512539Y-116050185D01*
X97558294Y-116102989D01*
X97569500Y-116154500D01*
X97569500Y-116178846D01*
X97600261Y-116333489D01*
X97600264Y-116333501D01*
X97660602Y-116479172D01*
X97660609Y-116479185D01*
X97748210Y-116610288D01*
X97748213Y-116610292D01*
X97859710Y-116721789D01*
X97947578Y-116780500D01*
X97990821Y-116809394D01*
X98014475Y-116819191D01*
X98054703Y-116846071D01*
X103041586Y-121832954D01*
X103071058Y-121852645D01*
X103115270Y-121882186D01*
X103164505Y-121915084D01*
X103164506Y-121915084D01*
X103164507Y-121915085D01*
X103164509Y-121915086D01*
X103226659Y-121940829D01*
X103301087Y-121971658D01*
X103301091Y-121971658D01*
X103301092Y-121971659D01*
X103446079Y-122000500D01*
X103446082Y-122000500D01*
X103446083Y-122000500D01*
X103593918Y-122000500D01*
X103830249Y-122000500D01*
X103897288Y-122020185D01*
X103929515Y-122050188D01*
X103955939Y-122085485D01*
X103972454Y-122107546D01*
X103991655Y-122121920D01*
X104087664Y-122193793D01*
X104087671Y-122193797D01*
X104222517Y-122244091D01*
X104222516Y-122244091D01*
X104229444Y-122244835D01*
X104282127Y-122250500D01*
X105377872Y-122250499D01*
X105437483Y-122244091D01*
X105572331Y-122193796D01*
X105584110Y-122184977D01*
X105649570Y-122160558D01*
X105705872Y-122169680D01*
X105808165Y-122212051D01*
X105808169Y-122212051D01*
X105808170Y-122212052D01*
X106001456Y-122250500D01*
X106001459Y-122250500D01*
X106198543Y-122250500D01*
X106328582Y-122224632D01*
X106391835Y-122212051D01*
X106573914Y-122136632D01*
X106666109Y-122075029D01*
X106732786Y-122054151D01*
X106800166Y-122072635D01*
X106803891Y-122075029D01*
X106852550Y-122107542D01*
X106896086Y-122136632D01*
X106896088Y-122136633D01*
X106896092Y-122136635D01*
X107078160Y-122212049D01*
X107078165Y-122212051D01*
X107189841Y-122234265D01*
X107251750Y-122266648D01*
X107253329Y-122268200D01*
X107768075Y-122782947D01*
X107768082Y-122782953D01*
X107830667Y-122824770D01*
X107830669Y-122824771D01*
X107830672Y-122824773D01*
X107891002Y-122865084D01*
X107891003Y-122865084D01*
X107891004Y-122865085D01*
X108027579Y-122921656D01*
X108027584Y-122921658D01*
X108027588Y-122921658D01*
X108027589Y-122921659D01*
X108172576Y-122950500D01*
X108172579Y-122950500D01*
X111647423Y-122950500D01*
X111744965Y-122931096D01*
X111792416Y-122921658D01*
X111928998Y-122865084D01*
X111989328Y-122824773D01*
X111989328Y-122824772D01*
X111989330Y-122824772D01*
X112020623Y-122803862D01*
X112051919Y-122782952D01*
X112712952Y-122121918D01*
X112769921Y-122036657D01*
X112795084Y-121998998D01*
X112841151Y-121887782D01*
X112851659Y-121862415D01*
X112880500Y-121717420D01*
X112880500Y-121569585D01*
X112880500Y-117175421D01*
X112880500Y-117175418D01*
X112851659Y-117030431D01*
X112851658Y-117030430D01*
X112851658Y-117030426D01*
X112795084Y-116893844D01*
X112762186Y-116844609D01*
X112762185Y-116844607D01*
X112712956Y-116770928D01*
X112712952Y-116770923D01*
X112482883Y-116540854D01*
X112468691Y-116514863D01*
X112452235Y-116490243D01*
X112452132Y-116484538D01*
X112449398Y-116479531D01*
X112451510Y-116449988D01*
X112450978Y-116420384D01*
X112454119Y-116413502D01*
X112454382Y-116409839D01*
X112465059Y-116388021D01*
X112466676Y-116385401D01*
X112466789Y-116385289D01*
X112554394Y-116254179D01*
X112568010Y-116221304D01*
X112573248Y-116212823D01*
X112580181Y-116206593D01*
X112591070Y-116190296D01*
X114664547Y-114116818D01*
X114725870Y-114083334D01*
X114752228Y-114080500D01*
X114934486Y-114080500D01*
X115121118Y-114050940D01*
X115300832Y-113992547D01*
X115469199Y-113906760D01*
X115622073Y-113795690D01*
X115755690Y-113662073D01*
X115866760Y-113509199D01*
X115952547Y-113340832D01*
X116010940Y-113161118D01*
X116027676Y-113055450D01*
X116040500Y-112974486D01*
X116040500Y-112785513D01*
X116010940Y-112598881D01*
X115974407Y-112486446D01*
X115952547Y-112419168D01*
X115952545Y-112419165D01*
X115952545Y-112419163D01*
X115879342Y-112275495D01*
X115866760Y-112250801D01*
X115755690Y-112097927D01*
X115622073Y-111964310D01*
X115469199Y-111853240D01*
X115463735Y-111850456D01*
X115300836Y-111767454D01*
X115121118Y-111709059D01*
X114934486Y-111679500D01*
X114934481Y-111679500D01*
X114745519Y-111679500D01*
X114745514Y-111679500D01*
X114558881Y-111709059D01*
X114379163Y-111767454D01*
X114210800Y-111853240D01*
X114123579Y-111916610D01*
X114057927Y-111964310D01*
X114057925Y-111964312D01*
X114057924Y-111964312D01*
X113924312Y-112097924D01*
X113924312Y-112097925D01*
X113924310Y-112097927D01*
X113909479Y-112118340D01*
X113813240Y-112250800D01*
X113727454Y-112419163D01*
X113669059Y-112598881D01*
X113639500Y-112785513D01*
X113639500Y-112967769D01*
X113619815Y-113034808D01*
X113603181Y-113055450D01*
X111529703Y-115128927D01*
X111507174Y-115146750D01*
X111498681Y-115151994D01*
X111465821Y-115165606D01*
X111334711Y-115253211D01*
X111334605Y-115253316D01*
X111331978Y-115254939D01*
X111300345Y-115263612D01*
X111269038Y-115273415D01*
X111266817Y-115272805D01*
X111264596Y-115273415D01*
X111233290Y-115263607D01*
X111201658Y-115254930D01*
X111199082Y-115252891D01*
X111197921Y-115252528D01*
X111196552Y-115250890D01*
X111179145Y-115237116D01*
X110493710Y-114551681D01*
X110460225Y-114490358D01*
X110465209Y-114420666D01*
X110507081Y-114364733D01*
X110572545Y-114340316D01*
X110581391Y-114340000D01*
X110748052Y-114340000D01*
X110981247Y-114303065D01*
X111205802Y-114230102D01*
X111416163Y-114122918D01*
X111416169Y-114122914D01*
X111499104Y-114062658D01*
X111499105Y-114062658D01*
X110759408Y-113322962D01*
X110822993Y-113305925D01*
X110937007Y-113240099D01*
X111030099Y-113147007D01*
X111095925Y-113032993D01*
X111112962Y-112969408D01*
X111852658Y-113709105D01*
X111852658Y-113709104D01*
X111912914Y-113626169D01*
X111912918Y-113626163D01*
X112020102Y-113415802D01*
X112093065Y-113191247D01*
X112130000Y-112958052D01*
X112130000Y-112721947D01*
X112093065Y-112488752D01*
X112020102Y-112264197D01*
X111912914Y-112053828D01*
X111852658Y-111970894D01*
X111852658Y-111970893D01*
X111112962Y-112710590D01*
X111095925Y-112647007D01*
X111030099Y-112532993D01*
X110937007Y-112439901D01*
X110822993Y-112374075D01*
X110759409Y-112357037D01*
X111499105Y-111617340D01*
X111499104Y-111617338D01*
X111416174Y-111557087D01*
X111205802Y-111449897D01*
X110981247Y-111376934D01*
X110981248Y-111376934D01*
X110748052Y-111340000D01*
X110511948Y-111340000D01*
X110278752Y-111376934D01*
X110054197Y-111449897D01*
X109843830Y-111557084D01*
X109760894Y-111617340D01*
X110500591Y-112357037D01*
X110437007Y-112374075D01*
X110322993Y-112439901D01*
X110229901Y-112532993D01*
X110164075Y-112647007D01*
X110147037Y-112710591D01*
X109407340Y-111970894D01*
X109347084Y-112053830D01*
X109239897Y-112264197D01*
X109166934Y-112488752D01*
X109130000Y-112721947D01*
X109130000Y-112888609D01*
X109110315Y-112955648D01*
X109057511Y-113001403D01*
X108988353Y-113011347D01*
X108924797Y-112982322D01*
X108918319Y-112976290D01*
X108199074Y-112257045D01*
X108149840Y-112224150D01*
X108117016Y-112202218D01*
X108076156Y-112174916D01*
X108076155Y-112174915D01*
X108076153Y-112174914D01*
X108076151Y-112174913D01*
X107939578Y-112118343D01*
X107939568Y-112118340D01*
X107794581Y-112089500D01*
X107794579Y-112089500D01*
X104654499Y-112089500D01*
X104587460Y-112069815D01*
X104541705Y-112017011D01*
X104530499Y-111965500D01*
X104530499Y-111792129D01*
X104530498Y-111792123D01*
X104524091Y-111732517D01*
X104524090Y-111732514D01*
X104514922Y-111707931D01*
X104473797Y-111597671D01*
X104473793Y-111597664D01*
X104387547Y-111482455D01*
X104387544Y-111482452D01*
X104272335Y-111396206D01*
X104272328Y-111396202D01*
X104137482Y-111345908D01*
X104137483Y-111345908D01*
X104077883Y-111339501D01*
X104077881Y-111339500D01*
X104077873Y-111339500D01*
X104077864Y-111339500D01*
X101982129Y-111339500D01*
X101982123Y-111339501D01*
X101922516Y-111345908D01*
X101787671Y-111396202D01*
X101787664Y-111396206D01*
X101672455Y-111482452D01*
X101672452Y-111482455D01*
X101586206Y-111597664D01*
X101586202Y-111597671D01*
X101535908Y-111732517D01*
X101529501Y-111792116D01*
X101529501Y-111792123D01*
X101529500Y-111792135D01*
X101529500Y-113887870D01*
X101529501Y-113887876D01*
X101535908Y-113947483D01*
X101586202Y-114082328D01*
X101586206Y-114082335D01*
X101672452Y-114197544D01*
X101672455Y-114197547D01*
X101787664Y-114283793D01*
X101787671Y-114283797D01*
X101802473Y-114289318D01*
X101858407Y-114331189D01*
X101882824Y-114396654D01*
X101867972Y-114464927D01*
X101818567Y-114514332D01*
X101759140Y-114529500D01*
X98594500Y-114529500D01*
X98527461Y-114509815D01*
X98481706Y-114457011D01*
X98470500Y-114405500D01*
X98470500Y-114311155D01*
X98470499Y-114311153D01*
X98466156Y-114289318D01*
X98439737Y-114156503D01*
X98425824Y-114122914D01*
X98379397Y-114010827D01*
X98379390Y-114010814D01*
X98291789Y-113879711D01*
X98291786Y-113879707D01*
X98180292Y-113768213D01*
X98180288Y-113768210D01*
X98049185Y-113680609D01*
X98049175Y-113680604D01*
X98025523Y-113670807D01*
X97985295Y-113643927D01*
X94786819Y-110445451D01*
X94772115Y-110418523D01*
X94755523Y-110392705D01*
X94754631Y-110386504D01*
X94753334Y-110384128D01*
X94750500Y-110357770D01*
X94750500Y-110184499D01*
X94770185Y-110117460D01*
X94822989Y-110071705D01*
X94874500Y-110060499D01*
X95047871Y-110060499D01*
X95047872Y-110060499D01*
X95107483Y-110054091D01*
X95242331Y-110003796D01*
X95357546Y-109917546D01*
X95443796Y-109802331D01*
X95494091Y-109667483D01*
X95500500Y-109607873D01*
X95500499Y-107512128D01*
X95494091Y-107452517D01*
X95480278Y-107415483D01*
X95443797Y-107317671D01*
X95443793Y-107317664D01*
X95357547Y-107202455D01*
X95357544Y-107202452D01*
X95242335Y-107116206D01*
X95242328Y-107116202D01*
X95107482Y-107065908D01*
X95107483Y-107065908D01*
X95047883Y-107059501D01*
X95047881Y-107059500D01*
X95047873Y-107059500D01*
X95047864Y-107059500D01*
X92952129Y-107059500D01*
X92952123Y-107059501D01*
X92892516Y-107065908D01*
X92757671Y-107116202D01*
X92757664Y-107116206D01*
X92642455Y-107202452D01*
X92642452Y-107202455D01*
X92556206Y-107317664D01*
X92556202Y-107317671D01*
X92505908Y-107452517D01*
X92499501Y-107512116D01*
X92499501Y-107512123D01*
X92499500Y-107512135D01*
X92499500Y-109607870D01*
X92499501Y-109607876D01*
X92505908Y-109667483D01*
X92556202Y-109802328D01*
X92556206Y-109802335D01*
X92642452Y-109917544D01*
X92642455Y-109917547D01*
X92757664Y-110003793D01*
X92757671Y-110003797D01*
X92802618Y-110020561D01*
X92892517Y-110054091D01*
X92952127Y-110060500D01*
X93125500Y-110060499D01*
X93192539Y-110080183D01*
X93238294Y-110132987D01*
X93249500Y-110184499D01*
X93249500Y-110793918D01*
X93249500Y-110793920D01*
X93249499Y-110793920D01*
X93278340Y-110938907D01*
X93278343Y-110938917D01*
X93334914Y-111075492D01*
X93367812Y-111124727D01*
X93367813Y-111124730D01*
X93417046Y-111198414D01*
X93417052Y-111198421D01*
X96536451Y-114317819D01*
X96569936Y-114379142D01*
X96564952Y-114448834D01*
X96523080Y-114504767D01*
X96457616Y-114529184D01*
X96448770Y-114529500D01*
X95372631Y-114529500D01*
X95305592Y-114509815D01*
X95272313Y-114478386D01*
X95262897Y-114465426D01*
X95144517Y-114302490D01*
X94977510Y-114135483D01*
X94786433Y-113996657D01*
X94689924Y-113947483D01*
X94575996Y-113889433D01*
X94351368Y-113816446D01*
X94118097Y-113779500D01*
X94118092Y-113779500D01*
X93881908Y-113779500D01*
X93881903Y-113779500D01*
X93667166Y-113813511D01*
X93661741Y-113812809D01*
X93656615Y-113814722D01*
X93627455Y-113808379D01*
X93597872Y-113804556D01*
X93592269Y-113800725D01*
X93588342Y-113799871D01*
X93560089Y-113778721D01*
X93478416Y-113697048D01*
X93478413Y-113697046D01*
X91426819Y-111645451D01*
X91393334Y-111584128D01*
X91390500Y-111557770D01*
X91390500Y-108542631D01*
X91410185Y-108475592D01*
X91441614Y-108442313D01*
X91617510Y-108314517D01*
X91784517Y-108147510D01*
X91923343Y-107956433D01*
X92030568Y-107745992D01*
X92103553Y-107521368D01*
X92114458Y-107452516D01*
X92140500Y-107288097D01*
X92140500Y-107051902D01*
X92103553Y-106818631D01*
X92030566Y-106594003D01*
X91927993Y-106392694D01*
X91923343Y-106383567D01*
X91784517Y-106192490D01*
X91617510Y-106025483D01*
X91426433Y-105886657D01*
X91215996Y-105779433D01*
X91009785Y-105712431D01*
X90952110Y-105672993D01*
X90924912Y-105608634D01*
X90936827Y-105539788D01*
X90984071Y-105488312D01*
X91048104Y-105470500D01*
X100094582Y-105470500D01*
X100161621Y-105490185D01*
X100194900Y-105521615D01*
X100228028Y-105567212D01*
X100228032Y-105567217D01*
X100372786Y-105711971D01*
X100527749Y-105824556D01*
X100538390Y-105832287D01*
X100645097Y-105886657D01*
X100720776Y-105925218D01*
X100720778Y-105925218D01*
X100720781Y-105925220D01*
X100825137Y-105959127D01*
X100915465Y-105988477D01*
X101016557Y-106004488D01*
X101117648Y-106020500D01*
X101117649Y-106020500D01*
X101322351Y-106020500D01*
X101322352Y-106020500D01*
X101524534Y-105988477D01*
X101719219Y-105925220D01*
X101901610Y-105832287D01*
X101994590Y-105764732D01*
X102067213Y-105711971D01*
X102067215Y-105711968D01*
X102067219Y-105711966D01*
X102211966Y-105567219D01*
X102211968Y-105567215D01*
X102211971Y-105567213D01*
X102282236Y-105470500D01*
X102332287Y-105401610D01*
X102425220Y-105219219D01*
X102488477Y-105024534D01*
X102520500Y-104822352D01*
X102520500Y-104617682D01*
X110080000Y-104617682D01*
X110080000Y-104822317D01*
X110112009Y-105024417D01*
X110175244Y-105219031D01*
X110268141Y-105401350D01*
X110268147Y-105401359D01*
X110300523Y-105445921D01*
X110300524Y-105445922D01*
X110980000Y-104766446D01*
X110980000Y-104772661D01*
X111007259Y-104874394D01*
X111059920Y-104965606D01*
X111134394Y-105040080D01*
X111225606Y-105092741D01*
X111327339Y-105120000D01*
X111333553Y-105120000D01*
X110654076Y-105799474D01*
X110698650Y-105831859D01*
X110880968Y-105924755D01*
X111075582Y-105987990D01*
X111277683Y-106020000D01*
X111482317Y-106020000D01*
X111684417Y-105987990D01*
X111879031Y-105924755D01*
X112061349Y-105831859D01*
X112105921Y-105799474D01*
X111426447Y-105120000D01*
X111432661Y-105120000D01*
X111534394Y-105092741D01*
X111625606Y-105040080D01*
X111700080Y-104965606D01*
X111752741Y-104874394D01*
X111780000Y-104772661D01*
X111780000Y-104766447D01*
X112459474Y-105445921D01*
X112491859Y-105401349D01*
X112584755Y-105219031D01*
X112647990Y-105024417D01*
X112680000Y-104822317D01*
X112680000Y-104617682D01*
X112647990Y-104415582D01*
X112584755Y-104220968D01*
X112491859Y-104038650D01*
X112459474Y-103994077D01*
X112459474Y-103994076D01*
X111780000Y-104673551D01*
X111780000Y-104667339D01*
X111752741Y-104565606D01*
X111700080Y-104474394D01*
X111625606Y-104399920D01*
X111534394Y-104347259D01*
X111432661Y-104320000D01*
X111426446Y-104320000D01*
X112105922Y-103640524D01*
X112105921Y-103640523D01*
X112061359Y-103608147D01*
X112061350Y-103608141D01*
X111879031Y-103515244D01*
X111684417Y-103452009D01*
X111482317Y-103420000D01*
X111277683Y-103420000D01*
X111075582Y-103452009D01*
X110880968Y-103515244D01*
X110698644Y-103608143D01*
X110654077Y-103640523D01*
X110654077Y-103640524D01*
X111333554Y-104320000D01*
X111327339Y-104320000D01*
X111225606Y-104347259D01*
X111134394Y-104399920D01*
X111059920Y-104474394D01*
X111007259Y-104565606D01*
X110980000Y-104667339D01*
X110980000Y-104673553D01*
X110300524Y-103994077D01*
X110300523Y-103994077D01*
X110268143Y-104038644D01*
X110175244Y-104220968D01*
X110112009Y-104415582D01*
X110080000Y-104617682D01*
X102520500Y-104617682D01*
X102520500Y-104617648D01*
X102512257Y-104565606D01*
X102488477Y-104415465D01*
X102457458Y-104320000D01*
X102425220Y-104220781D01*
X102425218Y-104220778D01*
X102425218Y-104220776D01*
X102357469Y-104087813D01*
X102332287Y-104038390D01*
X102300092Y-103994077D01*
X102211971Y-103872786D01*
X102067213Y-103728028D01*
X101901613Y-103607715D01*
X101901612Y-103607714D01*
X101901610Y-103607713D01*
X101799543Y-103555707D01*
X101719223Y-103514781D01*
X101524534Y-103451522D01*
X101349995Y-103423878D01*
X101322352Y-103419500D01*
X101117648Y-103419500D01*
X101093329Y-103423351D01*
X100915465Y-103451522D01*
X100720776Y-103514781D01*
X100538386Y-103607715D01*
X100372786Y-103728028D01*
X100228032Y-103872782D01*
X100228028Y-103872787D01*
X100194900Y-103918385D01*
X100139571Y-103961051D01*
X100094582Y-103969500D01*
X89631867Y-103969500D01*
X89486879Y-103998340D01*
X89486873Y-103998342D01*
X89350295Y-104054914D01*
X89350283Y-104054921D01*
X89301056Y-104087813D01*
X89227375Y-104137044D01*
X89227367Y-104137050D01*
X86697047Y-106667371D01*
X86697045Y-106667373D01*
X86680871Y-106691582D01*
X86680870Y-106691584D01*
X86614913Y-106790295D01*
X86558343Y-106926869D01*
X86558340Y-106926879D01*
X86529500Y-107071866D01*
X86529500Y-107187368D01*
X86509815Y-107254407D01*
X86478386Y-107287686D01*
X86302488Y-107415484D01*
X86135485Y-107582487D01*
X86135485Y-107582488D01*
X86135483Y-107582490D01*
X86075862Y-107664550D01*
X85996657Y-107773566D01*
X85889433Y-107984003D01*
X85816446Y-108208631D01*
X85779500Y-108441902D01*
X81150500Y-108441902D01*
X81150500Y-103591889D01*
X81170185Y-103524850D01*
X81222989Y-103479095D01*
X81292147Y-103469151D01*
X81355703Y-103498176D01*
X81362181Y-103504208D01*
X81372490Y-103514517D01*
X81563567Y-103653343D01*
X81599966Y-103671889D01*
X81774003Y-103760566D01*
X81774005Y-103760566D01*
X81774008Y-103760568D01*
X81894412Y-103799689D01*
X81998631Y-103833553D01*
X82231903Y-103870500D01*
X82231908Y-103870500D01*
X82468097Y-103870500D01*
X82701368Y-103833553D01*
X82925992Y-103760568D01*
X83136433Y-103653343D01*
X83327510Y-103514517D01*
X83494517Y-103347510D01*
X83633343Y-103156433D01*
X83740568Y-102945992D01*
X83813553Y-102721368D01*
X83821043Y-102674076D01*
X83850500Y-102488097D01*
X83850500Y-102251902D01*
X83813553Y-102018631D01*
X83740566Y-101794003D01*
X83633342Y-101583566D01*
X83624889Y-101571931D01*
X83541665Y-101457383D01*
X83518186Y-101391580D01*
X83534011Y-101323526D01*
X83584117Y-101274831D01*
X83641984Y-101260500D01*
X118288111Y-101260500D01*
X118355150Y-101280185D01*
G37*
%TD.AperFunction*%
%TD*%
M02*
