%TF.GenerationSoftware,KiCad,Pcbnew,10.0.1*%
%TF.CreationDate,2026-05-18T15:13:34-07:00*%
%TF.ProjectId,5V_Voltage_Stabilizer,35565f56-6f6c-4746-9167-655f53746162,rev?*%
%TF.SameCoordinates,Original*%
%TF.FileFunction,Legend,Top*%
%TF.FilePolarity,Positive*%
%FSLAX46Y46*%
G04 Gerber Fmt 4.6, Leading zero omitted, Abs format (unit mm)*
G04 Created by KiCad (PCBNEW 10.0.1) date 2026-05-18 15:13:34*
%MOMM*%
%LPD*%
G01*
G04 APERTURE LIST*
%ADD10C,0.150000*%
%ADD11C,0.120000*%
G04 APERTURE END LIST*
D10*
X110916666Y-79964819D02*
X110916666Y-80679104D01*
X110916666Y-80679104D02*
X110869047Y-80821961D01*
X110869047Y-80821961D02*
X110773809Y-80917200D01*
X110773809Y-80917200D02*
X110630952Y-80964819D01*
X110630952Y-80964819D02*
X110535714Y-80964819D01*
X111297619Y-79964819D02*
X111916666Y-79964819D01*
X111916666Y-79964819D02*
X111583333Y-80345771D01*
X111583333Y-80345771D02*
X111726190Y-80345771D01*
X111726190Y-80345771D02*
X111821428Y-80393390D01*
X111821428Y-80393390D02*
X111869047Y-80441009D01*
X111869047Y-80441009D02*
X111916666Y-80536247D01*
X111916666Y-80536247D02*
X111916666Y-80774342D01*
X111916666Y-80774342D02*
X111869047Y-80869580D01*
X111869047Y-80869580D02*
X111821428Y-80917200D01*
X111821428Y-80917200D02*
X111726190Y-80964819D01*
X111726190Y-80964819D02*
X111440476Y-80964819D01*
X111440476Y-80964819D02*
X111345238Y-80917200D01*
X111345238Y-80917200D02*
X111297619Y-80869580D01*
X145549580Y-87896666D02*
X145597200Y-87944285D01*
X145597200Y-87944285D02*
X145644819Y-88087142D01*
X145644819Y-88087142D02*
X145644819Y-88182380D01*
X145644819Y-88182380D02*
X145597200Y-88325237D01*
X145597200Y-88325237D02*
X145501961Y-88420475D01*
X145501961Y-88420475D02*
X145406723Y-88468094D01*
X145406723Y-88468094D02*
X145216247Y-88515713D01*
X145216247Y-88515713D02*
X145073390Y-88515713D01*
X145073390Y-88515713D02*
X144882914Y-88468094D01*
X144882914Y-88468094D02*
X144787676Y-88420475D01*
X144787676Y-88420475D02*
X144692438Y-88325237D01*
X144692438Y-88325237D02*
X144644819Y-88182380D01*
X144644819Y-88182380D02*
X144644819Y-88087142D01*
X144644819Y-88087142D02*
X144692438Y-87944285D01*
X144692438Y-87944285D02*
X144740057Y-87896666D01*
X144978152Y-87039523D02*
X145644819Y-87039523D01*
X144597200Y-87277618D02*
X145311485Y-87515713D01*
X145311485Y-87515713D02*
X145311485Y-86896666D01*
X134239580Y-78696666D02*
X134287200Y-78744285D01*
X134287200Y-78744285D02*
X134334819Y-78887142D01*
X134334819Y-78887142D02*
X134334819Y-78982380D01*
X134334819Y-78982380D02*
X134287200Y-79125237D01*
X134287200Y-79125237D02*
X134191961Y-79220475D01*
X134191961Y-79220475D02*
X134096723Y-79268094D01*
X134096723Y-79268094D02*
X133906247Y-79315713D01*
X133906247Y-79315713D02*
X133763390Y-79315713D01*
X133763390Y-79315713D02*
X133572914Y-79268094D01*
X133572914Y-79268094D02*
X133477676Y-79220475D01*
X133477676Y-79220475D02*
X133382438Y-79125237D01*
X133382438Y-79125237D02*
X133334819Y-78982380D01*
X133334819Y-78982380D02*
X133334819Y-78887142D01*
X133334819Y-78887142D02*
X133382438Y-78744285D01*
X133382438Y-78744285D02*
X133430057Y-78696666D01*
X133430057Y-78315713D02*
X133382438Y-78268094D01*
X133382438Y-78268094D02*
X133334819Y-78172856D01*
X133334819Y-78172856D02*
X133334819Y-77934761D01*
X133334819Y-77934761D02*
X133382438Y-77839523D01*
X133382438Y-77839523D02*
X133430057Y-77791904D01*
X133430057Y-77791904D02*
X133525295Y-77744285D01*
X133525295Y-77744285D02*
X133620533Y-77744285D01*
X133620533Y-77744285D02*
X133763390Y-77791904D01*
X133763390Y-77791904D02*
X134334819Y-78363332D01*
X134334819Y-78363332D02*
X134334819Y-77744285D01*
X128523333Y-96569580D02*
X128475714Y-96617200D01*
X128475714Y-96617200D02*
X128332857Y-96664819D01*
X128332857Y-96664819D02*
X128237619Y-96664819D01*
X128237619Y-96664819D02*
X128094762Y-96617200D01*
X128094762Y-96617200D02*
X127999524Y-96521961D01*
X127999524Y-96521961D02*
X127951905Y-96426723D01*
X127951905Y-96426723D02*
X127904286Y-96236247D01*
X127904286Y-96236247D02*
X127904286Y-96093390D01*
X127904286Y-96093390D02*
X127951905Y-95902914D01*
X127951905Y-95902914D02*
X127999524Y-95807676D01*
X127999524Y-95807676D02*
X128094762Y-95712438D01*
X128094762Y-95712438D02*
X128237619Y-95664819D01*
X128237619Y-95664819D02*
X128332857Y-95664819D01*
X128332857Y-95664819D02*
X128475714Y-95712438D01*
X128475714Y-95712438D02*
X128523333Y-95760057D01*
X128856667Y-95664819D02*
X129475714Y-95664819D01*
X129475714Y-95664819D02*
X129142381Y-96045771D01*
X129142381Y-96045771D02*
X129285238Y-96045771D01*
X129285238Y-96045771D02*
X129380476Y-96093390D01*
X129380476Y-96093390D02*
X129428095Y-96141009D01*
X129428095Y-96141009D02*
X129475714Y-96236247D01*
X129475714Y-96236247D02*
X129475714Y-96474342D01*
X129475714Y-96474342D02*
X129428095Y-96569580D01*
X129428095Y-96569580D02*
X129380476Y-96617200D01*
X129380476Y-96617200D02*
X129285238Y-96664819D01*
X129285238Y-96664819D02*
X128999524Y-96664819D01*
X128999524Y-96664819D02*
X128904286Y-96617200D01*
X128904286Y-96617200D02*
X128856667Y-96569580D01*
X149751905Y-95014819D02*
X149751905Y-94014819D01*
X149751905Y-94014819D02*
X149990000Y-94014819D01*
X149990000Y-94014819D02*
X150132857Y-94062438D01*
X150132857Y-94062438D02*
X150228095Y-94157676D01*
X150228095Y-94157676D02*
X150275714Y-94252914D01*
X150275714Y-94252914D02*
X150323333Y-94443390D01*
X150323333Y-94443390D02*
X150323333Y-94586247D01*
X150323333Y-94586247D02*
X150275714Y-94776723D01*
X150275714Y-94776723D02*
X150228095Y-94871961D01*
X150228095Y-94871961D02*
X150132857Y-94967200D01*
X150132857Y-94967200D02*
X149990000Y-95014819D01*
X149990000Y-95014819D02*
X149751905Y-95014819D01*
X150704286Y-94110057D02*
X150751905Y-94062438D01*
X150751905Y-94062438D02*
X150847143Y-94014819D01*
X150847143Y-94014819D02*
X151085238Y-94014819D01*
X151085238Y-94014819D02*
X151180476Y-94062438D01*
X151180476Y-94062438D02*
X151228095Y-94110057D01*
X151228095Y-94110057D02*
X151275714Y-94205295D01*
X151275714Y-94205295D02*
X151275714Y-94300533D01*
X151275714Y-94300533D02*
X151228095Y-94443390D01*
X151228095Y-94443390D02*
X150656667Y-95014819D01*
X150656667Y-95014819D02*
X151275714Y-95014819D01*
X119871905Y-81514819D02*
X119871905Y-80514819D01*
X119871905Y-80514819D02*
X120110000Y-80514819D01*
X120110000Y-80514819D02*
X120252857Y-80562438D01*
X120252857Y-80562438D02*
X120348095Y-80657676D01*
X120348095Y-80657676D02*
X120395714Y-80752914D01*
X120395714Y-80752914D02*
X120443333Y-80943390D01*
X120443333Y-80943390D02*
X120443333Y-81086247D01*
X120443333Y-81086247D02*
X120395714Y-81276723D01*
X120395714Y-81276723D02*
X120348095Y-81371961D01*
X120348095Y-81371961D02*
X120252857Y-81467200D01*
X120252857Y-81467200D02*
X120110000Y-81514819D01*
X120110000Y-81514819D02*
X119871905Y-81514819D01*
X121395714Y-81514819D02*
X120824286Y-81514819D01*
X121110000Y-81514819D02*
X121110000Y-80514819D01*
X121110000Y-80514819D02*
X121014762Y-80657676D01*
X121014762Y-80657676D02*
X120919524Y-80752914D01*
X120919524Y-80752914D02*
X120824286Y-80800533D01*
X125428095Y-81144819D02*
X125428095Y-80144819D01*
X125999523Y-81144819D02*
X125570952Y-80573390D01*
X125999523Y-80144819D02*
X125428095Y-80716247D01*
X133899580Y-87636666D02*
X133947200Y-87684285D01*
X133947200Y-87684285D02*
X133994819Y-87827142D01*
X133994819Y-87827142D02*
X133994819Y-87922380D01*
X133994819Y-87922380D02*
X133947200Y-88065237D01*
X133947200Y-88065237D02*
X133851961Y-88160475D01*
X133851961Y-88160475D02*
X133756723Y-88208094D01*
X133756723Y-88208094D02*
X133566247Y-88255713D01*
X133566247Y-88255713D02*
X133423390Y-88255713D01*
X133423390Y-88255713D02*
X133232914Y-88208094D01*
X133232914Y-88208094D02*
X133137676Y-88160475D01*
X133137676Y-88160475D02*
X133042438Y-88065237D01*
X133042438Y-88065237D02*
X132994819Y-87922380D01*
X132994819Y-87922380D02*
X132994819Y-87827142D01*
X132994819Y-87827142D02*
X133042438Y-87684285D01*
X133042438Y-87684285D02*
X133090057Y-87636666D01*
X133994819Y-86684285D02*
X133994819Y-87255713D01*
X133994819Y-86969999D02*
X132994819Y-86969999D01*
X132994819Y-86969999D02*
X133137676Y-87065237D01*
X133137676Y-87065237D02*
X133232914Y-87160475D01*
X133232914Y-87160475D02*
X133280533Y-87255713D01*
X154314819Y-81483333D02*
X155029104Y-81483333D01*
X155029104Y-81483333D02*
X155171961Y-81530952D01*
X155171961Y-81530952D02*
X155267200Y-81626190D01*
X155267200Y-81626190D02*
X155314819Y-81769047D01*
X155314819Y-81769047D02*
X155314819Y-81864285D01*
X155314819Y-80483333D02*
X155314819Y-81054761D01*
X155314819Y-80769047D02*
X154314819Y-80769047D01*
X154314819Y-80769047D02*
X154457676Y-80864285D01*
X154457676Y-80864285D02*
X154552914Y-80959523D01*
X154552914Y-80959523D02*
X154600533Y-81054761D01*
X147863333Y-82744819D02*
X147530000Y-82268628D01*
X147291905Y-82744819D02*
X147291905Y-81744819D01*
X147291905Y-81744819D02*
X147672857Y-81744819D01*
X147672857Y-81744819D02*
X147768095Y-81792438D01*
X147768095Y-81792438D02*
X147815714Y-81840057D01*
X147815714Y-81840057D02*
X147863333Y-81935295D01*
X147863333Y-81935295D02*
X147863333Y-82078152D01*
X147863333Y-82078152D02*
X147815714Y-82173390D01*
X147815714Y-82173390D02*
X147768095Y-82221009D01*
X147768095Y-82221009D02*
X147672857Y-82268628D01*
X147672857Y-82268628D02*
X147291905Y-82268628D01*
X148815714Y-82744819D02*
X148244286Y-82744819D01*
X148530000Y-82744819D02*
X148530000Y-81744819D01*
X148530000Y-81744819D02*
X148434762Y-81887676D01*
X148434762Y-81887676D02*
X148339524Y-81982914D01*
X148339524Y-81982914D02*
X148244286Y-82030533D01*
X136144819Y-96761904D02*
X136954342Y-96761904D01*
X136954342Y-96761904D02*
X137049580Y-96714285D01*
X137049580Y-96714285D02*
X137097200Y-96666666D01*
X137097200Y-96666666D02*
X137144819Y-96571428D01*
X137144819Y-96571428D02*
X137144819Y-96380952D01*
X137144819Y-96380952D02*
X137097200Y-96285714D01*
X137097200Y-96285714D02*
X137049580Y-96238095D01*
X137049580Y-96238095D02*
X136954342Y-96190476D01*
X136954342Y-96190476D02*
X136144819Y-96190476D01*
X137144819Y-95190476D02*
X137144819Y-95761904D01*
X137144819Y-95476190D02*
X136144819Y-95476190D01*
X136144819Y-95476190D02*
X136287676Y-95571428D01*
X136287676Y-95571428D02*
X136382914Y-95666666D01*
X136382914Y-95666666D02*
X136430533Y-95761904D01*
%TO.C,J3*%
D11*
X106140000Y-81700000D02*
X108950000Y-81700000D01*
X106140000Y-87760000D02*
X106140000Y-81700000D01*
X106140000Y-94920000D02*
X106140000Y-91860000D01*
X110250000Y-81510000D02*
X112250000Y-81510000D01*
X113550000Y-81700000D02*
X116360000Y-81700000D01*
X116360000Y-81700000D02*
X116360000Y-87760000D01*
X116360000Y-91860000D02*
X116360000Y-94920000D01*
X116360000Y-94920000D02*
X106140000Y-94920000D01*
%TO.C,C4*%
X141320000Y-85110000D02*
X141657000Y-85110000D01*
X141320000Y-90350000D02*
X141320000Y-85110000D01*
X141657000Y-90350000D02*
X141320000Y-90350000D01*
X143723000Y-85110000D02*
X144060000Y-85110000D01*
X144060000Y-85110000D02*
X144060000Y-90350000D01*
X144060000Y-90350000D02*
X143723000Y-90350000D01*
%TO.C,C2*%
X135050000Y-78490000D02*
X136590000Y-78490000D01*
X135050000Y-78530000D02*
X136590000Y-78530000D01*
X135051000Y-78450000D02*
X136590000Y-78450000D01*
X135053000Y-78410000D02*
X136590000Y-78410000D01*
X135055000Y-78370000D02*
X136590000Y-78370000D01*
X135058000Y-78330000D02*
X136590000Y-78330000D01*
X135061000Y-78290000D02*
X136590000Y-78290000D01*
X135065000Y-78250000D02*
X136590000Y-78250000D01*
X135070000Y-78210000D02*
X136590000Y-78210000D01*
X135075000Y-78170000D02*
X136590000Y-78170000D01*
X135081000Y-78130000D02*
X136590000Y-78130000D01*
X135087000Y-78090000D02*
X136590000Y-78090000D01*
X135094000Y-78050000D02*
X136590000Y-78050000D01*
X135102000Y-78010000D02*
X136590000Y-78010000D01*
X135111000Y-77970000D02*
X136590000Y-77970000D01*
X135120000Y-77930000D02*
X136590000Y-77930000D01*
X135129000Y-77890000D02*
X136590000Y-77890000D01*
X135140000Y-77850000D02*
X136590000Y-77850000D01*
X135151000Y-77810000D02*
X136590000Y-77810000D01*
X135163000Y-77770000D02*
X136590000Y-77770000D01*
X135175000Y-77730000D02*
X136590000Y-77730000D01*
X135188000Y-77690000D02*
X136590000Y-77690000D01*
X135202000Y-77650000D02*
X136590000Y-77650000D01*
X135217000Y-77610000D02*
X136590000Y-77610000D01*
X135232000Y-77570000D02*
X136590000Y-77570000D01*
X135248000Y-77530000D02*
X136590000Y-77530000D01*
X135265000Y-77490000D02*
X136590000Y-77490000D01*
X135283000Y-77450000D02*
X136590000Y-77450000D01*
X135301000Y-77410000D02*
X136590000Y-77410000D01*
X135321000Y-77370000D02*
X136590000Y-77370000D01*
X135341000Y-77330000D02*
X136590000Y-77330000D01*
X135362000Y-77290000D02*
X136590000Y-77290000D01*
X135384000Y-77250000D02*
X136590000Y-77250000D01*
X135407000Y-77210000D02*
X136590000Y-77210000D01*
X135431000Y-77170000D02*
X136590000Y-77170000D01*
X135455000Y-77130000D02*
X136590000Y-77130000D01*
X135481000Y-77090000D02*
X136590000Y-77090000D01*
X135508000Y-77050000D02*
X136590000Y-77050000D01*
X135536000Y-77010000D02*
X136590000Y-77010000D01*
X135565000Y-76970000D02*
X136590000Y-76970000D01*
X135595000Y-76930000D02*
X136590000Y-76930000D01*
X135627000Y-76890000D02*
X136590000Y-76890000D01*
X135660000Y-76850000D02*
X136590000Y-76850000D01*
X135694000Y-76810000D02*
X136590000Y-76810000D01*
X135729000Y-76770000D02*
X136590000Y-76770000D01*
X135766000Y-76730000D02*
X136590000Y-76730000D01*
X135805000Y-76690000D02*
X136590000Y-76690000D01*
X135845000Y-76650000D02*
X136590000Y-76650000D01*
X135887000Y-76610000D02*
X136590000Y-76610000D01*
X135905000Y-81084775D02*
X136405000Y-81084775D01*
X135931000Y-76570000D02*
X136590000Y-76570000D01*
X135978000Y-76530000D02*
X136590000Y-76530000D01*
X136026000Y-76490000D02*
X139234000Y-76490000D01*
X136077000Y-76450000D02*
X139183000Y-76450000D01*
X136131000Y-76410000D02*
X139129000Y-76410000D01*
X136155000Y-81334775D02*
X136155000Y-80834775D01*
X136187000Y-76370000D02*
X139073000Y-76370000D01*
X136247000Y-76330000D02*
X139013000Y-76330000D01*
X136311000Y-76290000D02*
X138949000Y-76290000D01*
X136379000Y-76250000D02*
X138881000Y-76250000D01*
X136453000Y-76210000D02*
X138807000Y-76210000D01*
X136532000Y-76170000D02*
X138728000Y-76170000D01*
X136619000Y-76130000D02*
X138641000Y-76130000D01*
X136716000Y-76090000D02*
X138544000Y-76090000D01*
X136825000Y-76050000D02*
X138435000Y-76050000D01*
X136953000Y-76010000D02*
X138307000Y-76010000D01*
X137113000Y-75970000D02*
X138147000Y-75970000D01*
X137347000Y-75930000D02*
X137913000Y-75930000D01*
X138670000Y-76530000D02*
X139282000Y-76530000D01*
X138670000Y-76570000D02*
X139329000Y-76570000D01*
X138670000Y-76610000D02*
X139373000Y-76610000D01*
X138670000Y-76650000D02*
X139415000Y-76650000D01*
X138670000Y-76690000D02*
X139455000Y-76690000D01*
X138670000Y-76730000D02*
X139494000Y-76730000D01*
X138670000Y-76770000D02*
X139531000Y-76770000D01*
X138670000Y-76810000D02*
X139566000Y-76810000D01*
X138670000Y-76850000D02*
X139600000Y-76850000D01*
X138670000Y-76890000D02*
X139633000Y-76890000D01*
X138670000Y-76930000D02*
X139665000Y-76930000D01*
X138670000Y-76970000D02*
X139695000Y-76970000D01*
X138670000Y-77010000D02*
X139724000Y-77010000D01*
X138670000Y-77050000D02*
X139752000Y-77050000D01*
X138670000Y-77090000D02*
X139779000Y-77090000D01*
X138670000Y-77130000D02*
X139805000Y-77130000D01*
X138670000Y-77170000D02*
X139829000Y-77170000D01*
X138670000Y-77210000D02*
X139853000Y-77210000D01*
X138670000Y-77250000D02*
X139876000Y-77250000D01*
X138670000Y-77290000D02*
X139898000Y-77290000D01*
X138670000Y-77330000D02*
X139919000Y-77330000D01*
X138670000Y-77370000D02*
X139939000Y-77370000D01*
X138670000Y-77410000D02*
X139959000Y-77410000D01*
X138670000Y-77450000D02*
X139977000Y-77450000D01*
X138670000Y-77490000D02*
X139995000Y-77490000D01*
X138670000Y-77530000D02*
X140012000Y-77530000D01*
X138670000Y-77570000D02*
X140028000Y-77570000D01*
X138670000Y-77610000D02*
X140043000Y-77610000D01*
X138670000Y-77650000D02*
X140058000Y-77650000D01*
X138670000Y-77690000D02*
X140072000Y-77690000D01*
X138670000Y-77730000D02*
X140085000Y-77730000D01*
X138670000Y-77770000D02*
X140097000Y-77770000D01*
X138670000Y-77810000D02*
X140109000Y-77810000D01*
X138670000Y-77850000D02*
X140120000Y-77850000D01*
X138670000Y-77890000D02*
X140131000Y-77890000D01*
X138670000Y-77930000D02*
X140140000Y-77930000D01*
X138670000Y-77970000D02*
X140149000Y-77970000D01*
X138670000Y-78010000D02*
X140158000Y-78010000D01*
X138670000Y-78050000D02*
X140166000Y-78050000D01*
X138670000Y-78090000D02*
X140173000Y-78090000D01*
X138670000Y-78130000D02*
X140179000Y-78130000D01*
X138670000Y-78170000D02*
X140185000Y-78170000D01*
X138670000Y-78210000D02*
X140190000Y-78210000D01*
X138670000Y-78250000D02*
X140195000Y-78250000D01*
X138670000Y-78290000D02*
X140199000Y-78290000D01*
X138670000Y-78330000D02*
X140202000Y-78330000D01*
X138670000Y-78370000D02*
X140205000Y-78370000D01*
X138670000Y-78410000D02*
X140207000Y-78410000D01*
X138670000Y-78450000D02*
X140209000Y-78450000D01*
X138670000Y-78490000D02*
X140210000Y-78490000D01*
X138670000Y-78530000D02*
X140210000Y-78530000D01*
X140250000Y-78530000D02*
G75*
G02*
X135010000Y-78530000I-2620000J0D01*
G01*
X135010000Y-78530000D02*
G75*
G02*
X140250000Y-78530000I2620000J0D01*
G01*
%TO.C,C3*%
X117520000Y-97239000D02*
X117520000Y-96041000D01*
X117560000Y-97502000D02*
X117560000Y-95778000D01*
X117600000Y-97702000D02*
X117600000Y-95578000D01*
X117640000Y-97870000D02*
X117640000Y-95410000D01*
X117680000Y-98017000D02*
X117680000Y-95263000D01*
X117720000Y-98149000D02*
X117720000Y-95131000D01*
X117760000Y-98270000D02*
X117760000Y-95010000D01*
X117800000Y-98382000D02*
X117800000Y-94898000D01*
X117840000Y-98486000D02*
X117840000Y-94794000D01*
X117880000Y-98584000D02*
X117880000Y-94696000D01*
X117920000Y-98677000D02*
X117920000Y-94603000D01*
X117960000Y-98764000D02*
X117960000Y-94516000D01*
X118000000Y-98848000D02*
X118000000Y-94432000D01*
X118040000Y-98928000D02*
X118040000Y-94352000D01*
X118080000Y-99005000D02*
X118080000Y-94275000D01*
X118120000Y-99079000D02*
X118120000Y-94201000D01*
X118160000Y-99150000D02*
X118160000Y-94130000D01*
X118200000Y-99218000D02*
X118200000Y-94062000D01*
X118240000Y-99284000D02*
X118240000Y-93996000D01*
X118280000Y-99348000D02*
X118280000Y-93932000D01*
X118320000Y-99410000D02*
X118320000Y-93870000D01*
X118360000Y-99470000D02*
X118360000Y-93810000D01*
X118400000Y-99528000D02*
X118400000Y-93752000D01*
X118440000Y-99585000D02*
X118440000Y-93695000D01*
X118480000Y-99640000D02*
X118480000Y-93640000D01*
X118520000Y-99693000D02*
X118520000Y-93587000D01*
X118560000Y-99745000D02*
X118560000Y-93535000D01*
X118600000Y-99796000D02*
X118600000Y-93484000D01*
X118640000Y-99845000D02*
X118640000Y-93435000D01*
X118680000Y-99894000D02*
X118680000Y-93386000D01*
X118720000Y-99941000D02*
X118720000Y-93339000D01*
X118760000Y-99987000D02*
X118760000Y-93293000D01*
X118800000Y-100031000D02*
X118800000Y-93249000D01*
X118840000Y-100075000D02*
X118840000Y-93205000D01*
X118880000Y-95400000D02*
X118880000Y-93162000D01*
X118880000Y-100118000D02*
X118880000Y-97880000D01*
X118920000Y-95400000D02*
X118920000Y-93120000D01*
X118920000Y-100160000D02*
X118920000Y-97880000D01*
X118960000Y-95400000D02*
X118960000Y-93079000D01*
X118960000Y-100201000D02*
X118960000Y-97880000D01*
X119000000Y-95400000D02*
X119000000Y-93039000D01*
X119000000Y-100241000D02*
X119000000Y-97880000D01*
X119040000Y-95400000D02*
X119040000Y-93000000D01*
X119040000Y-100280000D02*
X119040000Y-97880000D01*
X119080000Y-95400000D02*
X119080000Y-92962000D01*
X119080000Y-100318000D02*
X119080000Y-97880000D01*
X119120000Y-95400000D02*
X119120000Y-92924000D01*
X119120000Y-100356000D02*
X119120000Y-97880000D01*
X119160000Y-95400000D02*
X119160000Y-92888000D01*
X119160000Y-100392000D02*
X119160000Y-97880000D01*
X119200000Y-95400000D02*
X119200000Y-92852000D01*
X119200000Y-100428000D02*
X119200000Y-97880000D01*
X119240000Y-95400000D02*
X119240000Y-92817000D01*
X119240000Y-100463000D02*
X119240000Y-97880000D01*
X119280000Y-95400000D02*
X119280000Y-92782000D01*
X119280000Y-100498000D02*
X119280000Y-97880000D01*
X119320000Y-95400000D02*
X119320000Y-92749000D01*
X119320000Y-100531000D02*
X119320000Y-97880000D01*
X119360000Y-95400000D02*
X119360000Y-92716000D01*
X119360000Y-100564000D02*
X119360000Y-97880000D01*
X119400000Y-95400000D02*
X119400000Y-92683000D01*
X119400000Y-100597000D02*
X119400000Y-97880000D01*
X119440000Y-95400000D02*
X119440000Y-92652000D01*
X119440000Y-100628000D02*
X119440000Y-97880000D01*
X119480000Y-95400000D02*
X119480000Y-92620000D01*
X119480000Y-100660000D02*
X119480000Y-97880000D01*
X119520000Y-95400000D02*
X119520000Y-92590000D01*
X119520000Y-100690000D02*
X119520000Y-97880000D01*
X119560000Y-95400000D02*
X119560000Y-92560000D01*
X119560000Y-100720000D02*
X119560000Y-97880000D01*
X119600000Y-95400000D02*
X119600000Y-92531000D01*
X119600000Y-100749000D02*
X119600000Y-97880000D01*
X119640000Y-95400000D02*
X119640000Y-92502000D01*
X119640000Y-100778000D02*
X119640000Y-97880000D01*
X119680000Y-95400000D02*
X119680000Y-92474000D01*
X119680000Y-100806000D02*
X119680000Y-97880000D01*
X119720000Y-95400000D02*
X119720000Y-92447000D01*
X119720000Y-100833000D02*
X119720000Y-97880000D01*
X119760000Y-95400000D02*
X119760000Y-92420000D01*
X119760000Y-100860000D02*
X119760000Y-97880000D01*
X119800000Y-95400000D02*
X119800000Y-92393000D01*
X119800000Y-100887000D02*
X119800000Y-97880000D01*
X119840000Y-95400000D02*
X119840000Y-92368000D01*
X119840000Y-100912000D02*
X119840000Y-97880000D01*
X119880000Y-95400000D02*
X119880000Y-92342000D01*
X119880000Y-100938000D02*
X119880000Y-97880000D01*
X119920000Y-95400000D02*
X119920000Y-92317000D01*
X119920000Y-100963000D02*
X119920000Y-97880000D01*
X119960000Y-95400000D02*
X119960000Y-92293000D01*
X119960000Y-100987000D02*
X119960000Y-97880000D01*
X120000000Y-95400000D02*
X120000000Y-92269000D01*
X120000000Y-101011000D02*
X120000000Y-97880000D01*
X120040000Y-95400000D02*
X120040000Y-92246000D01*
X120040000Y-101034000D02*
X120040000Y-97880000D01*
X120080000Y-95400000D02*
X120080000Y-92223000D01*
X120080000Y-101057000D02*
X120080000Y-97880000D01*
X120120000Y-95400000D02*
X120120000Y-92201000D01*
X120120000Y-101079000D02*
X120120000Y-97880000D01*
X120160000Y-95400000D02*
X120160000Y-92179000D01*
X120160000Y-101101000D02*
X120160000Y-97880000D01*
X120200000Y-95400000D02*
X120200000Y-92157000D01*
X120200000Y-101123000D02*
X120200000Y-97880000D01*
X120240000Y-95400000D02*
X120240000Y-92136000D01*
X120240000Y-101144000D02*
X120240000Y-97880000D01*
X120280000Y-95400000D02*
X120280000Y-92116000D01*
X120280000Y-101164000D02*
X120280000Y-97880000D01*
X120320000Y-95400000D02*
X120320000Y-92096000D01*
X120320000Y-101184000D02*
X120320000Y-97880000D01*
X120360000Y-95400000D02*
X120360000Y-92076000D01*
X120360000Y-101204000D02*
X120360000Y-97880000D01*
X120400000Y-95400000D02*
X120400000Y-92057000D01*
X120400000Y-101223000D02*
X120400000Y-97880000D01*
X120440000Y-95400000D02*
X120440000Y-92038000D01*
X120440000Y-101242000D02*
X120440000Y-97880000D01*
X120480000Y-95400000D02*
X120480000Y-92020000D01*
X120480000Y-101260000D02*
X120480000Y-97880000D01*
X120520000Y-95400000D02*
X120520000Y-92002000D01*
X120520000Y-101278000D02*
X120520000Y-97880000D01*
X120560000Y-95400000D02*
X120560000Y-91984000D01*
X120560000Y-101296000D02*
X120560000Y-97880000D01*
X120600000Y-95400000D02*
X120600000Y-91967000D01*
X120600000Y-101313000D02*
X120600000Y-97880000D01*
X120640000Y-95400000D02*
X120640000Y-91950000D01*
X120640000Y-101330000D02*
X120640000Y-97880000D01*
X120680000Y-95400000D02*
X120680000Y-91934000D01*
X120680000Y-101346000D02*
X120680000Y-97880000D01*
X120720000Y-95400000D02*
X120720000Y-91918000D01*
X120720000Y-101362000D02*
X120720000Y-97880000D01*
X120760000Y-95400000D02*
X120760000Y-91902000D01*
X120760000Y-101378000D02*
X120760000Y-97880000D01*
X120800000Y-95400000D02*
X120800000Y-91887000D01*
X120800000Y-101393000D02*
X120800000Y-97880000D01*
X120840000Y-95400000D02*
X120840000Y-91872000D01*
X120840000Y-101408000D02*
X120840000Y-97880000D01*
X120880000Y-95400000D02*
X120880000Y-91858000D01*
X120880000Y-101422000D02*
X120880000Y-97880000D01*
X120920000Y-95400000D02*
X120920000Y-91843000D01*
X120920000Y-101437000D02*
X120920000Y-97880000D01*
X120960000Y-95400000D02*
X120960000Y-91830000D01*
X120960000Y-101450000D02*
X120960000Y-97880000D01*
X121000000Y-95400000D02*
X121000000Y-91816000D01*
X121000000Y-101464000D02*
X121000000Y-97880000D01*
X121040000Y-95400000D02*
X121040000Y-91803000D01*
X121040000Y-101477000D02*
X121040000Y-97880000D01*
X121080000Y-95400000D02*
X121080000Y-91791000D01*
X121080000Y-101489000D02*
X121080000Y-97880000D01*
X121120000Y-95400000D02*
X121120000Y-91779000D01*
X121120000Y-101501000D02*
X121120000Y-97880000D01*
X121160000Y-95400000D02*
X121160000Y-91767000D01*
X121160000Y-101513000D02*
X121160000Y-97880000D01*
X121200000Y-95400000D02*
X121200000Y-91755000D01*
X121200000Y-101525000D02*
X121200000Y-97880000D01*
X121240000Y-95400000D02*
X121240000Y-91744000D01*
X121240000Y-101536000D02*
X121240000Y-97880000D01*
X121280000Y-95400000D02*
X121280000Y-91733000D01*
X121280000Y-101547000D02*
X121280000Y-97880000D01*
X121320000Y-95400000D02*
X121320000Y-91723000D01*
X121320000Y-101557000D02*
X121320000Y-97880000D01*
X121360000Y-101568000D02*
X121360000Y-91712000D01*
X121400000Y-101577000D02*
X121400000Y-91703000D01*
X121440000Y-101587000D02*
X121440000Y-91693000D01*
X121480000Y-101596000D02*
X121480000Y-91684000D01*
X121520000Y-101605000D02*
X121520000Y-91675000D01*
X121560000Y-101613000D02*
X121560000Y-91667000D01*
X121600000Y-101621000D02*
X121600000Y-91659000D01*
X121640000Y-101629000D02*
X121640000Y-91651000D01*
X121680000Y-101637000D02*
X121680000Y-91643000D01*
X121720000Y-101644000D02*
X121720000Y-91636000D01*
X121760000Y-101651000D02*
X121760000Y-91629000D01*
X121800000Y-101657000D02*
X121800000Y-91623000D01*
X121840000Y-101663000D02*
X121840000Y-91617000D01*
X121880000Y-101669000D02*
X121880000Y-91611000D01*
X121920000Y-101675000D02*
X121920000Y-91605000D01*
X121960000Y-101680000D02*
X121960000Y-91600000D01*
X122000000Y-101685000D02*
X122000000Y-91595000D01*
X122040000Y-101689000D02*
X122040000Y-91591000D01*
X122080000Y-101694000D02*
X122080000Y-91586000D01*
X122120000Y-101697000D02*
X122120000Y-91583000D01*
X122160000Y-101701000D02*
X122160000Y-91579000D01*
X122200000Y-101704000D02*
X122200000Y-91576000D01*
X122240000Y-101707000D02*
X122240000Y-91573000D01*
X122280000Y-101710000D02*
X122280000Y-91570000D01*
X122320000Y-101712000D02*
X122320000Y-91568000D01*
X122360000Y-101714000D02*
X122360000Y-91566000D01*
X122400000Y-101716000D02*
X122400000Y-91564000D01*
X122440000Y-101717000D02*
X122440000Y-91563000D01*
X122480000Y-101719000D02*
X122480000Y-91561000D01*
X122520000Y-101719000D02*
X122520000Y-91561000D01*
X122560000Y-101720000D02*
X122560000Y-91560000D01*
X122600000Y-101720000D02*
X122600000Y-91560000D01*
X127579646Y-100015000D02*
X127579646Y-99015000D01*
X128079646Y-99515000D02*
X127079646Y-99515000D01*
X127720000Y-96640000D02*
G75*
G02*
X117480000Y-96640000I-5120000J0D01*
G01*
X117480000Y-96640000D02*
G75*
G02*
X127720000Y-96640000I5120000J0D01*
G01*
%TO.C,D2*%
X147930000Y-96975000D02*
X147930000Y-100065000D01*
X147930000Y-96975170D02*
G75*
G02*
X153480000Y-98520000I2560000J-1544830D01*
G01*
X153480000Y-98520000D02*
G75*
G02*
X147930000Y-100064830I-2990000J0D01*
G01*
X152990000Y-98520000D02*
G75*
G02*
X147990000Y-98520000I-2500000J0D01*
G01*
X147990000Y-98520000D02*
G75*
G02*
X152990000Y-98520000I2500000J0D01*
G01*
%TO.C,D1*%
X116870000Y-78590000D02*
X117890000Y-78590000D01*
X122310000Y-80060000D02*
X122310000Y-77120000D01*
X122430000Y-80060000D02*
X122430000Y-77120000D01*
X122550000Y-80060000D02*
X122550000Y-77120000D01*
X124350000Y-78590000D02*
X123330000Y-78590000D01*
X117890000Y-77120000D02*
X123330000Y-77120000D01*
X123330000Y-80060000D01*
X117890000Y-80060000D01*
X117890000Y-77120000D01*
%TO.C,C1*%
X129670000Y-84850000D02*
X130007000Y-84850000D01*
X129670000Y-90090000D02*
X129670000Y-84850000D01*
X130007000Y-90090000D02*
X129670000Y-90090000D01*
X132073000Y-84850000D02*
X132410000Y-84850000D01*
X132410000Y-84850000D02*
X132410000Y-90090000D01*
X132410000Y-90090000D02*
X132073000Y-90090000D01*
%TO.C,J1*%
X146360000Y-83320000D02*
X156400000Y-83320000D01*
X146360000Y-93720000D02*
X146360000Y-83320000D01*
X149380000Y-93720000D02*
X149380000Y-83320000D01*
X154280000Y-93720000D02*
X154280000Y-83320000D01*
X155780000Y-93720000D02*
X155780000Y-83320000D01*
X156400000Y-83320000D02*
X156400000Y-90760000D01*
X156400000Y-91360000D02*
X156400000Y-93720000D01*
X156400000Y-93720000D02*
X146360000Y-93720000D01*
X157010000Y-91500000D02*
X156400000Y-91060000D01*
X157010000Y-90620000D01*
X157010000Y-91500000D01*
G36*
X157010000Y-91500000D02*
G01*
X156400000Y-91060000D01*
X157010000Y-90620000D01*
X157010000Y-91500000D01*
G37*
%TO.C,R1*%
X144760000Y-78550000D02*
X144760000Y-78880000D01*
X144760000Y-81290000D02*
X144760000Y-80960000D01*
X151300000Y-78550000D02*
X144760000Y-78550000D01*
X151300000Y-78880000D02*
X151300000Y-78550000D01*
X151300000Y-80960000D02*
X151300000Y-81290000D01*
X151300000Y-81290000D02*
X144760000Y-81290000D01*
%TO.C,U1*%
X134570000Y-82420000D02*
X139190000Y-82420000D01*
X134570000Y-85680000D02*
X135950000Y-85680000D01*
X134570000Y-89380000D02*
X135950000Y-89380000D01*
X134570000Y-92640000D02*
X134570000Y-82420000D01*
X135950000Y-92640000D02*
X135950000Y-82420000D01*
X139190000Y-82420000D02*
X139190000Y-92640000D01*
X139190000Y-92640000D02*
X134570000Y-92640000D01*
%TD*%
M02*
