%TF.GenerationSoftware,KiCad,Pcbnew,10.0.1*%
%TF.CreationDate,2026-05-18T15:13:34-07:00*%
%TF.ProjectId,5V_Voltage_Stabilizer,35565f56-6f6c-4746-9167-655f53746162,rev?*%
%TF.SameCoordinates,Original*%
%TF.FileFunction,Copper,L1,Top*%
%TF.FilePolarity,Positive*%
%FSLAX46Y46*%
G04 Gerber Fmt 4.6, Leading zero omitted, Abs format (unit mm)*
G04 Created by KiCad (PCBNEW 10.0.1) date 2026-05-18 15:13:34*
%MOMM*%
%LPD*%
G01*
G04 APERTURE LIST*
G04 Aperture macros list*
%AMRoundRect*
0 Rectangle with rounded corners*
0 $1 Rounding radius*
0 $2 $3 $4 $5 $6 $7 $8 $9 X,Y pos of 4 corners*
0 Add a 4 corners polygon primitive as box body*
4,1,4,$2,$3,$4,$5,$6,$7,$8,$9,$2,$3,0*
0 Add four circle primitives for the rounded corners*
1,1,$1+$1,$2,$3*
1,1,$1+$1,$4,$5*
1,1,$1+$1,$6,$7*
1,1,$1+$1,$8,$9*
0 Add four rect primitives between the rounded corners*
20,1,$1+$1,$2,$3,$4,$5,0*
20,1,$1+$1,$4,$5,$6,$7,0*
20,1,$1+$1,$6,$7,$8,$9,0*
20,1,$1+$1,$8,$9,$2,$3,0*%
G04 Aperture macros list end*
%TA.AperFunction,ComponentPad*%
%ADD10R,4.000000X2.000000*%
%TD*%
%TA.AperFunction,ComponentPad*%
%ADD11O,3.300000X2.000000*%
%TD*%
%TA.AperFunction,ComponentPad*%
%ADD12O,2.000000X3.500000*%
%TD*%
%TA.AperFunction,ComponentPad*%
%ADD13C,1.600000*%
%TD*%
%TA.AperFunction,ComponentPad*%
%ADD14RoundRect,0.250000X0.550000X-0.550000X0.550000X0.550000X-0.550000X0.550000X-0.550000X-0.550000X0*%
%TD*%
%TA.AperFunction,ComponentPad*%
%ADD15RoundRect,0.250000X0.750000X0.750000X-0.750000X0.750000X-0.750000X-0.750000X0.750000X-0.750000X0*%
%TD*%
%TA.AperFunction,ComponentPad*%
%ADD16C,2.000000*%
%TD*%
%TA.AperFunction,ComponentPad*%
%ADD17R,1.800000X1.800000*%
%TD*%
%TA.AperFunction,ComponentPad*%
%ADD18C,1.800000*%
%TD*%
%TA.AperFunction,ComponentPad*%
%ADD19RoundRect,0.249999X0.850001X0.850001X-0.850001X0.850001X-0.850001X-0.850001X0.850001X-0.850001X0*%
%TD*%
%TA.AperFunction,ComponentPad*%
%ADD20C,2.200000*%
%TD*%
%TA.AperFunction,ComponentPad*%
%ADD21RoundRect,0.250000X1.050000X-1.050000X1.050000X1.050000X-1.050000X1.050000X-1.050000X-1.050000X0*%
%TD*%
%TA.AperFunction,ComponentPad*%
%ADD22C,2.600000*%
%TD*%
%TA.AperFunction,ComponentPad*%
%ADD23R,2.000000X1.905000*%
%TD*%
%TA.AperFunction,ComponentPad*%
%ADD24O,2.000000X1.905000*%
%TD*%
%TA.AperFunction,Conductor*%
%ADD25C,0.200000*%
%TD*%
%TA.AperFunction,Conductor*%
%ADD26C,1.000000*%
%TD*%
%TA.AperFunction,Conductor*%
%ADD27C,0.300000*%
%TD*%
G04 APERTURE END LIST*
D10*
%TO.P,J3,1*%
%TO.N,Net-(D1-A)*%
X111250000Y-82810000D03*
D11*
%TO.P,J3,2*%
%TO.N,GND*%
X111250000Y-88810000D03*
D12*
%TO.P,J3,MP,MountPin_MP*%
%TO.N,unconnected-(J3-MountPin-PadMP)*%
X106750000Y-89810000D03*
X115750000Y-89810000D03*
%TD*%
D13*
%TO.P,C4,1*%
%TO.N,Net-(J1-Pin_1)*%
X142690000Y-85230000D03*
%TO.P,C4,2*%
%TO.N,GND*%
X142690000Y-90230000D03*
%TD*%
D14*
%TO.P,C2,1*%
%TO.N,Net-(J1-Pin_1)*%
X137630000Y-79530000D03*
D13*
%TO.P,C2,2*%
%TO.N,GND*%
X137630000Y-77530000D03*
%TD*%
D15*
%TO.P,C3,1*%
%TO.N,Net-(D1-K)*%
X125100000Y-96640000D03*
D16*
%TO.P,C3,2*%
%TO.N,GND*%
X120100000Y-96640000D03*
%TD*%
D17*
%TO.P,D2,1,K_1*%
%TO.N,GND*%
X149220000Y-98520000D03*
D18*
%TO.P,D2,2,A_2*%
%TO.N,Net-(D2-A)*%
X151760000Y-98520000D03*
%TD*%
D19*
%TO.P,D1,1,K_1*%
%TO.N,Net-(D1-K)*%
X125690000Y-78590000D03*
D20*
%TO.P,D1,2,A_2*%
%TO.N,Net-(D1-A)*%
X115530000Y-78590000D03*
%TD*%
D13*
%TO.P,C1,1*%
%TO.N,Net-(D1-K)*%
X131040000Y-84970000D03*
%TO.P,C1,2*%
%TO.N,GND*%
X131040000Y-89970000D03*
%TD*%
D21*
%TO.P,J1,1,Pin_1_1*%
%TO.N,Net-(J1-Pin_1)*%
X151680000Y-91060000D03*
D22*
%TO.P,J1,2,Pin_2_2*%
%TO.N,GND*%
X151680000Y-85980000D03*
%TD*%
D13*
%TO.P,R1,1*%
%TO.N,Net-(D2-A)*%
X151840000Y-79920000D03*
%TO.P,R1,2*%
%TO.N,Net-(J1-Pin_1)*%
X144220000Y-79920000D03*
%TD*%
D23*
%TO.P,U1,1,IN_1*%
%TO.N,Net-(D1-K)*%
X137830000Y-90070000D03*
D24*
%TO.P,U1,2,GND_2*%
%TO.N,GND*%
X137830000Y-87530000D03*
%TO.P,U1,3,OUT_3*%
%TO.N,Net-(J1-Pin_1)*%
X137830000Y-84990000D03*
%TD*%
%TO.N,unconnected-(J3-MountPin-PadMP)*%
D25*
X107050000Y-90110000D02*
X106750000Y-89810000D01*
X115450000Y-90110000D02*
X107050000Y-90110000D01*
X115750000Y-89810000D02*
X115450000Y-90110000D01*
%TO.N,Net-(D1-A)*%
D26*
X112640000Y-78590000D02*
X111250000Y-79980000D01*
X111250000Y-79980000D02*
X111250000Y-82810000D01*
X115530000Y-78590000D02*
X112640000Y-78590000D01*
%TO.N,Net-(D1-K)*%
X125690000Y-81630000D02*
X129030000Y-84970000D01*
X125690000Y-78590000D02*
X125690000Y-81630000D01*
X125100000Y-96640000D02*
X125100000Y-90910000D01*
X125100000Y-90910000D02*
X131040000Y-84970000D01*
X132730000Y-84970000D02*
X137830000Y-90070000D01*
X129030000Y-84970000D02*
X131040000Y-84970000D01*
X131040000Y-84970000D02*
X132730000Y-84970000D01*
%TO.N,Net-(J1-Pin_1)*%
D27*
X144220000Y-83700000D02*
X142690000Y-85230000D01*
D25*
X142450000Y-84990000D02*
X142690000Y-85230000D01*
D26*
X148520000Y-91060000D02*
X142690000Y-85230000D01*
D25*
X137830000Y-79730000D02*
X137630000Y-79530000D01*
D26*
X137830000Y-84990000D02*
X137830000Y-79730000D01*
X137830000Y-84990000D02*
X142450000Y-84990000D01*
X151680000Y-91060000D02*
X148520000Y-91060000D01*
D27*
X144220000Y-79920000D02*
X144220000Y-83700000D01*
%TO.N,Net-(D2-A)*%
X151840000Y-79920000D02*
X155820000Y-79920000D01*
X156760000Y-80860000D02*
X156760000Y-93520000D01*
X155820000Y-79920000D02*
X156760000Y-80860000D01*
X156760000Y-93520000D02*
X151760000Y-98520000D01*
%TO.N,Net-(D1-A)*%
D25*
X115190000Y-78930000D02*
X115530000Y-78590000D01*
%TD*%
M02*
